<svg width="904" height="295" viewBox="0 3 904 295" fill="none" xmlns="http://www.w3.org/2000/svg">
<g filter="url(#filter0_d_10_1760)">
<g clip-path="url(#clip0_10_1760)">
<g clip-path="url(#clip1_10_1760)" filter="url(#filter1_d_10_1760)">
<g filter="url(#filter2_d_10_1760)">
<rect x="4" y="3" width="896" height="295" rx="30" fill="#005BEA" fill-opacity="0.05" shape-rendering="crispEdges"/>
</g>
<path d="M653 182H637C635.897 182 635 182.897 635 184V196C635 197.103 635.897 198 637 198H640V201.767L646.277 198H653C654.103 198 655 197.103 655 196V184C655 182.897 654.103 182 653 182ZM653 196H645.723L642 198.233V196H637V184H653V196Z" fill="#005BEA" fill-opacity="0.03"/>
<path d="M726.333 297.833H695.667C693.553 297.833 691.833 299.553 691.833 301.667V324.667C691.833 326.781 693.553 328.5 695.667 328.5H701.417V335.72L713.448 328.5H726.333C728.447 328.5 730.167 326.781 730.167 324.667V301.667C730.167 299.553 728.447 297.833 726.333 297.833ZM726.333 324.667H712.386L705.25 328.947V324.667H695.667V301.667H726.333V324.667Z" fill="#005BEA" fill-opacity="0.03"/>
<path d="M621 278H605C603.897 278 603 278.897 603 280V292C603 293.103 603.897 294 605 294H608V297.767L614.277 294H621C622.103 294 623 293.103 623 292V280C623 278.897 622.103 278 621 278ZM621 292H613.723L610 294.233V292H605V280H621V292Z" fill="#005BEA" fill-opacity="0.03"/>
<path d="M724.333 183.167H711.667C706.427 183.167 702.167 187.427 702.167 192.667V213.25C702.167 213.67 702.334 214.073 702.63 214.37C702.927 214.666 703.33 214.833 703.75 214.833H724.333C729.573 214.833 733.833 210.573 733.833 205.333V192.667C733.833 187.427 729.573 183.167 724.333 183.167ZM730.667 205.333C730.667 208.826 727.826 211.667 724.333 211.667H705.333V192.667C705.333 189.174 708.174 186.333 711.667 186.333H724.333C727.826 186.333 730.667 189.174 730.667 192.667V205.333Z" fill="#005BEA" fill-opacity="0.03"/>
<path d="M710.083 203.729V206.895H713.248L722.003 198.151L718.839 194.988L710.083 203.729ZM723.494 196.66L720.331 193.493L722.742 191.083L725.909 194.248L723.494 196.66Z" fill="#005BEA" fill-opacity="0.03"/>
<path d="M364.691 278.932L397.358 279.03C410.869 279.071 421.891 268.116 421.932 254.604L422.08 205.605C422.083 204.522 421.656 203.482 420.892 202.714C420.129 201.946 419.092 201.512 418.009 201.509L364.926 201.349C351.414 201.308 340.393 212.263 340.352 225.775L340.265 254.358C340.225 267.87 351.18 278.891 364.691 278.932ZM348.518 225.799C348.546 216.791 355.893 209.488 364.901 209.515L413.901 209.663L413.765 254.58C413.738 263.588 406.39 270.891 397.382 270.864L364.716 270.765C355.708 270.738 348.405 263.39 348.432 254.382L348.518 225.799Z" fill="#005BEA" fill-opacity="0.03"/>
<path d="M391.368 234.095C387.986 234.085 385.235 236.819 385.225 240.202C385.215 243.585 387.949 246.335 391.331 246.345C394.714 246.356 397.465 243.622 397.475 240.239C397.485 236.856 394.751 234.106 391.368 234.095Z" fill="#005BEA" fill-opacity="0.03"/>
<path d="M370.952 234.034C367.569 234.023 364.819 236.757 364.808 240.14C364.798 243.523 367.532 246.273 370.915 246.284C374.298 246.294 377.048 243.56 377.058 240.177C377.069 236.794 374.335 234.044 370.952 234.034Z" fill="#005BEA" fill-opacity="0.03"/>
<g clip-path="url(#clip2_10_1760)">
<path d="M586.119 103.534L579.908 95.1911C577.339 91.7402 578.057 86.8446 581.508 84.2757L594.022 74.9597C594.299 74.7538 594.646 74.6662 594.987 74.7162C595.328 74.7662 595.636 74.9497 595.842 75.2263L605.934 88.7839C608.503 92.2349 607.786 97.1304 604.335 99.6993L597.034 105.134C593.583 107.703 588.688 106.985 586.119 103.534ZM602.782 97.6135C605.083 95.9009 605.561 92.6372 603.848 90.3366L594.532 77.8218L583.06 86.3615C580.76 88.0741 580.281 91.3378 581.994 93.6384L588.205 101.982C589.917 104.282 593.181 104.76 595.482 103.048L602.782 97.6135Z" fill="#005BEA" fill-opacity="0.03"/>
<path d="M592.545 88.2157C593.188 89.0798 593.009 90.3016 592.145 90.9448C591.281 91.588 590.059 91.409 589.416 90.545C588.773 89.6809 588.952 88.4591 589.816 87.8159C590.68 87.1727 591.902 87.3517 592.545 88.2157Z" fill="#005BEA" fill-opacity="0.03"/>
<path d="M596.427 93.4302C597.07 94.2943 596.891 95.5161 596.027 96.1593C595.163 96.8025 593.941 96.6235 593.298 95.7594C592.654 94.8954 592.834 93.6735 593.698 93.0303C594.562 92.3871 595.783 92.5662 596.427 93.4302Z" fill="#005BEA" fill-opacity="0.03"/>
</g>
<path d="M841 -9H857V3H842.17L841 4.17V-9ZM841 -11C839.9 -11 839.01 -10.1 839.01 -9L839 9L843 5H857C858.1 5 859 4.1 859 3V-9C859 -10.1 858.1 -11 857 -11H841ZM843 -1H855V1H843V-1ZM843 -4H855V-2H843V-4ZM843 -7H855V-5H843V-7Z" fill="#005BEA" fill-opacity="0.03"/>
<path d="M649.5 237.75H694.5V271.5H677.625L672 277.125L666.375 271.5H649.5V237.75Z" stroke="#005BEA" stroke-opacity="0.03" stroke-width="3" stroke-linecap="round" stroke-linejoin="round"/>
<path d="M670.875 254.625H673.128M682.126 254.625H684.375M659.626 254.625H661.875" stroke="#005BEA" stroke-opacity="0.03" stroke-width="3" stroke-linecap="round"/>
<path d="M581 234H561V249H568.5L571 251.5L573.5 249H581V234Z" stroke="#005BEA" stroke-opacity="0.03" stroke-width="3" stroke-linecap="round" stroke-linejoin="round"/>
<path d="M571.5 241.5H570.499M566.5 241.5H565.5M576.5 241.5H575.5" stroke="#005BEA" stroke-opacity="0.03" stroke-width="3" stroke-linecap="round"/>
<path d="M190.25 324.271V292.417C190.25 291.312 190.689 290.252 191.47 289.47C192.252 288.689 193.312 288.25 194.417 288.25H223.583C224.688 288.25 225.748 288.689 226.53 289.47C227.311 290.252 227.75 291.312 227.75 292.417V313.25C227.75 314.355 227.311 315.415 226.53 316.196C225.748 316.978 224.688 317.417 223.583 317.417H200.585C199.961 317.417 199.344 317.557 198.781 317.828C198.219 318.098 197.724 318.492 197.333 318.979L192.477 325.05C192.315 325.253 192.095 325.4 191.846 325.472C191.597 325.543 191.332 325.536 191.087 325.45C190.843 325.365 190.631 325.205 190.481 324.994C190.331 324.783 190.25 324.53 190.25 324.271V324.271Z" stroke="#005BEA" stroke-opacity="0.03" stroke-width="1.5"/>
<path d="M803.963 318.282C803.964 318.263 803.965 318.245 803.967 318.227L803.963 318.282ZM803.965 318.003C803.966 318.005 803.966 318.007 803.967 318.008V318.003H803.965ZM804.032 321.17C808.495 317.067 809.043 316.743 810.353 316.613C816.273 316.025 820.667 311.683 820.667 306.673C820.667 301.24 815.525 296.668 809 296.668C802.475 296.668 797.333 301.242 797.333 306.673C797.333 309.828 799.292 312.952 802.423 314.935C803.728 315.76 804.02 316.797 803.992 317.898C803.989 317.982 803.984 318.065 803.977 318.148C804.013 318.698 804.03 319.682 804.032 321.172V321.17ZM810.682 319.932C810.373 319.962 807.973 322.058 803.482 326.222C803.243 326.443 802.945 326.59 802.624 326.644C802.303 326.697 801.973 326.656 801.675 326.524C801.377 326.393 801.124 326.177 800.948 325.903C800.771 325.63 800.679 325.311 800.682 324.985C800.715 321.048 800.7 318.803 800.642 318.252C800.612 317.963 800.695 317.785 800.642 317.752C796.847 315.353 794 311.292 794 306.675C794 299.307 800.717 293.333 809 293.333C817.283 293.333 824 299.307 824 306.673C824 313.535 818.175 319.188 810.683 319.932H810.682Z" fill="#005BEA" fill-opacity="0.03"/>
<g clip-path="url(#clip3_10_1760)">
<path d="M762.402 260.962C762.199 261.209 761.979 264.467 761.741 270.739C761.729 271.072 761.619 271.395 761.425 271.666C761.231 271.938 760.962 272.147 760.651 272.267C760.34 272.388 760.001 272.415 759.675 272.344C759.348 272.274 759.05 272.11 758.816 271.872C755.988 268.995 754.35 267.379 753.908 267.021C753.677 266.834 753.608 266.645 753.546 266.659C749.058 267.671 744.052 266.791 740.706 263.445C735.367 258.106 735.906 248.91 741.908 242.908C747.91 236.906 757.106 236.367 762.444 241.705C767.416 246.677 767.292 254.995 762.402 260.962ZM758.482 266.68C758.74 260.472 758.903 259.84 759.758 258.797C763.622 254.081 763.659 247.751 760.029 244.121C756.092 240.183 749.053 240.596 744.325 245.325C739.596 250.053 739.185 257.093 743.121 261.029C745.407 263.315 749.089 264.159 752.796 263.327C754.339 262.979 755.302 263.519 756.08 264.338C756.138 264.4 756.195 264.464 756.25 264.53C756.675 264.902 757.4 265.602 758.48 266.681L758.482 266.68ZM757.608 251.362C756.968 252.003 756.099 252.363 755.193 252.363C754.287 252.363 753.418 252.003 752.778 251.362C752.137 250.722 751.777 249.853 751.777 248.947C751.777 248.041 752.137 247.172 752.778 246.531C753.418 245.891 754.287 245.531 755.193 245.531C756.099 245.531 756.968 245.891 757.608 246.531C758.249 247.172 758.609 248.041 758.609 248.947C758.609 249.853 758.249 250.722 757.608 251.362ZM750.362 258.608C749.722 259.249 748.853 259.609 747.947 259.609C747.041 259.609 746.172 259.249 745.531 258.608C744.891 257.968 744.531 257.099 744.531 256.193C744.531 255.287 744.891 254.418 745.531 253.778C746.172 253.137 747.041 252.777 747.947 252.777C748.853 252.777 749.722 253.137 750.362 253.778C751.003 254.418 751.363 255.287 751.363 256.193C751.363 257.099 751.003 257.968 750.362 258.608Z" fill="#005BEA" fill-opacity="0.03"/>
</g>
<g clip-path="url(#clip4_10_1760)">
<path d="M493.186 310.504L512.674 290.355C513.35 289.656 513.721 288.717 513.704 287.744C513.688 286.772 513.286 285.846 512.587 285.17L494.138 267.326C493.439 266.65 492.5 266.279 491.528 266.296C490.555 266.312 489.629 266.714 488.953 267.413L476.208 280.591C475.532 281.29 475.161 282.229 475.177 283.201C475.193 284.173 475.595 285.099 476.294 285.775L490.841 299.845C491.236 300.227 491.54 300.693 491.731 301.209C491.922 301.724 491.994 302.276 491.943 302.823L491.3 309.634C491.279 309.861 491.328 310.089 491.442 310.287C491.555 310.485 491.728 310.642 491.935 310.738C492.142 310.833 492.373 310.862 492.597 310.82C492.822 310.778 493.027 310.668 493.186 310.504Z" stroke="#005BEA" stroke-opacity="0.03" stroke-width="1.5"/>
</g>
<path d="M603.958 154.5H621.042M603.958 147.667H614.208" stroke="#005BEA" stroke-opacity="0.03" stroke-width="1.5" stroke-linecap="round" stroke-linejoin="round"/>
<path d="M597.125 168.662V142.542C597.125 141.636 597.485 140.766 598.126 140.126C598.766 139.485 599.636 139.125 600.542 139.125H624.458C625.364 139.125 626.234 139.485 626.874 140.126C627.515 140.766 627.875 141.636 627.875 142.542V159.625C627.875 160.531 627.515 161.4 626.874 162.041C626.234 162.682 625.364 163.042 624.458 163.042H605.6C605.088 163.042 604.582 163.157 604.121 163.379C603.659 163.6 603.253 163.923 602.933 164.323L598.951 169.301C598.819 169.467 598.638 169.588 598.434 169.647C598.229 169.705 598.012 169.699 597.812 169.629C597.611 169.559 597.437 169.428 597.314 169.255C597.191 169.082 597.125 168.875 597.125 168.662V168.662Z" stroke="#005BEA" stroke-opacity="0.03" stroke-width="1.5"/>
<path d="M700.125 64.1875C700.141 70.2919 698.715 76.3137 695.963 81.7625C692.699 88.2918 687.683 93.7837 681.474 97.6229C675.266 101.462 668.112 103.497 660.812 103.5C654.708 103.516 648.686 102.09 643.237 99.3375L616.875 108.125L625.663 81.7625C622.91 76.3137 621.484 70.2919 621.5 64.1875C621.503 56.8881 623.538 49.7337 627.377 43.5256C631.216 37.3174 636.708 32.3008 643.237 29.0375C648.686 26.2853 654.708 24.8591 660.812 24.875H663.125C672.765 25.4068 681.87 29.4758 688.697 36.3027C695.524 43.1297 699.593 52.2349 700.125 61.875V64.1875Z" stroke="#005BEA" stroke-opacity="0.03" stroke-width="5" stroke-linecap="round" stroke-linejoin="round"/>
<g clip-path="url(#clip5_10_1760)">
<path d="M818.097 136.274L794.973 185.809C793.383 189.215 794.869 193.302 798.274 194.892L854.001 220.906L847.399 202.741L867.632 159.398C869.222 155.993 867.736 151.906 864.331 150.316L827.179 132.973C823.774 131.383 819.687 132.869 818.097 136.274ZM861.44 156.508L840.051 202.328L842.031 207.777L801.165 188.7L824.289 139.165L861.44 156.508ZM841.625 158.569L838.734 164.761L832.542 161.871L835.433 155.679M835.844 170.953L832.953 177.145L826.761 174.254L829.652 168.063M830.063 183.337L827.172 189.529L820.98 186.638L823.871 180.446" fill="#005BEA" fill-opacity="0.03"/>
</g>
<path d="M123.375 202.503L141.753 184.125H200.25C202.968 184.125 205.576 183.045 207.498 181.123C209.42 179.201 210.5 176.593 210.5 173.875V127.75C210.5 125.032 209.42 122.424 207.498 120.502C205.576 118.58 202.968 117.5 200.25 117.5H133.625C130.907 117.5 128.299 118.58 126.377 120.502C124.455 122.424 123.375 125.032 123.375 127.75V202.503ZM123.375 209.75H118.25V127.75C118.25 123.672 119.87 119.762 122.753 116.878C125.637 113.995 129.547 112.375 133.625 112.375H200.25C204.328 112.375 208.238 113.995 211.122 116.878C214.005 119.762 215.625 123.672 215.625 127.75V173.875C215.625 177.953 214.005 181.863 211.122 184.747C208.238 187.63 204.328 189.25 200.25 189.25H143.875L123.375 209.75Z" fill="#005BEA" fill-opacity="0.03"/>
<g clip-path="url(#clip6_10_1760)">
<path d="M138.881 264.534L145.092 256.191C147.661 252.74 146.943 247.845 143.492 245.276L130.978 235.96C130.701 235.754 130.354 235.666 130.013 235.716C129.672 235.766 129.364 235.95 129.158 236.226L119.066 249.784C116.497 253.235 117.214 258.13 120.665 260.699L127.966 266.134C131.417 268.703 136.312 267.985 138.881 264.534ZM122.218 258.614C119.917 256.901 119.439 253.637 121.152 251.337L130.468 238.822L141.94 247.362C144.24 249.074 144.719 252.338 143.006 254.638L136.795 262.982C135.083 265.282 131.819 265.76 129.518 264.048L122.218 258.614Z" fill="#005BEA" fill-opacity="0.03"/>
<path d="M132.455 249.216C131.812 250.08 131.991 251.302 132.855 251.945C133.719 252.588 134.941 252.409 135.584 251.545C136.227 250.681 136.048 249.459 135.184 248.816C134.32 248.173 133.098 248.352 132.455 249.216Z" fill="#005BEA" fill-opacity="0.03"/>
<path d="M128.573 254.43C127.93 255.294 128.109 256.516 128.973 257.159C129.837 257.803 131.059 257.623 131.702 256.759C132.346 255.895 132.166 254.674 131.302 254.03C130.438 253.387 129.217 253.566 128.573 254.43Z" fill="#005BEA" fill-opacity="0.03"/>
</g>
<path d="M93 209H101C104.309 209 107 211.691 107 215V227C107 227.265 106.895 227.52 106.707 227.707C106.52 227.895 106.265 228 106 228H93C89.691 228 87 225.309 87 222V215C87 211.691 89.691 209 93 209ZM89 222C89 224.206 90.794 226 93 226H105V215C105 212.794 103.206 211 101 211H93C90.794 211 89 212.794 89 215V222Z" fill="#005BEA" fill-opacity="0.03"/>
<path d="M331.333 73.1666H318.667C313.427 73.1666 309.167 77.4274 309.167 82.6666V103.25C309.167 103.67 309.334 104.073 309.63 104.37C309.927 104.666 310.33 104.833 310.75 104.833H331.333C336.573 104.833 340.833 100.573 340.833 95.3333V82.6666C340.833 77.4274 336.573 73.1666 331.333 73.1666ZM337.667 95.3333C337.667 98.8261 334.826 101.667 331.333 101.667H312.333V82.6666C312.333 79.1738 315.174 76.3333 318.667 76.3333H331.333C334.826 76.3333 337.667 79.1738 337.667 82.6666V95.3333Z" fill="#005BEA" fill-opacity="0.03"/>
<path d="M317.083 93.7295V96.8945H320.248L329.003 88.1514L325.839 84.9879L317.083 93.7295ZM330.494 86.6599L327.331 83.4932L329.742 81.0834L332.909 84.2485L330.494 86.6599Z" fill="#005BEA" fill-opacity="0.03"/>
<g clip-path="url(#clip7_10_1760)">
<path d="M470.093 191.891L464.061 203.029C461.566 207.636 463.284 213.412 467.891 215.907L485.99 225.709C486.36 225.909 486.793 225.954 487.196 225.834C487.598 225.714 487.937 225.44 488.137 225.07L497.939 206.971C500.434 202.364 498.716 196.588 494.109 194.093L482.971 188.061C478.364 185.566 472.588 187.284 470.093 191.891ZM492.601 196.878C495.672 198.541 496.817 202.392 495.154 205.463L486.106 222.17L469.399 213.122C466.327 211.459 465.182 207.608 466.846 204.537L472.878 193.399C474.541 190.328 478.391 189.182 481.463 190.846L492.601 196.878Z" fill="#005BEA" fill-opacity="0.03"/>
<path d="M481.389 214.213L484.172 215.721L485.679 212.938L482.16 201.076L477.872 202.351L481.389 214.213ZM481.559 199.054L477.267 200.328L476.297 197.06L480.588 195.783L481.559 199.054Z" fill="#005BEA" fill-opacity="0.03"/>
</g>
<path d="M819.333 40.1666H806.667C801.427 40.1666 797.167 44.4274 797.167 49.6666V70.25C797.167 70.6699 797.333 71.0726 797.63 71.3695C797.927 71.6665 798.33 71.8333 798.75 71.8333H819.333C824.572 71.8333 828.833 67.5725 828.833 62.3333V49.6666C828.833 44.4274 824.572 40.1666 819.333 40.1666ZM825.667 62.3333C825.667 65.8261 822.826 68.6666 819.333 68.6666H800.333V49.6666C800.333 46.1738 803.174 43.3333 806.667 43.3333H819.333C822.826 43.3333 825.667 46.1738 825.667 49.6666V62.3333Z" fill="#005BEA" fill-opacity="0.03"/>
<path d="M805.083 60.7295V63.8945H808.249L817.003 55.1514L813.839 51.9879L805.083 60.7295ZM818.494 53.6599L815.331 50.4932L817.742 48.0834L820.909 51.2485L818.494 53.6599Z" fill="#005BEA" fill-opacity="0.03"/>
<path d="M93.6666 2.16663H106.333C111.573 2.16663 115.833 6.42738 115.833 11.6666V32.25C115.833 32.6699 115.666 33.0726 115.37 33.3695C115.073 33.6665 114.67 33.8333 114.25 33.8333H93.6666C88.4273 33.8333 84.1666 29.5725 84.1666 24.3333V11.6666C84.1666 6.42738 88.4273 2.16663 93.6666 2.16663ZM87.3333 24.3333C87.3333 27.8261 90.1738 30.6666 93.6666 30.6666H112.667V11.6666C112.667 8.17379 109.826 5.33329 106.333 5.33329H93.6666C90.1738 5.33329 87.3333 8.17379 87.3333 11.6666V24.3333Z" fill="#005BEA" fill-opacity="0.03"/>
<path d="M107.917 22.7295V25.8945H104.752L95.9974 17.1514L99.1609 13.9879L107.917 22.7295ZM94.5059 15.6599L97.6694 12.4932L95.258 10.0834L92.0913 13.2485L94.5059 15.6599Z" fill="#005BEA" fill-opacity="0.03"/>
<path d="M192 235H212V250H204.5L202 252.5L199.5 250H192V235Z" stroke="#005BEA" stroke-opacity="0.03" stroke-width="3" stroke-linecap="round" stroke-linejoin="round"/>
<path d="M201.5 242.5H202.501M206.5 242.5H207.5M196.5 242.5H197.5" stroke="#005BEA" stroke-opacity="0.03" stroke-width="3" stroke-linecap="round"/>
<path d="M274 120H254V135H261.5L264 137.5L266.5 135H274V120Z" stroke="#005BEA" stroke-opacity="0.03" stroke-width="3" stroke-linecap="round" stroke-linejoin="round"/>
<path d="M264.5 127.5H263.499M259.5 127.5H258.5M269.5 127.5H268.5" stroke="#005BEA" stroke-opacity="0.03" stroke-width="3" stroke-linecap="round"/>
<path d="M284.963 232.282C284.964 232.263 284.965 232.245 284.967 232.227L284.963 232.282ZM284.965 232.003C284.966 232.005 284.966 232.007 284.967 232.008V232.003H284.965ZM285.032 235.17C289.495 231.067 290.043 230.743 291.353 230.613C297.273 230.025 301.667 225.683 301.667 220.673C301.667 215.24 296.525 210.668 290 210.668C283.475 210.668 278.333 215.242 278.333 220.673C278.333 223.828 280.292 226.952 283.423 228.935C284.728 229.76 285.02 230.797 284.992 231.898C284.989 231.982 284.984 232.065 284.977 232.148C285.013 232.698 285.03 233.682 285.032 235.172V235.17ZM291.682 233.932C291.373 233.962 288.973 236.058 284.482 240.222C284.243 240.443 283.945 240.59 283.624 240.644C283.303 240.697 282.973 240.656 282.675 240.524C282.377 240.393 282.124 240.177 281.948 239.903C281.771 239.63 281.679 239.311 281.682 238.985C281.715 235.048 281.7 232.803 281.642 232.252C281.612 231.963 281.695 231.785 281.642 231.752C277.847 229.353 275 225.292 275 220.675C275 213.307 281.717 207.333 290 207.333C298.283 207.333 305 213.307 305 220.673C305 227.535 299.175 233.188 291.683 233.932H291.682Z" fill="#005BEA" fill-opacity="0.03"/>
<g clip-path="url(#clip8_10_1760)">
<path d="M12.5981 204.962C12.801 205.209 13.0208 208.467 13.2587 214.739C13.2712 215.072 13.3811 215.395 13.5748 215.666C13.7685 215.938 14.0375 216.147 14.3486 216.267C14.6597 216.388 14.9993 216.415 15.3255 216.344C15.6516 216.274 15.95 216.11 16.1838 215.872C19.0123 212.995 20.65 211.379 21.092 211.021C21.3227 210.834 21.3915 210.645 21.4543 210.659C25.9422 211.671 30.9482 210.791 34.2936 207.445C39.6329 202.106 39.0943 192.91 33.0919 186.908C27.0895 180.906 17.8939 180.367 12.5558 185.705C7.5836 190.677 7.708 198.995 12.5981 204.962ZM16.5183 210.68C16.2599 204.472 16.0968 203.84 15.2418 202.797C11.3783 198.081 11.3408 191.751 14.9712 188.121C18.9084 184.183 25.947 184.596 30.6753 189.325C35.4035 194.053 35.8153 201.093 31.8794 205.029C29.5931 207.315 25.9108 208.159 22.2043 207.327C20.6608 206.979 19.6983 207.519 18.9205 208.338C18.8619 208.4 18.8051 208.464 18.7502 208.53C18.3251 208.902 17.6005 209.602 16.5195 210.681L16.5183 210.68ZM17.3915 195.362C18.0321 196.003 18.901 196.363 19.807 196.363C20.7129 196.363 21.5818 196.003 22.2224 195.362C22.863 194.722 23.2229 193.853 23.2229 192.947C23.2229 192.041 22.863 191.172 22.2224 190.531C21.5818 189.891 20.7129 189.531 19.807 189.531C18.901 189.531 18.0321 189.891 17.3915 190.531C16.7509 191.172 16.391 192.041 16.391 192.947C16.391 193.853 16.7509 194.722 17.3915 195.362ZM24.6379 202.608C25.2785 203.249 26.1473 203.609 27.0533 203.609C27.9593 203.609 28.8281 203.249 29.4688 202.608C30.1094 201.968 30.4693 201.099 30.4693 200.193C30.4693 199.287 30.1094 198.418 29.4688 197.778C28.8281 197.137 27.9593 196.777 27.0533 196.777C26.1473 196.777 25.2785 197.137 24.6379 197.778C23.9972 198.418 23.6373 199.287 23.6373 200.193C23.6373 201.099 23.9972 201.968 24.6379 202.608Z" fill="#005BEA" fill-opacity="0.03"/>
</g>
<path d="M196.958 36.5H214.042M196.958 29.6666H207.208" stroke="#005BEA" stroke-opacity="0.03" stroke-width="1.5" stroke-linecap="round" stroke-linejoin="round"/>
<path d="M190.125 50.6621V24.5417C190.125 23.6355 190.485 22.7665 191.126 22.1257C191.766 21.485 192.636 21.125 193.542 21.125H217.458C218.364 21.125 219.234 21.485 219.874 22.1257C220.515 22.7665 220.875 23.6355 220.875 24.5417V41.625C220.875 42.5312 220.515 43.4002 219.874 44.0409C219.234 44.6817 218.364 45.0417 217.458 45.0417H198.6C198.088 45.0417 197.582 45.1569 197.121 45.3787C196.659 45.6005 196.253 45.9232 195.933 46.3229L191.951 51.301C191.819 51.4671 191.638 51.5879 191.434 51.6467C191.229 51.7055 191.012 51.6994 190.812 51.6292C190.611 51.559 190.437 51.4283 190.314 51.255C190.191 51.0818 190.125 50.8746 190.125 50.6621V50.6621Z" stroke="#005BEA" stroke-opacity="0.03" stroke-width="1.5"/>
<path fill-rule="evenodd" clip-rule="evenodd" d="M378.857 31C379.463 31 380.045 31.2408 380.473 31.6695C380.902 32.0981 381.143 32.6795 381.143 33.2857V44.7143C381.143 45.3205 380.902 45.9019 380.473 46.3305C380.045 46.7592 379.463 47 378.857 47L375.43 46.9989L372.808 49.6206C372.611 49.8173 372.349 49.9356 372.072 49.953C371.794 49.9705 371.519 49.886 371.299 49.7154L371.192 49.6206L368.57 46.9989L365.143 47C364.537 47 363.955 46.7592 363.527 46.3305C363.098 45.9019 362.857 45.3205 362.857 44.7143V33.2857C362.857 32.6795 363.098 32.0981 363.527 31.6695C363.955 31.2408 364.537 31 365.143 31H378.857Z" stroke="#005BEA" stroke-opacity="0.03" stroke-linecap="round" stroke-linejoin="round"/>
<path fill-rule="evenodd" clip-rule="evenodd" d="M371.999 40.1429C372.57 40.1429 373.142 39.5715 373.142 39C373.142 38.4286 372.57 37.8572 371.999 37.8572C371.427 37.8572 370.857 38.4286 370.857 39C370.857 39.5715 371.427 40.1429 371.999 40.1429ZM367.427 40.1429C367.999 40.1429 368.57 39.5715 368.57 39C368.57 38.4286 367.999 37.8572 367.427 37.8572C366.856 37.8572 366.286 38.4286 366.286 39C366.286 39.5715 366.856 40.1429 367.427 40.1429ZM376.57 40.1429C377.142 40.1429 377.713 39.5715 377.713 39C377.713 38.4286 377.142 37.8572 376.57 37.8572C375.999 37.8572 375.429 38.4286 375.429 39C375.429 39.5715 375.999 40.1429 376.57 40.1429Z" fill="#005BEA" fill-opacity="0.03"/>
<path d="M539 3H555C556.103 3 557 3.897 557 5V17C557 18.103 556.103 19 555 19H552V22.767L545.723 19H539C537.897 19 537 18.103 537 17V5C537 3.897 537.897 3 539 3ZM539 17H546.277L550 19.233V17H555V5H539V17Z" fill="#005BEA" fill-opacity="0.03"/>
<g clip-path="url(#clip9_10_1760)">
<path d="M536.238 177.588L539.491 170.279C540.837 167.256 544.389 165.892 547.412 167.237L558.375 172.117C558.618 172.225 558.807 172.425 558.902 172.673C558.997 172.92 558.99 173.195 558.882 173.438L553.596 185.314C552.25 188.337 548.697 189.701 545.674 188.356L539.279 185.509C536.256 184.163 534.892 180.611 536.238 177.588ZM546.487 186.529C548.503 187.426 550.871 186.516 551.768 184.501L556.648 173.538L546.599 169.065C544.584 168.168 542.215 169.077 541.318 171.092L538.065 178.401C537.168 180.416 538.077 182.785 540.092 183.682L546.487 186.529Z" fill="#005BEA" fill-opacity="0.03"/>
</g>
<path d="M467.667 4.16663H480.333C485.573 4.16663 489.833 8.42738 489.833 13.6666V34.25C489.833 34.6699 489.666 35.0726 489.37 35.3695C489.073 35.6665 488.67 35.8333 488.25 35.8333H467.667C462.427 35.8333 458.167 31.5725 458.167 26.3333V13.6666C458.167 8.42738 462.427 4.16663 467.667 4.16663ZM461.333 26.3333C461.333 29.8261 464.174 32.6666 467.667 32.6666H486.667V13.6666C486.667 10.1738 483.826 7.33329 480.333 7.33329H467.667C464.174 7.33329 461.333 10.1738 461.333 13.6666V26.3333Z" fill="#005BEA" fill-opacity="0.03"/>
<path d="M481.917 24.7295V27.8945H478.752L469.997 19.1514L473.161 15.9879L481.917 24.7295ZM468.506 17.6599L471.669 14.4932L469.258 12.0834L466.091 15.2485L468.506 17.6599Z" fill="#005BEA" fill-opacity="0.03"/>
<path d="M61 132H81V147H73.5L71 149.5L68.5 147H61V132Z" stroke="#005BEA" stroke-opacity="0.03" stroke-width="3" stroke-linecap="round" stroke-linejoin="round"/>
<path d="M70.5 139.5H71.5015M75.5005 139.5H76.5M65.5005 139.5H66.5" stroke="#005BEA" stroke-opacity="0.03" stroke-width="3" stroke-linecap="round"/>
<path d="M533 74H513V89H520.5L523 91.5L525.5 89H533V74Z" stroke="#005BEA" stroke-opacity="0.03" stroke-width="3" stroke-linecap="round" stroke-linejoin="round"/>
<path d="M523.5 81.5H522.499M518.5 81.5H517.5M528.5 81.5H527.5" stroke="#005BEA" stroke-opacity="0.03" stroke-width="3" stroke-linecap="round"/>
<path d="M472.037 145.282C472.036 145.263 472.035 145.245 472.033 145.227L472.037 145.282ZM472.035 145.003C472.034 145.005 472.034 145.007 472.033 145.008V145.003H472.035ZM471.968 148.17C467.505 144.067 466.957 143.743 465.647 143.613C459.727 143.025 455.333 138.683 455.333 133.673C455.333 128.24 460.475 123.668 467 123.668C473.525 123.668 478.667 128.242 478.667 133.673C478.667 136.828 476.708 139.952 473.577 141.935C472.272 142.76 471.98 143.797 472.008 144.898C472.011 144.982 472.016 145.065 472.023 145.148C471.987 145.698 471.97 146.682 471.968 148.172V148.17ZM465.318 146.932C465.627 146.962 468.027 149.058 472.518 153.222C472.757 153.443 473.055 153.59 473.376 153.644C473.697 153.697 474.027 153.656 474.325 153.524C474.623 153.393 474.876 153.177 475.052 152.903C475.229 152.63 475.321 152.311 475.318 151.985C475.285 148.048 475.3 145.803 475.358 145.252C475.388 144.963 475.305 144.785 475.358 144.752C479.153 142.353 482 138.292 482 133.675C482 126.307 475.283 120.333 467 120.333C458.717 120.333 452 126.307 452 133.673C452 140.535 457.825 146.188 465.317 146.932H465.318Z" fill="#005BEA" fill-opacity="0.03"/>
<g clip-path="url(#clip10_10_1760)">
<path d="M56.4019 274.962C56.199 275.209 55.9792 278.467 55.7413 284.739C55.7288 285.072 55.6189 285.395 55.4252 285.666C55.2315 285.938 54.9625 286.147 54.6514 286.267C54.3403 286.388 54.0007 286.415 53.6745 286.344C53.3484 286.274 53.05 286.11 52.8162 285.872C49.9877 282.995 48.35 281.379 47.908 281.021C47.6773 280.834 47.6085 280.645 47.5457 280.659C43.0578 281.671 38.0518 280.791 34.7064 277.445C29.3671 272.106 29.9057 262.91 35.9081 256.908C41.9105 250.906 51.1061 250.367 56.4442 255.705C61.4164 260.677 61.292 268.995 56.4019 274.962ZM52.4817 280.68C52.7401 274.472 52.9032 273.84 53.7582 272.797C57.6217 268.081 57.6592 261.751 54.0288 258.121C50.0916 254.183 43.053 254.596 38.3247 259.325C33.5965 264.053 33.1847 271.093 37.1206 275.029C39.4069 277.315 43.0892 278.159 46.7957 277.327C48.3392 276.979 49.3017 277.519 50.0795 278.338C50.1381 278.4 50.1949 278.464 50.2498 278.53C50.6749 278.902 51.3995 279.602 52.4805 280.681L52.4817 280.68ZM51.6085 265.362C50.9679 266.003 50.099 266.363 49.193 266.363C48.2871 266.363 47.4182 266.003 46.7776 265.362C46.137 264.722 45.7771 263.853 45.7771 262.947C45.7771 262.041 46.137 261.172 46.7776 260.531C47.4182 259.891 48.2871 259.531 49.193 259.531C50.099 259.531 50.9679 259.891 51.6085 260.531C52.2491 261.172 52.609 262.041 52.609 262.947C52.609 263.853 52.2491 264.722 51.6085 265.362ZM44.3621 272.608C43.7215 273.249 42.8527 273.609 41.9467 273.609C41.0407 273.609 40.1719 273.249 39.5312 272.608C38.8906 271.968 38.5307 271.099 38.5307 270.193C38.5307 269.287 38.8906 268.418 39.5312 267.778C40.1719 267.137 41.0407 266.777 41.9467 266.777C42.8527 266.777 43.7215 267.137 44.3621 267.778C45.0028 268.418 45.3627 269.287 45.3627 270.193C45.3627 271.099 45.0028 271.968 44.3621 272.608Z" fill="#005BEA" fill-opacity="0.03"/>
</g>
<g clip-path="url(#clip11_10_1760)">
<path d="M384.598 151.962C384.801 152.209 385.021 155.467 385.259 161.739C385.271 162.072 385.381 162.395 385.575 162.666C385.769 162.938 386.038 163.147 386.349 163.267C386.66 163.388 386.999 163.415 387.325 163.344C387.652 163.274 387.95 163.11 388.184 162.872C391.012 159.995 392.65 158.379 393.092 158.021C393.323 157.834 393.392 157.645 393.454 157.659C397.942 158.671 402.948 157.791 406.294 154.445C411.633 149.106 411.094 139.91 405.092 133.908C399.09 127.906 389.894 127.367 384.556 132.705C379.584 137.677 379.708 145.995 384.598 151.962ZM388.518 157.68C388.26 151.472 388.097 150.84 387.242 149.797C383.378 145.081 383.341 138.751 386.971 135.121C390.908 131.183 397.947 131.596 402.675 136.325C407.404 141.053 407.815 148.093 403.879 152.029C401.593 154.315 397.911 155.159 394.204 154.327C392.661 153.979 391.698 154.519 390.92 155.338C390.862 155.4 390.805 155.464 390.75 155.53C390.325 155.902 389.6 156.602 388.52 157.681L388.518 157.68ZM389.392 142.362C390.032 143.003 390.901 143.363 391.807 143.363C392.713 143.363 393.582 143.003 394.222 142.362C394.863 141.722 395.223 140.853 395.223 139.947C395.223 139.041 394.863 138.172 394.222 137.531C393.582 136.891 392.713 136.531 391.807 136.531C390.901 136.531 390.032 136.891 389.392 137.531C388.751 138.172 388.391 139.041 388.391 139.947C388.391 140.853 388.751 141.722 389.392 142.362ZM396.638 149.608C397.278 150.249 398.147 150.609 399.053 150.609C399.959 150.609 400.828 150.249 401.469 149.608C402.109 148.968 402.469 148.099 402.469 147.193C402.469 146.287 402.109 145.418 401.469 144.778C400.828 144.137 399.959 143.777 399.053 143.777C398.147 143.777 397.278 144.137 396.638 144.778C395.997 145.418 395.637 146.287 395.637 147.193C395.637 148.099 395.997 148.968 396.638 149.608Z" fill="#005BEA" fill-opacity="0.03"/>
</g>
<path fill-rule="evenodd" clip-rule="evenodd" d="M4.85718 33C5.46339 33 6.04477 33.2408 6.47342 33.6695C6.90208 34.0981 7.14289 34.6795 7.14289 35.2857V46.7143C7.14289 47.3205 6.90208 47.9019 6.47342 48.3305C6.04477 48.7592 5.46339 49 4.85718 49L1.42975 48.9989L-1.19196 51.6206C-1.38876 51.8173 -1.65058 51.9356 -1.92833 51.953C-2.20607 51.9705 -2.48065 51.886 -2.70054 51.7154L-2.80796 51.6206L-5.42968 48.9989L-8.85711 49C-9.46332 49 -10.0447 48.7592 -10.4734 48.3305C-10.902 47.9019 -11.1428 47.3205 -11.1428 46.7143V35.2857C-11.1428 34.6795 -10.902 34.0981 -10.4734 33.6695C-10.0447 33.2408 -9.46332 33 -8.85711 33H4.85718Z" stroke="#005BEA" stroke-opacity="0.03" stroke-linecap="round" stroke-linejoin="round"/>
<path fill-rule="evenodd" clip-rule="evenodd" d="M755.857 89C756.463 89 757.045 89.2408 757.473 89.6695C757.902 90.0981 758.143 90.6795 758.143 91.2857V102.714C758.143 103.32 757.902 103.902 757.473 104.331C757.045 104.759 756.463 105 755.857 105L752.43 104.999L749.808 107.621C749.611 107.817 749.349 107.936 749.072 107.953C748.794 107.97 748.519 107.886 748.299 107.715L748.192 107.621L745.57 104.999L742.143 105C741.537 105 740.955 104.759 740.527 104.331C740.098 103.902 739.857 103.32 739.857 102.714V91.2857C739.857 90.6795 740.098 90.0981 740.527 89.6695C740.955 89.2408 741.537 89 742.143 89H755.857Z" stroke="#005BEA" stroke-opacity="0.03" stroke-linecap="round" stroke-linejoin="round"/>
<path fill-rule="evenodd" clip-rule="evenodd" d="M748.999 98.1429C749.57 98.1429 750.142 97.5715 750.142 97C750.142 96.4286 749.57 95.8572 748.999 95.8572C748.427 95.8572 747.857 96.4286 747.857 97C747.857 97.5715 748.427 98.1429 748.999 98.1429ZM744.427 98.1429C744.999 98.1429 745.57 97.5715 745.57 97C745.57 96.4286 744.999 95.8572 744.427 95.8572C743.856 95.8572 743.286 96.4286 743.286 97C743.286 97.5715 743.856 98.1429 744.427 98.1429ZM753.57 98.1429C754.142 98.1429 754.713 97.5715 754.713 97C754.713 96.4286 754.142 95.8572 753.57 95.8572C752.999 95.8572 752.429 96.4286 752.429 97C752.429 97.5715 752.999 98.1429 753.57 98.1429Z" fill="#005BEA" fill-opacity="0.03"/>
<g clip-path="url(#clip12_10_1760)">
<path d="M19.2319 95.8239L19.5061 95.0703C19.3803 95.0259 19.2453 95.0128 19.1132 95.0322C18.981 95.0515 18.8557 95.1026 18.7484 95.1811L19.2319 95.8239ZM24.7417 97.7734L24.4665 98.5257C24.5924 98.5703 24.7274 98.5835 24.8597 98.5643C24.992 98.5451 25.1174 98.4941 25.2248 98.4157C25.3323 98.3373 25.4184 98.234 25.4756 98.115C25.5327 97.9959 25.5592 97.8648 25.5526 97.7333L24.7417 97.7734V97.7734ZM24.4532 92.0142L23.9697 91.3713C23.8623 91.4496 23.7761 91.5527 23.7189 91.6716C23.6616 91.7905 23.635 91.9215 23.6414 92.053L24.4532 92.0142ZM18.9568 96.5762L24.4665 98.5257L25.0159 97.0198L19.5061 95.0703L18.9568 96.5762V96.5762ZM25.5526 97.7333L25.2641 91.9741L23.6414 92.053L23.9299 97.8122L25.5526 97.7333ZM24.9367 92.657L30.1581 88.8472L29.191 87.5616L23.9697 91.3713L24.9367 92.657ZM30.1581 88.8472C31.2402 88.0577 31.4681 86.5572 30.6655 85.4901L29.3602 86.4426C29.6281 86.7987 29.5526 87.2978 29.191 87.5616L30.1581 88.8472ZM30.6655 85.4901L21.9692 73.9284L20.6638 74.8808L29.3612 86.4439L30.6665 85.4914L30.6655 85.4901ZM21.9692 73.9284C21.1665 72.8613 19.6428 72.639 18.5606 73.4285L19.5277 74.7142C19.8892 74.4504 20.396 74.5247 20.6638 74.8808L21.9692 73.9284ZM18.5606 73.4285L2.89671 84.8577L3.86373 86.1434L19.5277 74.7142L18.5606 73.4285ZM2.89671 84.8577C1.8146 85.6473 1.58662 87.1478 2.38924 88.2148L3.69457 87.2624C3.42671 86.9063 3.50215 86.4072 3.86373 86.1434L2.89671 84.8577ZM2.38924 88.2148L11.0856 99.7766L12.3909 98.8242L3.69457 87.2624L2.38924 88.2148ZM11.0856 99.7766C11.8882 100.844 13.412 101.066 14.4941 100.276L13.5271 98.9908C13.4415 99.0535 13.3441 99.099 13.2406 99.1246C13.1371 99.1502 13.0295 99.1554 12.9239 99.1399C12.8183 99.1244 12.7169 99.0886 12.6255 99.0344C12.534 98.9802 12.4543 98.9088 12.3909 98.8242L11.0856 99.7766ZM14.4941 100.276L19.7154 96.4667L18.7484 95.1811L13.5271 98.9908L14.4941 100.276ZM14.2345 90.5237L20.7611 85.7616L19.7941 84.4759L13.2675 89.2381L14.2345 90.5237Z" fill="#005BEA" fill-opacity="0.03"/>
</g>
</g>
</g>
</g>
<defs>
<filter id="filter0_d_10_1760" x="0" y="0" width="904" height="303" filterUnits="userSpaceOnUse" color-interpolation-filters="sRGB">
<feFlood flood-opacity="0" result="BackgroundImageFix"/>
<feColorMatrix in="SourceAlpha" type="matrix" values="0 0 0 0 0 0 0 0 0 0 0 0 0 0 0 0 0 0 127 0" result="hardAlpha"/>
<feOffset dy="1"/>
<feGaussianBlur stdDeviation="2"/>
<feComposite in2="hardAlpha" operator="out"/>
<feColorMatrix type="matrix" values="0 0 0 0 0 0 0 0 0 0 0 0 0 0 0 0 0 0 0.1 0"/>
<feBlend mode="normal" in2="BackgroundImageFix" result="effect1_dropShadow_10_1760"/>
<feBlend mode="normal" in="SourceGraphic" in2="effect1_dropShadow_10_1760" result="shape"/>
</filter>
<filter id="filter1_d_10_1760" x="0" y="0" width="904" height="303" filterUnits="userSpaceOnUse" color-interpolation-filters="sRGB">
<feFlood flood-opacity="0" result="BackgroundImageFix"/>
<feColorMatrix in="SourceAlpha" type="matrix" values="0 0 0 0 0 0 0 0 0 0 0 0 0 0 0 0 0 0 127 0" result="hardAlpha"/>
<feOffset dy="1"/>
<feGaussianBlur stdDeviation="2"/>
<feComposite in2="hardAlpha" operator="out"/>
<feColorMatrix type="matrix" values="0 0 0 0 0 0 0 0 0 0 0 0 0 0 0 0 0 0 0.1 0"/>
<feBlend mode="normal" in2="BackgroundImageFix" result="effect1_dropShadow_10_1760"/>
<feBlend mode="normal" in="SourceGraphic" in2="effect1_dropShadow_10_1760" result="shape"/>
</filter>
<filter id="filter2_d_10_1760" x="0" y="0" width="904" height="303" filterUnits="userSpaceOnUse" color-interpolation-filters="sRGB">
<feFlood flood-opacity="0" result="BackgroundImageFix"/>
<feColorMatrix in="SourceAlpha" type="matrix" values="0 0 0 0 0 0 0 0 0 0 0 0 0 0 0 0 0 0 127 0" result="hardAlpha"/>
<feOffset dy="1"/>
<feGaussianBlur stdDeviation="2"/>
<feComposite in2="hardAlpha" operator="out"/>
<feColorMatrix type="matrix" values="0 0 0 0 0 0 0 0 0 0 0 0 0 0 0 0 0 0 0.1 0"/>
<feBlend mode="normal" in2="BackgroundImageFix" result="effect1_dropShadow_10_1760"/>
<feBlend mode="normal" in="SourceGraphic" in2="effect1_dropShadow_10_1760" result="shape"/>
</filter>
<clipPath id="clip0_10_1760">
<rect x="4" y="3" width="896" height="295" rx="30" fill="white"/>
</clipPath>
<clipPath id="clip1_10_1760">
<rect width="896" height="295" fill="white" transform="translate(4 3)"/>
</clipPath>
<clipPath id="clip2_10_1760">
<rect width="31.203" height="31.203" fill="white" transform="matrix(0.597122 0.80215 0.80215 -0.597122 571.612 88.4006)"/>
</clipPath>
<clipPath id="clip3_10_1760">
<rect width="40.9915" height="40.9915" fill="white" transform="translate(725 254.985) rotate(-45)"/>
</clipPath>
<clipPath id="clip4_10_1760">
<rect width="44" height="44" fill="white" transform="matrix(-0.718803 -0.695214 -0.695214 0.718803 523 287.589)"/>
</clipPath>
<clipPath id="clip5_10_1760">
<rect width="82" height="82" fill="white" transform="translate(783 195.302) rotate(-64.9758)"/>
</clipPath>
<clipPath id="clip6_10_1760">
<rect width="31.203" height="31.203" fill="white" transform="translate(153.388 249.401) rotate(126.664)"/>
</clipPath>
<clipPath id="clip7_10_1760">
<rect width="38" height="38" fill="white" transform="translate(455.245 212.659) rotate(-61.5618)"/>
</clipPath>
<clipPath id="clip8_10_1760">
<rect width="40.9915" height="40.9915" fill="white" transform="matrix(-0.707107 -0.707107 -0.707107 0.707107 50 198.985)"/>
</clipPath>
<clipPath id="clip9_10_1760">
<rect width="24" height="24" fill="white" transform="matrix(-0.406663 0.913578 0.913578 0.406663 540.917 162.157)"/>
</clipPath>
<clipPath id="clip10_10_1760">
<rect width="40.9915" height="40.9915" fill="white" transform="translate(19 268.985) rotate(-45)"/>
</clipPath>
<clipPath id="clip11_10_1760">
<rect width="40.9915" height="40.9915" fill="white" transform="matrix(-0.707107 -0.707107 -0.707107 0.707107 422 145.985)"/>
</clipPath>
<clipPath id="clip12_10_1760">
<rect width="24.2379" height="24.1309" fill="white" transform="matrix(0.807822 -0.589427 0.601107 0.799168 0.938721 86.2864)"/>
</clipPath>
</defs>
</svg>
