<svg width="48" height="48" viewBox="0 0 48 48" fill="none" xmlns="http://www.w3.org/2000/svg">
<path d="M24 40C35.028 40 44 31.028 44 20C44 8.972 35.028 0 24 0C12.972 0 4 8.972 4 20C4 31.028 12.972 40 24 40ZM24 4C32.822 4 40 11.178 40 20C40 28.822 32.822 36 24 36C15.178 36 8 28.822 8 20C8 11.178 15.178 4 24 4ZM28 24C28.0007 23.6348 27.8715 23.2812 27.6356 23.0024C27.3996 22.7236 27.0723 22.5378 26.712 22.478L20.63 21.466C19.3348 21.2532 18.1577 20.5863 17.3094 19.5848C16.461 18.5833 15.9969 17.3125 16 16C16 12.692 18.692 10 22 10V8H26V10C29.308 10 32 12.692 32 16H28C28 14.896 27.102 14 26 14H22C20.898 14 20 14.896 20 16C19.9993 16.3652 20.1285 16.7188 20.3644 16.9976C20.6004 17.2764 20.9277 17.4622 21.288 17.522L27.37 18.534C28.6652 18.7468 29.8423 19.4137 30.6906 20.4152C31.539 21.4167 32.0031 22.6875 32 24C32 27.308 29.308 30 26 30V32H22V30C18.692 30 16 27.308 16 24H20C20 25.104 20.898 26 22 26H26C27.102 26 28 25.104 28 24ZM48 41C48 44.86 44.86 48 41 48H7C3.14 48 0 44.86 0 41C0 37.906 2.032 35.306 4.82 34.382C5.80795 35.6986 6.92776 36.9109 8.162 38H7C5.346 38 4 39.346 4 41C4 42.654 5.346 44 7 44H41C42.654 44 44 42.654 44 41C44 39.346 42.654 38 41 38H39.838C41.0728 36.9114 42.1926 35.6991 43.18 34.382C45.968 35.304 48 37.906 48 41Z" fill="#707070"/>
</svg>
