<svg width="49" height="48" viewBox="0 0 49 48" fill="none" xmlns="http://www.w3.org/2000/svg">
<path d="M45.8547 12.5255C47.2285 11.1483 48 9.28245 48 7.33717C48 5.3919 47.2285 3.52603 45.8547 2.14882C44.4781 0.77292 42.6116 0 40.6653 0C38.7191 0 36.8525 0.77292 35.476 2.14882L13.6005 24.0203C12.0549 23.9327 10.5083 24.1727 9.06197 24.7245C7.61564 25.2764 6.30226 26.1276 5.2079 27.2225C2.20569 30.2267 0.509578 38.7053 0.0335451 42.7656C-0.051321 43.4639 0.0241857 44.1724 0.254322 44.8372C0.484459 45.5019 0.863165 46.1055 1.36164 46.6019C1.8575 47.1011 2.46096 47.4803 3.12586 47.7104C3.79077 47.9406 4.49952 48.0157 5.1979 47.9299C5.67993 47.8739 17.0747 46.4938 20.777 42.7916C21.8717 41.6977 22.7228 40.3846 23.2744 38.9385C23.8259 37.4925 24.0654 35.9462 23.9772 34.401L45.8547 12.5255ZM17.9468 39.9614C16.2386 41.6695 9.75621 43.3636 4.72786 43.9557C4.62969 43.9705 4.5294 43.9615 4.43542 43.9295C4.34145 43.8974 4.25654 43.8433 4.18783 43.7717C4.11757 43.7015 4.06442 43.6161 4.03251 43.5221C4.0006 43.4281 3.99078 43.328 4.00382 43.2296C4.59186 38.2253 6.35198 31.7348 8.03609 30.0487C9.40418 28.6826 11.1963 28.0006 12.9924 28.0006C14.7885 28.0006 16.5807 28.6846 17.9488 30.0487C19.2609 31.3641 19.9978 33.1461 19.9978 35.0041C19.9978 36.862 19.2609 38.644 17.9488 39.9594L17.9468 39.9614ZM20.775 27.2225C19.9749 26.4207 19.0552 25.748 18.0488 25.2284L38.3021 4.97501C39.6022 3.67492 41.7244 3.67492 43.0245 4.97501C44.3246 6.2751 44.3246 8.39324 43.0245 9.69533L22.7691 29.9487C22.2488 28.9427 21.5761 28.0231 20.775 27.2225ZM9.44419 19.818C9.62951 20.0044 9.84984 20.1523 10.0925 20.2532C10.3352 20.3542 10.5954 20.4061 10.8583 20.4061C11.1211 20.4061 11.3814 20.3542 11.624 20.2532C11.8667 20.1523 12.0871 20.0044 12.2724 19.818C12.4583 19.6324 12.6058 19.412 12.7064 19.1694C12.807 18.9267 12.8588 18.6666 12.8588 18.4039C12.8588 18.1412 12.807 17.8811 12.7064 17.6385C12.6058 17.3958 12.4583 17.1754 12.2724 16.9898L4.97988 9.69733C4.35441 9.07072 4.00311 8.22153 4.00311 7.33617C4.00311 6.45081 4.35441 5.60163 4.97988 4.97501C5.60667 4.35064 6.45533 4.00007 7.34004 4.00007C8.22475 4.00007 9.07341 4.35064 9.7002 4.97501L16.9927 12.2695C17.1784 12.4552 17.3989 12.6025 17.6415 12.703C17.8841 12.8035 18.1442 12.8552 18.4068 12.8552C18.6694 12.8552 18.9295 12.8035 19.1721 12.703C19.4147 12.6025 19.6352 12.4552 19.8209 12.2695C20.0066 12.0838 20.1539 11.8633 20.2544 11.6207C20.3549 11.3781 20.4066 11.118 20.4066 10.8554C20.4066 10.5928 20.3549 10.3327 20.2544 10.0901C20.1539 9.84748 20.0066 9.62702 19.8209 9.44132L12.5284 2.14682C9.6642 -0.713376 5.00988 -0.713376 2.14969 2.14482C-0.710505 5.00301 -0.712506 9.66333 2.14969 12.5235L9.44219 19.816L9.44419 19.818ZM44.4866 34.107L38.5762 28.1946C38.3905 28.0089 38.17 27.8616 37.9274 27.7611C37.6847 27.6606 37.4247 27.6089 37.1621 27.6089C36.8994 27.6089 36.6394 27.6606 36.3968 27.7611C36.1541 27.8616 35.9337 28.0089 35.748 28.1946C35.5623 28.3803 35.415 28.6008 35.3145 28.8434C35.214 29.086 35.1622 29.3461 35.1622 29.6087C35.1622 29.8713 35.214 30.1314 35.3145 30.374C35.415 30.6166 35.5623 30.8371 35.748 31.0228L41.6584 36.9352C43.1548 38.438 43.9973 40.4708 44.0025 42.5916V43.9997H42.5964C41.5451 44.0028 40.5036 43.7972 39.5323 43.3948C38.561 42.9924 37.6792 42.4012 36.9381 41.6555L31.0257 35.7451C30.84 35.5594 30.6195 35.4121 30.3769 35.3116C30.1342 35.2111 29.8742 35.1594 29.6116 35.1594C29.3489 35.1594 29.0889 35.2111 28.8463 35.3116C28.6036 35.4121 28.3832 35.5594 28.1975 35.7451C28.0118 35.9308 27.8645 36.1513 27.764 36.3939C27.6635 36.6365 27.6117 36.8966 27.6117 37.1592C27.6117 37.4218 27.6635 37.6819 27.764 37.9245C27.8645 38.1671 28.0118 38.3876 28.1975 38.5733L34.1099 44.4837C35.2213 45.6023 36.5438 46.4891 38.0006 47.0927C39.4574 47.6963 41.0196 48.0047 42.5964 47.9999H46.0027C46.5331 47.9999 47.0419 47.7892 47.417 47.4141C47.7921 47.039 48.0028 46.5303 48.0028 45.9998V42.5916C48.0028 39.4314 46.7207 36.3372 44.4866 34.107Z" fill="#707070"/>
</svg>
