<svg width="48" height="48" viewBox="0 0 48 48" fill="none" xmlns="http://www.w3.org/2000/svg">
<path d="M47.6894 44.9423L38.6026 30.0735C40.2768 29.116 41.8519 27.9949 43.3049 26.7267C43.5022 26.5534 43.6635 26.3429 43.7794 26.1073C43.8954 25.8717 43.9638 25.6156 43.9808 25.3535C43.9978 25.0915 43.963 24.8287 43.8784 24.5801C43.7939 24.3315 43.6611 24.1019 43.4878 23.9046C43.3146 23.7073 43.1041 23.5461 42.8685 23.4301C42.6329 23.3141 42.3768 23.2457 42.1147 23.2287C41.8527 23.2117 41.5898 23.2465 41.3412 23.3311C41.0926 23.4157 40.8631 23.5484 40.6658 23.7217C39.3663 24.8613 37.9728 25.831 36.5173 26.6607L30.4294 16.6982C31.3991 15.3746 31.9889 13.7592 31.9889 11.9978C31.9889 8.2831 29.4318 5.17819 25.991 4.2845V1.9993C25.991 1.46905 25.7803 0.960523 25.4054 0.585582C25.0304 0.21064 24.5219 0 23.9917 0C23.4614 0 22.9529 0.21064 22.5779 0.585582C22.203 0.960523 21.9924 1.46905 21.9924 1.9993V4.2825C18.5516 5.17619 15.9945 8.2811 15.9945 11.9958C15.9945 13.7572 16.5843 15.3726 17.5539 16.6962L11.4661 26.6567C9.98672 25.8209 8.59665 24.8361 7.3175 23.7177C6.91876 23.3677 6.39732 23.1905 5.8679 23.225C5.33848 23.2595 4.84445 23.5029 4.49449 23.9016C4.14453 24.3004 3.9673 24.8218 4.00179 25.3512C4.03629 25.8807 4.27968 26.3747 4.67843 26.7246C6.13018 27.9945 7.7055 29.1157 9.38078 30.0715L0.28996 44.9423C0.15009 45.1664 0.0560346 45.4161 0.0132298 45.6768C-0.029575 45.9375 -0.0202799 46.2041 0.0405778 46.4612C0.101436 46.7183 0.212649 46.9608 0.367789 47.1747C0.522929 47.3885 0.71892 47.5695 0.944431 47.7072C1.16994 47.8448 1.4205 47.9364 1.68163 47.9767C1.94275 48.0169 2.20926 48.005 2.46575 47.9416C2.72224 47.8782 2.96363 47.7646 3.17595 47.6074C3.38828 47.4502 3.56733 47.2524 3.70277 47.0256L12.9955 31.8189C16.5143 33.2384 20.247 33.9721 23.9877 33.9721C27.7284 33.9721 31.4611 33.2384 34.9798 31.8189L44.2726 47.0256C44.4091 47.25 44.5886 47.4454 44.8008 47.6004C45.0129 47.7554 45.2536 47.867 45.5089 47.9289C45.7643 47.9907 46.0294 48.0016 46.2889 47.9608C46.5485 47.9201 46.7975 47.8285 47.0216 47.6913C47.2457 47.5544 47.4407 47.3747 47.5954 47.1625C47.75 46.9502 47.8614 46.7096 47.923 46.4543C47.9846 46.199 47.9954 45.9341 47.9546 45.6747C47.9138 45.4152 47.8224 45.1664 47.6854 44.9423H47.6894ZM23.9897 7.9972C26.1949 7.9972 27.9883 9.79058 27.9883 11.9958C27.9883 14.201 26.1949 15.9944 23.9897 15.9944C21.7844 15.9944 19.9911 14.201 19.9911 11.9958C19.9911 9.79058 21.7844 7.9972 23.9897 7.9972ZM15.1028 28.3721L20.6748 19.2533C21.6865 19.7171 22.8021 19.993 23.9877 19.993C25.1733 19.993 26.2889 19.7171 27.3005 19.2533L32.8746 28.3741C27.1427 30.5074 20.8346 30.5074 15.1028 28.3741V28.3721Z" fill="#707070"/>
</svg>
