<svg width="48" height="48" viewBox="0 0 48 48" fill="none" xmlns="http://www.w3.org/2000/svg">
<mask id="mask0_579_12996" style="mask-type:luminance" maskUnits="userSpaceOnUse" x="0" y="0" width="48" height="48">
<path d="M48 0H0V48H48V0Z" fill="white"/>
<path d="M35.0939 35.4097L33.7833 30.7854L32.4728 35.4097H35.0939ZM29.5957 38.528C29.5957 38.4978 29.6109 38.4376 29.6259 38.3774L32.5333 28.9027C32.6687 28.4508 33.2259 28.2397 33.7833 28.2397C34.3558 28.2397 34.9132 28.4508 35.0487 28.9027L37.9558 38.3774C37.9708 38.4376 37.9861 38.4828 37.9861 38.528C37.9861 38.995 37.2782 39.3413 36.7509 39.3413C36.4195 39.3413 36.1634 39.2359 36.0882 38.9497L35.5156 36.9463H32.0661L31.4938 38.9497C31.4185 39.2359 31.1624 39.3413 30.831 39.3413C30.3037 39.3413 29.5957 39.01 29.5957 38.528Z" fill="white"/>
<path d="M15.8385 12.9632C15.666 14.2631 15.0768 15.4323 14.209 16.3327C13.3415 15.4323 12.7523 14.2631 12.5798 12.9632H15.8385ZM18.5298 18.1742C17.4463 18.1754 16.3829 17.8814 15.4538 17.324C16.5399 16.1517 17.2622 14.638 17.4368 12.9632H18.5298C18.7386 12.9609 18.9381 12.8764 19.085 12.7279C19.2319 12.5794 19.3143 12.379 19.3143 12.1701C19.3143 11.9613 19.2319 11.7609 19.085 11.6124C18.9381 11.4639 18.7386 11.3793 18.5298 11.3771H15.0021V9.45135C15.0021 9.34722 14.9816 9.24411 14.9417 9.1479C14.9019 9.0517 14.8435 8.96429 14.7698 8.89066C14.6962 8.81703 14.6088 8.75862 14.5126 8.71877C14.4164 8.67892 14.3133 8.65841 14.2091 8.65841C14.105 8.65841 14.0019 8.67892 13.9057 8.71877C13.8095 8.75862 13.7221 8.81703 13.6484 8.89066C13.5748 8.96429 13.5164 9.0517 13.4766 9.1479C13.4367 9.24411 13.4162 9.34722 13.4162 9.45135V11.3771H9.88849C9.67965 11.3793 9.48013 11.4639 9.33325 11.6124C9.18637 11.7609 9.10399 11.9613 9.10399 12.1701C9.10399 12.379 9.18637 12.5794 9.33325 12.7279C9.48013 12.8764 9.67965 12.9609 9.88849 12.9632H10.9814C11.1562 14.638 11.8783 16.1517 12.9645 17.3238C12.0354 17.8812 10.972 18.1752 9.88849 18.1742C9.67816 18.1742 9.47645 18.2577 9.32773 18.4065C9.17901 18.5552 9.09546 18.7569 9.09546 18.9672C9.09546 19.1775 9.17901 19.3793 9.32773 19.528C9.47645 19.6767 9.67816 19.7603 9.88849 19.7603C11.493 19.7603 12.9819 19.2583 14.209 18.4053C15.4364 19.2583 16.9252 19.7603 18.5298 19.7603C18.7401 19.7603 18.9418 19.6767 19.0905 19.528C19.2393 19.3793 19.3228 19.1775 19.3228 18.9672C19.3228 18.7569 19.2393 18.5552 19.0905 18.4065C18.9418 18.2577 18.7401 18.1742 18.5298 18.1742Z" fill="white"/>
</mask>
<g mask="url(#mask0_579_12996)">
<mask id="mask1_579_12996" style="mask-type:luminance" maskUnits="userSpaceOnUse" x="0" y="0" width="48" height="49">
<path d="M0 0.000385284H47.9999V48.0002H0V0.000385284Z" fill="white"/>
</mask>
<g mask="url(#mask1_579_12996)">
<path d="M35.0934 35.4102L33.7828 30.7859L32.4723 35.4102H35.0934ZM29.5952 38.5285C29.5952 38.4983 29.6104 38.438 29.6254 38.3779L32.5328 28.9031C32.6682 28.4513 33.2254 28.2401 33.7828 28.2401C34.3554 28.2401 34.9127 28.4513 35.0483 28.9031L37.9553 38.3779C37.9703 38.438 37.9856 38.4833 37.9856 38.5285C37.9856 38.9955 37.2777 39.3418 36.7504 39.3418C36.419 39.3418 36.1629 39.2364 36.0877 38.9502L35.5151 36.9468H32.0656L31.4933 38.9502C31.418 39.2364 31.162 39.3418 30.8306 39.3418C30.3032 39.3418 29.5952 39.0105 29.5952 38.5285Z" fill="#707070"/>
<path d="M42.8277 20.9879H24.753C22.6819 20.9879 20.9875 22.6824 20.9875 24.7535V35.2972L15.7156 39.0628L20.9875 42.8283C20.9875 44.8995 22.6819 46.594 24.753 46.594H42.8277C44.8988 46.594 46.5933 44.8995 46.5933 42.8283V24.7535C46.5933 22.6824 44.8988 20.9879 42.8277 20.9879Z" stroke="#707070" stroke-width="2" stroke-miterlimit="10" stroke-linecap="round" stroke-linejoin="round"/>
<path d="M20.9877 27.0127H5.17199C3.10087 27.0127 1.40625 25.3182 1.40625 23.2471V5.17211C1.40625 3.10108 3.10087 1.40655 5.17199 1.40655H23.2465C25.3176 1.40655 27.012 3.10108 27.012 5.17211L32.2839 8.93775L27.012 12.7034V20.9879" stroke="#707070" stroke-width="2" stroke-miterlimit="10" stroke-linecap="round" stroke-linejoin="round"/>
<path d="M15.8385 12.9637C15.666 14.2635 15.0768 15.4328 14.209 16.3332C13.3415 15.4328 12.7523 14.2635 12.5798 12.9637H15.8385ZM18.5298 18.1747C17.4463 18.1759 16.3829 17.8819 15.4538 17.3245C16.5399 16.1522 17.2622 14.6384 17.4368 12.9637H18.5298C18.7386 12.9614 18.9381 12.8769 19.085 12.7284C19.2319 12.5799 19.3143 12.3795 19.3143 12.1706C19.3143 11.9618 19.2319 11.7613 19.085 11.6129C18.9381 11.4644 18.7386 11.3798 18.5298 11.3775H15.0021V9.45184C15.0021 9.34771 14.9816 9.2446 14.9417 9.14839C14.9019 9.05219 14.8435 8.96478 14.7698 8.89115C14.6962 8.81751 14.6088 8.75911 14.5126 8.71926C14.4164 8.67941 14.3133 8.6589 14.2091 8.6589C14.105 8.6589 14.0019 8.67941 13.9057 8.71926C13.8095 8.75911 13.7221 8.81751 13.6484 8.89115C13.5748 8.96478 13.5164 9.05219 13.4766 9.14839C13.4367 9.2446 13.4162 9.34771 13.4162 9.45184V11.3775H9.88849C9.67965 11.3798 9.48013 11.4644 9.33325 11.6129C9.18637 11.7613 9.10399 11.9618 9.10399 12.1706C9.10399 12.3795 9.18637 12.5799 9.33325 12.7284C9.48013 12.8769 9.67965 12.9614 9.88849 12.9637H10.9814C11.1562 14.6384 11.8783 16.1522 12.9645 17.3243C12.0354 17.8817 10.972 18.1757 9.88849 18.1747C9.67816 18.1747 9.47645 18.2582 9.32773 18.407C9.17901 18.5557 9.09546 18.7574 9.09546 18.9677C9.09546 19.178 9.17901 19.3797 9.32773 19.5285C9.47645 19.6772 9.67816 19.7607 9.88849 19.7607C11.493 19.7607 12.9819 19.2588 14.209 18.4058C15.4364 19.2588 16.9252 19.7607 18.5298 19.7607C18.7401 19.7607 18.9418 19.6772 19.0905 19.5285C19.2393 19.3797 19.3228 19.178 19.3228 18.9677C19.3228 18.7574 19.2393 18.5557 19.0905 18.407C18.9418 18.2582 18.7401 18.1747 18.5298 18.1747Z" fill="#707070"/>
</g>
</g>
</svg>
