<svg width="56" height="42" viewBox="0 0 56 42" fill="none" xmlns="http://www.w3.org/2000/svg">
<path d="M17.8941 21.35C17.4044 20.8661 17.015 20.2904 16.7482 19.6559C16.4814 19.0213 16.3423 18.3403 16.3391 17.6519C16.3358 16.9635 16.4684 16.2813 16.7292 15.6442C16.9901 15.0071 17.374 14.4278 17.8591 13.9393L21.7814 10.017C21.9981 9.80036 22.2552 9.62852 22.5383 9.51127C22.8213 9.39403 23.1247 9.33369 23.4311 9.33369C23.7375 9.33369 24.0408 9.39403 24.3239 9.51127C24.6069 9.62852 24.8641 9.80036 25.0808 10.017C25.2974 10.2336 25.4692 10.4908 25.5865 10.7739C25.7037 11.0569 25.7641 11.3603 25.7641 11.6667C25.7641 11.973 25.7037 12.2764 25.5865 12.5595C25.4692 12.8425 25.2974 13.0997 25.0808 13.3163L21.1584 17.2387C21.1073 17.2896 21.0667 17.3502 21.039 17.4168C21.0113 17.4835 20.997 17.555 20.997 17.6272C20.997 17.6994 21.0113 17.7708 21.039 17.8375C21.0667 17.9042 21.1073 17.9647 21.1584 18.0157L24.9478 21.6487C25.3946 22.0772 25.6528 22.6657 25.6657 23.2847C25.6786 23.9036 25.4451 24.5024 25.0166 24.9492C24.588 25.396 23.9996 25.6542 23.3806 25.6671C22.7616 25.68 22.1629 25.4465 21.7161 25.018L17.8941 21.35ZM34.8388 17.2387C35.0534 17.4533 35.0534 17.801 34.8738 17.9807L31.0518 21.6487C30.605 22.0772 30.3467 22.6657 30.3338 23.2847C30.3209 23.9036 30.5544 24.5024 30.9829 24.9492C31.4115 25.396 32 25.6542 32.6189 25.6671C33.2379 25.68 33.8366 25.4465 34.2834 25.018L38.1404 21.3173C39.1175 20.3387 39.6662 19.0124 39.6662 17.6295C39.6662 16.2466 39.1175 14.9203 38.1404 13.9417L34.2181 10.0193C34.0014 9.8027 33.7443 9.63085 33.4612 9.51361C33.1782 9.39636 32.8748 9.33602 32.5684 9.33602C32.2621 9.33602 31.9587 9.39636 31.6756 9.51361C31.3926 9.63085 31.1354 9.8027 30.9188 10.0193C30.7021 10.236 30.5303 10.4932 30.413 10.7762C30.2958 11.0593 30.2354 11.3626 30.2354 11.669C30.2354 11.9754 30.2958 12.2787 30.413 12.5618C30.5303 12.8448 30.7021 13.102 30.9188 13.3187L34.8411 17.241L34.8388 17.2387ZM55.9998 35C55.9998 38.8593 52.8591 42 48.9998 42H6.99976C3.14042 42 -0.000244141 38.8593 -0.000244141 35C-0.000244141 31.9573 1.95042 29.365 4.66642 28.4013V11.6667C4.66642 5.23367 9.90009 0 16.3331 0H39.6664C46.0994 0 51.3331 5.23367 51.3331 11.6667V28.4013C54.0491 29.365 55.9998 31.9573 55.9998 35ZM9.33309 11.6667V28H19.8331C20.4514 28 21.0464 28.245 21.4828 28.6837L23.1324 30.3333H32.8671L34.5168 28.6837C34.9542 28.2461 35.5476 28.0001 36.1664 28H46.6664V11.6667C46.6664 7.80733 43.5258 4.66667 39.6664 4.66667H16.3331C12.4738 4.66667 9.33309 7.80733 9.33309 11.6667ZM51.3331 35C51.3331 33.7143 50.2854 32.6667 48.9998 32.6667H37.1324L35.4828 34.3163C35.0453 34.7539 34.4519 34.9999 33.8331 35H22.1664C21.86 35.0003 21.5565 34.9401 21.2734 34.8228C20.9903 34.7054 20.7331 34.5333 20.5168 34.3163L18.8671 32.6667H6.99976C5.71409 32.6667 4.66642 33.7143 4.66642 35C4.66642 36.2857 5.71409 37.3333 6.99976 37.3333H48.9998C50.2854 37.3333 51.3331 36.2857 51.3331 35Z" fill="#707070"/>
</svg>
