<svg width="48" height="48" viewBox="0 0 48 48" fill="none" xmlns="http://www.w3.org/2000/svg">
<path d="M46.5937 48H21.0925C20.3158 48 19.6863 47.3705 19.6863 46.5937V43.5937C19.6863 41.7604 20.8622 40.1972 22.4988 39.6167V37.7866C22.4988 35.5605 24.31 33.7496 26.5363 33.7496H41.15C43.3762 33.7496 45.1875 35.5605 45.1875 37.7868V39.6168C46.8241 40.197 48 41.7603 48 43.5937V46.5937C48 47.3705 47.3705 48 46.5937 48ZM41.15 36.5621H26.5362C25.861 36.5621 25.3113 37.1115 25.3113 37.7867V39.375H42.3746V37.7867C42.3746 37.1114 41.8252 36.5621 41.15 36.5621ZM45.1875 43.5937C45.1875 42.8181 44.5566 42.1875 43.7812 42.1875H23.9054C23.1298 42.1875 22.4988 42.8181 22.4988 43.5937V45.1875H45.1875V43.5937ZM31.8009 29.2763C30.4061 31.129 27.7569 31.5128 25.8928 30.1094C24.6514 29.1748 24.0739 27.6822 24.2431 26.2401C23.0472 26.0366 21.8772 25.7026 20.7542 25.244L7.58741 42.7324C6.19213 44.5862 3.54256 44.9681 1.67927 43.5655C-0.178864 42.1662 -0.552834 39.516 0.846485 37.6574L14.013 20.1691C13.2622 19.2167 12.618 18.1851 12.0917 17.0925C10.7364 17.6609 9.14452 17.5001 7.91704 16.5758C6.05844 15.1765 5.68456 12.5262 7.08388 10.6677L13.8508 1.67973C15.25 -0.178776 17.9003 -0.552371 19.7588 0.846947C21.0003 1.78154 21.5778 3.27386 21.4086 4.71602C26.7077 5.61875 31.2256 9.01973 33.5592 13.8621C34.912 13.2949 36.4969 13.4487 37.7347 14.3804C39.5976 15.7829 39.9705 18.4255 38.5679 20.2885L31.8009 29.2763ZM15.9674 22.2494L14.0896 24.7437L16.3366 26.4353L18.2145 23.9413C17.4188 23.4421 16.6671 22.8761 15.9674 22.2494ZM3.37109 41.3184C3.99078 41.785 4.87409 41.6605 5.34069 41.0409L14.645 28.6823L12.3979 26.9907L3.09359 39.3489C2.62699 39.9686 2.75187 40.8519 3.37109 41.3184ZM18.067 3.09396C17.4455 2.62595 16.5626 2.75411 16.0975 3.37146L9.33099 12.3595C8.86448 12.9787 8.98898 13.8624 9.60858 14.3286C10.2293 14.7962 11.1101 14.6721 11.5777 14.051L18.3446 5.06309C18.8111 4.4434 18.6866 3.56018 18.067 3.09396ZM20.1248 7.3746C19.5157 8.18394 14.911 14.3004 14.2917 15.1226C15.2319 17.4117 16.7714 19.4053 18.7484 20.8937C20.7254 22.3822 23.0669 23.3106 25.5267 23.5813L31.3598 15.833C29.4383 11.1619 25.1452 7.93016 20.1248 7.3746ZM36.0427 16.6274C35.4235 16.1609 34.542 16.2828 34.0736 16.905L27.3067 25.8929V25.8933C26.8405 26.5126 26.965 27.3959 27.5843 27.8624C28.204 28.3286 29.0873 28.2041 29.5538 27.5849L36.3207 18.5969C36.7879 17.9758 36.6638 17.095 36.0427 16.6274Z" fill="#707070"/>
</svg>
