<svg width="48" height="48" viewBox="0 0 48 48" fill="none" xmlns="http://www.w3.org/2000/svg">
<path d="M29.9985 11.9995C29.9985 5.38178 24.6167 0 17.999 0C11.3813 0 5.99951 5.38178 5.99951 11.9995C5.99951 18.6172 11.3813 23.999 17.999 23.999C24.6167 23.999 29.9985 18.6172 29.9985 11.9995ZM17.999 19.9992C13.5872 19.9992 9.99934 16.4113 9.99934 11.9995C9.99934 7.58768 13.5872 3.99983 17.999 3.99983C22.4108 3.99983 25.9987 7.58768 25.9987 11.9995C25.9987 16.4113 22.4108 19.9992 17.999 19.9992ZM43.9979 33.9986C43.9979 32.8946 43.8179 31.8347 43.4859 30.8407L47.1258 28.7428L45.1299 25.2769L41.484 27.3769C40.0477 25.7516 38.1227 24.6365 35.9983 24.199V19.9972H31.9984V24.199C29.8738 24.6359 27.9486 25.7512 26.5127 27.3769L22.8668 25.2769L20.8709 28.7428L24.5107 30.8407C24.1787 31.8347 23.9988 32.8946 23.9988 33.9986C23.9988 35.1025 24.1787 36.1625 24.5107 37.1565L20.8709 39.2544L22.8668 42.7202L26.5127 40.6203C27.949 42.2455 29.874 43.3607 31.9984 43.7982V48H35.9983V43.7982C38.1229 43.3612 40.0481 42.246 41.484 40.6203L45.1299 42.7202L47.1258 39.2544L43.4859 37.1565C43.826 36.1384 43.9989 35.0719 43.9979 33.9986ZM33.9983 39.9983C30.6905 39.9983 27.9986 37.3064 27.9986 33.9986C27.9986 30.6907 30.6905 27.9988 33.9983 27.9988C37.3062 27.9988 39.9981 30.6907 39.9981 33.9986C39.9981 37.3064 37.3062 39.9983 33.9983 39.9983ZM9.99934 27.9988H15.9991V31.9987H9.99934C6.69148 31.9987 3.99959 34.6906 3.99959 37.9984V47.998H-0.000244141V37.9984C-0.000244141 32.4846 4.48557 27.9988 9.99934 27.9988Z" fill="#707070"/>
</svg>
