<svg width="48" height="48" viewBox="0 0 48 48" fill="none" xmlns="http://www.w3.org/2000/svg">
<path d="M47.9998 18C48.0043 16.899 47.7058 15.8179 47.137 14.8752C46.5681 13.9325 45.7508 13.1645 44.7746 12.6553C43.7983 12.1461 42.7008 11.9154 41.6022 11.9884C40.5036 12.0613 39.4462 12.4352 38.5459 13.069C37.6456 13.7028 36.937 14.5722 36.4978 15.5818C36.0586 16.5915 35.9057 17.7025 36.0559 18.7933C36.206 19.884 36.6534 20.9125 37.349 21.7659C38.0446 22.6194 38.9617 23.265 39.9998 23.632V32C39.9998 35.1826 38.7355 38.2348 36.485 40.4853C34.2346 42.7357 31.1824 44 27.9998 44C24.8172 44 21.7649 42.7357 19.5145 40.4853C17.264 38.2348 15.9998 35.1826 15.9998 32V31.84C19.3279 31.3571 22.3714 29.6933 24.5745 27.1524C26.7776 24.6115 27.9933 21.363 27.9998 18V10C27.9966 7.34881 26.942 4.80712 25.0673 2.93244C23.1926 1.05776 20.6509 0.00317572 17.9998 0C17.4693 0 16.9606 0.210714 16.5855 0.585786C16.2105 0.960859 15.9998 1.46957 15.9998 2C15.9998 2.53043 16.2105 3.03914 16.5855 3.41421C16.9606 3.78929 17.4693 4 17.9998 4C19.5911 4 21.1172 4.63214 22.2424 5.75736C23.3676 6.88258 23.9998 8.4087 23.9998 10V18C23.9998 20.6522 22.9462 23.1957 21.0708 25.0711C19.1955 26.9464 16.6519 28 13.9998 28C11.3476 28 8.80405 26.9464 6.92869 25.0711C5.05332 23.1957 3.99976 20.6522 3.99976 18V10C3.99976 8.4087 4.6319 6.88258 5.75712 5.75736C6.88233 4.63214 8.40846 4 9.99976 4C10.5302 4 11.0389 3.78929 11.414 3.41421C11.789 3.03914 11.9998 2.53043 11.9998 2C11.9998 1.46957 11.789 0.960859 11.414 0.585786C11.0389 0.210714 10.5302 0 9.99976 0C7.34857 0.00317572 4.80687 1.05776 2.9322 2.93244C1.05752 4.80712 0.00293158 7.34881 -0.000244141 10L-0.000244141 18C0.00618777 21.363 1.22194 24.6115 3.42503 27.1524C5.62813 29.6933 8.6716 31.3571 11.9998 31.84V32C11.9998 36.2435 13.6855 40.3131 16.686 43.3137C19.6866 46.3143 23.7563 48 27.9998 48C32.2432 48 36.3129 46.3143 39.3135 43.3137C42.3141 40.3131 43.9998 36.2435 43.9998 32V23.632C45.1656 23.2198 46.1756 22.4575 46.8916 21.4494C47.6076 20.4413 47.9946 19.2365 47.9998 18ZM41.9998 20C41.6042 20 41.2175 19.8827 40.8886 19.6629C40.5597 19.4432 40.3034 19.1308 40.152 18.7654C40.0006 18.3999 39.961 17.9978 40.0382 17.6098C40.1154 17.2219 40.3058 16.8655 40.5855 16.5858C40.8652 16.3061 41.2216 16.1156 41.6096 16.0384C41.9975 15.9613 42.3997 16.0009 42.7651 16.1522C43.1306 16.3036 43.4429 16.56 43.6627 16.8889C43.8825 17.2178 43.9998 17.6044 43.9998 18C43.9998 18.5304 43.789 19.0391 43.414 19.4142C43.0389 19.7893 42.5302 20 41.9998 20Z" fill="#707070"/>
</svg>
