 <svg
              width="auto"
              height="auto"
              viewBox="0 0 368 368"
              fill="none"
              xmlns="http://www.w3.org/2000/svg"
            >
              <path
                d="M110.437 29.5504H47.9434V94.6938H110.437V29.5504Z"
                fill="#E0E0E0"
              />
              <path
                d="M106.205 29.5504H43.7109V94.6938H106.205V29.5504Z"
                fill="#EBEBEB"
              />
              <path
                d="M97.8081 38.3088H52.1172V85.9354H97.8081V38.3088Z"
                fill="#FAFAFA"
              />
              <path
                d="M52.1167 86.2518C51.7805 86.7318 51.3984 87.178 50.9759 87.584C50.2399 88.32 49.2095 89.3872 48.0319 90.528C46.8543 91.6688 45.8239 92.6771 45.0879 93.391C44.6898 93.8041 44.2536 94.1787 43.7852 94.5098C44.1082 94.0282 44.4806 93.5817 44.8965 93.1776C45.6325 92.4416 46.6629 91.367 47.8405 90.2336C49.0181 89.1002 50.0485 88.0845 50.8213 87.3632C51.2112 86.9465 51.6455 86.5738 52.1167 86.2518Z"
                fill="#E0E0E0"
              />
              <path
                d="M97.8066 86.112C98.2738 86.4501 98.7076 86.8321 99.102 87.2528C99.838 87.9888 100.905 89.0192 102.046 90.1968C103.187 91.3744 104.188 92.4048 104.909 93.1408C105.324 93.5369 105.699 93.9733 106.028 94.4435C105.557 94.1128 105.123 93.7328 104.732 93.3101C103.996 92.5741 102.929 91.5437 101.788 90.3661C100.648 89.1885 99.6466 88.1581 98.9254 87.4221C98.5073 87.026 98.1323 86.5869 97.8066 86.112Z"
                fill="#E0E0E0"
              />
              <path
                d="M97.6816 38.4339C98.0169 37.9645 98.3991 37.5305 98.8224 37.1386C99.5584 36.4026 100.581 35.3354 101.73 34.1946C102.878 33.0538 103.938 32.0454 104.71 31.3315C105.11 30.9171 105.549 30.5424 106.021 30.2128C105.684 30.6788 105.302 31.1103 104.88 31.5008C104.144 32.2368 103.121 33.3114 101.936 34.4448C100.751 35.5782 99.7277 36.5939 98.9476 37.3152C98.5644 37.7299 98.1403 38.1047 97.6816 38.4339Z"
                fill="#E0E0E0"
              />
              <path
                d="M51.9906 38.5517C51.5235 38.2136 51.0897 37.8316 50.6953 37.4109C49.9593 36.6749 48.8847 35.6445 47.7513 34.4669C46.6178 33.2893 45.6022 32.2589 44.8809 31.5229C44.4664 31.1282 44.094 30.6916 43.7695 30.2202C44.235 30.5549 44.6664 30.9345 45.0575 31.3536C45.7935 32.0896 46.8681 33.12 48.0015 34.2976C49.135 35.4752 50.1507 36.5056 50.8719 37.2416C51.29 37.6376 51.665 38.0768 51.9906 38.5517Z"
                fill="#E0E0E0"
              />
              <path
                d="M97.682 85.9354C97.682 85.9354 97.682 85.8544 97.682 85.7072C97.682 85.56 97.682 85.3245 97.682 85.0448C97.682 84.4486 97.682 83.5728 97.682 82.4762C97.682 80.224 97.682 76.9414 97.682 72.7683C97.682 64.4294 97.6379 52.543 97.6011 38.3088L97.7556 38.456H52.1899L52.3591 38.2867C52.3591 55.7667 52.3591 72.1427 52.3591 85.9133L52.2119 85.7661L85.2142 85.8397L94.4731 85.8838H96.9239H94.5099H85.2731L52.1531 85.9574H52.0059V85.8102C52.0059 72.0176 52.0059 55.6342 52.0059 38.1837V38.007H52.1825H97.7483H97.8955V38.1616C97.8955 52.4326 97.8366 64.3558 97.8219 72.7536C97.8219 76.912 97.8219 80.1798 97.7777 82.4246C97.7777 83.5286 97.7777 84.3824 97.7777 84.9638C97.7777 85.2435 97.7777 85.457 97.7777 85.6115C97.7777 85.7661 97.682 85.9354 97.682 85.9354Z"
                fill="#E0E0E0"
              />
              <path
                d="M64.1716 58.2029C64.1716 58.2029 63.1927 69.9789 75.9476 69.9789C75.9623 63.7008 70.7736 58.7328 64.1716 58.2029Z"
                fill="#EBEBEB"
              />
              <path
                d="M87.5397 58.2102C87.5397 58.2102 75.7637 57.2314 75.7637 69.9862C82.0418 70.0083 87.0098 64.8122 87.5397 58.2102Z"
                fill="#EBEBEB"
              />
              <path
                d="M75.3967 51.7555C75.3967 51.7555 65.7624 60.4035 75.9266 69.9936C80.6517 64.9888 80.2248 57.1357 75.3967 51.7555Z"
                fill="#E0E0E0"
              />
              <path
                d="M271.333 268.095C267.445 265.664 263.052 264.154 258.49 263.679C256.393 263.466 254.074 263.525 252.411 264.798C252.218 264.912 252.059 265.075 251.949 265.27C251.839 265.465 251.783 265.686 251.785 265.909C251.89 266.218 252.101 266.479 252.381 266.645C257.607 270.627 265.512 271.135 271.333 268.081"
                fill="#E0E0E0"
              />
              <path
                d="M271.003 267.727C268.029 265.545 265.253 263.104 262.709 260.434C260.154 257.744 258.359 254.424 257.505 250.814C257.284 249.717 257.218 248.466 257.917 247.598C264.541 252.75 269.693 259.44 271.003 267.727Z"
                fill="#E0E0E0"
              />
              <path
                d="M271.268 268.044C270.654 264.434 270.704 260.743 271.415 257.151C272.247 253.596 274.182 250.196 277.222 248.164C278.363 250.836 277.87 253.913 277.068 256.702C275.821 261.026 273.877 265.118 271.312 268.817"
                fill="#E0E0E0"
              />
              <path
                d="M277.745 279.68C273.814 280.158 270.385 282.234 267.441 284.891C264.492 287.581 262.437 291.11 261.553 295.004C265.417 294.768 268.692 292.06 271.062 288.998C273.432 285.936 275.088 282.595 277.686 279.739"
                fill="#E0E0E0"
              />
              <path
                d="M279.158 281.513C277.61 277.58 277.069 273.323 277.583 269.128C278.097 264.933 279.651 260.932 282.102 257.49C284.347 265.46 283.523 274.469 279.158 281.513Z"
                fill="#E0E0E0"
              />
              <path
                d="M287.718 291.714C284.121 291.489 280.538 292.329 277.415 294.127C274.293 295.925 271.768 298.603 270.157 301.826C269.936 302.26 269.745 302.812 270.039 303.203C270.191 303.349 270.376 303.457 270.579 303.516C270.781 303.575 270.995 303.584 271.202 303.541C274.661 303.32 277.73 301.237 280.262 298.868C282.794 296.498 285.002 293.752 287.799 291.706"
                fill="#E0E0E0"
              />
              <path
                d="M287.444 291.162C285.602 285.225 285.489 278.885 287.121 272.887C287.761 270.532 288.843 268.059 291.021 266.955C291.108 266.896 291.206 266.857 291.308 266.839C291.411 266.821 291.517 266.825 291.618 266.852C291.793 266.944 291.927 267.099 291.993 267.286C292.722 268.931 293.038 270.73 292.913 272.526C292.782 274.314 292.507 276.089 292.089 277.833C291.404 281.078 291.043 284.567 289.262 287.364C288.84 288.035 288.461 288.734 288.129 289.454C287.79 290.19 287.79 290.418 287.481 290.985"
                fill="#E0E0E0"
              />
              <path
                d="M310.113 294.54C308.435 288.144 310.216 280.401 314.242 275.161C314.544 274.778 314.934 274.366 315.42 274.425C316.156 274.491 316.355 275.485 316.318 276.228C316.016 282.799 313.866 289.152 310.113 294.555"
                fill="#E0E0E0"
              />
              <path
                d="M312.16 295.931C319.925 297.955 328.831 295.99 335.285 291.228C331.416 289.289 326.996 288.748 322.773 289.697C318.593 290.654 314.773 292.523 312.168 295.931"
                fill="#E0E0E0"
              />
              <path
                d="M313.883 291.677C318.233 284.589 326.564 279.967 334.874 279.548C333.917 282.926 331.135 285.546 328.007 287.136C324.879 288.725 321.383 289.41 317.931 290.08C316.591 290.337 314.751 290.624 313.883 291.677Z"
                fill="#E0E0E0"
              />
              <path
                d="M310.548 271.039C311.726 267.006 312.911 262.943 313.235 258.748C313.559 254.553 312.955 250.188 310.784 246.589C306.721 254.45 306.316 263.628 310.423 271.459"
                fill="#E0E0E0"
              />
              <path
                d="M324.223 264.128C328.97 255.495 338.656 248.606 348.459 247.635C344.676 257.055 334.365 264.327 324.223 264.128Z"
                fill="#E0E0E0"
              />
              <path
                d="M321.234 265.821C328.315 266.896 334.35 271.422 340.967 274.16C342.352 274.832 343.891 275.127 345.427 275.014C346.143 275.01 346.841 274.786 347.425 274.372C348.01 273.958 348.453 273.374 348.694 272.7C348.935 272.025 348.963 271.293 348.773 270.602C348.584 269.911 348.186 269.296 347.635 268.839C346.697 267.974 345.596 267.306 344.396 266.874C337.183 263.871 329.455 263.797 321.86 265.615"
                fill="#E0E0E0"
              />
              <path
                d="M317.135 270.789C318.739 271.245 319.284 272.077 320.557 273.159C324.886 276.838 330.007 279.468 335.52 280.843C336.094 280.983 336.837 281.042 337.125 280.526C337.412 280.011 337.058 279.525 336.734 279.128C334.331 276.307 331.211 274.187 327.704 272.99C324.245 271.709 321.256 270.156 317.135 270.487"
                fill="#E0E0E0"
              />
              <path
                d="M312.506 240.782C315.412 243.457 318.846 245.493 322.587 246.76C326.327 248.028 330.292 248.499 334.225 248.142C334.586 248.15 334.937 248.024 335.211 247.789C335.756 247.193 335.101 246.273 334.475 245.78C328.087 240.804 320.359 238.736 312.513 240.753"
                fill="#E0E0E0"
              />
              <path
                d="M317.99 238.78C321.834 235.95 326.293 234.069 331.003 233.292C335.713 232.514 340.54 232.861 345.09 234.306C341.675 237.669 336.942 239.458 332.173 239.973C327.412 240.409 322.612 240.005 317.99 238.78Z"
                fill="#E0E0E0"
              />
              <path
                d="M315.81 224.995C315.184 218.621 315.589 213.595 315.148 207.191C315.148 206.676 315.008 206.065 314.529 205.881C313.86 205.624 313.308 206.441 313.057 207.118C312.129 210.086 311.891 213.227 312.362 216.301C312.833 219.375 314 222.301 315.773 224.855"
                fill="#E0E0E0"
              />
              <path
                d="M315.355 225.694C319.676 223.023 322.914 219.541 325.91 215.442C327.993 212.586 329.752 209.171 329.281 205.668C326.337 205.609 323.569 207.221 321.663 209.451C319.847 211.759 318.526 214.418 317.784 217.26C316.938 220.064 316.349 222.942 315.355 225.694Z"
                fill="#E0E0E0"
              />
              <path
                d="M325.724 222.817C335.225 219.298 344.021 214.111 351.698 207.5C348.599 206.249 345.074 207 341.946 208.236C334.858 211.1 329.066 215.928 325.592 222.728"
                fill="#E0E0E0"
              />
              <path
                d="M318.27 229.183C323.068 229.706 327.941 230.052 332.695 229.257C337.45 228.462 341.792 226.622 346.157 224.782C346.546 224.663 346.875 224.399 347.077 224.046C347.144 223.843 347.149 223.625 347.09 223.42C347.031 223.215 346.91 223.033 346.745 222.898C346.411 222.63 346.017 222.446 345.597 222.36C340.85 221.028 335.72 221.624 331.047 223.229C326.593 224.74 322.311 226.713 318.27 229.117"
                fill="#E0E0E0"
              />
              <path
                d="M290.891 241.003C287.623 234.379 287.836 226.695 290.655 219.887C292.65 222.92 292.863 226.776 292.524 230.39C292.186 234.004 291.052 237.706 290.994 241.334"
                fill="#E0E0E0"
              />
              <path
                d="M277.819 234.409C273.724 234.355 269.662 235.157 265.894 236.763C262.127 238.369 258.735 240.743 255.938 243.734C260.015 244.374 264.21 243.322 267.92 241.526C271.629 239.73 274.926 237.176 278.224 234.652"
                fill="#E0E0E0"
              />
              <path
                d="M269.037 231.472C265.041 231.148 261.191 230.655 257.349 231.833C253.507 233.01 249.989 235.682 248.451 239.384C252.221 239.687 256.003 238.973 259.403 237.316C262.782 235.659 266.006 233.703 269.037 231.472Z"
                fill="#E0E0E0"
              />
              <path
                d="M282.044 231.604C278.452 229.249 274.758 226.857 270.577 225.878C266.397 224.9 261.539 225.621 258.617 228.778C262.01 230.765 266.117 230.986 270.047 230.986C273.978 230.986 278.791 230.935 282.493 232.245"
                fill="#E0E0E0"
              />
              <path
                d="M282.065 231.796C275.92 225.761 273.594 214.919 276.067 206.676C280.917 214.101 283.037 222.981 282.065 231.796Z"
                fill="#E0E0E0"
              />
              <path
                d="M298.963 214.699C300.126 212.005 300.935 209.179 301.98 206.433C302.927 203.65 304.382 201.067 306.271 198.816C308.196 196.553 310.931 195.137 313.889 194.871C312.942 199.027 311.139 202.941 308.596 206.362C306.053 209.784 302.825 212.638 299.117 214.743"
                fill="#E0E0E0"
              />
              <path
                d="M295.909 218.261C293.988 215.626 291.773 212.042 289.175 210.069C286.577 208.097 283.184 206.904 280.012 207.662C281.656 210.543 283.949 213 286.708 214.84C289.468 216.679 292.618 217.851 295.909 218.261Z"
                fill="#E0E0E0"
              />
              <path
                d="M296.521 214.912C295.262 211.718 293.996 208.487 293.489 205.094C292.981 201.701 293.29 198.072 295.027 195.114C298.398 201.487 299.487 208.362 296.69 214.986"
                fill="#E0E0E0"
              />
              <path
                d="M298.994 195.121C300.908 188.799 306.693 184.14 312.941 182.005C313.718 181.691 314.558 181.565 315.392 181.637C315.807 181.686 316.199 181.854 316.519 182.122C316.84 182.39 317.075 182.746 317.195 183.146C317.424 184.221 316.533 185.185 315.723 185.899C310.837 190.069 305.156 193.206 299.024 195.121"
                fill="#E0E0E0"
              />
              <path
                d="M299.066 189.947C299.309 185.877 299.559 181.74 300.884 177.876C302.209 174.012 304.77 170.391 308.487 168.706C309.12 172.82 307.302 176.912 305.108 180.482C302.915 184.052 300.28 187.364 298.963 191.316"
                fill="#E0E0E0"
              />
              <path
                d="M298.964 192.758C297.389 188.151 297.219 182.3 294.467 178.281C292.538 175.477 289.447 173.564 287.784 170.597C286.781 173.446 286.921 176.572 288.174 179.319C289.427 182.038 291.154 184.513 293.274 186.628C295.32 188.836 297.065 190.447 298.964 192.758Z"
                fill="#E0E0E0"
              />
              <path
                d="M298.994 328.425C298.876 328.425 298.766 297.69 298.758 259.793C298.751 221.897 298.839 191.147 298.964 191.147C299.089 191.147 299.192 221.875 299.2 259.793C299.207 297.712 299.119 328.425 298.994 328.425Z"
                fill="#E0E0E0"
              />
              <path
                d="M325.851 236.366C325.48 236.547 325.093 236.693 324.695 236.801L321.516 237.875C318.837 238.788 315.149 240.083 311.153 241.747C307.156 243.41 303.462 244.823 301.334 246.663C300.488 247.374 299.813 248.267 299.362 249.276C299.06 250.012 299.009 250.439 298.965 250.431C298.947 250.324 298.947 250.215 298.965 250.108C299.012 249.802 299.089 249.501 299.193 249.21C299.594 248.138 300.254 247.182 301.114 246.428C302.397 245.343 303.833 244.453 305.375 243.785C307.075 242.99 308.967 242.159 310.969 241.334C314.98 239.693 318.697 238.39 321.405 237.573C322.759 237.154 323.863 236.837 324.636 236.631C325.032 236.505 325.438 236.416 325.851 236.366Z"
                fill="#E0E0E0"
              />
              <path
                d="M334.652 214.743C334.652 214.743 334.556 214.875 334.328 215.089L333.342 216.016L329.662 219.357L317.408 230.272C312.624 234.526 308.495 238.596 305.632 241.658C304.196 243.189 303.063 244.455 302.29 245.338C301.937 245.75 301.642 246.074 301.4 246.354C301.157 246.634 301.083 246.707 301.068 246.692C301.145 246.555 301.233 246.424 301.333 246.302C301.517 246.052 301.79 245.684 302.158 245.228C302.894 244.308 303.99 243.02 305.396 241.445C309.094 237.405 313.006 233.565 317.113 229.941C321.912 225.687 326.284 221.845 329.456 219.122L333.232 215.884L334.269 215.022C334.386 214.915 334.514 214.821 334.652 214.743Z"
                fill="#E0E0E0"
              />
              <path
                d="M312.249 234.6C312.124 234.541 313.117 232.237 314.118 229.316C315.119 226.394 315.59 223.935 315.723 223.957C315.855 223.98 315.554 226.504 314.538 229.463C314.113 230.715 313.622 231.943 313.066 233.143C312.865 233.665 312.59 234.156 312.249 234.6Z"
                fill="#E0E0E0"
              />
              <path
                d="M299.023 253.184C298.748 252.926 298.502 252.64 298.287 252.33L296.396 249.909C294.813 247.855 292.62 245.029 290.162 241.931C287.703 238.832 285.444 236.043 283.81 234.048L281.889 231.671C281.637 231.391 281.415 231.085 281.227 230.758C281.518 230.998 281.784 231.267 282.021 231.56C282.515 232.09 283.214 232.878 284.06 233.857C285.76 235.822 288.064 238.567 290.522 241.673C292.98 244.779 295.144 247.635 296.668 249.732C297.404 250.785 298.029 251.638 298.442 252.242C298.662 252.539 298.857 252.854 299.023 253.184Z"
                fill="#E0E0E0"
              />
              <path
                d="M293.134 245.64C293.061 245.721 291.493 243.852 290.669 241.025C290.205 239.518 290.015 237.94 290.109 236.366H290.301C290.22 236.72 290.154 236.911 290.117 236.904C290.08 236.896 290.08 236.698 290.117 236.337H290.316C290.407 237.87 290.672 239.389 291.103 240.863C291.891 243.616 293.252 245.566 293.134 245.64Z"
                fill="#E0E0E0"
              />
              <path
                d="M285.569 236.079C285.04 235.674 284.461 235.338 283.847 235.078C282.297 234.615 280.667 234.485 279.063 234.696C277.439 234.821 275.829 235.082 274.249 235.476C273.602 235.683 272.941 235.841 272.27 235.947C272.861 235.597 273.501 235.336 274.168 235.174C275.75 234.683 277.382 234.374 279.033 234.254C280.696 234.033 282.387 234.215 283.965 234.784C284.635 235.013 285.203 235.472 285.569 236.079Z"
                fill="#E0E0E0"
              />
              <path
                d="M283.728 233.761C283.728 233.827 282.727 233.356 281.093 232.797C276.819 231.332 272.24 230.985 267.794 231.788C266.094 232.09 265.063 232.407 265.041 232.333C265.256 232.197 265.493 232.098 265.74 232.039C266.393 231.81 267.059 231.623 267.735 231.479C272.225 230.493 276.906 230.849 281.196 232.502C281.841 232.749 282.47 233.034 283.08 233.356C283.515 233.592 283.743 233.732 283.728 233.761Z"
                fill="#E0E0E0"
              />
              <path
                d="M298.964 223.957C298.846 223.957 297.985 221.013 297.043 217.275C296.101 213.536 295.424 210.511 295.571 210.481C295.718 210.452 296.55 213.425 297.492 217.164C298.434 220.903 299.082 223.928 298.964 223.957Z"
                fill="#E0E0E0"
              />
              <path
                d="M299.09 223.957C298.957 224.002 298.398 222 296.955 219.954C296.05 218.744 294.994 217.656 293.812 216.715C294.26 216.827 294.676 217.041 295.027 217.341C295.918 217.993 296.692 218.792 297.316 219.703C298.268 220.942 298.88 222.409 299.09 223.957Z"
                fill="#E0E0E0"
              />
              <path
                d="M298.992 312.064C298.948 312.064 298.852 311.328 298.507 310.018C298 308.181 297.312 306.398 296.453 304.697C294.333 300.362 290.469 294.856 285.56 289.351C283.124 286.569 280.769 283.949 278.767 281.439C276.969 279.228 275.343 276.883 273.902 274.425C272.938 272.766 272.119 271.028 271.451 269.229C271.223 268.581 271.061 268.088 270.965 267.757C270.902 267.566 270.862 267.368 270.848 267.168C270.892 267.168 271.113 267.904 271.62 269.126C272.348 270.889 273.204 272.596 274.182 274.234C275.649 276.653 277.29 278.963 279.091 281.145C281.1 283.625 283.463 286.238 285.899 289.02C290.823 294.547 294.679 300.111 296.747 304.527C297.587 306.258 298.236 308.074 298.683 309.944C298.806 310.451 298.897 310.965 298.955 311.483C298.99 311.674 299.003 311.869 298.992 312.064Z"
                fill="#E0E0E0"
              />
              <path
                d="M323.267 284.633C322.858 284.904 322.433 285.15 321.994 285.369C320.843 286.025 319.741 286.762 318.697 287.577C317.15 288.779 315.701 290.101 314.362 291.53C312.838 293.134 311.271 295.004 309.674 296.998C306.479 301.009 303.491 304.557 301.703 307.39C300.79 308.796 300.128 309.981 299.693 310.813C299.493 311.257 299.259 311.685 298.994 312.093C299.015 311.968 299.055 311.846 299.112 311.733C299.208 311.505 299.34 311.159 299.539 310.739C300.1 309.531 300.732 308.356 301.43 307.221C303.175 304.321 306.141 300.722 309.328 296.718C310.932 294.716 312.514 292.847 314.067 291.243C315.429 289.818 316.906 288.508 318.483 287.327C319.556 286.534 320.696 285.837 321.891 285.244C322.311 285.031 322.627 284.898 322.885 284.803C322.999 284.72 323.13 284.663 323.267 284.633Z"
                fill="#E0E0E0"
              />
              <path
                d="M323.737 293.524C322.853 293.723 321.954 293.853 321.05 293.914C318.892 294.138 316.759 294.557 314.677 295.165C312.619 295.837 310.688 296.85 308.965 298.161C307.648 299.184 307.03 300.023 306.971 299.972C307.063 299.742 307.198 299.532 307.368 299.353C307.786 298.819 308.254 298.326 308.767 297.881C310.469 296.464 312.428 295.387 314.537 294.709C316.648 294.084 318.823 293.698 321.021 293.561C321.923 293.465 322.832 293.453 323.737 293.524Z"
                fill="#E0E0E0"
              />
              <path
                d="M307.751 299C307.611 298.919 308.826 297.064 309.761 294.584C310.695 292.104 310.85 289.874 311.012 289.896C311.081 290.385 311.066 290.883 310.968 291.368C310.833 292.527 310.569 293.668 310.18 294.768C309.773 295.859 309.25 296.903 308.62 297.881C308.393 298.299 308.1 298.677 307.751 299Z"
                fill="#E0E0E0"
              />
              <path
                d="M331.126 260.757C330.989 260.846 330.843 260.923 330.692 260.986L329.426 261.56C328.874 261.795 328.204 262.097 327.446 262.494C326.688 262.892 325.805 263.289 324.878 263.849L323.406 264.68C322.898 264.975 322.39 265.321 321.86 265.652C320.778 266.314 319.696 267.124 318.541 267.941C313.59 271.638 309.27 276.111 305.749 281.189C304.969 282.374 304.196 283.485 303.578 284.589C303.261 285.134 302.93 285.649 302.658 286.164L301.87 287.636C301.348 288.578 300.98 289.476 300.612 290.249C300.244 291.022 299.957 291.721 299.743 292.266L299.213 293.546C299.159 293.701 299.088 293.849 299 293.988C299.022 293.826 299.064 293.668 299.125 293.517C299.25 293.171 299.397 292.737 299.581 292.199C299.815 291.504 300.082 290.821 300.384 290.153C300.73 289.366 301.083 288.453 301.591 287.496L302.327 285.98C302.592 285.458 302.916 284.935 303.232 284.376C303.836 283.257 304.601 282.168 305.381 280.939C308.887 275.797 313.243 271.29 318.261 267.61C319.439 266.785 320.535 265.983 321.632 265.335C322.177 265.004 322.684 264.666 323.2 264.379L324.672 263.562C325.606 263.024 326.512 262.634 327.284 262.266C327.941 261.939 328.614 261.647 329.301 261.39L330.604 260.897C330.77 260.826 330.946 260.779 331.126 260.757Z"
                fill="#E0E0E0"
              />
              <path
                d="M311.918 273.623C312.098 273.004 312.466 272.456 312.97 272.055C314.153 271.023 315.663 270.444 317.232 270.421C318.767 270.411 320.289 270.709 321.707 271.297C322.307 271.487 322.877 271.762 323.4 272.114C322.795 271.994 322.204 271.817 321.633 271.584C320.228 271.103 318.754 270.855 317.269 270.848C315.797 270.879 314.374 271.379 313.206 272.276C312.746 272.694 312.315 273.144 311.918 273.623Z"
                fill="#E0E0E0"
              />
              <path
                d="M309.047 276.589C308.922 276.523 310.004 274.933 310.254 272.659C310.504 270.384 309.849 268.588 309.982 268.552C310.114 268.515 310.276 268.949 310.482 269.7C311.007 271.678 310.762 273.782 309.798 275.588C309.423 276.265 309.121 276.618 309.047 276.589Z"
                fill="#E0E0E0"
              />
              <path
                d="M277.768 316.48C278.43 328.256 281.97 340.172 287.417 352.25H311.086C316.282 340.253 319.572 328.33 320.161 316.48H277.768Z"
                fill="#E0E0E0"
              />
              <path
                d="M316.326 335.447C316.326 335.572 308.532 335.675 298.912 335.675C289.293 335.675 281.506 335.572 281.506 335.447C281.506 335.322 289.3 335.226 298.912 335.226C308.524 335.226 316.326 335.329 316.326 335.447Z"
                fill="#FAFAFA"
              />
              <path
                d="M315.796 339.701C315.796 339.826 308.487 339.929 299.479 339.929C290.47 339.929 283.154 339.826 283.154 339.701C283.154 339.576 290.463 339.48 299.479 339.48C308.495 339.48 315.796 339.583 315.796 339.701Z"
                fill="#FAFAFA"
              />
              <path
                d="M287.777 324.156C288.072 327.786 288.072 331.434 287.777 335.064C287.652 335.064 287.557 332.62 287.557 329.61C287.557 326.6 287.674 324.156 287.777 324.156Z"
                fill="#FAFAFA"
              />
              <path
                d="M300.481 324.156C300.606 324.156 300.701 326.681 300.701 329.802C300.701 332.922 300.606 335.447 300.481 335.447C300.355 335.447 300.26 332.922 300.26 329.802C300.26 326.681 300.355 324.156 300.481 324.156Z"
                fill="#FAFAFA"
              />
              <path
                d="M312.389 324.061C312.514 324.061 312.61 326.637 312.61 329.816C312.61 332.996 312.514 335.579 312.389 335.579C312.264 335.579 312.168 333.003 312.168 329.816C312.168 326.629 312.264 324.061 312.389 324.061Z"
                fill="#FAFAFA"
              />
              <path
                d="M319.425 324.156C319.425 324.282 310.284 324.377 299.008 324.377C287.733 324.377 278.592 324.282 278.592 324.156C278.592 324.031 287.726 323.936 299.008 323.936C310.291 323.936 319.425 324.031 319.425 324.156Z"
                fill="#FAFAFA"
              />
              <path
                d="M306.707 206.985H38.4492V215.251H306.707V206.985Z"
                fill="#EBEBEB"
              />
              <path
                d="M61.6548 214.235L41.5547 352.213H45.8676L70.6561 215.251L61.6548 214.235Z"
                fill="#EBEBEB"
              />
              <path
                d="M287.763 213.359L308.967 352.213H304.661L278.754 214.625L287.763 213.359Z"
                fill="#EBEBEB"
              />
              <path
                d="M48.6352 173.696V192.302H45.5293V194.304H48.6352V206.757H106.72V195.423H102.422V192.95H106.72V189.27H108.634V187.592H106.352V173.696H48.6352Z"
                fill="#F5F5F5"
              />
              <path
                d="M91.2871 173.725V206.544H106.706V195.217H102.408V192.957L106.706 193.031V189.329H108.657L108.62 187.415L106.353 187.364V173.674L91.2871 173.725Z"
                fill="#E0E0E0"
              />
              <path
                d="M92.3839 194.032C92.3839 194.149 81.8812 194.238 68.9203 194.238C55.9593 194.238 45.4492 194.149 45.4492 194.032C45.4492 193.914 55.9593 193.826 68.9203 193.826C81.8812 193.826 92.3839 193.921 92.3839 194.032Z"
                fill="#E0E0E0"
              />
              <path
                d="M92.3839 192.14C92.3839 192.258 81.8812 192.346 68.9203 192.346C55.9593 192.346 45.4492 192.258 45.4492 192.14C45.4492 192.022 55.9593 191.934 68.9203 191.934C81.8812 191.934 92.3839 192.03 92.3839 192.14Z"
                fill="#E0E0E0"
              />
              <path
                d="M95.4015 187.054C95.4015 187.172 84.8914 187.26 71.9378 187.26C58.9842 187.26 48.4668 187.172 48.4668 187.054C48.4668 186.937 58.9695 186.848 71.9378 186.848C84.9062 186.848 95.4015 186.944 95.4015 187.054Z"
                fill="#E0E0E0"
              />
              <path
                d="M95.6808 200.928C95.6808 201.046 85.1781 201.141 72.2171 201.141C59.2562 201.141 48.7461 201.046 48.7461 200.928C48.7461 200.81 59.2488 200.722 72.2171 200.722C85.1855 200.722 95.6808 200.803 95.6808 200.928Z"
                fill="#E0E0E0"
              />
              <path
                d="M111.012 161.213H100.885V173.254H111.012V161.213Z"
                fill="#F5F5F5"
              />
              <path
                d="M101.229 160.426H55.4648V174.005H101.229V160.426Z"
                fill="#E0E0E0"
              />
              <path
                d="M111.312 161.574H100V160.448H111.312C111.465 160.448 111.611 160.508 111.718 160.616C111.826 160.724 111.886 160.87 111.886 161.022C111.881 161.17 111.818 161.311 111.711 161.414C111.604 161.517 111.461 161.574 111.312 161.574Z"
                fill="#E0E0E0"
              />
              <path
                d="M111.312 174.012H100V172.864H111.312C111.465 172.864 111.611 172.925 111.718 173.032C111.826 173.14 111.886 173.286 111.886 173.438C111.886 173.591 111.826 173.737 111.718 173.844C111.611 173.952 111.465 174.012 111.312 174.012Z"
                fill="#E0E0E0"
              />
              <path
                d="M97.6381 160.426H92.2285V174.005H97.6381V160.426Z"
                fill="#EBEBEB"
              />
              <path
                d="M65.2319 160.58H59.8223V174.16H65.2319V160.58Z"
                fill="#EBEBEB"
              />
              <path
                d="M111.011 163.208C111.011 163.208 108.803 163.267 106.117 163.267C103.43 163.267 101.215 163.267 101.215 163.208C101.215 163.149 103.423 163.142 106.117 163.142C108.81 163.142 111.011 163.171 111.011 163.208Z"
                fill="#E0E0E0"
              />
              <path
                d="M111.011 165.011C111.011 165.011 108.803 165.07 106.117 165.07C103.43 165.07 101.215 165.07 101.215 165.011C101.215 164.952 103.423 164.952 106.117 164.952C108.81 164.952 111.011 164.974 111.011 165.011Z"
                fill="#E0E0E0"
              />
              <path
                d="M111.011 167.234C111.011 167.234 108.803 167.293 106.117 167.293C103.43 167.293 101.215 167.293 101.215 167.234C101.215 167.175 103.423 167.175 106.117 167.175C108.81 167.175 111.011 167.197 111.011 167.234Z"
                fill="#E0E0E0"
              />
              <path
                d="M111.011 169.457C111.011 169.457 108.803 169.516 106.117 169.516C103.43 169.516 101.215 169.516 101.215 169.457C101.215 169.398 103.423 169.398 106.117 169.398C108.81 169.398 111.011 169.42 111.011 169.457Z"
                fill="#E0E0E0"
              />
              <path
                d="M111.011 171.679C111.011 171.679 108.803 171.738 106.117 171.738C103.43 171.738 101.215 171.738 101.215 171.679C101.215 171.62 103.423 171.62 106.117 171.62C108.81 171.62 111.011 171.643 111.011 171.679Z"
                fill="#E0E0E0"
              />
              <path
                d="M89.3144 166.012H68.7285V168.456H89.3144V166.012Z"
                fill="#EBEBEB"
              />
              <path
                d="M91.6177 147.244L97.3143 160.625H93.649L91.1172 153.478L91.6177 147.244Z"
                fill="#E0E0E0"
              />
              <path
                d="M74.1303 135.144L71.9297 160.625H90.5431L92.5892 135.144H74.1303Z"
                fill="#EBEBEB"
              />
              <path
                d="M75.9479 137.161L74.0195 158.505L87.9962 158.689L89.8803 137.036L75.9479 137.161Z"
                fill="#FAFAFA"
              />
              <path
                d="M78.915 140.12L77.8184 154.803H85.274L86.5841 140.12H78.915Z"
                fill="#E0E0E0"
              />
              <path
                d="M292.811 40.4329L285.93 40.4702L286.115 74.7157L292.996 74.6785L292.811 40.4329Z"
                fill="#E0E0E0"
              />
              <path
                d="M244.126 40.5199L226.301 40.6163L226.403 59.5239L244.229 59.4275L244.126 40.5199Z"
                fill="#EBEBEB"
              />
              <path
                d="M261.865 40.4313L244.039 40.5277L244.141 59.4353L261.967 59.3389L261.865 40.4313Z"
                fill="#F5F5F5"
              />
              <path
                d="M226.328 45.8528C238.171 45.9558 250.05 45.8528 261.892 45.6909C261.935 45.6822 261.974 45.6588 262.003 45.6246C262.031 45.5904 262.046 45.5475 262.046 45.5032C262.046 45.4589 262.031 45.416 262.003 45.3818C261.974 45.3476 261.935 45.3242 261.892 45.3155C250.052 45.2468 238.2 45.318 226.336 45.529C226.293 45.529 226.252 45.546 226.221 45.5764C226.191 45.6068 226.174 45.6479 226.174 45.6909C226.174 45.7338 226.191 45.775 226.221 45.8054C226.252 45.8357 226.293 45.8528 226.336 45.8528H226.328Z"
                fill="#E0E0E0"
              />
              <path
                d="M247.577 59.1218L215.193 59.297L215.277 74.7013L247.66 74.5261L247.577 59.1218Z"
                fill="#EBEBEB"
              />
              <path
                d="M279.805 58.9401L247.422 59.1153L247.505 74.5196L279.889 74.3443L279.805 58.9401Z"
                fill="#F5F5F5"
              />
              <path
                d="M215.207 63.5904C236.72 63.8333 258.307 63.5904 279.82 63.2739C279.871 63.2739 279.92 63.2538 279.956 63.2179C279.991 63.182 280.012 63.1333 280.012 63.0826C280.012 63.0318 279.991 62.9831 279.956 62.9472C279.92 62.9114 279.871 62.8912 279.82 62.8912C258.307 62.7808 236.713 62.7882 215.207 63.2666C215.164 63.2666 215.123 63.2836 215.092 63.314C215.062 63.3444 215.045 63.3855 215.045 63.4285C215.045 63.4714 215.062 63.5126 215.092 63.543C215.123 63.5733 215.164 63.5904 215.207 63.5904Z"
                fill="#E0E0E0"
              />
              <path
                d="M328.558 74.7114H203.1V80.2314H328.558V74.7114Z"
                fill="#E0E0E0"
              />
              <path
                d="M228.734 77.3683H223.641V96.2026H228.734V77.3683Z"
                fill="#E0E0E0"
              />
              <path
                d="M304.763 77.3683H299.67V96.2026H304.763V77.3683Z"
                fill="#E0E0E0"
              />
              <path
                d="M299.522 27.6638L292.641 27.701L292.895 74.8043L299.777 74.7671L299.522 27.6638Z"
                fill="#EBEBEB"
              />
              <path
                d="M310.278 36.4376L299.584 36.4955L299.79 74.6639L310.484 74.606L310.278 36.4376Z"
                fill="#F5F5F5"
              />
              <path
                d="M310.21 43.7994C308.432 43.9837 306.645 44.0452 304.859 43.9834C303.076 44.0453 301.29 43.9839 299.516 43.7994C303.076 43.554 306.649 43.554 310.21 43.7994Z"
                fill="#E0E0E0"
              />
              <path
                d="M310.21 42.1949C308.432 42.3792 306.645 42.4407 304.859 42.3789C303.076 42.4409 301.29 42.3794 299.516 42.1949C303.076 41.9496 306.649 41.9496 310.21 42.1949Z"
                fill="#E0E0E0"
              />
              <path
                d="M310.21 68.8749C306.649 69.1202 303.076 69.1202 299.516 68.8749C303.076 68.6296 306.649 68.6296 310.21 68.8749Z"
                fill="#E0E0E0"
              />
              <path
                d="M310.21 67.2704C306.649 67.5157 303.076 67.5157 299.516 67.2704C303.076 67.0251 306.649 67.0251 310.21 67.2704Z"
                fill="#E0E0E0"
              />
              <path
                d="M305.035 63.7744C304.932 63.7744 304.844 59.9251 304.844 55.1706C304.844 50.416 304.932 46.5741 305.035 46.5741C305.138 46.5741 305.219 50.4234 305.219 55.1706C305.219 59.9178 305.131 63.7744 305.035 63.7744Z"
                fill="#E0E0E0"
              />
              <path
                d="M321.964 45.8234H310.32V74.6378H321.964V45.8234Z"
                fill="#EBEBEB"
              />
              <path
                d="M297.964 35.7181C297.965 36.11 297.85 36.4935 297.633 36.82C297.417 37.1466 297.108 37.4015 296.746 37.5525C296.385 37.7034 295.987 37.7437 295.602 37.6681C295.217 37.5926 294.864 37.4046 294.586 37.128C294.309 36.8514 294.119 36.4987 294.042 36.1144C293.966 35.7302 294.004 35.3317 294.154 34.9695C294.304 34.6073 294.557 34.2977 294.883 34.0798C295.209 33.8619 295.592 33.7456 295.984 33.7456C296.508 33.7456 297.01 33.9532 297.381 34.3229C297.752 34.6926 297.962 35.1943 297.964 35.7181Z"
                fill="#E0E0E0"
              />
              <path
                d="M296.595 41.1645H295.373V69.184H296.595V41.1645Z"
                fill="#E0E0E0"
              />
              <path
                d="M338.45 352.213C338.45 352.316 269.266 352.404 184.008 352.404C98.7495 352.404 29.5508 352.316 29.5508 352.213C29.5508 352.11 98.6906 352.021 184.008 352.021C269.325 352.021 338.45 352.102 338.45 352.213Z"
                fill="#263238"
              />
              <path
                d="M182.741 258.976L213.086 352.213H207.559L172.01 258.976H182.741Z"
                fill="#E0E0E0"
              />
              <path
                d="M182.741 258.976H182.005H179.944L171.981 259.02L172.054 258.91C178.148 274.786 191.286 309.12 206.506 348.864C206.919 349.953 207.331 351.072 207.743 352.11L207.566 351.992H213.086L212.902 352.242C204.431 326.107 196.872 302.812 191.433 286.046C188.725 277.649 186.546 270.892 185.045 266.219C184.309 263.885 183.72 262.075 183.322 260.838L182.881 259.433C182.785 259.116 182.741 258.947 182.741 258.947C182.741 258.947 182.8 259.094 182.903 259.403L183.367 260.78C183.771 262.009 184.367 263.797 185.133 266.108C186.664 270.767 188.872 277.501 191.624 285.862C197.108 302.651 204.725 325.967 213.263 352.102L213.344 352.353H207.456L207.404 352.228C206.999 351.153 206.58 350.071 206.168 348.982C191.043 309.179 177.979 274.808 171.951 258.954V258.844H172.069L180.077 258.888H182.115C182.527 258.962 182.741 258.976 182.741 258.976Z"
                fill="#263238"
              />
              <path
                d="M123.023 258.976L92.6777 352.213H98.1977L133.754 258.976H123.023Z"
                fill="#E0E0E0"
              />
              <path
                d="M123.022 258.976C123.022 258.976 123.25 258.976 123.707 258.976H125.745L133.753 258.932H133.871L133.827 259.043C127.806 274.896 114.742 309.267 99.6174 349.07L98.3736 352.316L98.3294 352.441H92.4414L92.5224 352.191L114.168 285.951L120.66 266.196C121.396 263.885 122.021 262.097 122.426 260.868L122.89 259.492C122.993 259.182 123.052 259.035 123.052 259.035C123.052 259.035 123.007 259.204 122.912 259.521L122.47 260.927C122.073 262.163 121.491 263.974 120.748 266.307C119.239 270.98 117.068 277.737 114.359 286.135C108.913 302.901 101.362 326.195 92.8904 352.331L92.7064 352.08H98.2264L98.0497 352.198L99.2862 348.952C114.507 309.208 127.644 274.844 133.702 259.006L133.783 259.116L125.812 259.072H123.758L123.022 258.976Z"
                fill="#263238"
              />
              <path
                d="M172.79 261.022C172.624 261.164 172.447 261.292 172.26 261.405L170.7 262.436L164.952 266.204C160.102 269.398 153.411 273.829 146.059 278.76L127.232 291.456L121.521 295.291L119.968 296.277C119.792 296.407 119.605 296.52 119.408 296.615C119.57 296.471 119.742 296.338 119.923 296.218L121.44 295.136L127.085 291.206C131.861 287.908 138.493 283.382 145.853 278.451C153.213 273.52 159.918 269.118 164.812 265.983C167.256 264.423 169.228 263.164 170.626 262.303L172.224 261.332C172.404 261.214 172.594 261.111 172.79 261.022Z"
                fill="#263238"
              />
              <path
                d="M114.574 159.58C114.574 159.58 105.065 160.558 103.681 166.284C102.297 172.011 97.7929 242.828 103.681 252.86C109.569 262.892 185.377 261.493 190.639 260.117C195.902 258.741 198.382 255.326 197.845 251.153C197.307 246.98 145.684 241.805 145.684 241.805L148.834 167.896C148.834 167.896 130.273 158.549 114.574 159.58Z"
                fill="#263238"
              />
              <path
                d="M197.889 252.941H197.66H196.983L194.385 253.007C192.126 253.066 188.858 253.096 184.817 253.088C176.721 253.088 165.571 252.809 153.272 251.925C147.127 251.476 141.275 250.91 135.969 250.306C130.662 249.703 125.893 249.04 121.904 248.415C119.902 248.12 118.106 247.804 116.524 247.539C114.941 247.274 113.58 247.031 112.468 246.803L109.914 246.31L109.252 246.177L109.031 246.118C109.107 246.109 109.184 246.109 109.259 246.118L109.929 246.214L112.498 246.634C113.609 246.825 114.971 247.053 116.561 247.289C118.15 247.524 119.946 247.833 121.941 248.106C125.937 248.702 130.706 249.313 136.006 249.916C141.305 250.52 147.156 251.057 153.302 251.506C165.593 252.389 176.743 252.691 184.817 252.779C188.85 252.823 192.118 252.831 194.385 252.823H197.668L197.889 252.941Z"
                fill="#455A64"
              />
              <path
                d="M186.76 297.66C186.702 297.749 174.69 289.307 159.941 278.819C145.191 268.331 133.275 259.742 133.334 259.683C133.393 259.624 145.405 268.036 160.161 278.532C174.918 289.027 186.819 297.572 186.76 297.66Z"
                fill="#263238"
              />
              <path
                d="M121.293 95.9965L115.221 85.3024C118.971 79.2134 120.308 71.9419 118.969 64.9171C117.63 57.8923 113.712 51.6224 107.985 47.3399C102.258 43.0573 95.1361 41.0718 88.0194 41.7736C80.9027 42.4754 74.3059 45.8138 69.5256 51.1326C64.7454 56.4514 62.1275 63.3658 62.1865 70.5168C62.2455 77.6678 64.9772 84.5381 69.8446 89.7773C74.712 95.0164 81.363 98.2455 88.4903 98.8298C95.6176 99.414 102.706 97.3112 108.361 92.9347L121.293 95.9965Z"
                fill="white"
              />
              <path
                d="M121.293 95.9965L108.325 93.0525H108.148L108.258 92.9053L108.42 93.0672C104.434 96.182 99.6919 98.1833 94.6791 98.8669C93.1779 99.0803 91.6606 99.1591 90.1453 99.1024C89.3652 99.0582 88.5703 99.0362 87.768 98.9699L85.3466 98.6093C78.131 97.1935 71.7254 93.0828 67.4324 87.113C65.0482 83.8202 63.3946 80.0563 62.5821 76.073C61.7576 71.848 61.8732 67.4934 62.9207 63.3181C64.0048 58.9604 66.1115 54.9236 69.0663 51.5421C72.0661 48.0712 75.8509 45.3663 80.1063 43.6522C84.188 42.0404 88.5796 41.3663 92.9568 41.6797C97.0905 41.9648 101.111 43.1558 104.733 45.1683C111.242 48.7691 116.121 54.731 118.364 61.824C119.247 64.8517 119.666 67.9958 119.607 71.1491C119.451 76.179 117.971 81.0788 115.317 85.3539V85.2362L121.293 95.9891C120.895 95.312 119.026 92.081 115.125 85.3466V85.295V85.2362C117.723 80.981 119.157 76.1181 119.284 71.1344C119.332 68.0212 118.905 64.9189 118.018 61.9344C115.802 54.9226 110.985 49.0256 104.556 45.4554C100.983 43.4781 97.0173 42.3121 92.9421 42.0403C88.632 41.7343 84.3082 42.4009 80.2903 43.9907C76.1026 45.6808 72.3785 48.3452 69.4269 51.7629C66.5162 55.093 64.4422 59.0696 63.377 63.3622C62.3383 67.4711 62.2202 71.7586 63.0311 75.9184C63.8179 79.8591 65.4391 83.5858 67.7856 86.848C72.0112 92.7518 78.3278 96.8233 85.4496 98.2339L87.8416 98.6019C88.6365 98.6682 89.4167 98.6903 90.1895 98.7418C91.6869 98.8019 93.1868 98.7305 94.6717 98.5283C99.6383 97.8729 104.345 95.9208 108.317 92.8685L109.053 92.3165L108.501 93.0525L108.435 92.8759L121.293 95.9965Z"
                fill="#263238"
              />
              <path
                d="M85.942 66.4829H87.7526L91.6975 60.9776V57.3638C91.6975 57.3638 94.4943 57.1946 94.1705 61.9197C93.8466 66.6448 94.1705 65.4451 94.1705 65.4451C94.1705 65.4451 100.11 65.4451 100.603 65.9898C100.964 66.3578 101.126 72.2605 101.185 75.4547C101.226 76.2267 101.006 76.9901 100.562 77.6227C100.118 78.2552 99.4738 78.7203 98.7337 78.9434C98.5252 79.0015 98.3098 79.0313 98.0934 79.0317C96.6214 79.0317 89.0479 77.8246 89.0479 77.8246H85.9199L85.942 66.4829Z"
                fill="#407BFF"
              />
              <path
                d="M80.7617 65.4893L81.8804 77.8614H84.979V65.7395L80.7617 65.4893Z"
                fill="#407BFF"
              />
              <path
                d="M235.792 222.272C235.792 222.272 252.823 222.272 253.522 238.14C254.221 254.008 203.945 337.721 203.945 337.721L188.025 330.162L222.161 248.93L148.09 241.644L150.187 223.008L235.792 222.272Z"
                fill="#FFBE9D"
              />
              <path
                d="M207.31 332.893L206.816 334.019C206.816 334.019 222.42 350.064 221.021 353.758L183.404 336.83L189.55 324.539C193.973 329.654 199.699 332.584 207.31 332.893Z"
                fill="#455A64"
              />
              <g opacity="0.6">
                <path
                  d="M191.558 330.265C191.147 330.214 190.731 330.315 190.389 330.549C190.047 330.784 189.803 331.136 189.704 331.539C189.635 331.948 189.727 332.368 189.96 332.712C190.193 333.056 190.549 333.297 190.955 333.386C191.391 333.439 191.831 333.33 192.191 333.078C192.551 332.827 192.805 332.452 192.905 332.024C192.934 331.59 192.792 331.162 192.511 330.831C192.229 330.5 191.829 330.292 191.396 330.251"
                  fill="white"
                />
              </g>
              <g opacity="0.6">
                <path
                  d="M183.404 336.838L184.876 333.894L220.388 351.197C220.388 351.197 221.735 352.669 221.014 353.773L183.404 336.838Z"
                  fill="white"
                />
              </g>
              <path
                d="M206.897 334.181C206.809 334.357 205.852 334.034 204.689 334.218C203.527 334.402 202.688 334.954 202.548 334.806C202.408 334.659 203.166 333.717 204.586 333.518C206.007 333.32 207.015 334.026 206.897 334.181Z"
                fill="#263238"
              />
              <path
                d="M210.114 337.589C210.077 337.78 209.135 337.736 208.163 338.236C207.192 338.737 206.64 339.473 206.463 339.384C206.286 339.296 206.632 338.199 207.854 337.603C209.076 337.007 210.187 337.412 210.114 337.589Z"
                fill="#263238"
              />
              <path
                d="M210.23 343.315C210.046 343.315 210.23 342.247 211.121 341.453C212.012 340.658 213.086 340.65 213.094 340.834C213.101 341.018 212.358 341.32 211.622 341.982C210.886 342.645 210.422 343.381 210.23 343.315Z"
                fill="#263238"
              />
              <path
                d="M203.569 162.443L206.594 171.694L190.101 172.982L188.18 168.029L203.569 162.443Z"
                fill="#FFBE9D"
              />
              <path
                d="M250.401 174.579C250.718 175.212 251.542 175.315 252.175 175.646C252.765 175.984 253.247 176.48 253.569 177.079C253.89 177.677 254.037 178.354 253.993 179.032C253.887 180.388 253.439 181.694 252.69 182.83C252.46 183.291 252.125 183.692 251.711 184C251.502 184.146 251.253 184.224 250.997 184.224C250.742 184.224 250.493 184.146 250.283 184C249.798 183.595 249.857 182.844 249.96 182.219C250.35 179.871 249.842 176.905 250.394 174.587"
                fill="#FFBE9D"
              />
              <path
                d="M140.708 58.5782C140.568 57.5461 140.82 56.4991 141.414 55.6435C142.008 54.788 142.901 54.186 143.917 53.9562L162.125 42.3715C169.066 40.8112 177.809 52.4032 179.053 59.3952C180.31 67.0802 180.803 74.8707 180.525 82.6528C180.025 94.6202 172.179 95.9008 172.179 95.9008L178.067 135.696L149.694 118.202L140.708 58.5782Z"
                fill="#FFBE9D"
              />
              <path
                d="M175.271 69.3238C175.32 69.7152 175.214 70.1101 174.976 70.4248C174.739 70.7395 174.388 70.9491 173.998 71.0093C173.614 71.0802 173.218 70.9961 172.897 70.7753C172.575 70.5545 172.355 70.2151 172.283 69.8317C172.234 69.4403 172.34 69.0454 172.578 68.7307C172.816 68.4161 173.167 68.2064 173.556 68.1462C173.94 68.0753 174.336 68.1594 174.657 68.3802C174.979 68.601 175.2 68.9404 175.271 69.3238Z"
                fill="#263238"
              />
              <path
                d="M177.612 65.0256C177.465 65.1875 176.258 65.1654 174.734 65.7616C173.211 66.3578 172.202 67.1526 172.011 67.1085C171.82 67.0643 172.011 66.8509 172.475 66.4829C173.114 65.9606 173.839 65.5523 174.617 65.2758C175.359 64.9902 176.147 64.843 176.942 64.8416C177.472 64.8269 177.686 64.952 177.612 65.0256Z"
                fill="#263238"
              />
              <path
                d="M160.198 70.0525C160.244 70.4446 160.137 70.8395 159.898 71.1539C159.659 71.4683 159.307 71.6777 158.917 71.7379C158.535 71.8067 158.141 71.7216 157.821 71.501C157.501 71.2804 157.281 70.9422 157.21 70.5603C157.159 70.1686 157.264 69.7727 157.502 69.4576C157.74 69.1425 158.092 68.9333 158.483 68.8749C158.867 68.8039 159.263 68.8881 159.584 69.1089C159.906 69.3297 160.126 69.669 160.198 70.0525Z"
                fill="#263238"
              />
              <path
                d="M161.78 68.1094C161.559 68.1978 160.426 67.5206 158.667 67.263C156.908 67.0054 155.531 67.263 155.362 67.1453C155.193 67.0275 155.531 66.9024 156.098 66.7626C156.981 66.5872 157.888 66.5698 158.777 66.711C159.639 66.829 160.47 67.1087 161.228 67.5354C161.751 67.8371 161.92 68.0726 161.78 68.1094Z"
                fill="#263238"
              />
              <path
                d="M168.964 78.119C169.786 77.7473 170.651 77.4826 171.54 77.3315C171.945 77.2432 172.328 77.1181 172.365 76.8237C172.352 76.3924 172.205 75.9758 171.945 75.6314C171.454 74.65 170.925 73.6466 170.355 72.6211C168.147 68.3302 166.469 64.7827 166.675 64.6944C166.881 64.6061 168.795 68.0138 171.018 72.3046L172.556 75.337C172.876 75.8074 173.019 76.3756 172.961 76.9414C172.917 77.0942 172.84 77.2352 172.734 77.3537C172.628 77.4723 172.497 77.5653 172.35 77.6259C172.127 77.7131 171.895 77.7724 171.658 77.8026C170.777 78.02 169.872 78.1263 168.964 78.119Z"
                fill="#263238"
              />
              <path
                d="M172.172 95.9302C166.675 96.7431 161.06 95.9774 155.98 93.7222C155.98 93.7222 160.816 101.995 172.445 99.5219L172.172 95.9302Z"
                fill="#EB996E"
              />
              <path
                d="M169.148 82.0861C168.753 81.5705 168.247 81.1502 167.667 80.856C167.087 80.5617 166.449 80.4011 165.8 80.3859C165.424 80.3938 165.06 80.5155 164.755 80.7349C164.45 80.9544 164.219 81.2613 164.092 81.615C163.965 82.0719 163.95 82.5528 164.049 83.0167C164.147 83.4806 164.357 83.9138 164.659 84.2794C164.956 84.6662 165.359 84.958 165.819 85.1188C166.279 85.2796 166.776 85.3025 167.25 85.1846C168.017 84.8679 168.672 84.3266 169.126 83.6317C169.291 83.4547 169.41 83.2399 169.472 83.0061C169.499 82.8586 169.493 82.707 169.455 82.562C169.417 82.417 169.348 82.2822 169.251 82.167"
                fill="#EB996E"
              />
              <path
                d="M164.32 79.7971C164.585 79.7456 164.791 81.5046 166.439 82.5792C168.088 83.6538 169.943 83.2416 169.987 83.4845C169.987 83.5949 169.611 83.8746 168.817 83.9923C167.789 84.1262 166.747 83.8944 165.873 83.3373C165.033 82.7979 164.437 81.9533 164.209 80.9821C164.055 80.224 164.202 79.7971 164.32 79.7971Z"
                fill="#263238"
              />
              <path
                d="M162.295 60.8746C162.141 61.3162 160.507 61.1322 158.615 61.3971C156.724 61.6621 155.163 62.1994 154.898 61.8093C154.781 61.6179 155.046 61.1984 155.634 60.7568C156.458 60.2133 157.394 59.8645 158.372 59.737C159.35 59.6094 160.345 59.7065 161.28 60.0208C162.001 60.352 162.362 60.6611 162.295 60.8746Z"
                fill="#263238"
              />
              <path
                d="M177.7 61.3971C177.384 61.8019 175.956 61.5811 174.285 61.7504C172.615 61.9197 171.231 62.3466 170.863 61.9933C170.694 61.824 170.863 61.4266 171.459 61.0144C172.269 60.4951 173.193 60.1796 174.152 60.095C175.111 60.0104 176.076 60.1592 176.964 60.5286C177.597 60.8451 177.833 61.1984 177.7 61.3971Z"
                fill="#263238"
              />
              <path
                d="M132.723 89.1664C133.017 83.8304 133.871 66.7478 137.315 57.4301C140.76 48.1123 145.61 43.9392 150.6 41.9741C152.485 41.1688 154.546 40.8636 156.583 41.0879C158.62 41.3123 160.565 42.0586 162.229 43.2547C164.79 45.0653 166.277 51.0269 166.277 51.0269C166.277 51.0269 154.17 55.2074 150.821 62.8029C146.942 71.4877 146.25 75.7123 146.25 75.7123L145.205 80.3418C145.205 80.3418 147.48 100.464 148.503 104.63L132.09 120.498C132.627 115.258 132.428 94.495 132.723 89.1664Z"
                fill="#263238"
              />
              <path
                d="M166.637 51.0563C166.637 51.0563 173.651 49.4739 177.191 57.1946C178.796 60.6906 180.386 71.2742 180.386 71.2742C180.386 71.2742 180.982 62.6262 180.054 57.9232C179.127 53.2202 176.073 47.4794 172.054 44.5722C168.036 41.665 164.989 40.5683 158.703 41.6723C160.596 42.1456 162.314 43.149 163.656 44.5648C164.606 45.6762 165.077 46.6624 166.637 51.0563Z"
                fill="#263238"
              />
              <path
                d="M146.383 76.2864C145.956 73.6957 142.923 72.2826 140.819 73.8502C139.663 74.704 138.883 76.2496 139.31 79.0022C140.458 86.3622 147.575 83.6685 147.553 83.4624C147.531 83.2563 146.883 79.3114 146.383 76.2864Z"
                fill="#FFBE9D"
              />
              <path
                d="M144.883 81.0262C144.883 81.0262 144.772 81.1366 144.573 81.2691C144.287 81.4433 143.945 81.5037 143.617 81.4384C142.8 81.2765 141.961 80.143 141.718 78.833C141.6 78.2074 141.625 77.5633 141.791 76.9488C141.821 76.7085 141.91 76.4793 142.05 76.2815C142.19 76.0838 142.377 75.9237 142.594 75.8154C142.735 75.7559 142.893 75.7469 143.04 75.7897C143.187 75.8326 143.316 75.9248 143.403 76.0509C143.536 76.2422 143.506 76.3894 143.55 76.3968C143.595 76.4042 143.69 76.2496 143.55 75.9552C143.482 75.7801 143.354 75.6344 143.19 75.543C142.963 75.4232 142.699 75.3968 142.454 75.4694C142.161 75.5767 141.901 75.7566 141.698 75.9923C141.494 76.2279 141.354 76.5115 141.291 76.8163C141.08 77.4977 141.039 78.2206 141.173 78.9213C141.445 80.3933 142.417 81.6592 143.528 81.799C143.733 81.8251 143.941 81.8049 144.138 81.7399C144.334 81.675 144.513 81.5669 144.662 81.4237C144.897 81.2029 144.912 81.0336 144.883 81.0262Z"
                fill="#EB996E"
              />
              <path
                d="M153.492 41.1645C153.492 41.2234 154.508 41.0762 156.127 41.1056C157.074 41.1242 158.013 41.2906 158.909 41.5987C159.997 42.0012 160.997 42.6111 161.853 43.3946C163.437 44.8102 164.672 46.5737 165.46 48.5466C166.063 50.0186 166.196 51.0637 166.284 51.049C166.273 50.813 166.239 50.5787 166.181 50.3498C165.594 47.5923 164.139 45.0954 162.03 43.2253C161.147 42.4075 160.108 41.7766 158.975 41.3706C158.055 41.0627 157.09 40.9109 156.12 40.9216C155.47 40.9213 154.821 40.9631 154.177 41.0467C153.946 41.067 153.717 41.1063 153.492 41.1645Z"
                fill="#455A64"
              />
              <path
                d="M140.179 82.3878C140.182 82.3462 140.182 82.3044 140.179 82.2627L140.076 81.9315C140.025 81.777 139.973 81.593 139.907 81.3869L139.708 80.6509C139.307 79.0419 139.138 77.3838 139.208 75.727C139.301 73.2694 139.905 70.8582 140.981 68.6467C142.357 65.9693 144.319 63.637 146.722 61.824C147.955 60.8723 149.246 59.9973 150.586 59.2038C151.881 58.4237 153.184 57.776 154.391 57.0547C156.502 55.7669 158.51 54.3176 160.397 52.7197C162.009 51.3581 163.253 50.1878 164.077 49.3635C164.497 48.9514 164.813 48.6275 165.026 48.3994L165.269 48.1418C165.321 48.0829 165.35 48.0534 165.343 48.0461L165.255 48.1197L164.99 48.3626L164.018 49.312C163.157 50.1142 161.898 51.2624 160.272 52.5946C158.378 54.166 156.371 55.5953 154.266 56.8707C153.074 57.6067 151.756 58.2176 150.454 59.0051C149.1 59.7982 147.8 60.6783 146.56 61.64C144.117 63.4704 142.123 65.834 140.731 68.551C139.651 70.7934 139.059 73.2392 138.994 75.727C138.944 77.3977 139.139 79.0668 139.576 80.6803L139.796 81.4163C139.877 81.6224 139.944 81.799 139.995 81.9536L140.128 82.2848C140.157 82.351 140.172 82.3878 140.179 82.3878Z"
                fill="#455A64"
              />
              <path
                d="M138.154 79.7971C138.154 79.7971 138.154 79.753 138.154 79.6794L138.11 79.3261C138.11 79.017 137.992 78.5901 137.933 77.9792C137.76 76.3214 137.733 74.6516 137.852 72.9891C138.032 70.5269 138.527 68.098 139.324 65.7616C140.321 62.9081 141.775 60.2358 143.63 57.8496C145.54 55.4914 147.77 53.4106 150.254 51.6672C152.462 50.0186 154.67 48.7232 156.429 47.5603C158.188 46.3974 159.653 45.5069 160.631 44.8298C161.125 44.5059 161.493 44.2336 161.743 44.0496L162.03 43.8435L162.126 43.7626C162.126 43.7626 162.081 43.7626 162.015 43.8214L161.713 44.0054L160.573 44.7414C159.586 45.3818 158.129 46.287 156.326 47.391C154.523 48.495 152.374 49.8198 150.107 51.4685C147.617 53.2139 145.387 55.3028 143.483 57.673C141.591 60.0819 140.111 62.7878 139.103 65.6806C138.297 68.0398 137.802 70.4943 137.631 72.9818C137.529 74.6516 137.586 76.3274 137.801 77.9866C137.874 78.5754 137.977 79.0243 138.029 79.3334C138.029 79.4733 138.08 79.591 138.103 79.6794C138.125 79.7677 138.147 79.7971 138.154 79.7971Z"
                fill="#455A64"
              />
              <path
                d="M177.449 108.14C177.449 108.14 186.936 111.997 188.754 116.936C190.572 121.874 204.365 162.656 204.365 162.656L188.357 168.794L181.056 135.233L177.449 108.14Z"
                fill="#455A64"
              />
              <path
                d="M128.403 223.95C128.403 223.95 226.291 219.453 232.436 221.072C238.582 222.691 242.254 225.79 243.476 233.157C244.698 240.525 263.569 338.133 263.569 338.133L246.405 343.182C246.405 343.182 222.324 288.203 221.3 279.003C220.277 269.803 216.884 250.947 216.884 250.947C216.884 250.947 179.672 251.557 152.271 250.947C124.87 250.336 128.55 224.973 128.55 224.973L128.403 223.95Z"
                fill="#FFBE9D"
              />
              <path
                d="M246.192 343.624L246.067 343.329C245.081 341.077 221.956 288.196 220.94 279.04C219.998 270.598 217.032 253.795 216.591 251.315C212.911 251.373 178.046 251.889 152.279 251.315C143.763 251.123 137.353 248.54 133.209 243.645C126.938 236.234 128.057 225.856 128.197 224.98L127.969 223.604H128.381C132.385 223.42 226.409 219.122 232.532 220.741C239.407 222.559 242.682 226.143 243.845 233.113C245.052 240.385 263.717 337.11 263.937 338.089L263.996 338.413L246.192 343.624ZM217.201 250.571L217.26 250.88C217.297 251.064 220.661 269.854 221.676 278.959C222.64 287.651 244.706 338.361 246.619 342.733L263.157 337.876C261.95 331.627 244.301 240.282 243.123 233.216C242.019 226.592 238.899 223.163 232.348 221.44C226.549 219.902 135.778 223.994 128.837 224.311L128.948 224.98V225.032C128.948 225.142 127.476 235.733 133.791 243.182C137.794 247.907 144.021 250.395 152.308 250.586C179.386 251.189 216.532 250.586 216.907 250.586L217.201 250.571Z"
                fill="#EB996E"
              />
              <path
                d="M135.012 171.157L137.478 186.407C137.478 186.407 126.769 206.698 125.562 224.141C124.988 232.429 129.742 249.401 129.742 249.401C129.742 249.401 167.455 253.545 187.798 253.015L209.503 252.065L213.33 218.158L188.968 214.64L189.336 168.434C189.336 168.434 193.752 156.268 194.091 152.668C194.871 145.073 194.547 137.389 186.959 127.541L177.45 108.14L174.278 106.668L175.786 130.169L148.451 104.196L134.607 109.164L130.684 127.674L135.012 171.157Z"
                fill="#455A64"
              />
              <g opacity="0.3">
                <path
                  d="M182.396 220.255C180.622 220.564 167.823 220.748 166.05 221.058C165.748 221.15 165.43 221.18 165.117 221.146C164.803 221.112 164.499 221.014 164.224 220.859C164.003 220.649 163.849 220.378 163.784 220.08C163.718 219.782 163.743 219.471 163.856 219.188C164.091 218.618 164.46 218.113 164.931 217.716C168.029 214.772 172.055 213.072 175.971 211.409C177.222 210.886 178.576 210.349 179.886 210.673C180.529 210.885 181.11 211.251 181.579 211.738C182.048 212.225 182.392 212.82 182.58 213.469C182.953 214.767 183.108 216.118 183.037 217.466"
                  fill="black"
                />
              </g>
              <g opacity="0.3">
                <path
                  d="M136.019 181.792C140.59 180.725 143.46 176.22 145.315 171.908C147.17 167.595 148.701 162.833 152.336 159.859C155.001 157.651 158.57 156.68 160.874 154.118C161.969 152.864 162.695 151.33 162.972 149.688C163.249 148.046 163.065 146.36 162.442 144.815C161.779 143.24 160.447 141.754 158.762 141.665C156.775 141.562 155.229 143.284 154.015 144.867C148.46 152.143 143.222 159.651 138.301 167.388C135.659 171.547 133.024 176.596 134.864 181.166"
                  fill="black"
                />
              </g>
              <path
                d="M136.05 111.592C136.05 111.592 128.314 114.051 125.518 118.901C122.721 123.751 118.084 147.303 116.965 153.647C115.847 159.992 110.437 186.098 116.965 190.204C123.494 194.311 132.075 187.996 134.313 184.236C136.55 180.475 145.684 160.919 145.684 160.919L137.478 154.023C137.478 154.023 138.95 135.372 138.412 131.45C137.875 127.527 136.05 111.592 136.05 111.592Z"
                fill="#FFBE9D"
              />
              <path
                d="M111.791 160.014L129.742 161.184L137.941 151.557L140.208 136.396L139.604 107.39C139.604 107.39 123.582 111.298 120.115 123.479C117.547 132.48 111.791 160.014 111.791 160.014Z"
                fill="#455A64"
              />
              <path
                d="M143.557 125.709C142.527 125.569 141.21 126.783 142.085 129.713C142.821 132.156 144.205 134.533 144.102 135.895C143.999 137.257 143.469 140.09 143.469 141.562C143.405 143.001 143.265 144.436 143.05 145.86L130.832 160.58L141.408 169.913L149.777 156.768C149.777 156.768 152.301 157.188 153.766 155.509L155.974 152.985C155.974 152.985 161.641 150.887 160.485 147.833C160.485 147.833 162.164 146.236 160.64 143.675C160.64 143.675 161.435 141.01 160.279 139.443C160.279 139.443 160.176 135.873 159.227 135.24C158.277 134.607 148.459 134.504 148.459 134.504C147.925 132.872 147.308 131.268 146.612 129.698C145.537 127.924 144.993 125.9 143.557 125.709Z"
                fill="#FFBE9D"
              />
              <path
                d="M147.737 140.186C147.737 140.223 147.479 140.083 147.251 139.737C146.954 139.271 146.824 138.717 146.883 138.168C146.942 137.618 147.186 137.105 147.575 136.712C147.87 136.425 148.12 136.337 148.142 136.373C147.704 136.903 147.403 137.533 147.266 138.206C147.267 138.894 147.428 139.572 147.737 140.186Z"
                fill="#EB996E"
              />
              <path
                d="M159.867 139.178C158.387 139.609 156.864 139.878 155.326 139.98C153.801 140.202 152.256 140.253 150.719 140.134C152.231 139.871 153.757 139.692 155.289 139.597C156.806 139.37 158.334 139.23 159.867 139.178Z"
                fill="#EB996E"
              />
              <path
                d="M160.735 143.388C159.515 143.883 158.227 144.191 156.915 144.3C155.621 144.54 154.299 144.584 152.992 144.433C152.992 144.322 154.729 144.212 156.864 143.917C158.998 143.623 160.713 143.284 160.735 143.388Z"
                fill="#EB996E"
              />
              <path
                d="M160.521 147.708C158.616 148.292 156.615 148.49 154.633 148.289C155.601 148.077 156.586 147.952 157.577 147.914C158.55 147.76 159.535 147.691 160.521 147.708Z"
                fill="#EB996E"
              />
              <path
                d="M151.247 149.033C151.247 149.077 151.041 149.033 150.791 148.893C150.461 148.668 150.23 148.326 150.143 147.936C150.049 147.551 150.102 147.144 150.291 146.795C150.438 146.538 150.6 146.435 150.637 146.464C150.673 146.493 150.335 147.104 150.511 147.848C150.688 148.591 151.299 148.937 151.247 149.033Z"
                fill="#EB996E"
              />
              <path
                d="M148.835 145.529C148.835 145.566 148.592 145.441 148.364 145.124C148.071 144.706 147.902 144.214 147.878 143.704C147.848 143.193 147.96 142.683 148.202 142.232C148.4 141.893 148.592 141.746 148.629 141.776C148.404 142.384 148.279 143.026 148.261 143.675C148.355 144.319 148.548 144.945 148.835 145.529Z"
                fill="#EB996E"
              />
              <path
                d="M157.504 152.352C156.971 152.635 156.384 152.805 155.782 152.852C155.199 153.02 154.587 153.063 153.986 152.978C154.519 152.692 155.106 152.521 155.709 152.477C156.291 152.305 156.904 152.262 157.504 152.352Z"
                fill="#EB996E"
              />
              <path
                d="M152.772 134.57C152.772 134.681 151.3 134.681 149.438 134.865C147.576 135.049 146.141 135.336 146.111 135.233C147.155 134.791 148.269 134.541 149.401 134.497C150.52 134.321 151.662 134.346 152.772 134.57Z"
                fill="#EB996E"
              />
              <path
                d="M185.09 169.95H245.928C247.001 169.95 248.031 170.376 248.79 171.135C249.549 171.895 249.976 172.924 249.976 173.998V217.12H181.057V173.99C181.059 172.921 181.484 171.895 182.24 171.138C182.995 170.381 184.02 169.954 185.09 169.95Z"
                fill="#E0E0E0"
              />
              <path
                d="M249.976 220.255H169.016C169.016 219.432 169.343 218.642 169.925 218.059C170.508 217.477 171.298 217.149 172.122 217.149H249.976V220.255Z"
                fill="#E0E0E0"
              />
              <path
                d="M247.429 172.982H183.146V217.149H247.429V172.982Z"
                fill="white"
              />
              <path
                d="M247.421 217.12C247.421 217.12 247.421 216.84 247.421 216.31C247.421 215.78 247.421 214.986 247.421 213.97C247.421 211.916 247.421 208.914 247.377 205.072C247.377 197.388 247.333 186.37 247.296 172.953L247.45 173.107H183.175L183.367 172.916C183.367 188.688 183.367 203.666 183.367 217.076L183.198 216.899L229.499 216.988L242.747 217.039H246.273H247.178H247.494H247.2H246.31H242.821L229.639 217.083L183.22 217.172H183.043V217.12C183.043 203.703 183.043 188.725 183.043 172.96V172.769H183.234H247.509H247.664V172.96C247.664 186.414 247.605 197.469 247.583 205.175C247.583 209.002 247.583 211.99 247.583 214.007C247.583 215.015 247.583 215.788 247.583 216.318C247.583 216.848 247.421 217.12 247.421 217.12Z"
                fill="#263238"
              />
              <path
                d="M249.636 217.12C249.636 217.23 232.259 217.311 210.826 217.311C189.394 217.311 172.01 217.23 172.01 217.12C172.01 217.01 189.387 216.929 210.826 216.929C232.266 216.929 249.636 217.046 249.636 217.12Z"
                fill="#263238"
              />
              <path
                d="M215.28 211.961C224.609 211.961 232.171 204.398 232.171 195.069C232.171 185.741 224.609 178.178 215.28 178.178C205.951 178.178 198.389 185.741 198.389 195.069C198.389 204.398 205.951 211.961 215.28 211.961Z"
                fill="#407BFF"
              />
              <path
                d="M204.785 195.482L208.362 192.096L213.301 196.644L223.023 187.496L226.556 190.837L213.249 203.467L204.785 195.482Z"
                fill="white"
              />
              <path
                d="M143.063 145.86C143.144 145.927 138.073 152.05 131.736 159.528C125.399 167.006 120.195 173.012 120.114 172.96C120.033 172.908 125.104 166.778 131.441 159.292C137.778 151.807 142.982 145.794 143.063 145.86Z"
                fill="#EB996E"
              />
              <path
                d="M142.188 136.373C142.022 138.509 141.73 140.632 141.312 142.732C141.022 144.856 140.604 146.96 140.061 149.033C140.226 146.895 140.518 144.769 140.936 142.666C141.231 140.546 141.649 138.445 142.188 136.373Z"
                fill="#263238"
              />
              <path
                d="M189.335 168.434C189.361 168.283 189.401 168.135 189.453 167.992L189.85 166.756C190.204 165.688 190.726 164.143 191.322 162.222C192.034 159.978 192.629 157.698 193.103 155.392C193.696 152.576 193.961 149.701 193.891 146.825C193.625 141.587 192.154 136.482 189.593 131.906C188.832 130.513 187.997 129.161 187.09 127.858C186.781 127.394 186.516 127.048 186.354 126.805C186.259 126.684 186.178 126.554 186.111 126.415C186.224 126.517 186.325 126.631 186.413 126.754C186.604 126.989 186.891 127.321 187.223 127.777C188.179 129.053 189.054 130.387 189.843 131.773C191.014 133.837 191.978 136.011 192.721 138.265C193.644 141.026 194.177 143.902 194.303 146.81C194.377 149.718 194.1 152.624 193.479 155.465C192.983 157.777 192.359 160.06 191.609 162.303C190.976 164.216 190.417 165.755 190.019 166.807C189.828 167.298 189.674 167.703 189.556 168.021C189.499 168.167 189.425 168.306 189.335 168.434Z"
                fill="#263238"
              />
              <path
                d="M173.696 145.515C173.726 145.857 173.726 146.202 173.696 146.545C173.695 146.949 173.665 147.352 173.608 147.752C173.555 148.286 173.473 148.816 173.365 149.342C173.247 149.979 173.09 150.608 172.894 151.226C172.686 151.943 172.441 152.648 172.158 153.338C171.478 154.896 170.635 156.376 169.641 157.754C168.622 159.13 167.454 160.389 166.159 161.508C165.592 161.993 164.997 162.445 164.378 162.862C163.849 163.238 163.296 163.58 162.722 163.885C162.247 164.16 161.755 164.406 161.25 164.621C160.889 164.797 160.515 164.947 160.131 165.07C159.813 165.201 159.483 165.302 159.145 165.372C159.108 165.291 160.522 164.857 162.553 163.672C163.109 163.352 163.647 163.004 164.165 162.627C164.739 162.244 165.291 161.758 165.894 161.265C168.43 159.034 170.441 156.269 171.782 153.169C172.063 152.495 172.309 151.807 172.518 151.108C172.722 150.5 172.891 149.881 173.026 149.253C173.637 146.987 173.622 145.515 173.696 145.515Z"
                fill="#263238"
              />
              <path
                d="M193.928 152.205C193.887 152.164 193.852 152.117 193.825 152.065L193.568 151.616C193.325 151.211 192.994 150.659 192.574 149.975C192.155 149.29 191.5 148.451 190.815 147.494C190.131 146.538 189.262 145.492 188.342 144.322C184.559 139.7 178.973 133.628 172.57 127.144C166.167 120.66 160.153 115.007 155.745 110.952L152.742 108.266C151.859 107.485 151.093 106.794 150.453 106.264L148.981 105.02L148.606 104.689C148.557 104.654 148.515 104.612 148.48 104.564C148.533 104.589 148.583 104.622 148.628 104.659C148.738 104.74 148.871 104.836 149.025 104.961L150.541 106.146L152.874 108.104C153.78 108.884 154.795 109.774 155.914 110.753C160.382 114.728 166.409 120.373 172.842 126.85C179.275 133.326 184.817 139.45 188.548 144.124C189.461 145.308 190.285 146.376 190.992 147.332L192.699 149.864C193.089 150.6 193.435 151.13 193.634 151.55L193.87 151.991C193.919 152.134 193.938 152.205 193.928 152.205Z"
                fill="#263238"
              />
              <path
                d="M179.636 186.252C179.501 186.299 179.359 186.327 179.216 186.333L178.017 186.502C176.972 186.642 175.448 186.804 173.601 186.973C169.84 187.312 164.621 187.584 158.881 187.518C153.14 187.452 147.9 187.032 144.161 186.605C142.284 186.392 140.768 186.186 139.745 186.017L138.545 185.825C138.404 185.81 138.266 185.778 138.133 185.73C138.275 185.712 138.418 185.712 138.56 185.73L139.767 185.855C140.812 185.98 142.335 186.142 144.183 186.318C147.929 186.679 153.132 187.054 158.903 187.121C164.673 187.187 169.862 186.951 173.623 186.686C175.5 186.554 177.023 186.436 178.039 186.34L179.246 186.245C179.376 186.234 179.506 186.236 179.636 186.252Z"
                fill="#263238"
              />
              <path
                d="M211.512 169.898C211.512 169.898 223.567 165.195 224.708 164.82C225.849 164.444 236.389 163.62 236.389 163.62L249.975 168.5C249.975 168.5 250.1 171.289 246.928 170.914C244.131 170.442 241.374 169.763 238.677 168.883L236.771 170.016L211.512 169.898Z"
                fill="#FFBE9D"
              />
              <path
                d="M249.32 171.687C249.637 172.327 250.461 172.423 251.094 172.761C251.68 173.103 252.159 173.6 252.48 174.198C252.801 174.795 252.95 175.47 252.912 176.147C252.806 177.5 252.358 178.805 251.609 179.937C251.38 180.395 251.047 180.793 250.638 181.1C250.428 181.246 250.179 181.324 249.924 181.324C249.669 181.324 249.42 181.246 249.21 181.1C249.009 180.855 248.874 180.563 248.817 180.252C248.76 179.94 248.784 179.619 248.886 179.319C249.276 176.971 248.768 173.998 249.32 171.679"
                fill="#FFBE9D"
              />
              <path
                d="M262.98 334.49L263.392 335.638C263.392 335.638 285.766 336.514 287.297 340.15L248.377 353.825L244.352 340.687C251.086 341.335 257.246 339.509 262.98 334.49Z"
                fill="#455A64"
              />
              <g opacity="0.6">
                <path
                  d="M249.754 343.44C249.419 343.686 249.186 344.048 249.101 344.455C249.015 344.862 249.083 345.287 249.29 345.648C249.525 345.998 249.886 346.244 250.298 346.333C250.709 346.422 251.14 346.348 251.498 346.126C251.853 345.866 252.099 345.483 252.187 345.052C252.276 344.621 252.201 344.172 251.977 343.793C251.696 343.462 251.298 343.251 250.866 343.206C250.434 343.161 250.002 343.284 249.658 343.55"
                  fill="white"
                />
              </g>
              <g opacity="0.6">
                <path
                  d="M248.378 353.825L247.414 350.667L285.068 338.715C285.068 338.715 287.062 338.862 287.276 340.187L248.378 353.825Z"
                  fill="white"
                />
              </g>
              <path
                d="M263.569 335.704C263.628 335.896 262.708 336.315 261.986 337.257C261.265 338.199 261.052 339.171 260.853 339.156C260.654 339.141 260.544 337.942 261.434 336.823C262.325 335.704 263.547 335.513 263.569 335.704Z"
                fill="#263238"
              />
              <path
                d="M268.242 335.955C268.353 336.124 267.639 336.735 267.278 337.765C266.917 338.796 267.028 339.716 266.836 339.774C266.645 339.833 266.145 338.796 266.623 337.522C267.101 336.249 268.176 335.778 268.242 335.955Z"
                fill="#263238"
              />
              <path
                d="M272.276 340.032C272.121 340.135 271.54 339.296 271.643 338.067C271.746 336.838 272.512 336.131 272.644 336.256C272.776 336.381 272.431 337.14 272.342 338.133C272.254 339.127 272.46 339.944 272.276 340.032Z"
                fill="#263238"
              />
            </svg>