<svg xmlns="http://www.w3.org/2000/svg" viewBox="0 0 59.1 66.7"><path class="st17" d="M29.4 66.7c-1.1 0-2.1-0.3-3.1-0.8L2.6 52.1c-0.9-0.5-1.6-1.3-2.2-2.2 0 0 0-0.1-0.1-0.1l-0.2-0.4c-0.5-1-0.1-2.1 0.8-2.6l13.4-7.5c0.4-0.4 1-0.6 1.6-0.5 0.6 0.1 1.1 0.4 1.4 0.9 0.1 0.1 0.4 0.6 1.3 1.1 0 0 0.1 0 0.1 0.1l12.5 7.2c1 0.6 1.3 1.8 0.7 2.7 -0.6 1-1.8 1.3-2.7 0.7l-12.5-7.2c-0.6-0.3-1.1-0.6-1.6-1L5.3 49l23.1 13.3c0.7 0.4 1.4 0.4 2 0.1l12-6.8c1-0.5 2.2-0.2 2.7 0.7 0.5 1 0.2 2.2-0.7 2.7l-12 6.8C31.4 66.4 30.4 66.7 29.4 66.7z"/><path class="st17" d="M30.4 51.9c-0.3 0-0.7-0.1-1-0.3L16.2 44c-1.9-1.1-3-3.1-3-5.2l0-27.6c0-1.3 0.2-3 1.4-3.7 0.6-0.4 1.4-0.4 2.1 0 0.5 0.3 1.7 1 1.7 1L42 22.1c2.9 1.5 3.6 3.6 3.6 5.1v14.5c0 1.1-0.9 2-2 2s-2-0.9-2-2V27.2c0-0.3 0-0.8-1.4-1.5 0 0-0.1 0-0.1-0.1L17.2 12.5l0 26.3c0 0.7 0.4 1.4 1 1.7l2.1 1.2V21.3c0-0.3 0.1-0.6 0.2-0.8 0.5-1.2 1.4-1.6 1.9-1.7 0.9-0.2 1.7 0.1 2 0.4l11.8 6.7c2 1 2.3 2.6 2.3 3.4v16.5c0 1.1-0.9 2-2 2s-2-0.9-2-2V29.5c0 0-0.1-0.1-0.2-0.1 0 0-0.1 0-0.1-0.1l-10-5.7v20.4l7.1 4.1c1 0.6 1.3 1.8 0.7 2.7 0 0 0 0 0 0C31.8 51.6 31.1 51.9 30.4 51.9zM22.1 22.4C22.1 22.4 22.1 22.4 22.1 22.4 22.1 22.4 22.1 22.4 22.1 22.4z"/><path class="st17" d="M43.1 27.6c-0.7 0-1.4-0.4-1.7-1 -0.2-0.2-0.5-0.6-1.2-0.9 0 0-0.1 0-0.1-0.1L14.6 11.1c-0.6-0.4-1-1-1-1.7 0-0.7 0.4-1.4 1-1.7l11.8-6.8c1.8-1.1 4.2-1.1 6 0l23.7 13.7c0.9 0.5 1.7 1.3 2.2 2.2 0.1 0.2 0.2 0.4 0.2 0.5l0.1 0.4c0.2 0.9-0.2 1.8-1 2.2l-13.5 7.6c0 0-0.1 0-0.1 0.1l0 0C43.8 27.6 43.4 27.6 43.1 27.6zM42 22.1c0.6 0.3 1.1 0.6 1.5 1l9.9-5.6 -23-13.3c-0.6-0.4-1.4-0.4-2 0l-8.8 5.1L42 22.1z"/><path class="st17" d="M2 50.6c-0.4 0-0.7-0.1-1-0.3 -0.6-0.4-1-1-1-1.7V33.2c0-0.4 0.1-0.8 0.3-1.2 0.2-0.3 0.4-0.5 0.7-0.6l13.1-7.4c0.3-0.2 0.7-0.3 1-0.3 1 0 1.8 0.7 2 1.6 0 0.1 0 0.3 0 0.4v15.6c0 0.7-0.4 1.4-1 1.7L3 50.3C2.7 50.5 2.3 50.6 2 50.6zM4 34.3v10.9l9.2-5.1v-11L4 34.3z"/><path class="st17" d="M30.4 66.7c-0.3 0-0.7-0.1-1-0.3 -0.6-0.4-1-1-1-1.7l0-15.3c0-0.6 0.2-1.1 0.6-1.5 0.1-0.1 0.3-0.2 0.4-0.3l12.1-6.9V27.2c0-0.2 0-0.4-0.1-0.5 -0.3-0.5-0.4-1-0.2-1.5s0.5-1 1-1.2l12.6-7.1c0.2-0.4 0.6-0.8 1.1-1 0.9-0.4 2 0 2.5 0.9 0.5 0.9 0.8 1.9 0.8 3v27.4c0 2.1-1.1 4.1-3 5.2l-11.5 6.6c-0.1 0-0.1 0.1-0.2 0.1l-13 7.4C31.1 66.6 30.7 66.7 30.4 66.7zM32.4 50.4v10.8l10.2-5.8c0.1 0 0.1-0.1 0.2-0.1l11.3-6.5c0.6-0.4 1-1 1-1.7V21.2l-9.5 5.4c0 0.2 0 0.4 0 0.6l0 14.5c0 0.7-0.4 1.4-1 1.7L32.4 50.4zM43.6 41.7L43.6 41.7 43.6 41.7z"/></svg>
