<?xml version="1.0" encoding="UTF-8" standalone="no"?>
<svg
   xmlns:dc="http://purl.org/dc/elements/1.1/"
   xmlns:cc="http://creativecommons.org/ns#"
   xmlns:rdf="http://www.w3.org/1999/02/22-rdf-syntax-ns#"
   xmlns:svg="http://www.w3.org/2000/svg"
   xmlns="http://www.w3.org/2000/svg"
   viewBox="0 0 24 18"
   height="18"
   xml:space="preserve"
   id="svg2"
   version="1.1"><metadata
     id="metadata8"><rdf:RDF><cc:Work
         rdf:about=""><dc:format>image/svg+xml</dc:format><dc:type
           rdf:resource="http://purl.org/dc/dcmitype/StillImage" /></cc:Work></rdf:RDF></metadata><defs
     id="defs6"><clipPath
       id="clipPath18"
       clipPathUnits="userSpaceOnUse"><path
         id="path16"
         d="M 0,14 H 18 V 0 H 0 Z" /></clipPath></defs><g
     transform="matrix(1.3333333,0,0,-1.3333333,0,18.666667)"
     id="g10"><g
       id="g12"><g
         clip-path="url(#clipPath18)"
         id="g14"><g
           transform="translate(1,14.0002)"
           id="g20"><path
             id="path22"
             d="m 0,0 h 16 c 0.6,0 1,-0.4 1,-1 0,-0.6 -0.4,-1 -1,-1 H 0 c -0.6,0 -1,0.4 -1,1 0,0.6 0.4,1 1,1" /></g><g
           transform="translate(10,1.9997)"
           id="g24"><path
             id="path26"
             d="M 0,0 H 7 C 7.6,0 8,-0.399 8,-1 8,-1.6 7.6,-2 7,-2 H 0 c -0.6,0 -1,0.4 -1,1 0,0.601 0.4,1 1,1" /></g><g
           transform="translate(5.5,8.0002)"
           id="g28"><path
             id="path30"
             d="m 0,0 h 11.5 c 0.6,0 1,-0.4 1,-1 0,-0.6 -0.4,-1 -1,-1 H 0 c -0.6,0 -1,0.4 -1,1 0,0.6 0.4,1 1,1" /></g></g></g></g></svg>