<svg class="relative z-[1]" xmlns="http://www.w3.org/2000/svg" width="166" height="184" viewBox="0 0 166 184" fill="none">
  <g filter="url(#filter0_d_310_390)">
    <path d="M81 17.1547C82.2376 16.4402 83.7624 16.4402 85 17.1547L139.89 48.8453C141.127 49.5598 141.89 50.8803 141.89 52.3094V115.691C141.89 117.12 141.127 118.44 139.89 119.155L85 150.845C83.7624 151.56 82.2376 151.56 81 150.845L26.1103 119.155C24.8727 118.44 24.1103 117.12 24.1103 115.691V52.3094C24.1103 50.8803 24.8727 49.5598 26.1103 48.8453L81 17.1547Z" fill="#337CEE" fill-opacity="0.5" shape-rendering="crispEdges"/>
  </g>
  <path d="M81 27.1547C82.2376 26.4402 83.7624 26.4402 85 27.1547L131.229 53.8453C132.467 54.5598 133.229 55.8803 133.229 57.3094V110.691C133.229 112.12 132.467 113.44 131.229 114.155L85 140.845C83.7624 141.56 82.2376 141.56 81 140.845L34.7705 114.155C33.5329 113.44 32.7705 112.12 32.7705 110.691V57.3094C32.7705 55.8803 33.5329 54.5598 34.7705 53.8453L81 27.1547Z" fill="#337CEE"/>
  <path d="M115.97 66.6L119.05 68.45L118.23 64.95L120.95 62.6L117.37 62.29L115.97 59L114.58 62.3L111 62.61L113.71 64.95L112.9 68.45L115.97 66.6Z" fill="white"/>
  <path d="M115.97 106.6L119.05 108.45L118.23 104.95L120.95 102.6L117.37 102.29L115.97 99L114.58 102.3L111 102.61L113.71 104.95L112.9 108.45L115.97 106.6Z" fill="white"/>
  <path d="M49.97 106.6L53.05 108.45L52.23 104.95L54.95 102.6L51.37 102.29L49.97 99L48.58 102.3L45 102.61L47.71 104.95L46.9 108.45L49.97 106.6Z" fill="white"/>
  <path d="M49.97 66.6L53.05 68.45L52.23 64.95L54.95 62.6L51.37 62.29L49.97 59L48.58 62.3L45 62.61L47.71 64.95L46.9 68.45L49.97 66.6Z" fill="white"/>
  <path d="M82.97 126.6L86.05 128.45L85.23 124.95L87.95 122.6L84.37 122.29L82.97 119L81.58 122.3L78 122.61L80.71 124.95L79.9 128.45L82.97 126.6Z" fill="white"/>
  <path d="M82.97 45.6L86.05 47.45L85.23 43.95L87.95 41.6L84.37 41.29L82.97 38L81.58 41.3L78 41.61L80.71 43.95L79.9 47.45L82.97 45.6Z" fill="white"/>
  <path d="M82.9466 83.9388H84.939V85.9312H82.9466V83.9388ZM71.0183 81.9395H87.9497C88.3043 76.5261 93.597 72.7724 98.8854 74.3272V72.9809C98.8854 72.4307 98.4394 71.9847 97.8892 71.9847H88.9253V68.9962C88.9253 68.446 88.4793 68 87.9291 68H79.9564C79.4062 68 78.9602 68.446 78.9602 68.9962V71.9847H69.9962C69.446 71.9847 69 72.4307 69 72.9809V80.2222C69.1573 81.1945 70.0023 81.9395 71.0183 81.9395ZM80.9525 69.9923H86.9329V71.9847H80.9525V69.9923Z" fill="white"/>
  <path d="M92.1446 89.8752C90.0364 88.6363 88.4742 86.4977 88.0478 83.9318H86.9313V86.9274C86.9313 87.4775 86.4854 87.9235 85.9352 87.9235H81.9505C81.4003 87.9235 80.9543 87.4775 80.9543 86.9274V83.9318H71.0183C70.3094 83.9324 69.613 83.7451 69 83.3889V96.4575C69 97.0077 69.446 97.4537 69.9962 97.4537H92.1827C92.1139 96.9293 92.1584 97.2556 92.1446 89.8752ZM101.087 77.8854C98.5364 75.3348 94.3864 75.3348 91.8358 77.8854C88.4783 81.2428 89.7233 86.9524 94.137 88.6234V90.9154H98.7859V88.6234C103.198 86.953 104.445 81.2432 101.087 77.8854ZM96.4614 87.0572C96.4614 87.0572 96.4615 87.0572 96.4614 87.0572C93.9435 87.0572 91.9152 85.0297 91.9152 82.511C91.9152 79.993 93.9427 77.9648 96.4614 77.9648C98.9794 77.9648 101.008 79.9924 101.008 82.511C101.008 85.0289 98.9801 87.0572 96.4614 87.0572ZM94.137 96.8892C94.137 98.1709 95.1797 99.2137 96.4614 99.2137C97.7431 99.2137 98.7858 98.1709 98.7858 96.8892V92.9078H94.137V96.8892Z" fill="white"/>
  <defs>
    <filter id="filter0_d_310_390" x="0.110352" y="0.618774" width="165.779" height="182.762" filterUnits="userSpaceOnUse" color-interpolation-filters="sRGB">
      <feFlood flood-opacity="0" result="BackgroundImageFix"/>
      <feColorMatrix in="SourceAlpha" type="matrix" values="0 0 0 0 0 0 0 0 0 0 0 0 0 0 0 0 0 0 127 0" result="hardAlpha"/>
      <feOffset dy="8"/>
      <feGaussianBlur stdDeviation="12"/>
      <feComposite in2="hardAlpha" operator="out"/>
      <feColorMatrix type="matrix" values="0 0 0 0 0 0 0 0 0 0 0 0 0 0 0 0 0 0 0.05 0"/>
      <feBlend mode="normal" in2="BackgroundImageFix" result="effect1_dropShadow_310_390"/>
      <feBlend mode="normal" in="SourceGraphic" in2="effect1_dropShadow_310_390" result="shape"/>
    </filter>
  </defs>
</svg>