<svg class="relative z-[1]" xmlns="http://www.w3.org/2000/svg" width="166" height="184" viewBox="0 0 166 184" fill="none">
  <g filter="url(#filter0_d_310_391)">
    <path d="M81 17.1547C82.2376 16.4402 83.7624 16.4402 85 17.1547L139.89 48.8453C141.127 49.5598 141.89 50.8803 141.89 52.3094V115.691C141.89 117.12 141.127 118.44 139.89 119.155L85 150.845C83.7624 151.56 82.2376 151.56 81 150.845L26.1103 119.155C24.8727 118.44 24.1103 117.12 24.1103 115.691V52.3094C24.1103 50.8803 24.8727 49.5598 26.1103 48.8453L81 17.1547Z" fill="#337CEE" fill-opacity="0.5" shape-rendering="crispEdges"/>
  </g>
  <path d="M81 27.1547C82.2376 26.4402 83.7624 26.4402 85 27.1547L131.229 53.8453C132.467 54.5598 133.229 55.8803 133.229 57.3094V110.691C133.229 112.12 132.467 113.44 131.229 114.155L85 140.845C83.7624 141.56 82.2376 141.56 81 140.845L34.7705 114.155C33.5329 113.44 32.7705 112.12 32.7705 110.691V57.3094C32.7705 55.8803 33.5329 54.5598 34.7705 53.8453L81 27.1547Z" fill="#337CEE"/>
  <path d="M115.97 66.6L119.05 68.45L118.23 64.95L120.95 62.6L117.37 62.29L115.97 59L114.58 62.3L111 62.61L113.71 64.95L112.9 68.45L115.97 66.6Z" fill="white"/>
  <path d="M115.97 106.6L119.05 108.45L118.23 104.95L120.95 102.6L117.37 102.29L115.97 99L114.58 102.3L111 102.61L113.71 104.95L112.9 108.45L115.97 106.6Z" fill="white"/>
  <path d="M49.97 106.6L53.05 108.45L52.23 104.95L54.95 102.6L51.37 102.29L49.97 99L48.58 102.3L45 102.61L47.71 104.95L46.9 108.45L49.97 106.6Z" fill="white"/>
  <path d="M49.97 66.6L53.05 68.45L52.23 64.95L54.95 62.6L51.37 62.29L49.97 59L48.58 62.3L45 62.61L47.71 64.95L46.9 68.45L49.97 66.6Z" fill="white"/>
  <path d="M82.97 126.6L86.05 128.45L85.23 124.95L87.95 122.6L84.37 122.29L82.97 119L81.58 122.3L78 122.61L80.71 124.95L79.9 128.45L82.97 126.6Z" fill="white"/>
  <path d="M82.97 45.6L86.05 47.45L85.23 43.95L87.95 41.6L84.37 41.29L82.97 38L81.58 41.3L78 41.61L80.71 43.95L79.9 47.45L82.97 45.6Z" fill="white"/>
  <path d="M83.0131 83.0149C80.6361 83.0182 78.588 84.6902 78.1089 87.0181H87.9178C87.4387 84.69 85.3903 83.018 83.0131 83.0149ZM86.016 78.0109C86.016 79.6689 84.6717 81.0132 83.0136 81.0132C81.3554 81.0132 80.0111 79.6689 80.0111 78.0109C80.0111 76.3526 81.3554 75.0083 83.0136 75.0083C84.6717 75.0083 86.016 76.3526 86.016 78.0109ZM106.154 100.908L97.6809 92.4358C96.5111 94.0769 95.0762 95.5118 93.4351 96.6815L101.908 105.154C103.099 106.308 105 106.278 106.154 105.086C107.281 103.922 107.281 102.073 106.154 100.908Z" fill="white"/>
  <path d="M99.0268 82.0138C99.0272 73.1697 91.858 66.0003 83.014 66C74.17 65.9997 67.0003 73.1689 67 82.0128C66.9997 90.8568 74.1689 98.0265 83.0128 98.0268H83.0135C91.8531 98.0168 99.0168 90.8534 99.0268 82.0138ZM89.0183 89.0193H77.0086C76.4562 89.0196 76.0079 88.5723 76.0076 88.0196V88.0184C76.0171 85.4045 77.4847 83.0145 79.8119 81.8239C77.6879 80.0554 77.3995 76.9002 79.1677 74.7762C80.9359 72.6522 84.0914 72.3638 86.2154 74.132C88.3395 75.9002 88.6278 79.0557 86.8593 81.1796C86.6647 81.4135 86.4491 81.6291 86.2154 81.8239C88.5423 83.0144 90.0102 85.4049 90.0194 88.019C90.0197 88.5713 89.572 89.0193 89.0197 89.0193H89.0184H89.0183Z" fill="white"/>
  <defs>
    <filter id="filter0_d_310_391" x="0.110352" y="0.618774" width="165.779" height="182.762" filterUnits="userSpaceOnUse" color-interpolation-filters="sRGB">
      <feFlood flood-opacity="0" result="BackgroundImageFix"/>
      <feColorMatrix in="SourceAlpha" type="matrix" values="0 0 0 0 0 0 0 0 0 0 0 0 0 0 0 0 0 0 127 0" result="hardAlpha"/>
      <feOffset dy="8"/>
      <feGaussianBlur stdDeviation="12"/>
      <feComposite in2="hardAlpha" operator="out"/>
      <feColorMatrix type="matrix" values="0 0 0 0 0 0 0 0 0 0 0 0 0 0 0 0 0 0 0.05 0"/>
      <feBlend mode="normal" in2="BackgroundImageFix" result="effect1_dropShadow_310_391"/>
      <feBlend mode="normal" in="SourceGraphic" in2="effect1_dropShadow_310_391" result="shape"/>
    </filter>
  </defs>
</svg>
