<svg xmlns="http://www.w3.org/2000/svg" version="1.0" viewBox="0 0 700 700" fill="currentColor" width="700" height="700" >
  <path d="M236 1A268 268 0 0059 436c3 5 47 49 97 99 86 86 91 92 92 96l1 6-1 4c-1 4-6 10-10 12-3 1-12 2-16 0l-61-59-58-59-9-4c-11-5-17-6-28-6-18 0-32 6-44 18a62 62 0 00-12 73c3 7 6 10 39 43 38 39 40 40 51 41 13 0 23-16 19-29-2-4-8-10-38-40-33-34-36-37-37-41-3-12 5-23 17-24l8 1c3 1 20 17 65 62 58 58 61 60 68 64 12 6 19 7 32 7 12-1 22-4 31-11 26-17 35-52 21-80-4-8-4-9-124-129l-64-65a222 222 0 01-49-197A222 222 0 01306 47a227 227 0 01128 70c9 9 18 18 20 18l8 2c10 0 19-6 22-17 1-6 1-11-3-17a296 296 0 00-120-88c-18-6-42-12-60-14h-65z"/>
  <path d="M489 163c-13 2-25 11-32 24-2 5-2 6-2 16 0 11 0 12 3 18 4 9 11 16 20 20 6 3 7 3 17 3s11 0 17-3c9-4 16-11 20-20 3-6 4-7 4-18 0-10-1-11-3-16-9-18-25-26-44-24zM658 244c-4 2-8 5-10 9-4 9-4 16 3 25l5 9c3 11-5 22-16 24-9 1-10 0-43-33l-34-32c-5-2-13-2-19 1-11 5-15 18-9 28 2 6 60 62 69 68 15 10 35 12 54 6 12-4 24-14 31-25 14-23 12-56-6-75-8-7-17-9-25-5zM343 308c-12 2-22 10-28 22-3 7-3 8-3 18s0 11 3 17c4 9 11 16 20 20 6 3 7 4 17 4s11-1 17-4c17-8 27-25 24-43-2-17-17-32-34-35-8-1-8-1-16 1zM466 327c-11 4-16 18-10 28 1 3 27 30 73 76l71 71 8 4a62 62 0 0091-50c1-12-3-21-12-25-6-3-16-3-22 2-6 3-9 9-10 17-1 13-10 21-23 20l-4-1-70-70c-51-52-71-71-74-72-5-2-13-2-18 0zM385 405c-12 5-16 19-10 30a7906 7906 0 00264 263c10 5 23-1 28-13 2-5 1-12-1-17-3-6-258-261-263-263-6-3-14-2-19 0zM309 484c-11 4-17 16-13 27 1 5 4 8 56 59l56 58c3 6 3 10 0 16s-8 9-17 10c-8 1-14 4-17 10-3 4-3 5-3 12s0 8 3 12c6 9 15 11 29 9 28-6 47-27 51-54 1-9-1-19-8-33l-4-9-57-57c-38-39-58-58-60-59-5-2-11-2-16-1z"/>
</svg>
