<svg width="85" height="26" viewBox="0 0 85 26" fill="none" xmlns="http://www.w3.org/2000/svg">
<g clip-path="url(#clip0_330_1485)">
<path d="M23.9659 26C23.8593 26 23.7537 25.979 23.6553 25.9379C23.5569 25.8969 23.4675 25.8367 23.3924 25.7608L14.0548 16.3862C13.9702 16.3136 13.9016 16.2242 13.8531 16.1236C13.8046 16.023 13.7774 15.9135 13.7731 15.8018C13.7688 15.6902 13.7875 15.5789 13.8281 15.4749C13.8687 15.3709 13.9303 15.2764 14.009 15.1974C14.0878 15.1184 14.1819 15.0566 14.2856 15.0158C14.3892 14.9751 14.5001 14.9563 14.6114 14.9606C14.7226 14.9649 14.8318 14.9922 14.932 15.0409C15.0322 15.0895 15.1213 15.1584 15.1937 15.2433L24.5353 24.6138C24.649 24.727 24.7266 24.8715 24.7583 25.0289C24.79 25.1864 24.7743 25.3498 24.7133 25.4983C24.6523 25.6469 24.5486 25.7738 24.4156 25.8632C24.2825 25.9525 24.126 26.0001 23.9659 26Z" fill="#005BEA"/>
<path d="M16.0702 22.016L12.2576 18.194C12.106 18.0419 11.9005 17.9564 11.6861 17.9564C11.4718 17.9564 11.2662 18.0419 11.1146 18.194C10.9631 18.3461 10.8779 18.5524 10.8779 18.7675C10.8779 18.9826 10.9631 19.1889 11.1146 19.341L14.9434 23.1589C15.0768 23.2937 15.1522 23.4756 15.1534 23.6655C15.1531 23.7591 15.1344 23.8516 15.0984 23.9379C15.0624 24.0241 15.0097 24.1024 14.9434 24.1681C14.8784 24.2354 14.8006 24.2887 14.7145 24.3249C14.6284 24.3612 14.5359 24.3795 14.4426 24.3789C14.2283 24.3789 14.0229 24.4643 13.8714 24.6163C13.7199 24.7683 13.6348 24.9745 13.6348 25.1895C13.6348 25.4044 13.7199 25.6106 13.8714 25.7626C14.0229 25.9146 14.2283 26.0001 14.4426 26.0001C14.9023 25.9996 15.3516 25.8624 15.7338 25.6059C16.1159 25.3493 16.4137 24.9849 16.5896 24.5586C16.7654 24.1323 16.8115 23.6633 16.7219 23.2107C16.6324 22.7582 16.4112 22.3424 16.0863 22.016H16.0702Z" fill="#005BEA"/>
<path d="M25.0967 15.9364C24.8825 15.9364 24.677 16.0218 24.5255 16.1738C24.374 16.3259 24.2889 16.532 24.2889 16.747C24.2887 16.8878 24.2472 17.0253 24.1697 17.1426C24.0921 17.2599 23.9819 17.3516 23.8528 17.4065C23.7236 17.4614 23.5812 17.4769 23.4433 17.4512C23.3055 17.4254 23.1782 17.3596 23.0773 17.2618L18.1339 12.2968C17.9805 12.1568 17.7793 12.0814 17.572 12.0861C17.3647 12.0909 17.1672 12.1755 17.0203 12.3223C16.8734 12.4692 16.7885 12.6672 16.783 12.8752C16.7775 13.0832 16.852 13.2853 16.9909 13.4398L21.9384 18.4088C22.2649 18.736 22.6811 18.9584 23.1339 19.0476C23.5868 19.1369 24.0558 19.089 24.4815 18.9099C24.9071 18.7309 25.27 18.4289 25.5241 18.0423C25.7782 17.6557 25.912 17.202 25.9085 16.7389C25.9063 16.5246 25.8197 16.3199 25.6676 16.1695C25.5155 16.0192 25.3102 15.9353 25.0967 15.9364Z" fill="#005BEA"/>
<path d="M13.033 14.4408C13.8717 14.4408 14.5515 13.7585 14.5515 12.9169C14.5515 12.0752 13.8717 11.3929 13.033 11.3929C12.1943 11.3929 11.5144 12.0752 11.5144 12.9169C11.5144 13.7585 12.1943 14.4408 13.033 14.4408Z" fill="#005BEA"/>
<path d="M18.3358 9.11927C19.1745 9.11927 19.8544 8.43698 19.8544 7.59534C19.8544 6.7537 19.1745 6.07141 18.3358 6.07141C17.4971 6.07141 16.8173 6.7537 16.8173 7.59534C16.8173 8.43698 17.4971 9.11927 18.3358 9.11927Z" fill="#005BEA"/>
<path d="M25.23 9.2165C25.0766 9.07651 24.8754 9.00108 24.6681 9.00583C24.4608 9.01058 24.2633 9.09515 24.1164 9.24202C23.9695 9.3889 23.8845 9.58683 23.8791 9.79484C23.8736 10.0029 23.9481 10.205 24.087 10.3594C24.2204 10.4933 24.2953 10.6748 24.2953 10.864C24.2953 11.0533 24.2204 11.2348 24.087 11.3686C23.9537 11.5025 23.7728 11.5777 23.5842 11.5777C23.3956 11.5777 23.2147 11.5025 23.0814 11.3686L21.0822 9.34215C21.0071 9.26683 20.9181 9.20709 20.82 9.16633C20.7219 9.12557 20.6168 9.1046 20.5107 9.1046C20.4046 9.1046 20.2995 9.12557 20.2014 9.16633C20.1034 9.20709 20.0143 9.26683 19.9392 9.34215C19.8642 9.41746 19.8047 9.50687 19.764 9.60527C19.7234 9.70367 19.7025 9.80914 19.7025 9.91565C19.7025 10.0222 19.7234 10.1276 19.764 10.226C19.8047 10.3244 19.8642 10.4138 19.9392 10.4891L21.9384 12.4954C22.3765 12.9229 22.9647 13.1603 23.5757 13.1562C24.1868 13.1521 24.7718 12.9068 25.2041 12.4735C25.6365 12.0401 25.8816 11.4534 25.8864 10.8402C25.8913 10.2269 25.6555 9.63642 25.23 9.19624V9.2165Z" fill="#005BEA"/>
<path d="M17.7179 3.70044L16.9303 2.88984C15.0671 1.02324 12.5413 -0.0241272 9.9085 -0.0218469C7.27574 -0.0195666 4.75171 1.03217 2.89168 2.902C1.03165 4.77183 -0.0120341 7.30658 -0.00976192 9.94863C-0.00748972 12.5907 1.04055 15.1236 2.9038 16.9902L9.05479 23.163C9.18684 23.2966 9.26088 23.4773 9.26077 23.6655C9.26142 23.7592 9.24315 23.852 9.20705 23.9384C9.17095 24.0248 9.11779 24.1029 9.05075 24.1681C8.98474 24.2344 8.90636 24.287 8.82008 24.3229C8.7338 24.3588 8.64133 24.3772 8.54793 24.3772C8.45454 24.3772 8.36206 24.3588 8.27578 24.3229C8.18951 24.287 8.11112 24.2344 8.04511 24.1681L3.97002 20.0746L3.92964 20.0381C3.47895 19.6631 2.90393 19.4724 2.31933 19.5041C1.73472 19.5357 1.1835 19.7875 0.775683 20.209C0.367862 20.6305 0.133421 21.1909 0.119142 21.7782C0.104862 22.3656 0.311794 22.9368 0.698645 23.3778L3.07342 25.7609C3.22223 25.9112 3.42373 25.997 3.63481 26.0001C3.7949 26.0002 3.95142 25.9526 4.0845 25.8632C4.21758 25.7739 4.3212 25.6469 4.38222 25.4984C4.44324 25.3499 4.45891 25.1865 4.42722 25.029C4.39554 24.8715 4.31794 24.7271 4.20427 24.6139L1.82141 22.2308C1.68922 22.0971 1.61503 21.9165 1.61503 21.7282C1.61503 21.5399 1.68922 21.3592 1.82141 21.2256C1.95625 21.0946 2.13657 21.0214 2.32424 21.0214C2.51191 21.0214 2.69222 21.0946 2.82706 21.2256L6.90619 25.3191C6.94309 25.3597 6.98519 25.3951 7.03139 25.4245C7.47205 25.8159 8.04533 26.023 8.63345 26.0035C9.22158 25.9839 9.7799 25.739 10.1937 25.3191C10.4099 25.1027 10.5813 24.8456 10.6983 24.5625C10.8153 24.2795 10.8756 23.976 10.8756 23.6696C10.8756 23.3631 10.8153 23.0597 10.6983 22.7766C10.5813 22.4936 10.4099 22.2365 10.1937 22.02L4.03868 15.8432C2.48071 14.2798 1.60545 12.1592 1.60545 9.94814C1.60545 7.73706 2.48071 5.61653 4.03868 4.05305C5.59665 2.48958 7.70972 1.61123 9.91302 1.61123C12.1163 1.61123 14.2294 2.48958 15.7874 4.05305L16.5588 4.86365C16.6338 4.93902 16.7229 4.99881 16.8209 5.0396C16.919 5.08039 17.0241 5.10139 17.1302 5.10139C17.2364 5.10139 17.3415 5.08039 17.4396 5.0396C17.5376 4.99881 17.6267 4.93902 17.7017 4.86365C17.7803 4.78919 17.8433 4.69965 17.8868 4.60033C17.9303 4.50102 17.9534 4.39395 17.9549 4.28548C17.9565 4.177 17.9362 4.06933 17.8955 3.96884C17.8548 3.86834 17.7944 3.77708 17.7179 3.70044Z" fill="#005BEA"/>
<path d="M33.1176 22.9198C33.1149 22.7734 33.1412 22.628 33.1949 22.492C33.2486 22.3559 33.3287 22.2319 33.4305 22.1271C33.5323 22.0223 33.6538 21.9388 33.788 21.8815C33.9221 21.8241 34.0663 21.7941 34.2121 21.793C34.4627 21.7853 34.7068 21.8737 34.8947 22.0403C36.2748 23.2777 38.06 23.9629 39.9108 23.9654C43.17 23.9654 44.208 22.2064 44.208 20.8041C44.208 18.6033 41.9907 17.9994 39.5796 17.3388C36.6273 16.5687 33.368 15.7459 33.368 12.159C33.368 9.1355 36.0538 7.07657 39.8058 7.07657C41.8545 7.01973 43.8572 7.69159 45.46 8.97338C45.6065 9.06757 45.7265 9.19787 45.8085 9.35185C45.8905 9.50582 45.9318 9.67832 45.9285 9.85288C45.9222 10.1422 45.8041 10.4176 45.5991 10.6211C45.3941 10.8246 45.1183 10.94 44.83 10.9431C44.5882 10.9422 44.3547 10.8545 44.1716 10.6959C42.8911 9.64483 41.2822 9.08079 39.6281 9.10308C37.2694 9.10308 35.7105 10.2825 35.7105 12.0172C35.7105 13.8572 37.8187 14.4085 40.1531 15.0407C43.1418 15.8513 46.5383 16.7714 46.5383 20.6177C46.5383 23.2845 44.729 26.0081 39.7977 26.0081C37.116 26.0081 35.0037 25.1286 33.4973 23.779C33.3769 23.671 33.2808 23.5385 33.2154 23.3903C33.1499 23.2422 33.1166 23.0818 33.1176 22.9198Z" fill="#005BEA"/>
<path d="M61.7926 13.2979V24.7639C61.7762 25.0263 61.6608 25.2725 61.4698 25.4525C61.2789 25.6325 61.0268 25.7327 60.7648 25.7327C60.5028 25.7327 60.2507 25.6325 60.0597 25.4525C59.8687 25.2725 59.7533 25.0263 59.7369 24.7639V23.6898C59.2253 24.3987 58.5548 24.9771 57.7797 25.3783C57.0045 25.7796 56.1463 25.9925 55.2741 26C51.821 26 49.3816 23.3615 49.3816 19.0451C49.3816 14.8097 51.8048 12.0618 55.2741 12.0618C56.1528 12.065 57.0176 12.2816 57.7948 12.693C58.5719 13.1045 59.2383 13.6986 59.7369 14.4247V13.2979C59.7533 13.0355 59.8687 12.7893 60.0597 12.6093C60.2507 12.4293 60.5028 12.3291 60.7648 12.3291C61.0268 12.3291 61.2789 12.4293 61.4698 12.6093C61.6608 12.7893 61.7762 13.0355 61.7926 13.2979ZM59.7369 22.0686V16.0499C59.2879 15.3988 58.6905 14.8646 57.9943 14.4917C57.2982 14.1188 56.5235 13.918 55.7345 13.9059C53.077 13.9059 51.4898 16.1026 51.4898 19.0451C51.4898 21.9876 53.0932 24.1559 55.7345 24.1559C56.5165 24.1513 57.2861 23.9595 57.9794 23.5965C58.6727 23.2335 59.2697 22.7097 59.7208 22.0686H59.7369Z" fill="#005BEA"/>
<path d="M66.1586 24.7638V8.2397C66.175 7.97731 66.2904 7.73105 66.4814 7.55106C66.6723 7.37107 66.9244 7.27087 67.1864 7.27087C67.4484 7.27087 67.7005 7.37107 67.8915 7.55106C68.0825 7.73105 68.1979 7.97731 68.2143 8.2397V24.7638C68.1979 25.0262 68.0825 25.2724 67.8915 25.4524C67.7005 25.6324 67.4484 25.7326 67.1864 25.7326C66.9244 25.7326 66.6723 25.6324 66.4814 25.4524C66.2904 25.2724 66.175 25.0262 66.1586 24.7638Z" fill="#005BEA"/>
<path d="M84.339 13.5861V25.0521C84.3226 25.3145 84.2072 25.5607 84.0162 25.7407C83.8253 25.9207 83.5731 26.0209 83.3112 26.0209C83.0492 26.0209 82.797 25.9207 82.6061 25.7407C82.4151 25.5607 82.2997 25.3145 82.2833 25.0521V23.978C81.771 24.6872 81.0999 25.2657 80.324 25.667C79.5482 26.0683 78.6893 26.2811 77.8165 26.2882C74.3674 26.2882 71.928 23.6497 71.928 19.3333C71.928 15.0979 74.3512 12.35 77.8165 12.35C78.6957 12.3532 79.5611 12.5698 80.3389 12.9812C81.1167 13.3927 81.7838 13.9868 82.2833 14.7129V13.5861C82.2997 13.3237 82.4151 13.0775 82.6061 12.8975C82.797 12.7175 83.0492 12.6173 83.3112 12.6173C83.5731 12.6173 83.8253 12.7175 84.0162 12.8975C84.2072 13.0775 84.3226 13.3237 84.339 13.5861ZM82.2833 22.3568V16.3381C81.8365 15.6913 81.2435 15.1599 80.5528 14.7872C79.8621 14.4145 79.0932 14.2113 78.3092 14.1941C75.6557 14.1941 74.0645 16.3908 74.0645 19.3333C74.0645 22.2758 75.6557 24.4441 78.3092 24.4441C79.0891 24.4373 79.8561 24.2444 80.5471 23.8815C81.2381 23.5186 81.8332 22.996 82.2833 22.3568Z" fill="#005BEA"/>
</g>
<defs>
<clipPath id="clip0_330_1485">
<rect width="84.24" height="26" fill="white"/>
</clipPath>
</defs>
</svg>
