<svg version="1.1" xmlns="http://www.w3.org/2000/svg" viewBox="0 0 208.6 64.2" xml:space="preserve" fill="currentColor" class="h-7 sm:h-10 text-white" data-v-2b605bb2=""><path d="M59.3 64.2a2 2 0 01-1.4-.6L34.8 40.5a2 2 0 01-.2-2.8 2 2 0 012.8-.2l.2.2 23.1 23.1c.8.8.8 2 0 2.8-.3.4-.8.6-1.4.6zM39.8 54.3l-9.4-9.4a2 2 0 00-2.8 0 2 2 0 000 2.8l9.5 9.4c.3.3.5.8.5 1.2 0 .5-.2.9-.5 1.2-.3.3-.8.5-1.2.5-1.1 0-2 .9-2 2s.9 2 2 2c3.2 0 5.8-2.6 5.8-5.8a7.2 7.2 0 00-1.9-3.9zM62.1 39.3a2 2 0 00-2 2c0 1-.8 1.8-1.8 1.8-.5 0-.9-.2-1.2-.5L44.9 30.4c-.8-.7-2.1-.7-2.8.1a2 2 0 000 2.7l12.2 12.3a5.8 5.8 0 008.1 0 5.8 5.8 0 001.7-4.1 2 2 0 00-2-2.1z" data-v-2b605bb2=""></path><circle cx="32.3" cy="31.9" r="3.8" data-v-2b605bb2=""></circle><circle cx="45.4" cy="18.8" r="3.8" data-v-2b605bb2=""></circle><path d="M62.5 22.8c-.8-.7-2.1-.7-2.8.1a2 2 0 000 2.7c.7.7.7 1.8 0 2.5s-1.8.7-2.5 0l-5-5a2 2 0 00-2.8 0 2 2 0 000 2.8l5 4.9a5.7 5.7 0 008.1-.1 5.7 5.7 0 000-7.9zM43.9 9.2l-2-2A24.6 24.6 0 007.1 42l15.2 15.2c.3.3.5.8.5 1.2a1.8 1.8 0 01-3 1.2l-10-10-.1-.1a5.7 5.7 0 00-8.1.8 5.8 5.8 0 00.1 7.5l5.9 5.9c.4.3.9.5 1.4.5a2 2 0 001.4-3.4l-5.9-5.9c-.7-.7-.7-1.8 0-2.5s1.8-.7 2.5 0l10.1 10.1.3.3c2.3 2 5.7 1.9 7.8-.3a5.7 5.7 0 000-8.1L10 39.1C2 31.1 2 18 10 10s21.1-8 29.1 0l1.9 2c.8.8 2 .8 2.8 0 .8-.7.9-2 .1-2.8z" data-v-2b605bb2=""></path><g data-v-2b605bb2=""><path d="M82 47.8c0-1.5 1.2-2.8 2.7-2.8.6 0 1.2.2 1.7.6 3.4 3.1 7.8 4.7 12.4 4.8 8.1 0 10.6-4.3 10.6-7.8 0-5.4-5.5-6.9-11.5-8.5-7.3-1.9-15.4-3.9-15.4-12.8 0-7.5 6.7-12.5 15.9-12.5 5.1-.1 10 1.5 14 4.7.7.5 1.2 1.3 1.2 2.2 0 1.5-1.2 2.7-2.7 2.7-.6 0-1.2-.2-1.6-.6-3.2-2.6-7.2-4-11.2-3.9-5.8 0-9.7 2.9-9.7 7.2 0 4.5 5.2 5.9 11 7.5 7.4 2 15.8 4.3 15.8 13.8 0 6.6-4.5 13.3-16.7 13.3a23 23 0 01-15.6-5.5 4 4 0 01-.9-2.4zM153 24.1v28.3a2.6 2.6 0 01-2.7 2.4 2.6 2.6 0 01-2.4-2.4v-2.6a14 14 0 01-11.1 5.7c-8.6 0-14.6-6.5-14.6-17.2 0-10.5 6-17.2 14.6-17.2 4.4 0 8.5 2.2 11.1 5.8v-2.8a2.6 2.6 0 012.7-2.4c1.3.1 2.3 1.1 2.4 2.4zm-5.1 21.6V30.9a12.3 12.3 0 00-9.9-5.3c-6.6 0-10.5 5.4-10.5 12.7s4 12.6 10.5 12.6c3.9-.1 7.6-2 9.9-5.2zM163.8 52.4V11.6a2.6 2.6 0 012.7-2.4c1.3.1 2.3 1.1 2.4 2.4v40.8a2.6 2.6 0 01-2.7 2.4 2.7 2.7 0 01-2.4-2.4zM208.6 24.1v28.3a2.6 2.6 0 01-2.7 2.4 2.6 2.6 0 01-2.4-2.4v-2.6a14 14 0 01-11.1 5.7c-8.5 0-14.6-6.5-14.6-17.2 0-10.5 6-17.2 14.6-17.2 4.4 0 8.5 2.2 11.1 5.8v-2.8a2.6 2.6 0 012.7-2.4c1.3.1 2.3 1.1 2.4 2.4zm-5.1 21.6V30.9a12.4 12.4 0 00-9.8-5.3c-6.6 0-10.5 5.4-10.5 12.7s3.9 12.6 10.5 12.6c3.9-.1 7.5-2 9.8-5.2z" data-v-2b605bb2=""></path></g></svg>
