<svg xmlns="http://www.w3.org/2000/svg" viewBox="0 0 157.8 125.9" fill="lightgrey">
  <path d="M16.6 24.9c-.5-2.8-.8-5.4-1.1-5.4s-1.2 2.4-2 2.1-.8-3.1.1-3.1 2.1-2.1 2.1-2.8c0-.7-1.1-.7-2-.7s-3.2.1-3.2.1-1.3-.5-1.3-1.3-.5-1.5-1.9-1.5-1.3-1.3-2.4 0 2.1 1.3 1.9 2.4-1.2.4-1.3 1.3c-.1 1.4.1 2.8.7 4.1.7 1.6 1 3.4.9 5.2.8-.1 1.2-.5 1.9-.5s2.1-.1 2.3-1.1 1.1-1.6 1.7-1.3a6.1 6.1 0 011.5 3.9c.1.5.2 1 .4 1.5.3-.3.7-.6 1.1-.8-.1-.8.2-1.5.6-2.1z"/>
  <path d="M34.2 52.9c0-1.1-.9-1.2-.9-2.1.1-1.2-.3-2.5-1.1-3.5-1.1-1.1-1.6-2.4-1.1-2.9s.1-2.1.4-2 .8-1.1.1-1.3 0-1.6-.5-1.9c-.9-.6-1.6-1.5-2.1-2.5 0-.5.4-3.7.5-4.4s1.2-.9 1.6-.9 1.6.1 2.1-.7 2.3-.9 2.5-1.5 1.5-.5 1.5-1.2 1.5-2.3 1.5-2.3c-.1-.3-.5 0-1.3.3-1.2.5-1.9-.1-1.7-.9s-.9-.8-1.6-.8-.3-1.1 0-1.9-.3-1.2-1.1-1.2-1.2-1.8-1-2.2-1.7-.9-2.5-.5-.3-.8-.5-1.3 1.1-2.7 2.3-3.8.7-2.8.7-4.1S31.5 8 30.9 8s-.7-.8-.7-1.6c-.1-.7-.8-1.1-1.5-.9-.1 0-.3.1-.4.1l-.5.3s-.3 1.1-.7 1.3-.4.8.3 1.8-1.1.5-1.2 0-1.6.3-2.4 1.1-1.9 1.1-1.9 2.3-1.1 2.4-.8 3.5-1.1 2.9-1.1 3.5-1.8-.4-2.2-.4-.1 2.1-.5 2.8-.1 2.9-.8 2.9c-.7 0-1.2 2.1-1.2 2.1l-1.1.8a6.1 6.1 0 002.7 2.8c1.6.7 2.7 4 3.2 5.7.4 1.5.3 3.1-.4 4.5-.5.9.3 1.1 1.2 1.5s2 .7 2.8-.3 2.1-1.7 2.4-2.8.9.5 1.5 1.1c.7.9 1 1.9 1.1 3.1.1 1.5.3 4.9 1.5 6 1.1 1.2 1.4 2.8 1.1 4.4-.3.8.7 2.4.4 3.3 0 .1-.1.5-.1.8 1.2.1 2.6-4.8 2.6-4.8z"/>
  <path d="M14.9 7.5c-1.7-1.5-2.1-.3-3.2-.9s-1.7-.8-2.2-.4-1.5.4-2 1.7c-.2.4-.4.8-.7 1.2.3.4.5.7.7.7.4-.1 1.1.7 1.9.4s1.5.5 2.7.3 2.3.4 2.8-.3-.3-2.4-.3-2.4l.3-.3z"/>
  <path d="M57 25.8c-.8-.1-2.8-1.6-2.8-2.1s.9-1.5-.8-1.6c-.9 0-1.8-.4-2.3-1.2-.3-.3-1.7.7-2.3 1.5s-.8-.3-1.8.2-2-.8-2.4 0-1.6-.4-2.1.3c-.2.2-.5.4-.8.5.5.5 1.1 1.1 1.1 1.5 0 .7 1.5 1.2 1.5 2.1s1.7 1.6 2.3 1.2 1.7-.7 2 .5.9 1.2.9 2.1-1.7.4-2.1 1.2 3.1 2 3.1 2.7 1.1 1.6 1.5 2.5 2 2 2.3 3.1 1.7 1.6 2.3 2.1c.6.8.8 1.8.5 2.8-.3 1.6 0 3.3.9 4.6 1.1 1.6-1.2 2.3-2 3.2s-.4 2.1-2.5 1.6.4 1.7 0 2.5-3.2-.7-3.2 0c0 .4-.9.9-1.7 1.3.4.4.8.7 1.2.9.7.4-.8 1.1-.8 2.4s1.1 1.6 1.3 1.1c.7-.8 1.6-1.5 2.5-2 .7-.1 0-1.1.7-1.1s.4-.9.8-1.5.8-.3 1.7-.3 2.4-.9 3.8-1.9 1.6-1.1 2.3-3.7-.7-5.7-.7-6.5-2-4.4-2.7-4.4-4-3.3-4.5-3.9-.4-1.5-1.2-2.1-.9-2.5-.7-3.9 2-1.6 2-2.4.1-1.6 1.1-1.6c.9-.1 1.7-.7 2.3-1.5 0-.1.1-.1.3-.3-.5.4-.8.3-1 .1z"/>
  <path fill="currentColor" d="M50.1 57.1c0-.7 2.8.7 3.2 0s-2.1-3.1 0-2.5S55 54 55.8 53s3.1-1.6 2-3.2c-.6-1-1-2.2-.9-3.5-.6.5-1.3.6-2 .4-.7-.3-1.9-.4-1.9.5s-.9 1.2-.8.7-.9-.4-1.6-1.1-2.8.3-3.8-.1-2.8.5-3.8 1.9 0 1.4 0 2.6.7 1.2.4 2.1v.1c1.1.5.7 1.7.8 2.5s1.2.3 1.7.3-.4.9.1 1.5 2-.5 2.3.1c0 .1.1.3.3.4.4-.1 1.5-.7 1.5-1.1z"/>
  <path d="M50.2 34.8c0-.7-3.3-1.7-3.1-2.7s2.1-.4 2.1-1.2-.7-.9-.9-2.1-1.5-.9-2-.5-2.3-.4-2.3-1.2-1.5-1.5-1.5-2.1c0-.4-.5-.9-1.1-1.5-.3.2-.7.3-1.1.1-.1-.1-.8 1.1-.4 1.5s.8 2.4-.1 2.3-.9-1.5-1.5-1.3c0 0-1.5 1.6-1.5 2.3 0 .4-.5.5-.9.8.3.1.4.4.5.5.3.4-.1 1.3.3 2.1s1.6-.5 1.9.7-.3 1.9-.3 2.9-.9 1.1-.7 2.1 1.6-.3 2.5-.9 1.7-.5 2-.1 1.6.1 1.7-.5 2-.8 2.7-.1c.5.8 1.2 1.5 2 2s-.7 3.1.3 3.3c1.2.5 1.9 1.6 1.9 2.9-.1 1.2.5 2.1-.4 3.2.7.4 1.3.4 1.2.8s.8.3.8-.7 1.3-.8 1.9-.5c.7.2 1.4.1 2-.4 0-.4 0-.7.1-1.1.2-1 0-2-.5-2.8-.5-.5-2-1.1-2.3-2.1s-2-2.1-2.3-3.1-1-1.9-1-2.6z"/>
  <path d="M42.9 51.3c0-1.2-1.2-1.2-.1-2.5s2.8-2.3 3.8-1.9 3.2-.5 3.8.1c.1.1.3.3.4.3.9-1.1.3-2 .4-3.2.1-1.3-.7-2.5-1.9-2.9-.8-.3.7-2.9-.3-3.3-.8-.5-1.5-1.2-2-2-.7-.7-2.4-.5-2.7.1s-1.3 1-1.5.6-1.1-.7-2 .1-2.3 2-2.5.9.7-.9.7-2.1.7-1.9.3-2.9-1.6.1-1.9-.7 0-1.9-.3-2.1c-.1-.3-.4-.4-.5-.5-.1.1-.4.3-.4.4-.3.5-2.1.7-2.5 1.5s-1.7.7-2.1.7-1.5.1-1.6.9-.5 3.8-.5 4.4c.4 1 1.2 1.9 2.1 2.5.5.3-.1 1.6.5 1.9s.3 1.5-.1 1.3.3 1.5-.4 2-.1 2 1.1 2.9c.8 1 1.2 2.2 1.1 3.5 0 .9.9.9.9 2.1 0 0-1.3 4.8-2.4 4.6-.3 1.2-.5 3.1-.8 4.1-.3 1.3-.5 2.4.1 2.5s2.3 1.7 3.7 3.6c.3.4.6.8.8 1.3.5 0 1.1 0 1.6.1.8.1 1.3.8 1.3 1.6 0 .5 1.9.4 2.3.3s-.1-.8.9-1.2c-.8-1-1.9-1.7-3.2-1.9-1.5-.1-2.1-2.3-2-3.2s-1.1-1.7-1.1-2.7-.8-.8-1.7-1.3.3-3.2.3-4.5 2.1-4.6 1.6-5.7 2-1.9 2.4-.7.4 1.7 2.1 1.7 1.6 1.2 2.9 1.6l.3.1v-.1c-.2-1.1-.9-1.1-.9-2.3z"/>
  <path d="M45.4 74.7c0-1.9-1.7-1.6-2.1-2.9s-1.1-.5-1.3-1.3c0-.1-.1-.3-.3-.4-.9.3-.7 1.1-.9 1.2s-2.3.3-2.3-.3c0-.8-.5-1.5-1.3-1.6-.5-.1-1.1-.2-1.6-.1.5 1.4.8 2.8.8 4.2 0 1.6 2.5 4.2 2.9 5.3s1.1 1.5 2.7 2.5 4.8 3.1 5.3 2.7-.9-3.1-1.9-4-.1-3.5 0-5.3zm42.2-3.2c-.8.1-2.5.1-2.5-.7s-1.6-2.1-2.5-2.1-2.1 2-2.3 2.8-1.6.8-1.5 1.9c0 .5-.3.7-.7.8.3 1.1.4 1.7 0 1.6-.7-.1-.8.7-1.9.7-.4 0-.9-.8-1.5-2-.7 0-2.1 2.3-2.5 3.8s-1.9 1.1-4 1.2-1.1 2.5-1.7 3.5-2.9-.8-4.1-1.1c.3.9.5 1.9.8 1.9.7 0 1.6 1.6 2.3 1.2s2.7 0 3.6-.3 1.2-1.2 2.8-1.2.9 1.3 2.7.5 2.7-.1 2.5-1.6 1.1-1.5.8-2.7 1.9-.3 1.6-2.5 2.9-1.9 4.2-1.9c.5.1.9.2 1.3.4.9-.5 2.4-1.2 1.7-1.7s2.3-.1 2.5-1.1-.8-1.6-1.6-1.4z"/>
  <path d="M76.5 76.5c.9 0 1.2-.8 1.9-.7.4.1.3-.7 0-1.6-.5.1-1.3.1-1.3.7 0 .8-1.2-.3-2-.3.5 1 1.1 1.9 1.4 1.9z"/>
  <path d="M98.4 49.2c1.6-.3 3.7 1.7 3.3 2.5s.1 3.2.8 2.5 1.9.1 1.2 1.2 1.2 2.1 1.3 3.5 1.1.3.9-.8.1-.9 1.2-1.6-.1-2-.8-3.5-3.2-.9-3.2-2.3-1.9-1.7-1.9-2.5-2.5-1.5-3.8-.7S97 46 95.9 45s.8-2.7 1.9-4-.3-3.6-.1-4.5.1-1.3-.5-.9-2.9-1.1-4-.3-.1 6.1-.5 6.5-1.2-.9-1.3-.3.1 3.8.8 3.8 1.2.8.8 2.1 1.2 1.5 2.8.9 1 1.1 2.6.9zm-5.3.6c.3 1.2.8 3.6 2.7 2.9S93 49 93.1 49.8zm4.6 8c.4-.1 1.5 0 1.5-.8s1.1 1.5.3 2.3-.8 2.8.4 3.1 3.3-3.7 2.9-4.5-1.3.5-1.1-.5-2.9-3.6-4.2-3.3-.7 4 .2 3.7zm-9.8 1.6c-1.2 1.5-4 4-3.6 4.6.5.9 3.6-3.6 5-4.8a2 2 0 00.9-2.7c0-.1-.1-.2-.1-.3-.3-.8-1 1.7-2.2 3.2zm14.7 1.7c.3.8 2.7-.5 2-1.3s-2.1.7-2 1.3zm7.5 6.4c1.1-1.2-.7-4.2-.7-6.2s-2.7-1.5-2-.1-1.5.3-1.6 1.5-1.7.3-1.6 1.2-1.6 0-2.5-.5-2 1.6-3.2 1.9-1.8 2.7-1 2.7 1.5-1.5 2.5-1.3.7-.9 2.1-.8.4 4.5 2.3 4.8 2 1.5 2.9 1.5-.1-2.7-.1-3.6 1.9.1 2.9-1.1z"/>
  <path d="M31.8 90.9c-.1.4.8 2.1 1.3 1.6s-.8-3-1.3-1.6zm26.9 5c0-.8-2.1-.4-1.5.7s1.5.1 1.5-.7zM27.6 83.8c-.1.8.8 3.2 1.7 2.3s-1.4-3.2-1.7-2.3zM90 97.9c1.2.1 1.1 1.9.8 2.9s-.8 3.6.3 3.2c1.3-.5 2.1-2.1 1.3-2.7s-.7-4.2-.3-5.2 2.5-.3 1.9 1.2 1.5 1.2 1.5 2.8 1.2.8 2.5.3 1.1-1.2.1-2.1.7-2.4-.5-3.2-2.1-2.1-.9-2.3 4.6-2.3 4.2-3.1-5.3.1-5.7 1.6-3.8-.1-3.5-2.7 7.3-2.9 9.3-2.1 4.1-1.5 4.9-2.9-1.6.3-2.9 1.2-5-.1-7-.8-1.9 1.2-3.3 1.5-1.2 3.7-2 4.1-.8 2.9-2.3 5.3.4 2.9 1.6 3zM52.3 100c0-1 .1-2 .4-2.9 0-.5.4-.8 1.2-.7s.7-1.6.1-1.7-.9-2.3-2.4-2.3-1.2 1.2-.3 1.2 1.3.8 1.1 1.3-.5-.5-1.7-.5S50.3 93 49 93s-1.1-2.5-2.5-2.5-1.5-1.2-.5-2-1.5-1.6-1.5-2.5-1.5-.5-1.5-1.3-.7-.4-1.5-1.5-1.1-.1-1.7-.8-1.6-1.2-2.1-.9-1.9-1.1-2.4-2.4c-.4-1.1-4.2-2.8-4.6-4.2s-1.9-2-4-1.9-3.1-2.1-3.6-1.1c-.7 1.3 2.4 4.5 3.8 5.3s2.1 3.8 3.8 4 1.9 5.3 3.1 5.6 3.8 4.2 4.2 6.5 3.2 3.2 4 4.8 4.5 3.7 5 4.4.9 2.1 1.3 1.5 2.1 0 2.9.1 1.1-2.9 1.1-4.1zm63.1-13.3c1.9.1 1.1-.9 1.1-2.1s-1.6-.1-1.6-.8-.5-2.9-1.9-1.1.4 6.4 1.5 6.1-.8-2.2.9-2.1zm-6.8 10.4c.3 1.3 2.7 2.1 3.3.9s-3.7-2.4-3.3-.9zm-6.5 14.1c-2.3-.3-3.7 1.3-6 .5s-5.6 0-5.2.8 2.3.8 4.5.8 4.2-1.2 5.7-1.2 3.3-.7 1-.9zM119.8 96c-2.1-.7-5.8-.1-5.4 1.1s2.1.5 3.8.5 2.7 1.2 3.6 1.2.1-2.1-2-2.8zm-43.6 14.2c-.1-1.1-3.3-.1-4.9-.8s1.7-1.2 2.8-1.9-.7-.9-3.3-.1-5.7-1.9-5.8-.7-4.8-.5-6-1.3-5.6-1.9-6.5-.3-1.7.1-1.3 1.6c.3.9 1.3.4 2.1.4s.4 1.5 1.5 1.6 4.6 1.2 4.9.4 3.6 0 5.3 1.3c1.7 1.3 5.4 1.5 6.9 1.2s3.2.9 3.7.1 1.6 1.3 3.3.1-2.5-.6-2.7-1.6zm65.1-17.9c-1.2.1-1.5 2.3-2.5 2.3s-2.5 2.3-4.5 2.9-2-5.7-2.9-6.9-5.8-2.3-6.4-.8-2.3.7-2.4 1.9.4.8 1.5.8 1.1.8 1.6 1.9c.5 1.1 3.5.3 4.5.3s1.2 1.3-.3.8-1.5.7-2.4.4c-.9-.3-2.4-.1-1.6.4 1 .5 1.7 1.4 1.7 2.5 0 1.3 1.9 1.1 1.9 0s1.1.3 2.9.8.5 1.2 2.5 1.3c2.8.4 5.4 1.3 7.8 2.7 1.6 1.2.5 2.1 1.6 3.2s1.5 2.5-.1 2.5-3.1 1.5-2.7 2.3 5.3-.3 6.4-.3c.8 0 1.6 1.3 2.9 2.4V95.9c-3.6-1.6-8.5-3.9-9.5-3.6zm-35.7 20.9c-.3.2-.6.3-.9.4l-.4.8c-.3.1-.7-.1-.9-.5-1.6.7-2.4 2.5-1.3 3.2s2.7-.9 3.5-2c.2-.2.3-.3.4-.5l.3-.3.3-.1c-.4-.5-.8-.8-1-1zm-23-21.3c1.3-1 2-2.6 1.6-4.2-.1-1.6 3.6-1.7 4.2-2.4s-.8-1.7-1.9-2.3-.1-1.6-.9-2.3-2-2.4-.9-2.5-.8-1.6.1-2.1l.4-.3c-.4-.3-.9-.4-1.3-.4-1.3 0-4.5-.3-4.2 1.9s-1.9 1.3-1.6 2.5-1.1 1.2-.8 2.7-.8.8-2.5 1.6-1.1-.5-2.7-.5-1.9.8-2.8 1.2-2.9-.1-3.6.3-1.6-1.2-2.3-1.2c-.4 0-.7-.9-.8-1.9h-.3c-1.1.1-2.9 2.9-1.9 3.8 1.2 1.2.9 2.9 1.5 3.9s2.4 1.1 2.4 2.8 1.6 4.5 2.7 3.7 1.9.3 2.3 1.1 2.9-.5 3.7-.4 3.3.7 3.6 1.6 2.5-.1 4-.7.4-5.1 2-5.9zm6.1 23.1c.5.8 1.9.8 2.5 1.2s2.7 1.6 2.7.1-5.7-2.2-5.2-1.3zm-4.1-4.1c-.3.8-1.7.9-2.5.3s-1.9.8-1.3 1.5c1 1.1 2.7 1.3 4 .7 2.1-1.1 3.5-.1 4-1.2s-3.8-2-4.2-1.3z"/>
  <path d="M104.2 113.6c-.3 0-.6.1-.9.3.3.3.7.7.9.5.1-.3.4-.5.4-.8h-.4zm4-2.2c-1.1 0-1.6.8-2.4 1.5l-.3.1c.4.2.7.6.9.9 1.6-.9 5.7-2.1 5.8-2.7s-2.4.4-4 .2z"/>
  <path fill="currentColor" d="M45.5 83.3c0 .3.3.6.6.8.2.1.3.2.5.3.1.1.2.1.3.1.2 0 .3-.2.4-.3 1-1.8-1.8-2.2-1.8-.9z"/>
</svg>