<svg xmlns="http://www.w3.org/2000/svg" viewBox="0 0 498.52 423.09" stroke="#fff" fill="lightgrey">
  <g>
    <path d="M411.9 344.42c-.62.38-.46.67.49.86l-.49-.86zM414.49 322c-.8.26-.91 1.15-.66 1.8.06-.65.28-1.25.66-1.8zM415.78 324.75c-.63-.15-.7.14-.21.86l.21-.87zM420.8 313.68c-1.1.23-1 2.38.18 2.05.69-.2.06-1.75-.19-2.05zM422.66 319.16l-.1.53a7.58 7.58 0 001.81-.35 59.9 59.9 0 01-1.7-.18zM425.29 310.57c-.04 1.35 2.16 3.06 3.2 1.56.73-1.06-2.67-1.5-3.2-1.56zM425.96 320.45l-.2.86c2.22.15 4.08 1.36 6.2 1.81.9.2 1.86.6 2.82.35 1.06-.27 2.27-.9 3.38-.7-.87-1.33-3.21-1.24-4.62-1.41-2.53-.3-5.03-.65-7.58-.91h0zM439.43 390.02l-.29.86c1.8-.6 3.7-.32 5.53-.33 1.8-.02 2.89-.93 4.3-1.99.63-.47 4.55-5.1 3.82-6.03-2.09-2.7-3.5-2.99-6.9-1.6-3.49 1.44-4.98 5.97-6.46 9.09h0z"/>
    <path d="M449.96 390.71l.88-.26c-.41-.88-.3-2.56-1.77-1.98-1.94.77-.46 2.2.9 2.24h0zM450.15 373.37c.02.67.43 1.12 1.07 1.28a1.32 1.32 0 00-1.07-1.28z"/>
    <path d="M387.7 314.27c.3-.68.2-1.27-.28-1.8 2.7-.68 4.93-.83 7.08-2.76 2-1.78 4.04-2.54 6.62-1.9 2.61.65 3.86 2.6 6.1 3.57 2.25.99 4.66-.32 6.73 1.34-1.67 1.2-.16 2.83.5 4.05.88 1.65-.24 3.02-.9 4.54-1.7 3.9.46 8.55 2.1 11.94.63-.88-.13-2.85.88-3.5 1.42-.9 1.1 3.19 1.1 3.58 0 .77.26.97.77 1.49.74.74.35 1.75 1 2.52 1.26 1.47 3.93 2.26 5.5.69 1.15-1.14 2.32-2.16 3.48-3.27 1.23-1.17 1.51-2.73 3.13-3.73 1.45-.9 1.16-4.23 2.97-4.24 2.14-.01 3.17.19 5.22-.85 1.46-.75 1.54-1.26.95-2.6-.46-1.03 2.74-2.5 3.4-2.84 1.62-.85 3.12-1.43 4.78-.56 2.17 1.14 4.78 1.93 6.7 3.43 1.62 1.25 3.49 1.94 5.3 2.87 1.25.65 3.66 2.6 5.17 2.08 1.9-.65 2.63.78 4.55.75 2.02-.03 2.94 2.06 4.95 1.78-.46 6-1.14 12-1.75 18-.65 6.27-.6 12.72-1.46 18.96-.28 2-1.85 3.43-1.84 5.55 0 .87 1.12 1.34 1.1 1.9-.04 1.33-.32 2.7-.45 4.03a775.33 775.33 0 01-2.15 18.8c-2.53-1.29-2.96-4.23-4.85-6.1-.93-.91-4.53-3.26-2.75-4.88-1.16.88-3.15.5-4.52 1.04-1.16.46-3.29.56-2.6-1.3-.6.7-2.11 2.02-3.08 2.03-1.48.01.33-2.52.5-2.88.53-1.17 2.26-3.79 1.1-4.43-1.06-.57-1.32-1.98-2.11-2.8 1.44-1.21 3.23.9 4.4-.94-2 1.93-4.43-1.12-5.75-2.32 1.87-2.06 3.84.35 5.66.43-1.57-.61-2.87-1.71-4.3-2.57 1.7-.3.27-.82-.27-1.4a7.1 7.1 0 01-1.79-2.94c-.36-1.44-1.6-4.15.33-4.86-1.9.7-1.94-1.33-.2-1.63-.65 0-2.29 1.02-2.76.26-.57-.9.67-2.09.27-3.09-.63 2.2-2.13-1.31-2.84-1.62-1.2-.53-1.27-.83-2.19-1.26-.71-.34-2.43-.83-2.84-1.55-.57-1-4.26-1.09-5.38-1.78a28.55 28.55 0 00-5.8-2.93c-1.93-.63-4.82-.05-6.48-.89-1.5-.75-3.47-1.78-4.05-3.46-.54-1.56 1.94-1.32 2.8-1.46-1.02-.31-2.31-.84-3.18.2-.98 1.2-1.53-.63-2.38-.89-.07 1.76-2.78.47-1.44-.76-1.88.02-2.61.03-3.01-2.25-.1.67-.48 1.2-1 .53-.73-.97-.1-1.57-.16-2.57-.1-1.84 1.77-2.88 1.9-4.74-.48.96-2.1 1.3-2.14 2.51-.04 1.08 0 2.75-1.55 2.65 1.32.6.23 1.3-.24 2.05-.3.28-.6.56-.89.86-.07.57-.11 1.15-.16 1.72-.45 1.22-2.98 2.5-4.26 2.15-1.13-.32-1.7-3-1.71-4 0-.68.9-.74 1.36-.95 1.25-.57-.58-2.1-.24-3.12-1.5.9-3.17-3.88-5.24-3.96-3.2-.13-1.4-2.34.91-2.57 2.41-.25 4.06 2.13 5.83-.65 1.31-2.1 5.15-2.75 4.05.65.28-.58.5-1.18.66-1.8.28 1.64 2.25-.4 2.11 1.37.31-1.43.77-.64 1.1.1.38-.75.47-1.73-.18-2.33.6.12 1.17.07 1.74-.17-.48-.6-.43-1.17.14-1.72-1.88 1.37-.39-.98-.03-1.37-1.98.17-3.08 1.42-5.19 1.09-1.3-.2-3.11 1.04-4.23.62-1.38-.51-2 .44-3.07-.65-.36-.37-1.47.32-1.83.34-1.22.07-2.15-1.03-3.03-1.66.23-.3.47-.58.72-.86-.98.17-1.81-.96-1.43-1.88.14-.35.62-.82.56-1.21-.13-1.02-1.76.63-.62-1.2-.88.17-1.1.18-1-.78-1.3 1.8-3.6-1.34-4.68-1.28.98 1.35-1.47 1.14-2.08.7-1.7-1.21 1.78-3.45 2.14-4.66h0zM70.03 279.4c.36.26 1.71.4 1.54-.5-.09-.44-1.54-1.36-1.88-1.71-.43-.45-.94-.85-1.62-.71.37-.96-.91-1.68-1.57-1.98-.34-.16-.6-.87-1.08-.48-.9.7-.9 1.43-.06 2.18 1.39 1.25 3.91 1.26 4.67 3.2h0zM276.44 357.3c-.45 1.44.27 2.77.03 4.21 1.35-.62 2.03 1.94 3.56.83 1.05-.75 1.07-.9 2.38-.75 1.23.15 2.1-1.27 3.26-.34-.04-2.02-1.58-3.75-.77-5.82 1-2.53 1.53-4.18 1.32-6.95-.18-2.31.4-4.13.69-6.38.13-1.03.06-2.05.21-3.08.25-1.73-.53-1.73-.9-3.2-.74-2.84 4.28-5.17 6.4-4.5 1.93.61 1.18 4.97.11 6.1-2.99 3.2 1.76 6.84 4.46 8.32 1.15.63-1.94 5-.82 6.8.61.95 2.71 1.44 3.79 1.6 1.32.2 1.06-1.96 1.24-2.73.39-1.71 2.8-1.4 4.03-1.89.72-.29 3.57 1.2 1.98-.9 1.22 2.21 3.14-2.26.87-2.92-.48 2.1-.94-.79-2.03-.77l.72-.94c-.94-.04-2.08-1.28-2.6-1.97-.83-1.13.35-2.06-.4-3.19.42.1.85.2 1.28.27-.97-.6-.65-2.05.59-1.98a3.8 3.8 0 00-.86-1.16c-.66-.75-.14-1.54-.57-2.36-.36-.69-1.26-.74-1.67-1.37-.46-.72-.58-1.87-.95-2.67-.56-1.21-1.02-2.4-2.28-3.02-1.02-.51-1.44-2.7-2.86-2.04.1-.74.15-1.49.16-2.23 1.41 1.23 2.52 2.35 4.06.32 1.34-1.76 2.67-1.78 4.5-2.79 2.53-1.38 4.55-7.18 7.78-7.08.93.03 1 2.7 2.11 1.58.66-.67 1.94-2.39 1.32-3.35-1.02-1.58-5.24-1.1-6.57-.03.7.08 1.29.36 1.77.86-1.69.06-6.51-1.12-7.18 1.07-.45 1.46-4.86 1.4-4.51-.64-1.5.9-3.08 2.4-3.88 3.97-.86 1.71-1.27 2.72-3.23 2.3-1.29-.29-2.5-.63-2.81-2.1-.16-.73-.2-1.48-.58-2.14-.7-1.23-1.25-.23-2.06-.84-2.6-1.93-2.5-7.97-1.26-10.65.72-1.54 1.88-3.26 3.43-4.08 1.28-.67 4.32.44 5.61.91.92.34 2.72-.43 3.57-.82 1.74-.8 2.18.42 3.83.68 1.84.27 4.34-.73 6.32-.68 2.37.06 3.9.2 5.74 1.56 2.3 1.7 9.67.56 11.67-1.69 1.37-1.54 1.9-3.27 3.53-4.7 1.76-1.53 1.77-4.13 3.67-5.5-.64-.42-.98-1.13-.71-1.9-.68.18-1.61-.3-2.2.18-.88.73-.88 2.14-2.06 2.5-1.81.55-.7 1.1-1.58 2.22-.5.65-1.7.4-2.06 1.28-.93 2.21-4.34 2.6-6.21 2.2a20.54 20.54 0 00-5.1-.63c-.92.05-1.84 1.06-2.58.76a21.3 21.3 0 00-6.54-1.67c-1.31-.14-2.06-.52-3.45-.39-1.6.16-2-2-2.8-1.98-1.03.02-4.82-1.88-5.11.27-.4 2.94-3.17 5.73-5.21 2.65-.24.97-.58 1.7-1.35 2.36-1.04.89-.88 2.26-1.89 3.05-1.92 1.5.43 4.13-1.54 5.5-.13-.68-.6-1.13-1.33-.94.4 1.82 1.83 1.38 1.19 3.48-.6 1.91 1.09 3.67.47 5.62-.37-.73-.5-1.57-1.13-2.15-1.18 2.91-3.51 4.43-3.79 7.73-.12 1.48-.05 3.05-.2 4.49-.19 1.68-1.8 2.77-1.98 4.58-.23 2.38-4.17 3.48-3.63 5.48.3 1.12 1.23.42.2 2-.88 1.39.11 4.37.62 5.78.8-.87 2.81-1.19 3.9-1.25 2.38-.13.42 2.17 1.14 3.55 1.2 2.3.83 4.25.33 6.89-.42 2.16-1.09 5.52-2.6 7.2h0zM300.18 356.36c-2.8.96-.43 4.06-.28 3.93.77-.68.78-3.16.28-3.94z"/>
    <path d="M302.61 308.77c-.43-.86-1.65-.9-1.72.27.61.23 1.19.14 1.72-.27zM303.94 307.83c-.53-.78-1.2-.76-1.8 0 .54.4 1.21.38 1.8 0zM305.04 360.05c.37-.44 1.28-1.39.98-2.03-.55-1.18.66-1.72 1.01-2.73.2-.56 1.05-4.36-.5-3.54-.78.4-1.8.94-2.47 1.49-1.28 1.02.55 2.33-.37 3.43-.36.42-1.3 1.87-1.03 2.43.43.9 1.96.64 1.99-.43.11.47.24.93.39 1.38h0z"/>
    <path d="M310.73 349.4c-2.21.04-3.19 4.8-3.34 6.48-.17 1.76-.88 2.52-1.58 4.12-.87 1.98.38 1.45 1.45 2.63.56-.73.65-1.7 1.24-2.4.59-.71 1.62-.33 2.18-1 .81-.96-.73-2.65-1.7-1.67.29-1.05.28-2.14.6-3.18.21-.69 1.57-2.96 1.78-.95 1.02-1.6-.78-2.51-.63-4.03h0zM314.22 320.88c-.02-.6.06-1.2.23-1.8 3.22 1.7 2.62-4.78-.14-.78-.82-1.27.91-1.62-.8-2.15-.6-.19-1.29-.26-1.85.1-1.3.81-1.07 2.92-.78 4.12.98-.5 1.56-1.47 2.05-2.4.92.68-.05 2.81 1.29 2.91zM310.8 345.01c-1 .41-.94 2.2 0 2.58 1.42.56 2.35-2.27 0-2.58z"/>
    <path d="M315.15 316.33c-.3.37-.48.28-.2.86l.2-.86zM315.4 321.4a.93.93 0 00-.63.86l.63-.86zM314.2 358.16c.07.6-.02.85.75.86l-.74-.86zM315.58 360.39c.05.48.33.74.83.77l-.83-.77zM317.84 364.78c-.64.62-.45.9.56.85l-.56-.85zM324.95 321.06c-1.58 2.19-.45 4.1 2.2 3.26.42-.26.86-.49 1.31-.7.5.11 1 .16 1.5.16.97-.48 2.62-.1 3.1-1.35-.69.09-1.14-.27-1.25-.94-1.17 1.56-5.19-1.02-6.86-.43zM335.55 275.54c-.87-.21-.97.08-.29.85l.3-.85zM337.57 269.35c.56-1.07-.84-4.5-2.22-3 1.4.38.85 2.42 2.22 3zM333.92 322.35c-1.28 1.3 1.88 1.36 2.5 1.37 1.67.02 4.14.28 5.47-1.03-2.62-.38-5.44.59-7.97-.34zM338.74 324.32c-1.85.4-.33 4.6.6 5.24.4-.66-.19-4.57-.6-5.24zM344.08 343.47c1.29-.63 4.07-1.04 4.9-2.25 1.08-1.52.56-2.64-1.02-2.98 1.32-1.42-1.4-2.3-2.33-2.53-1.76-.44-3.36.1-5.13.3-2.16.23-2.65 1.3-1.75 3.38.95 2.18 3.37 3.01 5.33 4.08zM347 264.8c.26-.69.02-1.38-.54-1.8.15.6.33 1.2.54 1.8zM347.41 262.82c.97-.97 1.25-2.48 1.12-3.77-.07-.66-.58-2.62-1.24-1.05-.47 1.1.78 1.96.33 2.79-.4.76-1.2 1.33-.2 2.03h0zM351.3 306.7c-1.06-.45-2 1.97-1.3 2.58 1.22 1.08 1.45-1.92 1.3-2.57zM351.17 310.24c-1.05.54-.58 2.15.63 1.8a5.55 5.55 0 00-.63-1.8zM352.56 295.11c-.27.41-.13.57.23.94l-.23-.94zM353.94 307.14l-.9 1.12-.82-.86c-.88 2.38.32 1.51 1 3.17.16.37-1 1.95.19 1.66.64-.15 1.34-.52 1.54.32.24.97 3.72-.65.89-1.44-1.16-.32-1.41-1-.75-2 .42-.64-.8-1.62-1.15-1.97h0zM352.98 300.1c-.23.4-.4.3-.03.86l.03-.86zM352.76 318.73c-1.36 1.03-.73 2.9.84 3.1.66.1 1.27-.42 1.93-.42.72 0 1.42.22 2.14.27 2.44.13.12-2.22-.6-2.59-1.57-.82-2.68-1.6-4.3-.36h0zM353.46 296.32l-.6-.08c.15.34.34.65.57.94l.03-.86h0zM355.43 303.88c.03 1.07-.42 2.18.3 3.1.7.9 1.45 1.33 1.83 2.47.43 1.24 2.63 3.93 3.75 3.27-3-3.19-3.23-7.02-3.7-11.12-.2-1.77-.08-3.23 2.09-2.1 1.85.96 4.55 1.54 6.64 1.72-1.3-.64-1.26-2.24-2.3-3.09-1.04-.84-4.07-.7-2.68-2.9.92-1.45 3.23-1.5 3.73-3.31.34-1.23-.45-3.29.1-4.19-2.19-.56-4.67 1.62-5.62 3.44 2.05.1 0 1.17-.57 1.4-1.26.48-.77 1.82-1.39 2.73-.64.95-1.9-.02-2.26-.65-.64-1.12.8-1.85 1.58-2.35 1.6-1.03 2.74-4.22 1.95-6.02-.34-.78-1.64-1.06-1.28-2.1.33-1 1.71-1.61 1.37-2.8-2.1.02-3.15 2.66-3.71 4.3-.6 1.74-2.08 4.8-1.82 6.52.12.85.45 1.73.9 2.44.18.34.44.59.79.74-.6.72-.83 1.6-.78 2.5a4.48 4.48 0 001.13 2.72c.67.87.14 2.3-.05 3.28h0zM353.9 316.07l-.97.7c.63.08 1.24-.03 1.81-.35l-.85-.35zM352.62 337.63c-.55.72-.32 1 .66.86l-.66-.86zM353.94 336.52c-.22.31-.31.65-.28 1.02.32 0 .64-.05.94-.17-.19-.3-.4-.59-.66-.85zM356.27 334.03c-.28.43-.59.87-.9 1.28.68-.14 1.03-.6.9-1.28z"/>
    <path d="M374.54 339.77c1.87 1.11 3.81 1.88 5.52 3.26 2 1.6 2.36-.8 2.09-2.4-.17-.98-1.48-1.3-1.64-2.23-.17-.96-.13-2.04-1.07-2.6-.86-.53-1.17-1.22-2.33-1a3.72 3.72 0 01-3.19-.68 5.05 5.05 0 00-3.24-1.24c-1.2.03-1.79 1-2.85 1.23-.94.2-1.28-.28-1.76-.86-.16-.2-3.1.15-3.52.12-4-.29-8.34 2.57-6.85 7.01.07-.9 1.44-4.58 2.73-4.3-.45 1.22 1.63 3.16 2.65 3.35.43.08 5.4-3.94 4.13-.85.76-.16 5.15 1.63 5.46.1.27-1.33 3.68-.23 3.87 1.1h0z"/>
    <path d="M356.54 340.98c-.69.33-1.23 1-1.1 1.8 1.02-.13 1.75-.91 2.72-1.2-.98 1.55 1.23.07 1.07-1.37-.97.06-1.68.98-2.69.77h0zM360.04 280.26c.27-.4.46-.27.11-.86l-.11.86zM361.3 283.1c3.26-.73 4.55-3.48 2.73-6.36-.42.93-1.48 1.17-2.13 1.86-1.15 1.19-1.24 3.13-.6 4.5h0zM360.36 340.2a.91.91 0 00-.14 1.04c.37-.17.7-.4.98-.69l-.84-.35zM361.64 339.96c-.35.89.33 1.64 1.25 1.2-.08-.68-.55-1.18-1.25-1.2zM370.55 303.88a3.7 3.7 0 001.9 1.72c-.57-.62-1.13-1.32-1.9-1.72zM375.57 324.75c.58.2 1.18.34 1.79.43.66-.02 1.03-.62 1.73-.52-.66-.95.8-1.41.1-2.85-.74-1.56-4.25 1-5.62 1.22a2.12 2.12 0 002 1.72h0zM374.95 315.73c-.37.17-.7.4-.98.69.8.45 1.13.22.98-.7zM377.5 303.96l.4.86c.15-.71-.08-.49-.4-.86zM382.93 308.43c3.55 1.01.09-2.44-.66-3.26 1.02-.14 1.65.94 2.18 1.6.97 1.22 1.28.17 2.25.66 1.84.94 2.1-1.74.77-2.48-1.26-.7-7.92-1.71-8.15.82 1.75-1.15.75.7-.27.34.78 1.06 2.68.34 2.25 2.23.12-.64.6-1.14 1.25-1.28.15.44.27.9.38 1.37h0zM380.3 312.47c-.37 1.62 4 1.05 3.62-.6-.96 1.02-2.47.24-3.62.6z"/>
    <path d="M382.17 308.26c-.52.21-.94.55-1.25 1.02.73.46 2.44-.52 1.25-1.02zM384.4 313.15c-3.28.54-2.07 2.82-.37 4.57 1 1.01 3.2-4.02.37-4.57zM386.52 314.19c-.28.38-.55.21-.38.85l.38-.85zM385.92 345.97c.12.53.1.75.74.85l-.74-.85zM387.06 344.84c-.74-.1-.66.18.24.86l-.24-.86zM404.37 346.31c-.4 1.19 1.95 1.44 2.5 2.06-.63-.94-1.87-1.13-2.5-2.06zM309.66 407.11c.45.36.38.72 1.1.43.2 1.28-2.17 1.68-2.44 3.36 1.04-.32 2.07-.04 3.11-.24 1.37-.26 2.42-1.7 3.8-1.74 2.21-.07 2.99-.7 4.52-2.34.98-1.06 2.62-2.4 3.06-3.73.68-2.02-.6-.4 1.19-.98l1.49-4.57-1.88-1.51c-3.61 1.44-.91 2.24-5.12 3.06-1.05.2-.35 3.16-1.1 3.63-.75.46-.9-1.11-1.42-.44-.54.68-2.18-1.73-2.58-.9-.4.82-3.4 5.06-3.73 5.97h0zM271 387.87c-.61.24-.83.67-.66 1.29.8-.08 1.03-.63.66-1.29zM146.78 371.39c-.37.15-.7.39-.97.69.8.46 1.13.23.97-.7zM160.52 366.48c-.74-.59-4.54-1.3-5.31-.6-.01-2.43-2.38.76-2.71 1.56-.34.8-.52 4.7-2.18 3.17-.33 1.28-1.16 2.31-1.67 3.52-.47-1.2-1.57-.88-2.47-.33 2.72 1.34 6.05-.27 8.48 1.47.76.54 1.87.58 2.71.99 1.34.65-.6 1.64-.83 2.59-.64 2.54 6.69 2.1 8.04 2.34 2.59.47 4.7 2.38 7.27 3.05.82.2 1.94.48 2.76.07.88-.45.7-1.2 1.95-1.24 3.17-.1 6.34.66 9.25 1.64 3.6 1.2 7.06 3.16 10.77 4.02 1.54.35 3.77.02 5.13.7 1.41.7 2.66.06 4.22.21 3.18.3 6.68 2.3 9.68.29 2.45-1.65 5.11 1.35 7.13 2.41.69.36 4.92.62 4.82 1.11-.2.9 1.12 1.43 1.86 1.08.54-.27-.82-2.05-.97-2.3-1.36-2.23.46-4.43.76-6.72.18-1.43-1.24-1.7-2.26-2.02-1.75-.56-2.33.21-3.99.05-1.56-.15-3.73.98-5.07.31-.84-.42-3.29-1.25-3.65-2.2-.32-.8 1.32-4.64-.72-2.96.43-1.27-.62-2.5-.48-3.78-1.18.6-2.71.18-3.96.3a1.67 1.67 0 01-1.17-.65c-.83-.74-1.75-.19-2.64-.68-.47-.25-1.21-2.25-2.08-1.25-.86 1-2.52.82-3.12-.3-1.42-2.65-3.18-2.98-4.53.32-.46 1.11-1.28 3.64-2.95 3.08-.94-.31-1.12-.8-2.18-.73-.86.06-1.76.28-2.61.1-1.67-.38-2.38-.29-4.01-.19-.94.06-2.4-1.18-3.26-.72-3.45 1.84-4.02-2.92-5.25-4.74-1.13-1.67-.97-.12-2.04-.12-1.27 0-2.3-1.83-3.64-1.18-1.27.62-2.07-1.02-2.81-1.66-1.23-1.06-2.19-.63-3.55-1.46-.3 1.2-1.56 2.86-2.72 1.45h0z"/>
    <path d="M178.14 383.25c.06.9 1.16.81 1.77.85a5.32 5.32 0 00-1.77-.86zM216.3 375.08c-.87-.14-3.16 1.6-2.16 2.46.95.8 3.26 1.51 3.44.12 1.35 1.67 3.19.7 4.88.1.7-.24 1.45-.44 2.18-.28-.11-1.15 1.17-1.13 1.93-1.37-.23-1.72-2.56-1.31-3.77-1.15-2.16.3-4.37-.45-6.5.12h0zM215.08 363.06c-.69.1-.84.6-.64 1.2.82-.02 1.02-.55.64-1.2zM228.7 376.8c.05.64-.08.93.73.94a9.31 9.31 0 00-.74-.94zM229.1 387.44c-1.2 2.12 1.6 3.15 3.03 3.84.9.44 1.61.88 2.2 1.7 1.07 1.47-.31 1.08-.42 2.14-.08.7 2.85-2.49 2.98-2.53 1.18-.41 4.14-1.57 2.73-3.1-1.02-1.12-3.06-2.7-4.68-1.82a5.48 5.48 0 01-5.84-.23h0zM230.38 377.56c.24.22.53.22.86 0h-.86zM237.71 374.48c-.74.38-.93 1.04-.32 1.63.69-.82 1.79-.94 2.69-.52-.37-1.03-1.44-1.05-2.37-1.11zM238.45 394.84c.3-.46.3-.92.05-1.39-.34.2-.64.46-.88.78l.83.6zM245.88 388.73c-1.26.62-2.83 1.77-2.73 3.35.07 1.26-.43 3.29-2 1.98-1.4 2.06 5.52 1.48 5.77 1.8-.52-1.25 1.37-3.66 2.02-4.68.98-1.56-1.85-2.9-3.06-2.45h0zM259.37 396.03c1.88-.95 3.71-1.26 4.84-3.25.37.66-.58 2.03.09 2.38.71.38 1.23.1 1.91-.17.87-.35 1.55.15 2.37.28a2.2 2.2 0 00-1.67-.96c1.68-.99 3.97.87 4.53-1.8-1.56 1.85-1.25-1.57-1.59-2.28-.8-1.74-2.68.04-2.68 1.34-.2-1.3-1.12-3.49-2.65-1.86-1.16 1.24-2.01-1.2-2.55-1.82-.8-.92-4.25-.22-3.31 1.32 1.14 1.88 2.7 2.32 4.52 3.39-.6.78-2.19 1.2-3.1 1.4-1.55.35-1.68-1.07-2.3-2.05-1.43-2.27-6.18-1.46-7.82.34-.8.86-.06 2.2-.78 3.09-.98 1.18.66 2.13 1.6 2.38.58.15 1.09.18 1.6-.2.97-.73.92-.26 2.13-.3 1.71-.07 3.16-1.79 4.86-1.23h0z"/>
    <path d="M256.56 390.55c.62-.73 1-1.62 1.54-2.41-1.77-.83-1.69 1.29-1.55 2.4zM268.08 402.39c.74 2.13 2.73 2.06 4.65 2.28 2.27.25 4 2.36 5.32 4 2.47 3.06 8.5.29 5.52-3.14-.93-1.07-1.63-1.96-3.05-1.96.06 0-2.14-2.76-2.42-3.02-.21-.19-4.03-.13-4.21-.01-1.82 1.14-4.22-.67-5.8 1.85h0zM273.98 390.96c-.51.8-1.14 1.74-.35 2.6.07-1.2 2.43-1.77.35-2.6zM275.38 392.68c.22.68.1 1.3-.32 1.9 1.14.28.99-1.05 1.25-1.72l-.93-.18h0zM278.47 394.92c.93-.49 2.68.07 3.76-.06.99-.1 2.47.1 3.43.3 1.05.22 1.57 1.4 2.81.86.85-.39 2.83.35 2.56-1.28 2.62 1.12 3.79.39 6.4-.55 1.73-.63 7.72.22 6.96-3.23 1.18.23 1.09-1.24 2.19-1.27-.44-1.42-1.88-3.54-2.38-.78.55-.34 1.13-.4 1.72-.18-1.24 1.38-3.38 1.47-4.34 3.15-1.16 2.04-2.95.69-4.06-.39-1.06-1.02-2.46.66-3.61.2-.6-.24-.58.24-.98.6-.63.58-1.76-.42-2.2-.74-1.45-1.08-3.78-1.75-5.53-2.16-2.75-.65-3.68.4-6.03 1.56-1.17.57-1.92.56-2.11 2.17-.1.83.14 3.3 1.41 1.8h0zM286.01 363.66c-1.48.49-.95 5.93-.67 7.03.38-2.35.99-4.65.67-7.03zM286.34 376.37c-.28.43-.3.86-.05 1.3.34-.18.63-.42.88-.7l-.83-.6zM287.71 378.95c.21.73 1.28.35 1.71.17a5.48 5.48 0 01-1.7-.17zM290.29 413.39c.3.12.59.06.86-.18l-.86.18zM292.11 412.78l-.19.43c.68.26 1.7.07 2.27-.41.28-.22.36-.5.23-.82-.55-1.1-1.6.44-2.3.8h0zM302.08 415.02a1.59 1.59 0 00-.14 1.72c1.48-.83 3.73-2.27 5.33-2.67-.28-.56-.52-1.13-.72-1.72-1.66.75-2.63 2.02-4.47 2.67zM305.3 391.83l.22.77c.39-.64.9-1.15 1.52-1.54-.7-.03-1.28.23-1.74.77zM307.18 389.42c-.4.34-.62.77-.64 1.29.73-.1 2.39.23 2.7-.77.37-1.28-1.46-.86-2.06-.52h0zM307.96 408.75a2.36 2.36 0 00-1.08 1.8c1.1.15 1.37-.98 1.08-1.8zM310.03 389.34c.22.26.4.55.56.86-.68.27-1.76.77-2.01 1.53-.45 1.35 2.13.33 2.63.7-.12-1.62 2.4-2.93 3.71-3.18-1.61-1.84-2.56.55-3.74 1.11.62-1.24-.26-1.16-1.15-1.02h0zM315.24 390.02c-.38.35-.57.78-.56 1.29.74-.18 1.38.2 1.69.85.72-.72 2.21-2.48 1.31-3.52-.5.96-1.52 1.12-2.44 1.38zM319.94 387.87c-.52.56-1.25 1.98.4 1.12-.92.4-1.71 1.21-1.8 2.23 2.12-.2 4.55-.03 6.56-.92 1.27-.56.9-1.88-.33-2.1-.73-.13-1.38.18-2.11.11-.92-.08-1.77-.56-2.72-.44zM330.59 388.05c-.67-.07-1.2 1.07-1.34 1.54a2.38 2.38 0 001.34-1.54zM331.92 386.68c1.85-1.5 3.59-1.16 5.7-.79 1.12.2 2.34-2 3.76-1.97-1.78-2.3-2.78-1.48-5.5-.43-.77.3-1.27-.4-1.92-.12-1.18.5-1.83 2.17-2.04 3.31h0zM347.32 381.43c-.39.45-.58.97-.58 1.55.78-.26 1.16-.87.58-1.55zM348.88 388.22c-.25 1.01.04 1.07.85.18l-.85-.18zM350.11 387.54c-.43 1.5 2.39 2 2.73.33a5.92 5.92 0 01-2.73-.33zM352.9 388.65l.07.77a4 4 0 00.87-.77h-.94 0zM358.73 376.88c-.4.23-.6.58-.64 1.03.94.1 1.15-.23.64-1.03zM359.69 388.48c.25.58.7.84 1.35.77-.11-.72-.65-1.04-1.35-.77zM367.13 384.44c-.8.66-.45 2.3.67 2.28 2.13-.04 1.24-2.5-.67-2.28zM376.9 390.12a14.69 14.69 0 003.94-2.25c-1.5.57-2.97.44-3.94 2.25h0zM378.75 381.35c-.18.73.1.76.86.08l-.86-.08zM380.32 380.49l-.44.69c.68.23 1.15-.08 1.32-.78l-.88.09zM386.19 377.4c-1.42.08-5.57 4.83-4.24 6.1-2.74-1.29-1.05 5.7.47 2.47.67-1.43 2.25-2.12 3.06-3.48.68-1.13.01-3.67 1.45-4.15-.2-.35-.45-.66-.74-.94h0zM387.13 377.4c.43.76 1.46.55 2.02 1.2.05-1.17-1.14-1.27-2.02-1.2zM397.52 362.53c-.2-.27-.49-.35-.85-.24.35.62-.31 2.53.51 2.78 1.28.4.56-2.07.34-2.54zM398.26 361.51c-.75-.15-.79.13-.11.86l.11-.86zM398.1 365.89c1.6-1.15 3.27-5.21 3.86-7.04-1.32.46-1.22 1.73-1.7 2.78-.67 1.49-1.64 2.64-2.15 4.26zM409.63 367.6c-.27 1.06-.52 2.5.32 3.36-1.73-.1-2.48 5.07.42 3.71 3.77-1.77 1.5-5.35-.74-7.07h0zM414.56 371.98c-.63.4-.73 1.2-.5 1.81a2 2 0 00.5-1.8zM414.61 370.53c-.81.47-.71.75.3.86l-.3-.86zM415.8 370.7c1.12-3.12-.7-1.01 0 0zM121.39 360.57c.28-1.16-1.34-2.5-2.27-1.37.82.4 1.12 1.8 2.27 1.37zM60.7 244.1c1.27.4.66-1.24-.58-.86l.57.86zM80.86 249.68c-.78.44-1.77 1.1-2.7.85-.9-.25-1.12-1.07-2.13-1.1-1.7-.04-3.2.84-4.94.67a6.23 6.23 0 01-4.66-2.4c-.96-1.16-3.68-2.76-5.23-1.7-5.75 3.94 7.47 14.94 9.52 17.82.79 1.1 1.9 1.14 3.14 1.37 2.06.38 2.64 2.69 3.53 4.21.69 1.17 2.05 4.1 3.28 4.64 2.15.92 1.23 3.03 1.77 4.98.5 1.82 2.4 1.36 3.77 2.34.87.62 1.72 1.28 2.58 1.92 1.06.79 2.13 1.6 3.03 2.55 1.27 1.36 0 1.5.35 3 .42 1.8 1.14 3.54 1.56 5.36.46 1.93 1.76 3.94 1.56 5.97-.22 2.14 1.48.83 2.27 1.8 1.27 1.57 3.25 1.2 3.52 3.77.35 3.36 4.7 5.54 5.33 9.06.09.5-.75.56-.38 1.1.52.73.97 1.51 1.35 2.33.87 1.84 2.72 4.27 2.72 6.36 0 2.03-.1 3.32 1.09 5.07.89 1.32 2.3 2.26 3.03 3.68.88 1.7 1.32 3.41 2.76 4.76 1.44 1.34 3.48 2.23 4.32 4.11.83 1.85.63 2.94 2.3 4.35 1.68 1.43 3.16 3.06 4.77 4.57 1.4 1.3 2.75 2.53 4.45 3.43 1.69.9 1.9 1.57 2.69 3.1.42.81.99 1.58 1.53 2.31.47.52.99 1 1.54 1.44.35.31-.09.67.34.98.31.23 3.04 3.95 3.12 1.98.05-1.15-1.02-2.04-1.1-3.17-.1-1.6 2.34.46 2.63.73 2.07 1.9 4.16 1.9 4.03-1.7 1.3 1.16 2.11 3.5 4 3.87 1.12.22 1.2-3.21 1.24-3.79.18-2.23.6-4.45.84-6.69.13-1.18.96-2.87.46-4.01-.37-.88-.64-1.39-.33-2.33.39-1.15 1.37-2.7 1.27-3.93-.08-.9-1.1-.95-.82-2.18.24-1.07.92-2 1.5-2.93.6-.99 1.08-1.41.9-2.65-.17-1.18-1.15-.7-1.8-1.39-.86-.94-2.19-4.1-1.6-5.32-1.04-.17-5.98-1.48-6.43-.43a16.7 16.7 0 01-.4-.94c-1.14 1.36-1.34 3.27-2.98 4.21.5-.7 2.76-3.08.62-3.1 1.17-.48 2.6-1.49 2.45-2.9-.1-1.08-1.25-.7-1.9-1.11-.67-.41-.98-2.18-1.11-2.87-.38-2.01-.8-3.92-.98-5.99-.11-1.27-3.82-1.4-4.93-1.15-.86.2-2.44-1.5-3.05-2.01-1.03-.88-.54-2.73-.95-3.98.46.58 1.17.7 1.8.25-.21-1-1.17-1.12-2.03-1.19.7-.05 1.24-.54 1.43-1.2a5.47 5.47 0 00-1.72.16c1.02-.3 1.65-1.19 2.41-1.86.6-.52 2.08-.36 2.45-.94.6-.96-1.43-3.04-1.95-3.66-1.46-1.7-2.6-1.56-4.4-.32-1.4.97-4.92 3.41-6.32 1.47 2.98 1.74 9.02-3.65 3.52-4.9-.88-.2-1.8.18-2.65-.17-.97-.4-1.34-1.51-2.12-2.14-1.58-1.3-.57-3.95-2.3-5.32-.64-.5-1.3-1.29-2-1.7-.74-.43-1.76-.06-2.58-.5-1.34-.7-1.15-2.81-2-3.97-.4-.57-3.37-3.57-4.1-1.78-.55 1.33 1.01 3.03 1.13 4.33-.54-.57-.67-1.34-1.1-1.98-.72-1.05-2.1-1.2-2.97-2.06-1.45-1.42-1.53-3.68-2.9-5.15a1.83 1.83 0 00-.32 1.8c-.23-.43-1.62-3.35-1.17-1.03-.93-1.1.56-2.49-.87-3.44-1.29-.86-2.27-2.37-3.53-3.34-1.46-1.11-2.6-2.9-4.32-3.67-.6-.27-1.26-.4-1.87-.69-1.04-.48-.85-1.26-1.51-1.99-.87-.96-2.47-1.02-3.35-1.9-1.1-1.1.49-3.03-.7-4.03-1.44-1.2-1.72-1.21-2.3-3.1-.5-1.62-3.16-3.76-4.4-4.9h0zM82.2 297.52c1.7 1.9 2.51-3.4 1.76-4.48-.9-1.27-2.3-3.66-3.75-4.3-1.07-.47-1.75 1.06-2.88.36.13 1.6 1.5 2.79 2.14 4.17.4.85 1.38 1.14 1.85 1.94.43.72.48 1.58.88 2.31z"/>
    <path d="M79.36 282.75c.02-.86-.57-2.27-1.67-1.46a7 7 0 011.67 1.46zM89.19 308.77a1.75 1.75 0 00-.63-1.98c-.5.65-.87 1.64-1.09 2.42-.28 1.03 2 1.07 1.72-.44zM87.8 303.88c.41 1.27 1.05 2.44 1.68 3.6.33-.95-.33-3.75-1.67-3.6zM90.54 287.13c.15-.67-.14-.67-.86 0h.86zM92.22 302.94c-.2-1.14-2-.96-2.65-.35.78.53 1.73.6 2.65.35zM94.2 322.51c3.59-.5-1.72-7.45-1.57-9.1-.6.32-1.59.16-2.02.75-.63.83-1.06 2.44-.46 3.34 1.14 1.7 1.74 4.51 4.05 5.01zM100.6 328.44c-.18-.92-1.24-4.16-2.54-3.3-1.42.96 1.93 2.92 2.55 3.3zM101.67 332.57c.23 1.02 1.44.55 1.82-.1.58-.97-1.14-2.43-1.82-2.82-.4.98.22 1.93 0 2.92zM105.5 338.32c.06-.66-.53-1.15-.4-1.8.18-.83.67-.63.45-1.46-.16-.6-.83-2.48-1.77-2.13-1.4.52 1.08 4.84 1.72 5.39h0zM119.77 283.87c-.3-1.7-2.65-2.23-3.32-.39-.37 1.02.22 2.48 1.34 2.7 1.36.28 1.46-1.53 1.98-2.31h0zM125.97 288.33c-1.25-.54-2.73-.46-3.91-1.2-.29 1.26.76 1.83 1.8 2.02 1.03.19 1.55 1.14 2.27 1.76.03-.87.14-1.75-.16-2.58z"/>
    <path d="M126.03 291.5c-.5-.88-1.23-1.89-2.33-2.05-.34 1.57-.28 4.37 1.72 4.72.35-.86.22-1.8.6-2.66zM131.11 295.8a4.61 4.61 0 00-2.87-2.25c-.66-.19-1.23-1.15-1.67-1.23-.5-.1-1.04 2.76-.45 3.16 1.38.95 3.45-.02 4.8 1.18l.2-.86z"/>
    <path d="M132.18 295.11c-.31-1.47-4.89-4.31-4.33-1.71 1.81-.8 2.48 2.3 4.33 1.71zM133.29 297.87c-.1-.61-.47-.96-1.09-1.04-.45.65-.39 1.22.2 1.72.32-.2.61-.42.89-.68zM134.64 293.31c-.23-.35-.54-.6-.92-.77-.13.72.22 1.01.92.77zM135.22 296.32c-.18-.68-.69-1.13-1.43-.86 0 .72.4 1.33.97 1.72l.46-.86h0zM136.84 306.7c-.61-.42-2.95-.17-2.04.94.56.69 1.92-.27 2.04-.93zM139.24 294.34c.28-.9-.03-1.07-.92-.51l.92.5z"/>
    <path d="M141.2 292.2c-.57-1.44-1.8.2-1.84 1.05-.03 1.01 1.93-.07 1.84-1.05zM141.34 295.72c.5-.85.28-1.14-.66-.86l.66.86zM145.89 293.31c-1.13-3-4.66-.18-3.25.36.95.35 1.4-.57 1.66 1.02.25 1.59 1.6-.71 1.59-1.38h0zM142.25 296.67a2 2 0 00-.22-.95l.22.94zM143.77 307.48c-.42.33-1.24.5-1.74.66-.96.3.57 2.19.67 2.7.1-.86.54-1.13 1.23-.6.26-1.03 1.04-2.03-.16-2.76h0zM143.44 302.25c-.51.54-.33.85.56.94l-.56-.94zM144.23 303.88c.1.61-1.06 2.87.25 2.7.72-.09 1.18-.48 1.89-.12.73.38 1.33.98 2.23.51-.44-.72-3.52-3.17-4.37-3.09h0zM145.36 295.97c-.3-.01-.58.05-.86.18l.86-.18zM144.65 301.73c-.42.84.8 1.52 1.32 1.8-.41-.61-.86-1.21-1.32-1.8zM151.09 321.65c.96 1.39-1.62 2.01-2.17 2.93 1.03.85 1.8 1.55 3.24 1.03.96-.35 2.52.46 2.76 1.44.2.87.84 1.9.95 2.67.27 1.75-.8 2.49 1.17 3.58.83.47 4.61 3.46 5.58 2.6.95-.84-.45-1.23-.71-1.93-.4-1.1 1.02-3.1 2.1-3.3-1.34-.82-3.22-.43-4.43-1.46-1.12-.95-1.45-3.31-1.27-4.72.1-.83-.37-3.53-.9-4.21-1.5-1.94-3.63.29-2.23 2.06-.62.09-3.83-4.58-4.1-.69h0z"/>
    <path d="M163.8 333.86l-.78.25c.16.7.68 1.02 1.35.6-.15-.3-.34-.59-.56-.85h0zM169.85 333.08c-.4.15-.76.37-1.06.68.66.32 1.06.07 1.06-.68zM172.08 330.32c-1.18 1.16-1.51 3.15-1.44 4.67.07 1.63 2.45 2.48 2.11.75.7.05 1.7 2.01 2.42 1.32 1-.95 2.04-2.87 1.93-4.26-.16-2.03-3.36-2.8-5.02-2.48h0zM177.14 264.2a3 3 0 011.85 1.12c-.68-.44-1.15-.08-1.23.68 2.12.31 2.8-1.83 2.03-3.45-1.38-2.86-3.28-.59-2.65 1.65h0z"/>
    <g>
      <path d="M181.31 321.65c.36.04.71-.02 1.05-.16-.36-.03-.71.02-1.05.16zM184.03 320.12c-.47-.39-.96-.39-1.46 0 .2.34.44.62.75.86.27-.27.5-.55.71-.86zM191.52 314.62c-1.28-1.91-4.12 1.08-2.5 2.74.84-.8 2.99-1.17 2.5-2.74zM249.64 337.8c-3.07-1.3-2.35 6.61-1.73 7.65.87-1.35 1.73-.94 1.68-2.79-.04-1.45-.56-3.47.05-4.85h0zM250.97 339.1c-.98.17-.93 1.21-.33 1.71.16-.56.27-1.13.33-1.71zM262.58 269.52c-.21.79.07.87.85.26l-.85-.26zM263.65 268.5c-.4.82.37 1.55 1.05 1.8.09-.78.15-2.08-1.05-1.8zM264.15 261.62c-.05.74.4 1.24 1.17.86-.06-.69-.48-1.02-1.17-.86zM262.88 307.75c-.28.25-.4.56-.38.94l.38-.94zM265.77 267.03c0 .62.3 1.02.9 1.2.04-.62-.33-1.03-.9-1.2zM272.78 280c.05.62.32 1.1.81 1.46-.24-.5-.5-.99-.8-1.46z"/>
      <path d="M184.4 294.95c1.14-.75.4-1.53.68-2.54.36-1.3 2.26-1.39 2.51-2.88a7.6 7.6 0 01-1.51 1.72c-1-1.54.35-3.06 1.38-4.2.67-.74.89-1.44 1.25-2.34.48-1.16 1.97-1.43 2.82-2.22-.19 1.06-1.64 2.36-.06 3 .22.1.71 2.6 1.14 3.1 1.27 1.43 3.6 2.55 4.37 4.38.3.7 1.74 1.32 2.43 1.68 1.29.69 3.19-.66 4.34-1.16 2.3-1 4.39.32 6.8.09.96-.1 1.86-.83 2.72-1.29 1.3-.67 1-2.33 1.99-3.37 1.04-1.09 6.15-2.19 6.88-.52.69 1.58 5.27 3.09 6.78 2.18 1.31-.8 1.63-2.05 3.35-1.45.84.3 1.54-.41 2.29-.7.61-.25 1.3.54 1.92.51-.28-1.65 3.36-5.25 2.43-6.32-1.6-1.84 2.21-4.19 3.62-4.67-.78-1-2.19-4.72.37-5.02 3.2-.39.88-2.36 2.77-4.11.73-.68-.08-3.44.06-4.6.14-1.07.47-2.43.98-3.4.45-.83 1.32-1.23 1.56-2.2 1.66.64 2.08.97 3.9.2.63-.27 2.05 2 2.29-.37 1.12 1.13 3.34.85 4.8.71 1.87-.17 2.93 1.86 4.74 1.7-.56.38-1.17.6-1.83.69.32.28 3.45 2.97 1.3 1.89.44.31 1.58.52 1.78 1.04.21.52.18 1.04.8 1.27-1.07 1.32-2.72.5-3.14-.85.2.58.26 1.18.2 1.8-.92-.57-2.54-.52-3.53-.08 1.22.47 1.8 1.73 3.12 2.06-.36.67-.57 2.16-1.7 1.63.81 1.1 2.05 1.55 3.3 1.98-1.1 1.19.92 1.3-.75 1.54.57.02 1.11.17 1.62.43-1.72.47.38 1.44 1 2.23.7.92 1.33 1.91 1.9 2.92.73 1.26-.97 3.74-2.45 3.7.95.34.45 1.3 1.18 1.92 1.05.9 2.1 1.83 3.2 2.67.88.67 1.37 1.83 2.42 2.22 1.4.51 2.36 1.96 3.26 3.06.38.47 1.43.1.67 1.23-.95 1.4-2.38.7-3.63 1.33-2.08 1.03-4.4-1.81-5.98-2.47.7 1.1 1.24 2.47-.5 2.57-1.58.08-2.16 2.5-2.6 3.68a27.86 27.86 0 00-1.76 10.07 2.53 2.53 0 011.75-.85c-.25.7-1.41 1.55-.58 1.88-.83.5-.86 1.22-.06 1.72-1.13.31-2.42 1.65-2.67.08-.42 2.22-4.7 6.9-5.15 2.41-.91 1.57.5 2.8-1.3 4.02-.84.57-.47 1.45-1.06 2.16-.7.83-1.91.8-2.55 1.72 2.73-1.02 1.7 2.73.38 3.7.65.65 2.04-.26 2.58.42.52.66-.67 3.21-1.1 3.79-.45-.56-1.01-.7-1.7-.43 1.64 1.46-.73 6.15-1.84 3.77-.36 1.04.48 1.94 1.02 2.67-2.37.44-1.77 4.02-3.79 4.83-2.21.88-4.46 2.35-6.71 3.33-.6.26-5.3 3.37-5.05 1.62.15-1.07.07-2.24.16-3.33.12-1.55-.84-2.83-.4-4.4-1.8 1.71-2.98 1.07-1.67-1.28-.84 1.34-2.62 2.2-2.14-.17-.23 1.25-3.65 4.17-4.55 2.24-.3-.67.63-1.19.02-1.9-1.13-1.28-2.47 1.06-2.76-.69.32 1.99-2.11-1.55-2.33-2.4-.04 1.8-2.05 3.8-3.6 4.57-1.62.82-2.94-1.47-4.52-.36-.57.4-2.85 3.52-3.2 1.5-.42-2.46.49-4.66-.74-7.09-1.12 2.66-1.43 1.42-3.4 1.37-.83-.02-1.53.7-2.19 1.1-1.24.77-2.02.08-3.24-.14.41-.44.85-.84 1.33-1.2-1 .14-1.37 1.43-2.46 1.28.55-2.61-2.13-1.17-3.24-.35-1.2-1.56-.1-4.15-.6-5.95-.33-1.23-.05-2.52-.23-3.77-.16-1.05-1.77-1.9-1.63-2.81.03-.22.97-1.33 1.1-1.65.42-1.15.66-2.15 0-3.2-.46-.73-.54-1.5-.92-2.2-.47-.84-1.53-1.15-1.43-2.31-.26.3-.52.58-.8.85-.85-1.76-1.88-.14-3.1-.89-.68-.43-.21-1.21.12-1.69.33-.48 1.46.07 1.86.09-.66-.37-1.03-1.28-1.76-1.47-.55-.14-1.27-.04-1.6-.6-.49-.77-.68-3.94.88-2.99-.38-1.1-1.01-2.44.35-2.57-1.1-1.52-2.57-2.83-2.9-4.76-.16-.82-.81-3.43-.06-4.11h0z"/>
      <path d="M260.68 267.55l.1-.6c.92.13 1.76.5 2.55.94a5.2 5.2 0 01-2.65-.34zM264.86 260.94c1.05-.14 2.42-.34 2.1 1.2-1 .2-1.46-.69-2.1-1.2z"/>
    </g>
    <path d="M410.63 366.15c.04.7.3 1.31.8 1.8-.22-.4.28-2.9.48-3.47.5-1.44-1.03-.69-.56-1.94 1.15.58 1.97-1.34 2.5-2.03.88-1.2 1.9 1.36 1.86 2.01-.1 1.7-.27 3.52-.43 5.21-.25 2.66-2.2 1.44-3.52.49 1.69 2.08-4.47-2.26-1.13-2.07h0z"/>
    <path d="M412.6 368.81c.35.23 1.42 1.69.67 2.04-1.22.57-1.95-1.74-.67-2.04z"/>
  </g>
  <g>
    <path d="M87.93 219.45c-.5 1.44-.3 3 .18 4.38 1.31-1.03 1.26-3.58-.18-4.38zM90.03 220.22c.24.6.53 1.18.72 1.8a1.98 1.98 0 00-.72-1.8zM95.3 226.92a3.17 3.17 0 00-.8-1.8c.05.7.32 1.3.8 1.8zM100.53 234.74c-.63.6-.73 1.5.28 1.72a83.2 83.2 0 00-.28-1.72zM103.03 205.1c-.61.55-.6 1.07.03 1.55.6-.53.58-1.05-.03-1.54zM102.93 202.87c-.29.61.2.87.74.86-.22-.3-.47-.6-.74-.86zM122.8 180.03l.84.08c.04-.7-.38-1.25-.97-1.54-.01.5.03.98.13 1.46zM125.37 182.6c-.3.67-.18 1.25.37 1.72.19-.65.07-1.22-.37-1.72z"/>
    <path d="M73.46 112.1c.5 1.01 2.7.97 3.46.23.91-.9-.74-3.35-.47-4.53.15-.66.68-1.11.74-1.8.09-1.08-.76-1.78-.43-2.92.21-.73 1.63-3.2 2.12-3.1 1.45.26 2.85.9 4.36.57.71-.16 1.42-.97 2.12-.95.72.02.98.72 1.62-.21.62-.92-.43-2.65 1-3.02 1.01-.25 4.83.53 2.86-2.14 1.47-.08 5.52-2.69 5.4.51.8-.22 1.1-1.37 2.04-1.1.42.13 1.78 2.03 2.1 2.42.8.94-.42 2.36-.7 3.3-.38 1.34.5 2.38 1.44 3.17 1.32 1.1 3.38-1.11 4.91-.66.93.28 1.8.29 1.24 1.54-.54 1.2 1.08 2.94 1.24 4.05.13.95-.52 1.89-.42 2.89.13 1.33-1.09 2.02-1.07 3.14 0 .54.96.86 1.04 1.56a6.13 6.13 0 01-.3 3.29c-1.15 2.68-2.15 4.22.95 5.35 1.36-2.02 4.72-3.53 4.94-6.19 1.42.88 1.62-1.5 2.74-1.52.77-.01 1.75 1.49 2.44 1.84.54.27 1.8.37 2.12.94 1 1.78 2.34-.84 3.67-.57.72.15 1.08-2.76 2.25-2.92-1.93-2.21 4.18-.78 4.84-.6 3.7 1.05 4.85 6.26 8.25 8.08 2.82 1.5 1.23 6.8 1.67 9.44.27 1.6 1.67 2.44 2.53 3.7 1.39 2.03 2.06 2.02 4.3 2.91-1.98 1.33.88 2.23 1.73 2.93 1 .81-1.13 4.2.26 3.94-.4.86-1.29 1.68-.73 2.65.31.54.98.79.88 1.53-.26 2.05.47 4.07-1.62 5.34-1.4.85-2.2 2.62-3.19.71-1.02-1.96-4.19-.02-5.78-.5-1.1-.33-2.19.07-3.3.22-1.18.17-1.7-.56-2.74-.64-1.42-.12-3.22.53-4.55 1.05-2.1.82-2.36 3.28-3.47 4.94-.51.77-1.81 1.4-1.74 2.38.09 1.02-1.24.65-1.88.62.6 1.75.81 3.65 1.4 5.42.48 1.49.33 3.47 1.73 4.48 1.57 1.13 1.14 2.38 1.22 4.08.1 2.07 2.3 3.76 1.91 5.86.02-1.05-.84-1.62-1.27-2.46-.66-1.27-.5-2.86-2.21-3.38.02.52.03 1.03.03 1.55-.44-1.14-4.26-1.68-1.95-3.18-.64.37-1.06-.02-1.27-.6-.07 1.85-2.15-1.01-2.51-1.9-.06 1.64-1.17-1.66-2.73-.96-.76.34-1.54.97-2.42.8-1.08-.22-2.32-.82-3.46-.54-2.23.54-.91-1.75-1.01-3.1-.06-.8-.06-1.61-.14-2.4-.11-1.1.72-1.96.55-2.98-.96.75-3.44.05-3.75-1.12.33 2.36-6.74.27-4.83 3.93.96 1.83.27 2.99-.16 4.9-.45 2.02.98 3.9.53 5.95-.18.8-.8 1.41-1.23 2.1-.52.83-.25 1.83-.84 2.65-1.13 1.55-1.39 3.93-1.84 5.74-.56 2.2-.93 3.79-1.93 5.8-.35.73.27 2.71-1.1 2.51 1.5 1.88-.27 5.36.63 7.63.43 1.07 1.1 1.8.52 2.9-.65 1.24 1.6 1.51 2.26 1.17 2.34-1.22 3.75-1.24 3.99 1.88.08 1.02 1.27 8.4 2.84 6.01.84 2.1.9 4.42 1.52 6.58.56 1.94 1.44 3.98 1.4 6.04-1.42-.26-1.48-6.5-3.06-5.43-1.14.78.43 3.23.84 3.85.5.75 1.09 1.32 1.72 1.92.54.5 1.35.31 1.87.82 1.2 1.17 1.4 2.39 3.45 2.45 1.51.04 3.22-.56 4.5.45 1.43 1.12 1.67 3.16 3.04 4.35 1.46 1.25 2.4 1.85 1.58 3.83-.37.91-1.04 2.76-2.17 3-.88.18-1-1.24-1.66-1.5-1.72-.7-2.8 2.38-3.9 2.38-2.15-.01-1.55-2.13-.75-3.31.86-1.28-.56-2.45-1.5-2.68-1.32-.33-.72-2.23-2.41-2.46-1.56-.21-2.47-.28-3.43-1.6-1.35-1.84-.96 1.35-1.6 2.18-.04-2.44-6.04-4.72-3.52-7.3-2.1 1.23-1.16-1.96-2.14-2.58.06 1.25-.98.99-1.41.22-.56-.98-.37-2.47-1.2-3.3-.54-.54-1.7.17-1.78-.72-.07-.81.1-1.1-.34-1.78-.7-1.02-.6-.94-1.67-1.15-.66-.13-.5-1.23-.7-1.69-.3-.74-.66-1.9-1.74-1.63-1.16.29-.72 1.33-1.11 2.15-2.85-.6-2.13-4.9-1.73-6.96.8-4.18 1.84-8.42 2.87-12.56.4-1.6 1.8-3.73 1.83-5.32.04-1.85.77-1.96 1.54-3.61.96-2.08 6.62-7.67 4.85-9.96-.75-.97-1.32-3.63-1.56-4.82-.37-1.83-1.02-2.44-1.87-3.99-.48-.88-1.56-3.37-1.36-4.34.5-2.34.47-4.05-.4-6.3-1.44-3.66-4.98-5.87-7.21-9-.98-1.38-1.94-2.73-2.1-4.5-.09-1 .29-3.3 1.68-1.99-.26-1.21 1.16-.95 1.49-1.8.46-1.22-.2-4.04-.35-5.34-.24-2.15 1.4-1.05 2.2-2.25.52-.77.6-2.44-.14-3.07-.24.68-.61 1.28-1.1 1.81-1.4-1.8-1.73-3.89-2.28-6.01-.34-1.36-2.3-2.7-3.2-3.74-1.4-1.62-3.25-3.34-4.42-5.1-.64-.99-.3-1.9-.58-2.96-.26-.96-1.25-1.71-1-2.8-1.8.52-2.5-1.83-2.82-3.1h0z"/>
  </g>
  <g>
    <path d="M30.67 92.94c-.08.44.11.76.57.94-.2-.31-.38-.63-.57-.94zM32.4 97.5c.37.56.7 1.17.97 1.8a5.56 5.56 0 00-1.29-2.66l.32.85zM36.77 98c-.33.7.53 1.47.96 1.81 0-.73-.4-1.37-.96-1.8zM39.73 109c-.47.03-.9.17-1.3.43 2.67 3.2 2.83-.49 1.3-.43zM42.23 104.02c-.47-1.01-1.71-1.05-2.35-1.9-1.3 1.28 1.13 3.65 2.34 1.9zM51.06 136.23c-.6.63-2.78 2.62-1.59 3.52.91-.93 2.24-2.1 1.6-3.52zM52.92 139.58c-.24.4-.42.28-.03.85l.03-.85zM76.75 133.56c-.47.2-.68 2.07-.09 2.07 1.17 0 1.2-1.92.1-2.07zM83.65 177.02c.25-.27.4-.58.46-.94-1.02-.17-1.17.14-.46.94zM84.54 183.55a2.3 2.3 0 00-.55-1.72c.23.56.4 1.13.55 1.72zM84.46 178.31h.51a4.5 4.5 0 00-.74-.94l.23.94h0zM85.96 169.98c.56-.69.29-1.4-.46-1.72l.46 1.72zM87.03 193.25c-.08-1-.54-1.92-1.37-2.49-.23.26-.41.55-.54.86 1.2-.56 1.58.85 1.9 1.63h0zM85.67 185.7c1.45-.1 1.4-2.72.8-3.52-.33 1.15-.6 2.33-.8 3.52zM86.6 176.25c.41.63 2.49-3.2-.26-2.66.14.88.47 1.75.26 2.66zM86.17 200.73l.14.86c.54-.35.82-.83.82-1.46-.33.16-.66.37-.96.6zM87.87 184.06c.19.5.55.76 1.09.78.52-2.8-2.57-3.32-1.09-.78zM87.92 180.03l.65 1.2c.34-.2.64-.46.88-.77a3.72 3.72 0 01-1.67-1.29l.14.86zM87.99 175.73c.18-.46.47-.28.11-.94l-.11.94z"/>
    <path d="M24.58 85.2c.11-.65.03-2.32 1.02-2.43 1.21-.14 1.93 1.69 3.15 1.32a16.34 16.34 0 01-1.08-4.81 6.2 6.2 0 00-.15-2.01c-.23-.64.8-1.3.68-2.03.86.32 1.28 2.17 2.37 1.83.79-.24.49-1.77.65-2.34 1.77 1.05 1.09-1.6.79-2.39-.86-2.22-.6-3.94-.83-6.29 1.72 1.32 1.89-1.4 1.9-2.5a23.2 23.2 0 00-1.28-7.72c.41-.03.77.09 1.08.36.8.54.76.14 1.74-.03s3.84 1.05 4.58 1.65c.1-3.94 5.77-10.97 2.82-14.04-1.56-1.63 1.96-3.9 2.38-5.52.5-1.9 1.1-3 .22-4.67-.72-1.39-.87-4.04.67-5.06.48-.32 1.88.1 2-.73.1-.77 1.66-1.28 2.27-1.85.78-.71 1.21-1.44 1.75-2.33.9-1.53 3.1-1.3 4.6-1.53.71-.11 1.6-.61 2.21-.01.83.81 1.64 2.7 3.21 2.07-.2-1.32-1.47-1.96-2.23-2.9-1.4-1.72-.38-3.04.98-4.35 1.94-1.88 1.05-1.5 1.12-3.53.02-.72.93-1 .89-1.66-.06-.83.3-1.6.36-2.42 1.54 1.78 4.75 2.07 5.97 4.35.45.83.26 1.85.65 2.7.53 1.14 1.34 2.11 1.87 3.26.67-.24 1.05-.78.73-1.47 3.5 1.66 3.46 5.34 4.3 8.86.43 1.74.7 3.2.36 5-.14.73 1.11 3.2-.76 2.46.27.75 2.61 3.63.2 2.9-.43-.13-1.26 1.73-1.2 2.08.2 1.12-1.26.4-1.85.35-.2.63-.5 5.34-2.44 3.52.03 1.59-.85 2.78.02 4.3-1.6.12-1.63 1.28-1.6 2.53.01 1.3 1.07 1.32 1.5 2.32.17.44.85 1.66.63 2.15-.37.86-1.73 2.09-.67 2.95.5.4 3.51-1.92 4.02-2.2 2.21-1.22 4.73.74 6.87-.8.28 1.34-1.48 1.87-1.09 3.2.23.76.73 1.14 1.22 1.7.62.7-.2 1.49.23 1.88 1.19 1.05.65 3 2.21 3.8 2.13 1.11 3.93-.28 4.71 2.3-2.22-.09-1.1 2.58-.98 3.79.11 1.26-2.67 3.75-.4 4.49 1.54.5 4.87-.54 6.14.66 1.38 1.3-.7 3.82 2.18 3.86-.42.6-.15 1.7.25 2.21.64.83 1.33-.97 2.24-.37 1.87 1.23 4.47-1.79 5.96-2.87.05 1.5 1.17 2.34-.26 3.58-.67.58-2.15.9-2.55 1.57-.31.52-2.3 5-.51 3.95-.18 1.28-2.2.64-2.97 1.2-1.34 1-.96 3-1.35 4.39-1.68-1.71-3.13.24-5.25.34.53.72.48 1.92-.47 2.34-.94.42-1.47-.55-2.34-.48-1.07.09-.9 2.43-1.12 3.13-.25.79-.7.7-1.26.31-.54-.37-2.03 1.27-2.85 1.19-.41-.04-4.44-.64-4.44-.74-.05 1.4-1.2 2.32-1.61 3.72-.2.68.28 1.5.41 2.13.18.86-.7 1.76-.84 2.61-.19 1.12 1.47 2.4.66 3.56-.73 1.04-2.9 1.35-3.51.1.31 1.27 1.01 3.62 2.81 3.1-.18.8.34 1.45.7 2.1.53.95.18 1.9.5 2.88.55 1.7 2.9 3.72 4.08 5.05.7.82 1.44 1.62 2.01 2.55.52.85 1.56.66 1.9 2.02.55 2.12.9 4.22 2.28 6.01.5-.52.86-1.13 1.1-1.8 1.05.89.6 2.7-.38 3.52-1.32 1.08-2-.05-1.62 2.2.21 1.27.42 3.3.24 4.59-.14 1.02-1.7.94-1.43 2.14-.8-.75-1.49-.16-1.7.75-.32 1.31.34 2.97.92 4.09 1.56 3 4.53 5.12 6.74 7.56 2.08 2.3 2.37 5.42 2.55 8.39.09 1.37-.75 1.2-.15 2.75.57 1.47.63 2.3 1.76 3.46 1.07 1.09.83 2.3 1.24 3.66.41 1.38 1.23 2.55 1.59 3.96.5 2.02-1.5 4.73-2.48 6.57-1.02 1.92-2.32 4.14-3.92 5.44-1.12.9.04 1.91-.53 2.96-.83 1.55-1.03 3.32-2 4.86-.97-1.61-.36-3.98-.72-5.8-.15-.74-.53-1.38.22-1.83.92-.56.25-.89.7-1.58a6.9 6.9 0 00.95-5c-.14-.83-.55-3.57.94-3.57-.22-.4-.32-.82-.3-1.29a3.26 3.26 0 01-1.76 1.2c-.17-1.22 1.54-1.89-.2-1.71 2.02-.95-.84-2.44.8-3.35-.71.19-1.3-.18-1.52-.86.48-.07.91-.24 1.31-.52-.76-.42-1.27-1.35-.02-1.63-1.05-.35-.37-1.38-.5-2.34a22.32 22.32 0 00-1.32-4.73c-.58-1.57-1.48-3.06-2.18-4.57-.67-1.44-.68-3.19-1.62-4.5.41 1.22.88 4.03-.1 5.15.37-1.02-.47-1.93-.53-2.9-.04-.93-.02-2.45-.2-3.28-.18-.8-3.26-6.44-1.27-5.33-.07-.34-.2-.66-.4-.94l-.87.51c-1.35-3.69-.88-7.82-2.1-11.5-.24-.71-.87-1.1-1.16-1.76-.25-.59.09-1.28.08-1.9-.02-1.12-.75-3.32.75-3.9-.95.15-2.65.8-3.32-.12-1.23-1.7-2.2-3.55-2.24-5.73-.86.57-.66-.67-1.35-1.33-.6-.57-1.4-1.07-1.62-1.93-.19.22.06 2.07.04 2.5-.08 1.45.75 2.93-.07 4.46-.6 1.1-1.37 2.63-2.8 2.74-1.46.13-3.07-1.85-1.95-3.17-1.71.42-.28 1.67.13 2.71.58 1.45-1 3.1-2.26 1.75 1.36.99-1.48 2.74-2.48 1.72.3 1.32-.9 5.79-3.03 4.97-1.1-.43.04-3.4-.16-4.28-.06.08-1.32 4.17-.65 1.46a4.5 4.5 0 00-.51 2.31c-1.05-.52-1.27-2.86-.4-3.52-1.24-.82-.95 5.16-2.6 3.67-.8-.7.05-4.59.76-4.95-1.27.49-1.7 3.05-2.38 4.2-.36-.22-.67-.5-.9-.85 1.06-.44 1.24-1.53 1.53-2.5-.52.85-.76 2.11-1.96 2.24 1.35-1.75.84-3.94 1.15-5.93-.17.02-.34.02-.51 0 .61 1.43-1.44 4.64-2.8 5.18-1.96.78-.1-7.4.17-8.3.28-.9.1-3.59.62-4.07 1.32-1.2.05-4.6-.5-5.94-.72-1.72-.37-4.32-1.6-5.73-.51-.6-.8-1.37-1.12-2.08-.48-1.07-1.88-1.7-.41-1.99-1-.7-2.2-.94-2.15-2.42.04-1.1.17-2.88-.39-3.85.12.8.4 2.65-1 1.63.64.81 1.12 2.43.58 3.44-2.05-.85-3.25-3-4.4-4.76-.33-.48.75-.97 1.08-.32.25.5.95.67 1.44.81 1.1.32 2.56-.27 1.58-1.63-.56-.77-3.13-1.77-1.55-2.86-.7-.02-1.38-.1-2.05-.26.23-.58.34-1.18.31-1.8-.8.38-1.85-.55-2.27-1.1-.78-1.02-1.5-.3-2.63-.8.36.92.83 1.8 1.1 2.75-.34-.59-.67-1.19-.97-1.8-.18.63-.08 1.2.29 1.72-.98-1.4-1.5-2.3-.55-3.95-.4.07-.8.1-1.2.08.25-.6.53-1.2.82-1.8a.77.77 0 00-.42.26 3.8 3.8 0 01.06-1.98c-.64 1.44-.6 3.06-1.35 4.47-1.14-.5-.59-1.13-.43-2.04.19-1.05-.99-1.92-1.47-2.69.12.88.6 1.81-.01 2.67-.38-1.6-2-2.37-2.86-3.63-1.05-1.52-1.63-3.68-2.4-5.4h0z"/>
  </g>
  <g>
    <path d="M158.31 203.3c.25.92.76 1.86 1.73 2.15a8.92 8.92 0 01-1.73-2.14zM164.14 193.86c.17.93-.52 1.88.42 2.57.47-.9.2-1.87-.42-2.57zM165.54 195.4c-.08.29-.09.57-.03.86l.03-.86zM186.15 173.5c.13.4.4.66.82.77l-.82-.77z"/>
    <path d="M112.11 72.75c1.6.08 1.36-2.26 2-3.18 1.03-1.5 3.63.83 4.36 1.59 1.3 1.35 2.33.24 3.21-1.19 1.21-1.96 1.68-.12 2.52.9.36-.76.4-2.61 1.55-1.43.7.73 1.35 1.63 2.21 2.19.55.35 1.05-3.28 2.6-3.34-.52 2.4 4.03.23 4.78-.5.92-.91-.12-1.53.1-2.32.37-1.3 3.15-1.42 3.81-2.85a12.1 12.1 0 004.7 4.08c1.49.74 2.94-.67 4 .68 1.05 1.36 2.84-.74 4.14.6.66.69 1.4 3.46-.49 2.8-.09 2.35 1.1 4.07 1.75 6.36.7-.59 3.18.2 3.14 1.2-.05 1.48 2.83 1.15 3.17 2.57l.88-.51c.42 1.21 1.26.3 2.28 0 1.28-.38 2.29 1.04 3.15 1.71-1.06.9-1.23-.8-2.31.07-.99.8-1.34 1.92-2.63 2.12-1.4.22-.35 1.48-.89 2.4-.52.88-3.34 1.74-1.88.14-.9-.22-2.15 1.15-2.2 1.63-.75-.42-1-1.83-2.1-1.46.32.37.71.65 1.16.86-.79.89-.23 1.32.31 2.27.45.78-1.28.76-1.6.56.36.82.5 3.1-.4 3.7.12.03.23.03.35 0-.11.65-2.9 3.57-3.45 2.83-1.47.72-2.01 2.89-2.2 4.33-.26 1.99.53 3.33-.57 5.2-1.24 2.13 1.01 2.61 1.07 4.56.56-1.35.8.68 1.33 1.4.7 1 1.55 1.75 2.53 2.46.94.67 1.89 1.36 2.72 2.16 1.19 1.15.6 2.4.97 3.85a3.1 3.1 0 00-1.77-.68c2.13.36 3.05 3.04 4.68 4.38 1.19.98 5 2.89 3.93 4.98 1.33-.76 3.33 1.87 4.03 2.66a9.08 9.08 0 00-1.1-.43c1.57 1 3 2.1 4 3.7 1.48-1.72 4.24 2.12 3.41 3 .78-.53-.34-2.19 1.17-1.37-2.38 1.98 4.53 6.57 4.6 8.33.64-1.5.86-.25 1.31.43.7 1.08-.41.64-.26 1.45.3 1.53 1.49 2.88 2.04 4.3.75 1.93 1.1 4.02 1.9 5.95.33.78.68 1.57.84 2.4.08.42.04 2.58-.43.5-.07 1.16 1.18 4.53-.08 2.49.28.69.68 1.29 1.22 1.8-1.6.22-.35 1.02-.12 1.93.32 1.3.7 2.2 1.36 3.36.26.47.2 2.83.07 3.56a3.9 3.9 0 01-.96-1.72c-1.66.95-.2 2.92.29 4.03a5.89 5.89 0 00-1.7-.68c.75.7 1.4 4.37.93 5.4a3.1 3.1 0 00-.45-1.7c.5.84.02 1.73-.27 2.57.97-.03 1 .68.72 1.41-.3.78-1.46 1.16-1.54 1.42-.5 1.61.12 1.66-1.67 2.56-.5.42-1.04.8-1.6 1.15-.78.31-1.06 1.42-1.65 1.6-.98.29-1.99.7-2.86 1.26-.4.26-1.07 2.18-1.37 2.08-.86-.3-2.37.79-3.04 1.28-.92.68-2.7 1.27-3.4 2.1-.55-1.18-2.15-1.14-2.21-2.67l-.4 1.81c-.13-.48-.31-.94-.56-1.37.41.99.27.93-.43-.18.96 0-.94-.6-.92-.6.26 1.04-.21 2.38-1.53 2.06.28.96 1.71-.5 1.98.86.35 1.73-2.7.89-3.33.86 1.04.87 2.8.7 3.45 2.06-1.04.16-1.16 1.8-2.32.96-.77-.55-1.23-2.21-2.27-2.33.64.78 3.86 3.52 3.28 4.38-2.08-.86-3.12-2.96-4.82-4.3.33 1.38 6.47 5.6 3.6 7.15-1.9 1.01-4.86-3.92-6.18-4.74.87 1.5 4.17 3.83 3.52 5.84-.5 1.55-3.15 1.97-4.42 2.6-2.14 1.05-2.27 2.62-3.61 4.3-.92 1.15-3.27 3.05-4.66 1.7.45-.57 1.04-.91 1.75-1.04a4.82 4.82 0 01-.3-1.11c-.38.17-.76.31-1.14.43.13-2.17-.25-4.32-.19-6.48.03-1.07.15-2.16.52-3.19.25-.68 1.87-3.6 2.12-1.5.1-3.37-6.34-2.88-5.63-5.75-.15.5-.38.48-.7-.09.6-.2.98-1.12 1.62-1.12.7 0 1.46.19 2.12-.12.56-.27 1.2-1.07 1.58-1.54.75-.92-.52-1.82.38-2.72 1.57 1.57 3.91-.13 5.68-.47.62-.12.95.4 1.2.86.64 1.1 1.96.99 3.02 1.33.05-.94-.9-1.72.23-1.89-.16-1.59-2.14-1.65-2.75-2.75-.53-.93-.86-2.14-1.05-3.2-.18-1.02.89-1.13 1.42-1.91.8-1.19 3.3.54 4.27.73-.52-1 .23-2.17-.5-3.1.84-.2 1.74.23 2.57-.13.7-.3 2.12-1.21 2.8-1.67.79-.55.98-1.32 1.97-1.6.77-.21 1.78-.13 2.41-.7 1.7-1.56-.66-5.82-.39-7.8.24-1.7.92-2.92.13-4.57l-.78-1.5c-.45-.9-.13-1.55-.44-2.38-.44-1.17-1.1-1.06-1.16-2.63-.08-1.89 1.17-3 1.33-4.67.04-.4.12-2.51-.1-2.7-1.39-1.2-.03-.9.55-2.15.9-1.92-1.3-3.81-2.66-4.7-.62-.4-2.22-1.27-2.1-2.22.13-1.12 2.03-1.58 2.5-2.57a8.02 8.02 0 01-3.44-2.45c-.54-.78-1.1-.13-1.7-1.2-.8-1.45-1.32-.1-2.35-.73-.6-.37-1.25-1.92-1.35-2.6a8.59 8.59 0 00-2.85-5.56c-.48-.43-1.62-.72-2.3-1.45-1.26-1.4-2.8-2.8-3.86-4.36-.68-1-.95-2.22-1.67-3.2-.28-.38-.77-.85-1.28-.44-.5-.8-1.47-1.09-1.94-1.92-.34-.61-1.33-2.06-.62-2.75.9-.85-3.13-1.69-3.39-1.75-2.68-.61-4.41-3.71-6.95-4.41-.73-.2-2.69-1.14-1.06-1.9 2.31-1.07-.53-1.7-.09-2.9.24-.64 3.3.3 3.61.35 1.25.2 4.74-1.9 2.99-2.4.4-.6 1.57-.9 1.6-1.73.03-1.04-1.09-1.98-2.1-1.84-.7.08-.77-.36-.95-.94-.4-1.27-1.73-.93-2.73-1.34.27-.9 1.58-.73 1.68-1.48.17-1.28-1.23-1.76-2.04-2.36-.96-.72-1.6-1.58-3-1.33-2.17.4-1.73 1.55-2.74 2.85-.95-.59-2.32-1.7-3.39-1.5-1.2.24-3.37-1.92-3.93-2.8-.64-.98-1.16-3.35-.78-4.53.67-2.1-1.08-1.64-1.45-3.28.25.68.1 1.28-.4 1.8-1.12-.33-1.3-2.33-2.25-3.1-1.29-1.05-3.4-2.9-4.02-4.45h0z"/>
    <path d="M155.78 88.82c.13-.42-.04-.7-.48-.86l.48.86zM156.56 88.9c.35.54.82.94 1.4 1.2.76-1.1-.63-1.4-1.4-1.2zM161 84.35a9.6 9.6 0 00-.5 2.32c.91-.53 1.95-1.72.5-2.32zM162.13 86.84a4.5 4.5 0 00-1.09 1.37c.63-.2 1.09-.69 1.09-1.37zM164.48 83.23c.3.14.58.09.87-.17l-.87.17z"/>
  </g>
  <g>
    <path d="M104.72 237.57c.5-.64.46-1.82.8-2.56.59-1.3 1.76 1.44 2.4 1.83.81.48 1.57.15 2.4.4.79.21.8 1.14 1.2 1.71.78 1.13 2.9.9 2.21 3.1-.33 1.06-1.8 4.07.94 3.43 1.23-.29 1.56-2.32 2.98-2.54 1.18-.19 1.6 2.11 2.7 1.69.9-.35 2.34-4.14 2.34-5.08 1.09.35 2.1.46 2.79 1.47.69.99.93 2.2 1.9 3 2.42 1.98 4.53 3.8 5.91 6.68 1.39 2.9 2.33 5.83 2.05 9.14-.1 1.28-.32 2.7-.61 3.94-.41 1.78-.1 1.91.39 3.51.71 2.4-.85 5.29.49 7.69 1.03 1.86 3.5 2.85 4.03 5.1.61 2.66 2.29 4.9 2.87 7.59.78 3.62-3.25 1.64-1.32.32a1.66 1.66 0 01-1.6-1.03c.12.25.7 2.67-.27 1.95-.98-.73-3.38.87-4.3 1.31-.87-3.15-4.67-4.02-6.88-5.95-.58-.5-1-1.1-1.55-1.62-.88-.84-2.31-.82-3.29-1.53a12.16 12.16 0 01-3.04-3.3c-.35-.72-.95-.79-1.65-.98-1.1-.3-1.56-1.3-2.43-1.92-.83-.6-.65-.75-.16-1.4.54-.72-.09-2.19-.37-2.87-.86-2.12-3.19-3.58-3.98-5.72-.38-1.04-2.62-1.6 0-2.44-1.53.22-2.95-2.96-2.5-4.07.85-2.17-.22-4.5-1.47-6.12-1.1-1.42-.7-5.88-.65-7.68.09-2.64-1.44-4.72-2.33-7.05h0zM264.86 260.94l-.14-.95c.84-.07 1.5.42 2.12.86-.66-.03-1.32 0-1.98.08zM206.72 278.11c.06.6.15.88.82.95-.42-1.2.25-2.73-.9-3.61-.09.9.16 1.77.08 2.66zM241.73 249.43c.86.31.98.03.37-.86l-.37.86zM256.85 229.76c.52-.3.88-.72 1.07-1.29-.68.11-1.17.56-1.07 1.29zM258.94 228.64c-.31.57-.3 1.1.03 1.63 1.87-.64 1.2-2.86-.03-1.63zM261.29 235.08c.34.07.66-.02.96-.26-.32.1-.64.18-.96.26zM271.22 255.7c.48.52 1.05.6 1.7.25-.55-.13-1.12-.21-1.7-.25zM155.65 274.6c.86-.5.95-1.6-.11-1.81.14.59.18 1.19.11 1.8zM183.75 273.99c.3.24.6.24.94 0-.07-.31-.2-.6-.4-.86-.17.29-.35.57-.54.86zM102.24 237.23c-.44.46-.93.83-1.5 1.12.87 1.77 2.87.02 1.5-1.12z"/>
    <path d="M106.52 247.7c-1.03-.45-1.17.54-1.14 1.3.07 1.6 1.3-.24 1.14-1.3zM141.82 274.33c-.35.21-.53.53-.54.95.98.18 1.16-.14.54-.95zM191.53 282.5c-.4 3.05 6.19 5.66 6.18 2.83 0 .8 1.18.88 1.09 1.21-.28 1.02 1.64 1.45 2.34 1.71 1.08.4 1.77-.48 2.67.6.83.98 2.12 1.09 3.35 1.2-.82-1.17-2.68-.14-3.07-1.9-.25-1.14.67-2.09 1.62-1.1-.93-.6-.96-1.52-.6-2.5.21-.48.38-.96.5-1.46.3-1.2.9-.73 1.66-1.45l-1.8.17c.85-.8.07-1.73.35-2.66.9 0 1.67.47 2.56.51-3.03-2.33 1.74-5.1 3.68-5.4 3.06-.49 7.47-1.13 10.1-2.94 2.27-1.56 2.45-4.77 4.48-6.54 2.6-2.27 4.14-4.89 4.45-8.3 1.8.05 2.11.96 2.72 2.4.36.85 2.44 3.2 3.37 3.23 1.64.07 2.23-3.32 1.57-4.3-1.5-2.22.48-3.11 1.71-4.43.34 2.18-.21 5.21 2.56 5.84a8.66 8.66 0 00-.97-5.03c-1.04-1.85 1.02-.76 1.7-1.3.64-.49 2.84-2.14 1.16-2.8-2.54-1 .04-2.91.88-4.01-.29 2.17 2.48-.2 2.98-1.12.78-1.42 1.06-3.02 1.78-4.46.4-.83.86-.43 1.31-.95.55-.64 1.02-1.71 1.6-2.45 1.26-1.61 1.2-3.96 2.8-5.45 1.16 1.41-.34 2.87.19 4.38 1-.63 2.04-4.4 3.25-4.17.08.02 2.77 6.68 3.3 3.65.11 1.25 2.4 1.8 2.18 3.29-.15.98-1.5.62-1.2 1.97.36 1.58.14 1.98-1.43 2.56.99-.56 2 .06 2.9-.44.75-.42 1.18-1.46 2.19-1.03 1.9.82.05 2.16-.91 2.5.13 1.86 1.99.08 2.71-.37 1.56-.97 3.28 1.28 3.39 2.6 1.09-1.1 2.8.86 3.2 1.72.9-1.15 3.25-.26 3.24 1.11-.02 1.98-4.43 3.55-5.98 3.43-1.09-.08-5.2-1.54-4.03 1.5.47 1.2 3.22 1.7 2.94 3.15.87-.53 1.52.27 1 1.07-.56.86-1.75.67-2.6.74-2.7.21-3.85.9-6.07-1.03-.22.62.16 1.9-.47 2.34-.96.64-2.24-.7-2.92-1.15-2.01-1.34-4.9.76-6.68-1.02-.2 2.07-1.5.18-2.51.45-.75.2-.95-.5-1.51.35-.62.94-1.48-.37-2.16-.62-.23.91-1.01 1.2-1.44 1.97-.56 1-.87 2.4-1.05 3.5-.14.89-.3 1.93-.06 2.8.36 1.35-.14 1.51-.48 2.77-.53 2.02.05 2.97-2.26 3.02-2.5.05-1.12 4.4-.46 5.26-1.4.48-5.22 2.83-3.62 4.67.93 1.07-2.7 4.67-2.43 6.33-1.43.07-1.4-.93-2.93 0-1.04.65-2.04-.36-3.06.18-1.4.74-1.8 1.94-3.6 1.65-1.2-.2-3.66-1.04-4.28-2.16-.84-1.52-6.52-1.32-7.59.5-.5.85-.82 1.92-1.17 2.84.07-.19-2.82 1.5-2.7 1.49-.83.06-1.67.18-2.5.3-.99.13-1.8-.62-2.81-.69-1.78-.11-2.97.83-4.5 1.55-2.1.99-2.12-.7-3.8-1.13-.5-.14-1.63-1.52-2.1-1.96-.61-.56-.84-1.38-1.43-1.94-.58-.55-1.36-.5-1.74-1.3-.35-.74-.08-2.57-.85-3-1.55-.88-.12-1.5.11-2.79h0zM280.92 256.04c.48-.9.43-1.88.01-2.75.07.91.02 1.83-.01 2.75z"/>
  </g>
  <g>
    <path d="M328.1 174.19c.22.21.4.18.5-.09l-.5.09zM258.1 223.4c.6-.93.64-2.03-.26-2.75-.41.93-.33 1.95.25 2.75zM272.13 232c.15-.96-.19-1.16-1-.61.31.23.65.43 1 .6zM284.5 251.83c.55-.3 3.72-1.99 3.6-2.37-.5-1.44-1.44-.1-2.19.43-.91.64-2.38.66-1.4 1.94zM290.56 238.18c-.21.47-.2.93.04 1.37.43-.5.42-.95-.04-1.38zM297.42 243.5c2.39-1.18-1.24-2.31-2.38-2.1-1.24.22-1.13 1.78-.83 1.63.81-.43 2.88-.63 3.2.47h0zM302.56 236.37c.14 1.04 1.1 1.62 2.1 1.18 1-.46.98-1.53 1.63-2.3-.88.08-1.4-.6-2.2-.77-.83-.17-1.5.87-2.26 1.03.2.32.46.6.74.86zM301.7 241.27c.23.66.65.86 1.27.6-.38-.28-.8-.49-1.27-.6zM311.16 228.81c3.21-1.25-2.5-2.04 0 0zM317.3 210.09c1.5-.08.92-1.44.35-2.15-.86.41-1.42 1.65-.34 2.15zM318.67 205.45c.82-.05 1.12-.34.9-.85-.67-.06-.9.21-.9.85zM320.13 198.24l.71-.86c-.8.01-.7.23-.7.86zM328.12 210.26c.44-.9-.27-2.29-1.32-1.37.17.66.66 1.19 1.32 1.37zM334.26 248.4c.27.15.56.18.86.08-.27-.27-.56-.3-.86-.08zM337.9 232.85c.3-.93.08-1.85-.08-2.75-1.5.3-.26 1.78.08 2.75zM260.01 215.33c-.49.82-.36 1.77-.6 2.66 2.43-2.9 5.8-3.85 7.97-7.13.81-1.22 7.53-5.5 5.24-7.47 1.38.34.46-.62.58-1.46.14-1.03 1.8-1.18 2.52-1.27 1.24-.16 1.5-.64 1.73-1.78.35-1.57 1.48-1.18 2.52-1.85 2.2-1.4.67-2.78-.18-4.4-1.01-1.94.83-4.6-.74-6.25-1.07.91.08 4.39-1.39 3 .35.72 1.28 2.74 1.33 3.53-.86-.5-1.86-1.02-2.15-2.07-.06 1.1.48 1.97.77 2.96.3 1-1.07 4.08-1.54 1.94-.1.66-.48.88-1.08 1.05-.47.12-.27 1.45-.4 1.78-.18.42-1-.12-1.2.26-.33.6.46 1.03-.06 1.72-.16-2.02-1.1.31-1.42.86-.54.9-1.04 1.83-1.77 2.6-1.16 1.24-1.8 2.92-3.13 4-.54.42-1.12.22-1.65.6-.6.45-.67 1.22-1.29 1.58-1.76 1.02-3.33 3.26-4.06 5.14h0zM282.06 186.47c.28-.9-.02-1.08-.92-.52l.92.52zM282.98 177.37a4.62 4.62 0 00-.84-.7c-1.61 2.87 2.12 3.36 4.1 3.36.07-.52-.22-1.24-.68-1.5-.96-.55-1.59-.31-2.58-1.16h0zM282.6 161.05c.3.83 1.14 1.34 1.84 1.8.07-1.06-.86-1.76-1.84-1.8zM283.2 180.8l-1.13.26c.17 1.06 1.44 1.15 1.3 2.32.8-.7.06-1.87-.17-2.58h0zM284.08 195.06c-.07-1.5-2.07-.11-2.08.86 1.13.46.98-1.02 2.08-.86zM284.96 165c.16.5 2.02 2.02 2.46 2.38 1.87 1.52 1.33 3.5 2.67 5.1.59.7 4.47 8.27 5.55 3.86.23-.94.83-1.73 1.04-2.67.22-.92-.63-1.75-.6-2.68.08-2.22-.99-3.6-2.44-5.1-1.17-1.21-7.48-2.38-8.68-.89h0zM285.73 182.09c0-.6-.07-1.21-.2-1.8-.35.66-.28 1.27.2 1.8zM277.68 137.43c-.45 1.9 1.08 1.66 1.23 2.73.24 1.65.29 3.78 1.07 5.23.75 1.4 1.12 2.63 1.31 4.2.12.94 1.56 3.03 1.43.9 1.58.6.56 3.71 2.39 4.27 2.7.82.67-2.7.77-3.85.68.25 6.29 2.11 4.03 3.68-.86.6-1.62 1.33-2.4 2.03-1.27 1.12-.1 3.33-.03 4.77.73-.09 1.04-.52.73-1.2 1.55.02 2.23.88 1.9 2.4.57-1.78 1.64-.22 1.27.69.88-.15 2.16.4 2.91-.33.65-.63.85-1.57 1.58-2.11.23-.17 1.55-1.16 1.86-.9 1.04.86 2.47 1.29 3.43 2.23 1.27 1.25 3.7 2.95 4 4.8.1.62 1.15 1.52 1.43.44a3.2 3.2 0 00-.42-1.65c-.1-.28-1.32-2.01-.65-1.8-1.34-.86-.92-2.7-1.84-3.86 1.86-.3 3.52 1.94 4.37 3.22 1.15 1.72 3.2 1.82 4.16 3.95.25.56-.41 1.64.4 1.81.88.2 1.6.82 2.4 1.2.63.32 1.16 1.22 1.91.83.55-.28 1.38-1.1 2.04-.96-.17 1.05-2.13 1.52-1.32 2.75.14.22 1.66 2.52 2.13 1.39.72-1.77.22-7.9-3.16-5.6-.34-.73.06-1.22-.1-1.92-.18-.9-1.43-2.2-2.18-2.64-2-1.17 2.34-2.32 3.44-1.71-.15-1.27-2.18-1.78-3.2-1.87-1.76-.16-2-1.65-3.45-1.91-.41 1.2 1.76 2.93-.13 3.6-1.38.5-1.67-2.79-2.24-3.81-1.16-2.1-6.26-3.95-6.3-.05-.2-.36-.4-.7-.64-1.03-1.2 1.07 1.14 1.75.45 2.5-1.17 1.27-3.4-.46-4.2-1.3-.7-.75-3.66-6.13-1.32-6.27-2.07-1.47-4.1-5.72-3.06-8.16.72-1.66-.07-3.17.58-4.64.8-1.8 3.23-1.93 4.5-3.26l-.47 1.46c1.07-1.17.8-2.56 1.32-3.95.8-2.12 1.86-4.4 1.54-6.7-1.21.57-.6-1.08-.98-1.63-1.02-1.52-2.26-1.57-2.85-3.65-.6-2.14-.48-3.8.48-5.81.5-1.05-.75-3.9-1.75-2.39-.4.6-.5 1.94-1.52 1.76-.62-.12-1.93-.83-2.5-.13a3.93 3.93 0 00-1.62-1.63c-1.27-.8-2.92-2-4.48-1.5-.67.22-1.38-.14-2.04-.2-.61-.05-.17.84-.75.84-1.65 0-.64.91-.71 1.89-.12 1.75-.74 3.9-1.06 5.67-.57 3.22 1.76 6.07.97 9.5-.64 2.79.44 4.86.72 7.45.35 3.21-4.39-1.07-4.69-2.44-1.1.55-1.04 1.72-.7 2.67h0zM287.78 104.1c.37.59.9.96 1.58 1.12.29-.97-.76-1.64-1.58-1.11zM288.27 109.43l.94-.09c-.48-.22-.7-.38-.94.09zM291.73 93.97c.3-.42.48-.88.56-1.37-.57.3-.75.77-.56 1.37zM292.99 109.69c.58-.43.87-1.12.67-1.8-.55.49-.78 1.09-.68 1.8z"/>
    <path d="M297.19 149.1c.24 1.06.72 3.09 1.86 3.53.55-1.29.33-5.4-1.86-3.52zM301.3 159.42c-.22-1.05-1.58-1.77-2.5-2.07.56.98 1.6 1.48 2.5 2.07zM298.53 165.17c-.1 1.93 2.85 3.37 3.03.62.1-1.4-2.53-2.17-3.03-.62zM301.3 152.03c.29-.83 0-1.06-.84-.69l.84.69zM300.15 182.44c2.77.49 2.03 2.65 1.9 4.79-.09 1.55.13 2.65-.35 4.2-.49 1.61.4 3.15-.22 4.75 1.58.34 2.7-2.4 4.44-2.4 1.14 0 3.3-1.66 3.02-2.8-.26-.98 3.38-1.35 2.94-2.76-.59-1.86.83-4.43-2.23-2.26.76-.8-.3-1.9-1.2-1.7-.81.18-1.38 1.2-2.06.47-.76-.84-1.29-1.8-2.35-2.32-1-.48-2.33-.68-2.97-1.7a3.49 3.49 0 00-.92 1.72h0zM301.1 174.88c-.17 1.55-.86 2.86.28 4.2.27-1.76.48-3.53.9-5.26.25-.97-1.97-.36-1.18 1.06h0zM301.98 152.46l.86-.09c-.3-.05-.58-.02-.86.09zM303.42 174.88c.75.1.67-.18-.23-.86l.23.85zM302.79 230.1c-.53 2.43 2.76 3.45 3.12.61.12-1.03.67-3.89 1.47-4.2.64-.25 1.22-4.01 2.62-2.9 1 .8.52 2.5 1.3 3.4.29-1.51.8-.78 1.2 0 .38-.93.14-2.22 1.3-2.66.5.62.37 1.36-.24 1.89 1.18.04 1.87 1.5 3.06 1.28-.34-.52-.76-1.22-.7-1.89.02-.37.85-.33.96-.68.29-.93-.75-.72.48-1.62.75-.55 1.45.42 2 .77 1.85 1.2 3.55 1.52 4.1 4.03.3 1.37-1.6 2.65-1.8 4.1-.2 1.46.52 3.47.78 4.91.4 2.23 2.28 3.56 4.15 4.53.86.45 3.88 2.46 4.85 1.63.78-.66.43-2.23 1.86-2.16.14.01-.51 6.64 1.56 5.24 1.44-.98 2.79-4.31 2.62-5.94-.22-2.29-1.93-3.25-2.75-5.1-.5-1.1 2.43-7.35 3.38-6.9.73.36 2.26 3.9 2.55 4.76.29.84.08 1.71.12 2.58.06 1.26 1.06 2.1 1.2 3.33.07-2 1.05-4.58-.39-6.27.75-.34 1.34.1 1.6.77-1.23-1.13.7-2.27 1.35-3.11 1.26-1.65.5-4.04.24-5.8-.22-1.44-2.1-1.44-1.3-3.01.47-.9.58-3.24-1.07-2.5 2.85-2.37-2.18-3.15-2.07-4.39.06-.72 1.48-1.06 1.78-1.77.54-1.28-.86-1.79-1.2-2.78-.16-.46.44-2.69-.44-2.25-1.11.57-1.3.17-1.86-.67-.66-1 .06-1.58-1.45-2.05-1.66-.51-1.92-2.03-3.36-2.67-.96 1.94.52 4.49 1.04 6.32.11.42.67 1.96-.1 2.18-1 .29-2.36.04-2.76-1.03-.9 2.53-.03 2.73-2.35 1.09-2.18-1.56-.45 4.56-2.3 4.82-1.2.16-1.39-1.27-2.5-.78-1.15.52-.91 2.6-1.3 3.58-.48 1.17-2.17.65-3.04 1.34-.5.4-1.4 1.35-2.07 1.38-.7.03.9-1.1.76-1 .91-.59 1.1-.91.92-2.04-.14-.88-1.2-5.1-2.72-3.06-.2-.7-.6-1.6-1.5-1.55.42 2.36-2.5 1.46-3.24 2.74-.87 1.52-.22 2.9-2.13 3.53-1.93.63-4.73.08-5.73 2.5-.42 1.04-.22 2.24-.37 3.32-.21 1.44-1 2.86-1.63 4.15h0zM305.74 174.88c-.32.19-.62.42-.88.68.7.58 1.44 1.15 2.08 1.8.85-1.12.18-2.49-1.2-2.49zM308.15 206.57c.8.59 1.97.57 2.63 1.37.55.68.2 1.76.87 2.37.92.84 2.2-.17 2.7-1 .93-1.56-.65-2.62-1.02-3.98-.68-2.5.42-6.2 1.3-8.64.65-1.86 2.71-4.35.18-5.71a3.33 3.33 0 00-2.85-.19c-1.56.7-.96 2.04-1.4 3.32-.28.82-1.1 1.08-.83 2.06.3 1.08.73 2.27.25 3.4-.71 1.72-3.83.62-3.85 2.54-.02 1.6 1.18 3.21 2.02 4.46h0zM307.21 196.52c.78-.35 2.68-2.73 1.06-3.12-1.22-.3-1.63 2.48-1.06 3.12zM313.2 172.9c-.94-1.6-2-3.77-3.8-4.55-.95 1.5 3.15 3.56 3.8 4.55zM312 180.03l-.12.94c1.24-.82 2.26-4.08 3.66-2.38.57.69 1.2 1.33 1.7 2.07.63.94 2 1 2.66 1.94 1.41-2.56-2.02-4.11-3.15-5.52-.5-.62-1.3-1.3-1.9-1.8-.36-.3-2.37-1.28-2.8-1.27.28.82-.05 2.99.29 3.47.84 1.2-.2 1.26-.34 2.55h0zM316.05 174.88c.3.62.7 1.17 1.23 1.63-.14-1.16-.4-2.58-1.53-3.18-.28.6-.18 1.11.3 1.54h0z"/>
    <path d="M315.32 200.73c.06 1.8-.56 3.55-.8 5.32 2.45.65 2.13-5.19 3.16-6.35 1.28-1.43 2.61-2.6 2.9-4.6.34-2.37-.34-4.71-.18-7.08-1.2.24-1.67 3.96-1.9 4.87-.71 2.75-2.52 5.09-3.18 7.84h0zM318.71 167.5c.17-.6-.12-.71-.84-.35l.84.34zM320.1 164.4c2.22-1.52 2.02-4.93-.84-5.5a5.03 5.03 0 00.85 5.5zM320.5 168a.91.91 0 00-.94-.17l.94.17zM319.5 203.65c-.3 3.34 5.8-.46 6.55-.18-.41-1.72-.36-5.11-3.48-4.27-1.09.3-4.52 3.5-3.07 4.45zM321.63 174.88c.61 1.82 1.34 3.38 2.84 4.63.84.7 3.37 3.48 4.46 3.01-.4.85-.4 1.98-1.47 2.32.51.43.93.95 1.23 1.54-.88-1-1.45.28-2.22.71-1.18.67-2.93-1.19-3.4-2.08-.9 1.06.56 6.15 1.83 6.7-.14-2.3 2.46.67 2.48 1.85.06 3-.57 5.3 2.56 6.74-.11-.9-.55-1.73-.52-2.66.48.56 2.23.6 2.43-.35.12-.53-1.08-3.02-1.39-3.55-.69-1.23-.91-1.07-.97-2.72-.05-1.06.24-2.74-.66-3.52.72-.18 2.67 1.78 2.7 1.76.81-.92 3.73.26 4.52.73-.63-.76-1.04-1.83-2.07-2.14 1.38-1.04-1.22-4.09-1.3-5.32-.09-1.29.54-2.44-.14-3.54-.42-.7 1.27-.5-.07-1.33-.72-.44-1.68-.11-1.57-1.29.14-1.5-1.17-1.55-2.24-1.79a4.09 4.09 0 00-2.77.12c-1.43.45-2.93-.8-4.26.18h0z"/>
    <path d="M324.26 185.61c1.51.22.52-3.31-1.38-2.23.38.78.57 1.76 1.38 2.23zM331.55 200.73c.3.28.62.56.92.86-.15-.82-.5-2.18-1.66-1.81.22.34.46.66.74.95zM334.98 200.73c.67.48.73 1.2.12 1.8 1.27.19 1.04-1.64.91-2.34-.13-.74-.58-1.39-.68-2.12-.09-.67.39-1.21.15-1.9-1.71.73-.41 2.17-1.4 3.27.68.11 1.12.56.9 1.29h0zM338.52 205.28c.6-.6.23-1.43-.37-1.8-.12.66 0 1.26.37 1.8zM339.2 200.73c-.46.58-.92 3 .46 2.7 1.4-.33.45-2.53-.47-2.7zM323.26 194.71l-.14-.94c.96.14 1.01.46.14.94zM328.7 186.38c.13.36.18.73.14 1.12a1.85 1.85 0 01-.15-1.12zM316.46 190.08c-.52-3.36 3.99-1.63 0 0z"/>
  </g>
  <g fill="currentColor">
    <path d="M139.15 196.18c-.4.54-.92.83-1.58.86 1.13.89 1.19 2.42 2.02 3.52-.37-1.47.93-3.2-.44-4.38h0zM129.79 186.21h-.52c.18.35.4.66.66.95l-.14-.95zM132.28 193.77c.44-.73.2-1.01-.75-.86.23.3.48.6.75.86z"/>
    <path d="M122.58 166.63a6.8 6.8 0 00-.26-2.66c2.85.1 4.2-4 5.15-6.07 1.03-2.25 5.72-3.63 7.66-2.38.96.61 2.53.31 3.58-.05 1.38-.48 2.43.33 3.88-.26 2.61-1.05 3.96 2.9 5.19.6.04 3.6 4.41 1.08 5.75 3.47.66 1.17 3.06 1.23 2.9-.55-.1-.98-2.23-2.19-.89-3.1.56-.4 1.07.39 1.27-.51.17-.73.77-.48 1.33-.52.7-.06.64-1.03 1.22-1.09.79-.06 1.55 1.03 2.1 1.44 2.4 1.81 5.83-.83 7.14-2.83 0 .66.1 1.42-.15 2.06-.28.7-1.36 1.04-1.12 1.94.23.85-.03 1.74.17 2.6.2.9.81 1.97 1.14 2.86.78 2.15 2.06 2.98 1.33 5.56-.33 1.17-1 2.23-.6 3.44.3.94.95 1.83 1 2.85.07.97-.43 2.35-.85 3.22-.57 1.18-.8-.35-1.72.14-1.15.6-1.92 1.73-3.01 2.42-1.58.98-2.8.82-4.56 1.25.73.92-.02 2.1.49 3.1-.97-.2-3.46-1.93-4.27-.74-.53.78-1.6.9-1.41 1.9.19 1.07.52 2.28 1.04 3.22.6 1.1 2.59 1.16 2.75 2.74-1.13.17-.17.95-.23 1.9-.79-.26-1.72-.23-2.43-.7-.61-.42-.86-1.68-1.79-1.5-1.77.35-4.1 2.05-5.68.48-.94.94.13 2.2-1.09 3.38-1.18 1.14-2.2.57-3.53 1.1-1 .39-1.16 1.02-2.34.5-1.17-.5-3.59-.85-4.14-2.06.28 1.27-1.5 2.15-2.4 1.32-1.18-1.1-.06-1.34.68-2.1.86-.88-.07-3.24-.82-3.85-1.34-1.1-1.6 1.78-1.85 2.48-.82-.71-1.38.33-2.15-.05-1.16-.59-.38-2.46-.63-3.44-.23-.88.68-2.15-.21-2.8-.63-.44-1.94-2-.33-2.21-.66-.36-1.14-.01-1.3.69.26-1.47-.95-2.77-1.4-4.04-.52-1.42.29-3.4-.55-4.67a31.36 31.36 0 01-4.06-8.48h0z"/>
  </g>
  <path d="M96.08 93.89c.4-1.4.02-3.4 1.36-4.39.77-.56 2.78.08 2.96-1.2-1.8 1.05-.28-2.1-.04-2.67.4-.94.41-1.46 1.45-1.91.88-.39 2.58-1.27 2.36-2.46 1.44.83.06 4.78 2.7 3.72 1.54-.62 1.56.09 2.87.6 1.84.71.24-1.56.2-1.7-.32-1.2.4-2.07.29-3.17-.12-1.1-.98-2.14-1.6-3-.7-.96-1.31-1.88-1.35-3.14 0-.28 1.01-3.4 1.5-2.77.5.63.38 1.01 1.53.72 1.78-.46 1.92.81 2.9 1.82 1.03 1.07 2.23 2.08 3.32 3.1.84.77.68 2.52 1.84 2.88.51-.53.65-1.13.41-1.8.24 1.06 1.48.83 1.7 2.04.22 1.2-.58 2.6-.26 3.99.91 4.05 5.16 4.23 8.1 6.07.78-1 .54-1.94 1.89-2.49 1.61-.65 2.77-.04 4.03.9.74.54 1.82 1.14 1.94 2.16.1.9-1.49.87-1.75 1.75.79.33 2.27.1 2.54 1.13.21.8.81.77 1.41 1.1 2.55 1.4 1.59 1.65.22 3.61 1.75.51-1.73 2.6-2.99 2.41-.3-.04-3.37-.99-3.6-.35-.23.62 1.04 1.68.76 2.75-1 .01-2.06 1.14-.64 1.57 2.36.74 4.85 2.99 6.9 4.46.81.58 4.79.66 4.63 2.1-.13 1.13-.87 1.45.07 2.53.7.8 1.89 2.04 2.76 2.06.9.02 1.4 1.58 1.68 2.22.66 1.46 1.68 2.54 2.75 3.7.61.67 2.8 3.82 3.79 3.53.95-.28 1.6 2.82 2.52 3.22 1.08.47.56 2.73 1.23 3.64.22.3.74 1.48 1.15 1.54.5.08 1.07-.45 1.55-.17.99.59.61 1.55 1.9 1.86 1.2.28 2.47 2.1 3.8 2.61-.5 1.03-1.88 1.5-2.3 2.56-.47 1.15 2.63 2.63 3.06 3.47.65 1.28 2.14 1.27 1.33 3.13-.24.55-.88 1.15-.92 1.77-.03.58.6.98.57 1.67-.1 1.94-.56 2.24-2.15 2.62-1.37.32-1.79 2.1-3.65 2.14-1.79.02-2.06-2.34-3.17-2.5-.74-.1-.4.91-.9 1.12-.5.2-1.06.25-1.57.39-.6.15-2.37 1.02-1.98 1.77.5 1 1.8 2.12.77 3.25-1.26 1.38-3.95-2.47-5.96-1.74-1.13.4-2.83-1.58-1.71-2.5.83-.67 2.35-1.3 2.26-2.57-.08-1.18.44-2.92.22-3.92-.15-.67-1.26-.75-1.24-1.5.03-.7.65-1.34.93-1.94-.34.16-.64.14-.9-.06-.13-.96 2.15-2.22.74-3.7-.76-.8-3.86-1.75-1.83-3.11-3.27-1.3-6.58-3.53-6.96-7.45-.3-3.05.88-7.32-2.19-9.17-3.12-1.9-4.05-6.5-7.73-7.29-.47-.1-6.76-1.96-4.71.38-1.5.2-1.14 2.33-1.83 3-.27.27-1.77.3-2.38.84-.95.83-1.28-.07-1.92-.56a16.5 16.5 0 00-4.1-2.4c-1.32-.41-1.46 2.3-3 1.35-.2 2.36-3.08 4-4.51 5.64-.66.76-1.54.34-2.2-.38-.74-.8-.07-2.26.3-3.1.58-1.3.77-2.18.62-3.6-.09-.84-.87-2.29-.75-3.02.24-.43.52-.82.86-1.17.46-.73 0-.76.09-1.5.16-1.63.73-2.56-.03-4.12-1.08-2.19.23-5.52-3.52-4.5-.44 0-.77.17-1 .52-.4.83-.47.11-1.18.25-1.24.25-1.79-.25-2.35-1.43-.8-1.69 1.53-3.73.58-4.98-.38-.52-1.5-2.15-2.05-2.4-1.09-.52-1.34.77-2.27 1.02l-.15-.85h0z"/>
  <g>
    <path d="M324.16 399.17c-.05 3.22.83 1.67 2.85.48 1.93-1.15 4.87-1.84 7-2.65 3.43-1.32 8.32-2.57 10.8-5.63 1.42-1.75-2.26-1.4-3.04-1.16-2.15.63-4.04.9-6.23 1.27-2.34.4-4.5.36-6.9.87-.91.18-2.13.07-2.91.68-.83.65-.98 1.78-1.85 2.4 1.97.97 1.48 1.73.44 3.33m-.16.4h0zM313.48 401.02a13.67 13.67 0 015.48-2.33c-.36 1.38-1.71 2.19-1.87 3.47-.18-.35-.38-.69-.6-1.02-.9 1.18-2.03.23-3-.12z"/>
  </g>
  <g>
    <path d="M232.11 256.56c3.46-.1 4.76-3.15 7.7-4.28 1.32-.5.69 1.22.12 1.66-1.32 1.03-1.57 1.23-1.41 3.02.01.14.6 6.64-1.4 5.2-.77-.55-2.47-1.75-2.96-2.6-.72-1.22-.32-2.63-2.05-3h0zM240.5 255.1c-.2-1.58.6-.53 1.1-1.81a8.69 8.69 0 011.42 5.93c-1.97-.45-2.48-2.32-2.52-4.12h0z"/>
  </g>
  <g fill="currentColor">
    <path d="M137.7 289.19c-1.16.3.52 2.48 2.13.43a4.3 4.3 0 00-2.13-.43z"/>
    <path d="M139.36 297.42c9.21 0 9.71-14.35.5-14.35-9.22 0-9.72 14.35-.5 14.35z"/>
  </g>
</svg>