<svg xmlns="http://www.w3.org/2000/svg" style="isolation:isolate" viewBox="0 0 500 500"><defs><clipPath id="a"><path d="M0 0h500v500H0z"/></clipPath></defs><g clip-path="url(#a)"><clipPath id="b"><path fill="#FFF" d="M0 500h500V0H0v500z"/></clipPath><g clip-path="url(#b)"><path fill="#DAE8EF" d="M465.68 304.58L449.91 415.3H49l-11.84-84.45a21.02 21.02 0 0112.74-22.3l35.58-14.77v-35.39a20.97 20.97 0 0117.95-20.76l8.42-1.24 14.13-47.78a20.97 20.97 0 0120.12-15.04h144.56a20.96 20.96 0 0120.92 19.46l68.84 7.27a21 21 0 0118.75 19.64l2.78 47.76 48.65 13.74a21 21 0 0115.08 23.15z"/><path fill="#CCD9E2" d="M73.03 327.42l12.52 87.87h318.23l9.4-67.03a16.68 16.68 0 00-10.12-17.7l-28.24-11.73v-28.09c0-8.27-6.06-15.29-14.25-16.48l-6.68-.98-11.21-37.93a16.65 16.65 0 00-15.98-11.94H211.96a16.63 16.63 0 00-16.61 15.45l-54.64 5.77a16.67 16.67 0 00-14.89 15.6l-2.2 37.9L85 309.03a16.66 16.66 0 00-11.98 18.39z"/><path fill="#BCCED8" d="M335.57 382.55c0-9.47-6.93-17.5-16.3-18.87l-7.65-1.12-12.84-43.4a19.05 19.05 0 00-18.28-13.67H149.18a19.03 19.03 0 00-19.01 17.68l-56.86 6 12.27 86.12H337l-1.44-.6v-32.14z"/></g><path fill="#112B46" d="M217.79 190.17h-97.56V99.12h97.56v91.05z"/><clipPath id="c"><path fill="#FFF" d="M0 0h500v500H0V0z"/></clipPath><g clip-path="url(#c)"><path fill="#1D262D" d="M217.79 108.75h-97.56v-9.63h97.56v9.63z"/><path fill="#606BF1" d="M196.7 104.04a1.77 1.77 0 11-3.53 0 1.77 1.77 0 013.53 0z"/><path fill="#FBD15B" d="M204.07 104.04a1.77 1.77 0 11-3.53 0 1.77 1.77 0 013.53 0z"/><path fill="#FF8578" d="M210.91 104.23a1.76 1.76 0 11-3.53 0 1.76 1.76 0 013.53 0zM151.4 118.86h-13.82v-1.16h13.81v1.16z"/><path fill="#FBD15B" d="M167.61 118.86H153.8v-1.16h13.82v1.16z"/><path fill="#606BF1" d="M163.28 125.12h-21.43v-1.16h21.43v1.16z"/><path fill="#FF8578" d="M177.71 125.12h-10.89v-1.16h10.9v1.16z"/><path fill="#FBD15B" d="M158.7 131.37h-9.42v-1.16h9.41v1.16zM195.35 131.37h-31.22v-1.16h31.22v1.16z"/><path fill="#606BF1" d="M192.27 137.63h-35.68v-1.16h35.68v1.16z"/><path fill="#FF8578" d="M158.65 143.88h-10.98v-1.16h10.98v1.16z"/><path fill="#606BF1" d="M174.33 143.88h-10.98v-1.16h10.98v1.16z"/><path fill="#FF8578" d="M153.55 175.18h-15.97v1.16h15.97v-1.16z"/><path fill="#FBD15B" d="M175.12 175.18h-15.97v1.16h15.97v-1.16z"/><path fill="#FF8578" d="M196.1 175.18h-15.97v1.16h15.98v-1.16z"/><path fill="#606BF1" d="M173.07 168.92h-31.22v1.16h31.22v-1.16z"/><path fill="#FF8578" d="M209.15 168.92h-31.21v1.16h31.21v-1.16zM180.26 162.67h-30.98v1.16h30.98v-1.16z"/><path fill="#FBD15B" d="M191.59 162.67h-8.63v1.16h8.63v-1.16zM158.92 156.41h-11.66v1.16h11.66v-1.16z"/><path fill="#606BF1" d="M176.78 156.41h-11.66v1.16h11.66v-1.16z"/><path fill="#FF8578" d="M195.94 156.41h-11.66v1.16h11.66v-1.16z"/><path fill="#FBD15B" d="M177.13 150.16h-16.35v1.16h16.35v-1.16z"/><path fill="#606BF1" d="M154.61 150.16h-16.35v1.16h16.35v-1.16z"/><path fill="#F9FBFC" d="M130.02 118.07h-1.49v-1.48h1.5v1.48zM130.02 125.65h-1.49v-3.03h1.5v3.03zm0 7.58h-1.49v-3.03h1.5v3.03zm0 7.58h-1.49v-3.03h1.5v3.03zm0 7.58h-1.49v-3.03h1.5v3.03zm0 7.58h-1.49v-3.03h1.5v3.03zm0 7.58h-1.49v-3.03h1.5v3.03zm0 7.58h-1.49v-3.03h1.5v3.03zM130.02 177.16h-1.49v-1.49h1.5v1.5z"/><path fill="#FF8578" d="M319.1 129.29h-80.32V79.78h80.33v49.51z"/><path fill="#F9FBFC" d="M269.98 99.69l-9.56 4.08 9.56 4.02-1.26 2.89-11.46-5.13v-3.54l11.46-5.15 1.25 2.83zM284.06 90.25l-6.94 26.65-3.3-.78 6.97-26.61 3.27.74zM300.65 102.01v3.55l-11.47 5.12-1.25-2.9 9.53-4.01-9.53-4.08 1.25-2.83 11.47 5.15z"/><path fill="#606BF1" d="M362.1 208.3h-45.75v-32.6h45.75v32.6z"/><path fill="#F1F2F2" d="M335.49 182.74c-1.48 0-1.97.4-1.97 1.5v4.9c0 1.91-.8 2.5-2.12 2.87 1.33.35 2.12.94 2.12 2.83v4.9c0 1.1.52 1.5 1.97 1.5v2.15c-3.72 0-4.77-1.2-4.77-3.67v-4.65c0-1.33-.35-1.84-1.57-1.84v-2.46c1.22 0 1.57-.53 1.57-1.87v-4.65c0-2.5 1.05-3.66 4.77-3.66v2.15zM347.73 184.25v4.65c0 1.34.35 1.87 1.59 1.87v2.46c-1.24 0-1.6.51-1.6 1.84v4.65c0 2.48-1.04 3.67-4.76 3.67v-2.15c1.45 0 1.97-.4 1.97-1.5v-4.9c0-1.9.79-2.48 2.12-2.83-1.33-.37-2.13-.96-2.13-2.87v-4.9c0-1.1-.49-1.5-1.96-1.5v-2.15c3.72 0 4.77 1.16 4.77 3.66z"/><path fill="#FBD15B" d="M140.51 121.2H89.18V86.89h51.33v34.33z"/><path fill="#F9FBFC" d="M116.98 106.18a5.96 5.96 0 11-8.42-8.44 5.96 5.96 0 018.42 8.44zm-10.8-9.45a8.44 8.44 0 0011.27 12.25l5.38 5.39c.23.22.6.22.83 0l1.5-1.52a.58.58 0 000-.82l-5.38-5.39a8.44 8.44 0 00-13.61-9.91z"/></g><radialGradient id="d" cx=".5" cy=".5" r=".5" fx=".5" fy=".5" gradientTransform="matrix(24.611 0 0 27.033 265.21 178.86)" gradientUnits="userSpaceOnUse"><stop offset="0%" stop-color="#ffc8af"/><stop offset="10%" stop-color="#ffc7ad"/><stop offset="20%" stop-color="#ffc5ab"/><stop offset="30%" stop-color="#ffc4a9"/><stop offset="40%" stop-color="#ffc3a7"/><stop offset="50%" stop-color="#ffc1a6"/><stop offset="60%" stop-color="#ffc0a4"/><stop offset="70%" stop-color="#ffbfa2"/><stop offset="80%" stop-color="#ffbea0"/><stop offset="90%" stop-color="#ffbc9e"/><stop offset="100%" stop-color="#ffbb9c"/></radialGradient><path fill="url(#d)" d="M283.85 178.86l-14.5 8.12v5.99a12.77 12.77 0 00-4.02.2l.02.07s-2.14 12.66 10.64 12.66c12.17 0 13.72-11.84 13.83-12.98-3.14-.35-5.44-.08-5.44-.08v-13.98h-.53z"/><radialGradient id="e" cx=".5" cy=".5" r=".5" fx=".5" fy=".5" gradientTransform="matrix(35.828 0 0 45.144 251.9 146.85)" gradientUnits="userSpaceOnUse"><stop offset="0%" stop-color="#ffc8af"/><stop offset="10%" stop-color="#ffc7ad"/><stop offset="20%" stop-color="#ffc5ab"/><stop offset="30%" stop-color="#ffc4a9"/><stop offset="40%" stop-color="#ffc3a7"/><stop offset="50%" stop-color="#ffc1a6"/><stop offset="60%" stop-color="#ffc0a4"/><stop offset="70%" stop-color="#ffbfa2"/><stop offset="80%" stop-color="#ffbea0"/><stop offset="90%" stop-color="#ffbc9e"/><stop offset="100%" stop-color="#ffbb9c"/></radialGradient><path fill="url(#e)" d="M252.46 160.97c-1.59 8.36-.06 24.73 7.84 30.38 2.05 1.47 12.8.2 14.54-1.33 2.57-2.26 5.15-4.5 7.73-6.75.57-.5 1.15-1 1.6-1.6.62-.86.96-1.88 1.27-2.9 1.78-5.92 3.1-12.42 1.7-18.57-.75-3.3-2.3-6-4.36-8.08a17.63 17.63 0 00-12.68-5.27c-8.06 0-15.97 5.24-17.64 14.12z"/><clipPath id="f"><path fill="#FFF" d="M0 0h500v500H0V0z"/></clipPath><g clip-path="url(#f)"><path fill="#F7B094" d="M278.34 169.88c.1-1.33 1.48-2.8 2.86-1.93 1.43.9 1.1 3.27.5 4.58-.46 1.02-2.01 2.14-3.07 1.19-.88-.8.5-1.74.54-2.47.04-.66-1.28-1.13-.74-1.83"/><path fill="#F7B094" d="M278.6 176.06c1.44.43 3.88-.66 4.5-2.67.6-2 .54-4.3.54-4.3s.73 1.82.36 4.74c-.38 2.92-1.4 5.7-3.7 5.74-2.29.04-1.7-3.5-1.7-3.5z"/><path fill="#3D3D7A" d="M276.83 173.98a.51.51 0 01-.16.05c-.9.13-1.25-.95-1.38-1.63-.31-1.58-.26-3.17-.32-4.77-.01-.4.02-.9-.14-1.27-.5-1.15-1.84-1.9-2.25-3.08-.47-1.38.87-2.75.34-4.26-.82-2.31-3.78-2.84-5.93-2.82-3.22.04-6.36.64-9.54 1.13-3.35.52-7.64 1.02-10.6-1.1-3.56-2.56-5.05-9.23-2.39-12.88 1.45-1.99 4.2-3.04 6.6-3.1 2.56-.06 4.72 1.46 7.06 2.23 1.86.6 3.67-1.17 5.41-1.52 2.2-.44 3.12 1.95 5.06 2.02 1.88.06 3.73-1.41 5.56-1.74 3.65-.67 3.44 3 5.89 4.25 1.52.77 3.49.3 5.03 1.1 1.17.6 1.33 1.65 1.58 2.85.23 1.03.24 2.23.58 3.21.3.88 1.05 1.44 1.63 2.13a7.86 7.86 0 011.35 2.58c.71 2.1.87 4.36.68 6.56-.33 3.69-1.51 7.32-2.75 10.79-.8 2.25-1.1 4.6-2.32 6.73-.33.57-1.8 2.25-2.34 1-.12-.27-.1-.57-.08-.86.16-2.33 2.32-17.3-3.34-15.5a4.02 4.02 0 00-2.44 2.5 9.74 9.74 0 00-.5 4.14c.01.2.02.41.01.62-.01.26-.08.53-.3.64z"/><path fill="#F7B094" d="M269.34 191.6c6.45-1.04 10.7-6.13 10.7-6.13s-1.74 8.58-11.08 9.04l.38-2.91z"/><path fill="#0A2033" d="M279.92 308.57h9.23v88.53c0 .9-.73 1.62-1.63 1.62h-5.97c-.9 0-1.63-.73-1.63-1.63v-88.52z"/><path fill="#30475E" d="M259.17 309.84h50.74v1.38a6.31 6.31 0 01-6.32 6.31h-38.11a6.31 6.31 0 01-6.31-6.3v-1.4z"/><path fill="#0A2033" d="M279.92 388.23h9.23v20.51c0 .9-.73 1.63-1.63 1.63h-5.97c-.9 0-1.63-.73-1.63-1.63v-20.51zM236.66 404.96a5.4 5.4 0 1010.8 0 5.4 5.4 0 00-10.8 0zM321.62 404.96a5.4 5.4 0 1010.8 0 5.4 5.4 0 00-10.8 0z"/><path fill="#30475E" d="M275.26 397.57h18.56v-16.22h-18.56v16.22z"/><path fill="#FBD15B" d="M236.66 401.39h95.76v-1.88a5.75 5.75 0 00-5.75-5.76H242.4a5.75 5.75 0 00-5.75 5.75v1.89z"/><path fill="#30475E" d="M284.54 379.9h-3.2v-60.55h3.2v60.55z"/><path fill="#FBD15B" d="M320.79 244.4a3.76 3.76 0 00-3.89 3.98c.63 10.99-1.7 37.8-11.93 46.94-12.52 11.19-48 9.67-48 9.67s-5.85 7.19 5.87 8.78c11.71 1.6 44.73.54 52.72-6.92 7.73-7.22 12.32-26.13 8.87-59.04a3.79 3.79 0 00-3.64-3.4z"/></g><radialGradient id="g" cx=".5" cy=".5" r=".5" fx=".5" fy=".5" gradientTransform="matrix(17.159 0 0 15.291 241.38 379.9)" gradientUnits="userSpaceOnUse"><stop offset="0%" stop-color="#ffc8af"/><stop offset="10%" stop-color="#ffc7ad"/><stop offset="20%" stop-color="#ffc5ab"/><stop offset="30%" stop-color="#ffc4a9"/><stop offset="40%" stop-color="#ffc3a7"/><stop offset="50%" stop-color="#ffc1a6"/><stop offset="60%" stop-color="#ffc0a4"/><stop offset="70%" stop-color="#ffbfa2"/><stop offset="80%" stop-color="#ffbea0"/><stop offset="90%" stop-color="#ffbc9e"/><stop offset="100%" stop-color="#ffbb9c"/></radialGradient><path fill="url(#g)" d="M241.38 385.54l4.24 9.65 12.92-5.67-4.22-9.62-12.94 5.64z"/><clipPath id="h"><path fill="#FFF" d="M0 0h500v500H0V0z"/></clipPath><g clip-path="url(#h)"><path fill="#56548C" d="M315.28 273c-.8 1.6-58.23.03-63.66.53 0 0-35.15 16.77-40.2 32.48-.5 1.58-.65 3.67-.49 6.17 1.4 22.1 26.59 75.06 26.59 75.06l3.86-1.7 12.94-5.64 1.84-.8s-19.97-59.51-15.98-62.7c4-3.2 49.26-11.19 64.97-15.44 15.72-4.27 10.13-27.96 10.13-27.96z"/></g><radialGradient id="i" cx=".5" cy=".5" r=".5" fx=".5" fy=".5" gradientTransform="matrix(15.119 0 0 14.483 190.94 382.35)" gradientUnits="userSpaceOnUse"><stop offset="0%" stop-color="#ffc8af"/><stop offset="10%" stop-color="#ffc7ad"/><stop offset="20%" stop-color="#ffc5ab"/><stop offset="30%" stop-color="#ffc4a9"/><stop offset="40%" stop-color="#ffc3a7"/><stop offset="50%" stop-color="#ffc1a6"/><stop offset="60%" stop-color="#ffc0a4"/><stop offset="70%" stop-color="#ffbfa2"/><stop offset="80%" stop-color="#ffbea0"/><stop offset="90%" stop-color="#ffbc9e"/><stop offset="100%" stop-color="#ffbb9c"/></radialGradient><path fill="url(#i)" d="M191.95 396.83h14.1l-1-14.45-14.11-.03 1 14.48z"/><clipPath id="j"><path fill="#FFF" d="M0 0h500v500H0V0z"/></clipPath><g clip-path="url(#j)"><path fill="#3D3D7A" d="M251.34 273.03l-.52.23s-58.84 8.25-68.42 24.76c-6.24 10.74 5.82 89.19 5.82 89.19l20.82.05s-3.11-65.36-2.07-69c1.16-4.15 3.16-5.65 3.96-6.08-.16-2.5-.02-4.59.5-6.17 5.04-15.7 40.2-32.48 40.2-32.48-.12-.08-.21-.26-.3-.5z"/><path fill="#FF8578" d="M308.17 218.66l-3.94.54s-.96 10.65-3.31 21.29l-49.16 18.66-.67 3.56-.61-.05c.02.74.02 1.46.05 2.13.1 4.1.38 7.06.81 8.24.08.24.18.42.29.5 1.34 1.09 18.72-1.02 37.52 5.88 16.3 5.98 25.44 12.52 25.86 11.64 5.13-10.65-4.2-52.45-6.84-72.39z"/><path fill="#F4675D" d="M303.04 243.04c-1.3 6.3-4.7 18.82-11.34 20.5-8.68 2.2-25.45 2.1-41.17 1.25-.03-.67-.03-1.4-.05-2.13l.6.05.68-3.56 49.16-18.66a193.03 193.03 0 003.3-21.29l.02.18c.1 1.65.77 14.36-1.2 23.66zM253.77 202.96c-.88 1.6-2.15 18.69-2.83 35.66l-10.05-9.38c4.26-8.26 12.88-26.28 12.88-26.28z"/><path fill="#F7B094" d="M247.74 251.01c-8.48 1.48-16.28 2.74-16.28 2.74l-.02.41c-9.44-7.54-23.8-28.9-23.8-28.9s4.3-5.16 5.37-6.52c.16-.2 23.58 15.91 24.78 15.77.3-.03 1.5-2.14 3.1-5.27l10.05 9.38c-.16 4.04-.3 8.06-.37 11.88-.94.18-1.89.34-2.83.51z"/></g><radialGradient id="k" cx=".5" cy=".5" r=".5" fx=".5" fy=".5" gradientTransform="matrix(25.771 0 0 9.986 205.69 250.76)" gradientUnits="userSpaceOnUse"><stop offset="0%" stop-color="#ffc8af"/><stop offset="10%" stop-color="#ffc7ad"/><stop offset="20%" stop-color="#ffc5ab"/><stop offset="30%" stop-color="#ffc4a9"/><stop offset="40%" stop-color="#ffc3a7"/><stop offset="50%" stop-color="#ffc1a6"/><stop offset="60%" stop-color="#ffc0a4"/><stop offset="70%" stop-color="#ffbfa2"/><stop offset="80%" stop-color="#ffbea0"/><stop offset="90%" stop-color="#ffbc9e"/><stop offset="100%" stop-color="#ffbb9c"/></radialGradient><path fill="url(#k)" d="M205.69 260.75h25.56l.21-7-6.73.67s-2.66-3.66-9.58-3.66-9.46 9.99-9.46 9.99z"/><clipPath id="l"><path fill="#FFF" d="M0 0h500v500H0V0z"/></clipPath><g clip-path="url(#l)"><path fill="#F7B094" d="M212.81 218.58l.2.16a633.95 633.95 0 01-5.37 6.52l-2.67-1.89s-2.94 1.8-6.36-.08c-3.56-1.93-1.36-6.54-1.17-7.1-.7.2-4.96 3.65-5.63 3.29-.68-.37-1.17-1.59 3.6-6.3s11.25 1.34 11.45 1.34l5.95 4.06z"/><path fill="#F7B094" d="M199.17 222.5s-1.03 1.92.8 2.76c1.83.84 5.4 1.44 6.92 1.3 1.53-.15 2.75-2.3 2.75-2.3l-4.63-4.34h-3.71l-2.13 2.57z"/><path fill="#E8987C" d="M198.9 223.44c.27-.95 2.9-.44 4.53-.4 1.2.03 1.86-.29 2.23-1.2.38-.92-1.37-2.38-1.71-1.92-.35.46.63 1.1.66 1.7.02.62-1.72.82-3.07.82-1.34 0-3.66.35-3.66.35l1.01.65z"/></g><radialGradient id="m" cx=".5" cy=".5" r=".5" fx=".5" fy=".5" gradientTransform="matrix(67.264 0 0 22.857 231.25 240.7)" gradientUnits="userSpaceOnUse"><stop offset="0%" stop-color="#ffc8af"/><stop offset="10%" stop-color="#ffc7ad"/><stop offset="20%" stop-color="#ffc5ab"/><stop offset="30%" stop-color="#ffc4a9"/><stop offset="40%" stop-color="#ffc3a7"/><stop offset="50%" stop-color="#ffc1a6"/><stop offset="60%" stop-color="#ffc0a4"/><stop offset="70%" stop-color="#ffbfa2"/><stop offset="80%" stop-color="#ffbea0"/><stop offset="90%" stop-color="#ffbc9e"/><stop offset="100%" stop-color="#ffbb9c"/></radialGradient><path fill="url(#m)" d="M267.68 247.16c-2.92.77-9.99 2.1-17.11 3.34-.94.18-1.89.34-2.83.51-8.48 1.48-16.28 2.74-16.28 2.74l-.02.41v.27l-.19 6.31v1.6s8.5-.43 19.22.32c15 1.07 34.35 1.71 40.76-1.3 3-1.43 5.4-6.1 7.29-11.85l-.1.05-25.04-8.87c-1.82 3.4-3.77 5.96-5.7 6.47z"/><clipPath id="n"><path fill="#FFF" d="M0 0h500v500H0V0z"/></clipPath><g clip-path="url(#n)"><path fill="#F7B094" d="M273.38 240.7l25.04 8.86-1.13 3.35-24.78-10.63.88-1.59z"/><path fill="#FF8578" d="M273.38 240.7c-1.82 3.4-3.77 5.95-5.7 6.46-2.92.77-9.98 2.1-17.11 3.34.08-3.81.2-7.84.37-11.88.68-16.97 1.95-34.07 2.83-35.66 1.43-2.67 5.36-8.47 11.56-9.8l.02.08s-2.14 12.66 10.64 12.66c12.17 0 13.72-11.84 13.83-12.98 6.27.7 15.87 3.84 17.2 16.43.27 2.49.65 5.68 1.15 9.31l-3.95.54s-1.6 17.74-5.7 30.31l-.1.05-25.04-8.87z"/><path fill="#6D4B35" d="M273.13 238.39l10-24.2-7.37 25.17-2.63-.97z"/><path fill="#FF8578" d="M289.82 192.92h-5.44s-7.76 8.52-12.74 8.52-2.3-8.47-2.3-8.47h-2.43a13.74 13.74 0 00-13.65 12.19c-.1.79-.17 1.54-.25 2.23-.53 5.15 20.33 8.9 20.33 8.9l10.75-.6 6.52-12.73 1.3-5.22-2.09-4.82z"/><path fill="#F1F2F2" d="M224.08 406.26c.49 2.6 2.3 4.46 4.9 3.97l34.7-6.47c.88-.16 1.45-1 1.29-1.89l-.57-3.08s-36.5 6.4-40.33 7.45l.01.02z"/><path fill="#3D3D7A" d="M234.4 397.53l1.08-.94 2.04-1.82 1.02-.92 1.76-1.57 1.07-.97 1.42-1.27a.78.78 0 011.03-.02c1.43 1.2 6.04 3.94 14.39-1.23a.8.8 0 011.13.3l5.06 9.7s-36.5 6.39-40.33 7.45c1.26-.78 5.91-4.81 10.34-8.71z"/><path fill="#F1F2F2" d="M169.43 405.92c.07 2.65 1.55 4.76 4.2 4.7l35.29-.86c.9-.02 1.6-.76 1.58-1.66l-.08-3.13s-37.05.5-41 .93l.01.02z"/><path fill="#3D3D7A" d="M181.02 398.94l1.2-.75 2.3-1.47c.4-.26.8-.5 1.16-.75l2-1.27 1.2-.78 1.6-1.03a.78.78 0 011.03.14c1.21 1.41 5.33 4.85 14.4 1.08a.8.8 0 011.07.48l3.44 10.38s-37.05.5-41 .93c1.37-.57 6.6-3.81 11.6-6.96z"/><path fill="#ABB5BA" d="M144.33 262.35l-18.85-50.27h53.66l18.84 50.27h-53.65z"/><path fill="#8495A0" d="M201.3 262.35h-3.32l-18.84-50.27 3 .14 17.44 45.5 1.72 4.63z"/><path fill="#8495A0" d="M200.26 262.35h35.45l-.1-3.17h-36.08M351.3 412.17h-8.53V271.93h8.53v140.24z"/><path fill="#ABB5BA" d="M304.97 412.17h-8.54V271.93h8.54v140.24z"/><path fill="#8495A0" d="M156.53 412.17h-8.54V271.93h8.54v140.24z"/><path fill="#ABB5BA" d="M110.2 412.17h-8.54V271.93h8.54v140.24z"/><path fill="#141B56" d="M359.84 272.46H93.48a4.15 4.15 0 01-4.15-4.14v-1.82c0-2.3 1.86-4.15 4.15-4.15h266.36c2.3 0 4.15 1.85 4.15 4.14v1.83c0 2.29-1.86 4.14-4.15 4.14z"/><path fill="#8495A0" d="M134.44 217.37l.92 2.44h10.69l-.92-2.44h-10.69z"/><path fill="#E8987C" d="M240.89 229.24l-.77 1.48 10.82 11.18v-3.28l-10.05-9.38z"/><path fill="#A5B7C6" d="M461.66 420.23H29.74v-9.87h431.92v9.87z"/></g><linearGradient id="o" x1=".5" x2=".5" y1="0" y2="1" gradientTransform="matrix(26.426 0 0 63.301 370.66 298.77)" gradientUnits="userSpaceOnUse"><stop offset="0%" stop-color="#606bf1"/><stop offset="10%" stop-color="#5f67e9"/><stop offset="20%" stop-color="#5e64e1"/><stop offset="30%" stop-color="#5e60d8"/><stop offset="40%" stop-color="#5d5dd0"/><stop offset="50%" stop-color="#5c59c8"/><stop offset="60%" stop-color="#5b55c0"/><stop offset="70%" stop-color="#5a52b8"/><stop offset="80%" stop-color="#5a4eaf"/><stop offset="90%" stop-color="#594ba7"/><stop offset="100%" stop-color="#58479f"/></linearGradient><path fill="url(#o)" d="M373.04 325.9c-.38 3.23-.67 6.46-1.02 9.68-.32 2.98-1.33 6.28-1.36 9.24-.04 3.73.5 10.26 2.76 13.34 1.72 2.35 4.58 4.41 7.55 3.8 11.01-2.24 10.5-16.42 12.21-24.75.92-4.43 1.55-9 2.66-13.38.75-2.96 1.77-6.1.93-9.19a38.02 38.02 0 00-1.86-5.17c-1.6-3.66-3.4-6.89-4.2-10.7-10.25 5.8-16.32 15.53-17.67 27.13z"/><clipPath id="p"><path fill="#FFF" d="M0 0h500v500H0V0z"/></clipPath><g clip-path="url(#p)"><path fill="#747DED" d="M379.1 362.25l.26-2.1c1.32 0 2.69-.75 3.8-1.32 1.9-1 3.46-2.42 4.97-3.94.08-.08-.06-.21-.14-.14a22.43 22.43 0 01-4.85 3.31c-1 .47-2.45 1.23-3.68 1.37l.38-2.5c1.37-.16 2.63-1.06 3.79-1.75 1.97-1.17 3.67-2.68 5.43-4.14.02-.02 0-.05-.03-.03-2.69 1.95-5.68 4.73-9.09 5.34.19-1.04.38-2.08.6-3.1 0-.06.02-.11.03-.17 3.94-1 6.6-4.08 9.61-6.58.05-.04 0-.12-.05-.08-2.97 2.3-5.76 4.93-9.43 6.05l.98-4.4c3.56-1.32 6.4-3.41 8.9-6.32.04-.05-.03-.11-.07-.07-2.58 2.69-5.42 4.22-8.69 5.75.33-1.45.66-2.9.97-4.36 1.54-.76 3.16-1.22 4.59-2.22 1.4-.98 2.66-2.15 3.56-3.62.05-.07-.06-.15-.12-.07-1.99 2.86-5 3.76-7.9 5.26.29-1.36.55-2.72.79-4.09 3.23-1.78 6.75-3.43 8.58-6.85.02-.03-.03-.06-.05-.03-1.94 3.14-5.34 4.49-8.42 6.2l.12-.73.57-3.82a31.1 31.1 0 005.3-2.89c1.2-.77 2.46-1.54 3.24-2.75.05-.08-.06-.15-.12-.08-1.73 2.49-5.53 3.92-8.34 5.17l.55-3.86c3.11-1.88 6.78-2.93 8.7-6.32.05-.1-.1-.2-.16-.1-1.99 3.1-5.48 4.06-8.46 5.82l.35-2.38c3.37-1.24 7.28-4.06 9.05-7.1.1-.17-.14-.32-.25-.16a18.88 18.88 0 01-8.7 6.62c.2-1.29.4-2.57.64-3.86a.39.39 0 00.05-.11c1.5-.45 3-1.51 4.3-2.32 1.58-.97 3.08-2.1 4.05-3.69.11-.17-.17-.34-.27-.16-1.5 2.67-5.05 4.46-7.98 5.48a84.63 84.63 0 01.69-3.5c1.2-.84 2.73-1.23 3.93-2.1a22.4 22.4 0 002.87-2.62c.09-.1-.05-.23-.14-.14a18.94 18.94 0 01-3.95 3.03c-.83.44-1.78.7-2.58 1.19l.69-3.44h.09c.08.02.15-.01.2-.06 1.63-.41 2.88-1.82 3.98-3.02.02-.02-.02-.07-.05-.04-1.15 1.07-2.46 2.25-4 2.7h-.02l-.12-.02c.18-.93.35-1.87.5-2.8.13-.02.23-.12.2-.24.87-.58 1.66-1.32 2.4-2.05.05-.05-.03-.14-.09-.09a13.9 13.9 0 01-2.39 1.69c.3-1.93.54-3.88.65-5.84.01-.18-.26-.18-.28 0a69.1 69.1 0 01-.77 5.62c-.9-1.19-1.9-2.4-2.45-3.76-.03-.07-.14-.04-.12.04.27.84.74 1.57 1.2 2.32.4.67.74 1.45 1.26 2.04-.18 1-.38 2-.58 3a5.5 5.5 0 01-3-1.19 5.45 5.45 0 01-1.86-3.75c-.01-.18-.3-.18-.28 0a6.22 6.22 0 001.6 3.66c.98 1.07 2.13 1.4 3.45 1.68l-.74 3.44c-1-.6-1.92-1.37-2.82-2.09-1.44-1.15-2.3-2.54-3.56-3.84-.12-.13-.33.06-.2.19 1.17 1.25 1.97 2.6 3.31 3.73.97.81 2.03 1.83 3.18 2.43l-.04.18-.04.03c-.08.09-.08.19-.02.26l-.72 3.3-.04.2c-2.56-1.17-6.39-3.2-6.73-6.18-.03-.28-.45-.2-.39.09.76 3.36 4.46 4.85 7 6.69-.25 1.24-.48 2.49-.69 3.74a15.16 15.16 0 01-4.62-2.38c-1.26-1-3.05-2.21-3.62-3.77-.01-.05-.08-.02-.07.03.53 1.55 2.13 2.61 3.3 3.67 1.48 1.34 3 2.47 4.9 3.01a190.6 190.6 0 00-.38 2.55c-3.12-.24-7.47-2.6-9.06-4.95h-.02c1.09 1.8 2.73 2.85 4.58 3.76 1.38.68 2.87 1.49 4.43 1.6l-.66 4.42c-1.35-.5-2.78-.74-4.11-1.27-1.99-.8-3.5-2.23-4.68-3.98-.06-.1-.24-.02-.17.1 2.15 3.42 5.25 4.42 8.88 5.7-.18 1.21-.37 2.42-.57 3.62-2.97-.57-6.81-2.38-8.32-4.96-.1-.19-.4-.03-.3.16.95 1.65 2.59 2.7 4.26 3.54 1.2.6 2.85 1.61 4.29 1.72l-.02.12c-.3 1.74-.64 3.46-1.01 5.18-3.32-.83-5.46-3.29-7.88-5.6-.16-.15-.43.1-.26.26 2.46 2.41 4.62 4.95 8.03 5.85-.3 1.4-.63 2.8-.97 4.19a15.33 15.33 0 01-7.45-5.1c-.13-.17-.36.05-.24.21a16.5 16.5 0 007.56 5.43l-1.13 4.47c-2.9-.44-5.14-2.26-6.93-4.56-.04-.05-.13.02-.1.08 1.6 2.2 4 4.76 6.89 5.03l-.37 1.42-.23.88c-2.19-.65-4.22-1.44-6.03-2.91-.05-.04-.1.04-.06.08a15.73 15.73 0 005.97 3.26l-.75 2.76c-.55-.26-1.07-.53-1.67-.71-1.09-.33-1.8-1.02-2.74-1.59-.09-.05-.19.07-.1.13.83.54 1.42 1.24 2.37 1.6.7.26 1.37.6 2.05.9-1 3.72-1.89 7.68-1.4 11.25.1.79 1.43 1 1.63.16.63-2.6.6-5.36.9-8z"/></g><linearGradient id="q" x1=".01" x2=".93" y1=".05" y2=".96" gradientTransform="matrix(29.082 0 0 62.498 333.31 301.02)" gradientUnits="userSpaceOnUse"><stop offset="0%" stop-color="#606bf1"/><stop offset="10%" stop-color="#5f67e9"/><stop offset="20%" stop-color="#5e64e1"/><stop offset="30%" stop-color="#5e60d8"/><stop offset="40%" stop-color="#5d5dd0"/><stop offset="50%" stop-color="#5c59c8"/><stop offset="60%" stop-color="#5b55c0"/><stop offset="70%" stop-color="#5a52b8"/><stop offset="80%" stop-color="#5a4eaf"/><stop offset="90%" stop-color="#594ba7"/><stop offset="100%" stop-color="#58479f"/></linearGradient><path fill="url(#q)" d="M335.29 333.08c1.02 3.08 2.12 6.13 3.17 9.2.96 2.84 1.44 6.26 2.66 8.95 1.54 3.4 4.78 9.09 8.13 10.93 2.56 1.41 6.02 2.07 8.45.26 9.04-6.68 2.59-19.32.63-27.59-1.04-4.4-2.4-8.81-3.24-13.25-.57-3.01-.97-6.27-3.04-8.72a38.15 38.15 0 00-3.87-3.91c-2.99-2.65-5.99-4.8-8.32-7.93-6.85 9.59-8.24 20.97-4.57 32.06z"/><clipPath id="r"><path fill="#FFF" d="M0 0h500v500H0V0z"/></clipPath><g clip-path="url(#r)"><path fill="#747DED" d="M356.13 363.47l-.65-2.01c1.2-.56 2.12-1.81 2.88-2.8a20.15 20.15 0 002.85-5.67c.03-.1-.14-.17-.2-.07a22.43 22.43 0 01-2.98 5.05c-.71.84-1.71 2.14-2.76 2.8-.25-.8-.48-1.62-.7-2.43 1.16-.73 1.92-2.07 2.68-3.19 1.3-1.9 2.2-3.98 3.17-6.04.01-.03-.02-.04-.03-.02-1.62 2.9-3.16 6.69-5.99 8.68a84.4 84.4 0 01-.77-3.07l-.04-.16c3.15-2.56 4.26-6.49 5.94-10.02.03-.06-.06-.12-.09-.06-1.71 3.35-3.13 6.91-5.99 9.47a410.1 410.1 0 01-.97-4.41 21.02 21.02 0 005.4-9.48c.02-.06-.07-.1-.1-.03-1.2 3.52-3.12 6.11-5.44 8.88-.31-1.46-.63-2.91-.96-4.37 1.07-1.33 2.35-2.44 3.22-3.94.86-1.48 1.5-3.08 1.7-4.79.02-.09-.12-.1-.13-.01-.6 3.44-2.95 5.51-4.94 8.1-.32-1.35-.66-2.7-1.02-4.04 2.18-2.98 4.67-5.96 4.9-9.83 0-.04-.06-.05-.07 0-.43 3.66-2.94 6.31-5.02 9.16-.06-.23-.12-.47-.2-.71a279.7 279.7 0 00-1.09-3.7 31.06 31.06 0 003.6-4.85c.74-1.2 1.57-2.44 1.76-3.87.01-.09-.12-.11-.14-.02-.52 2.99-3.36 5.9-5.38 8.2l-1.13-3.72c2.02-3.02 4.9-5.51 5.21-9.4.01-.12-.16-.14-.18-.03-.49 3.66-3.25 6-5.2 8.85l-.7-2.31c2.53-2.54 4.89-6.75 5.21-10.25.02-.2-.27-.24-.3-.04a18.88 18.88 0 01-5.09 9.67 158 158 0 01-1.05-3.76v-.13c1.18-1.04 2.09-2.64 2.93-3.91 1.01-1.55 1.9-3.2 2.11-5.06.02-.2-.3-.23-.32-.02-.23 3.04-2.69 6.16-4.92 8.32l-.35-1.38-.5-2.08c.73-1.26 1.95-2.27 2.67-3.57a22.18 22.18 0 001.5-3.58c.04-.12-.14-.2-.19-.07a18.92 18.92 0 01-2.3 4.42c-.56.75-1.31 1.38-1.84 2.16l-.82-3.4.04-.03h.04a.21.21 0 00.15-.15c1.31-1.06 1.85-2.86 2.34-4.42.01-.03-.04-.05-.06-.01-.59 1.45-1.28 3.07-2.49 4.13h-.01a2.9 2.9 0 01-.12.04c-.23-.92-.47-1.84-.72-2.75.1-.07.15-.2.07-.3.54-.9.94-1.9 1.3-2.87.03-.07-.07-.12-.1-.04-.42.92-.88 1.74-1.46 2.54a57.48 57.48 0 00-1.87-5.57c-.07-.17-.32-.06-.26.11.64 1.79 1.18 3.6 1.67 5.42-1.31-.69-2.74-1.37-3.8-2.36-.06-.06-.15.02-.1.07.6.65 1.33 1.12 2.06 1.6.66.44 1.29 1 2.01 1.32.26.99.5 1.97.74 2.96a5.5 5.5 0 01-3.22.2 5.45 5.45 0 01-3.26-2.62c-.1-.16-.35-.04-.26.12a6.22 6.22 0 003 2.64c1.33.55 2.52.38 3.83.07l.79 3.43c-1.16-.12-2.33-.44-3.44-.7-1.8-.44-3.16-1.34-4.85-1.99-.17-.06-.28.2-.11.26 1.6.64 2.9 1.54 4.58 1.99 1.22.33 2.61.8 3.9.86l.05.18-.02.04c-.05.12 0 .2.08.25l.75 3.29.05.2c-2.82.02-7.15-.21-8.71-2.76-.15-.24-.5 0-.32.24 2.1 2.73 6.09 2.52 9.17 3.1.3 1.24.61 2.47.95 3.7-1.74.18-3.46.2-5.19-.21-1.57-.38-3.7-.72-4.87-1.9-.04-.03-.1.03-.06.06 1.13 1.19 3.04 1.47 4.54 1.94 1.9.59 3.76.98 5.71.66.01.06.04.11.07.15l.66 2.33c-2.92 1.1-7.86.79-10.3-.67 0-.01-.02 0 0 .01 1.74 1.17 3.67 1.43 5.73 1.48 1.53.03 3.22.13 4.7-.42.4 1.43.84 2.85 1.26 4.28-1.44.12-2.84.5-4.27.58-2.14.12-4.12-.54-5.92-1.64-.1-.06-.23.1-.12.17 3.4 2.19 6.63 1.8 10.47 1.42.34 1.18.68 2.35 1 3.53-2.93.73-7.18.71-9.63-1-.18-.12-.38.15-.2.28 1.56 1.1 3.48 1.35 5.35 1.41 1.34.05 3.27.26 4.61-.25l.04.12c.46 1.7.88 3.4 1.27 5.12-3.36.65-6.34-.68-9.5-1.75-.22-.07-.36.26-.13.34 3.24 1.16 6.27 2.55 9.74 1.91.32 1.4.61 2.8.9 4.21-2.9.48-6.29-.16-8.92-1.48-.18-.09-.3.2-.12.3a16.49 16.49 0 009.14 1.73c.3 1.5.58 3.02.87 4.53-2.82.83-5.62.12-8.2-1.2-.07-.04-.12.07-.06.1 2.37 1.33 5.63 2.63 8.36 1.66l.27 1.44.16.9c-2.26.33-4.44.48-6.7-.1-.06-.01-.08.08-.02.1 2.21.68 4.52.75 6.8.44.15.91.3 1.86.47 2.81-.6 0-1.2-.02-1.8.06-1.13.17-2.06-.16-3.16-.28-.1 0-.14.14-.04.16.99.14 1.81.53 2.82.45.75-.05 1.5-.03 2.24-.04.66 3.8 1.53 7.75 3.47 10.78.44.68 1.73.3 1.56-.54-.52-2.62-1.72-5.11-2.57-7.63z"/></g><linearGradient id="s" x1=".18" x2=".83" y1=".03" y2=".98" gradientTransform="matrix(29.372 0 0 79.439 349.38 283.05)" gradientUnits="userSpaceOnUse"><stop offset="0%" stop-color="#606bf1"/><stop offset="10%" stop-color="#5f67e9"/><stop offset="20%" stop-color="#5e64e1"/><stop offset="30%" stop-color="#5e60d8"/><stop offset="40%" stop-color="#5d5dd0"/><stop offset="50%" stop-color="#5c59c8"/><stop offset="60%" stop-color="#5b55c0"/><stop offset="70%" stop-color="#5a52b8"/><stop offset="80%" stop-color="#5a4eaf"/><stop offset="90%" stop-color="#594ba7"/><stop offset="100%" stop-color="#58479f"/></linearGradient><path fill="url(#s)" d="M349.81 320.96c.53 3.98 1.17 7.94 1.72 11.91.52 3.68.3 7.94 1.17 11.5 1.08 4.5 3.7 12.16 7.35 15.17 2.78 2.3 6.84 3.9 10.22 2.28 12.53-6.03 7.61-22.9 7.15-33.4-.25-5.6-.88-11.27-.87-16.87 0-3.78.27-7.84-1.68-11.3a46.98 46.98 0 00-3.8-5.65c-3.02-3.9-6.17-7.22-8.27-11.56-10.55 10.07-14.88 23.58-12.99 37.92z"/></g></svg>