<svg xmlns="http://www.w3.org/2000/svg" xmlns:xlink="http://www.w3.org/1999/xlink" viewBox="0 0 159.08 182.47"><defs><style>.cls-1{fill:gray;}.cls-1,.cls-51,.cls-63{opacity:0.76;}.cls-2{fill:#eb432e;}.cls-3{fill:#d8381d;}.cls-4{fill:#b22213;}.cls-5{fill:#f9b24f;}.cls-6{fill:#fea621;}.cls-7{fill:#e49123;}.cls-8{fill:#333;}.cls-9{fill:#374246;}.cls-10{fill:#1d2325;}.cls-11{fill:#4d4d4d;}.cls-12{fill:#293033;}.cls-13{fill:#f98d23;}.cls-14{fill:#f7ba20;}.cls-15{fill:#666;}.cls-16{fill:#ede8e4;}.cls-17{fill:#e1d1c7;}.cls-18{fill:#e7d9d0;}.cls-19{fill:#f67b40;}.cls-20{fill:#f69d6f;}.cls-21{fill:#465157;}.cls-22{fill:#293236;}.cls-23{fill:#343f42;}.cls-24{fill:#201f23;}.cls-25{fill:#303438;}.cls-26{fill:#1e2022;}.cls-27{fill:#303337;}.cls-28{fill:#2b2e31;}.cls-29{fill:#303437;}.cls-30{fill:url(#linear-gradient);}.cls-31{fill:#aebfcd;}.cls-32,.cls-59,.cls-62{fill:#fff;}.cls-33{fill:#184369;}.cls-34{fill:#abbecd;}.cls-35{fill:#e9ebec;}.cls-36{fill:none;stroke:#13304a;stroke-linecap:round;stroke-linejoin:round;stroke-width:0.25px;}.cls-37{fill:#13304a;}.cls-38{fill:url(#linear-gradient-2);}.cls-39{fill:url(#linear-gradient-3);}.cls-40{fill:url(#linear-gradient-4);}.cls-41{fill:url(#linear-gradient-5);}.cls-42{fill:#263238;}.cls-43{fill:#19426a;}.cls-44{fill:#83cce1;}.cls-45{fill:#edf0f1;}.cls-46{fill:#112d44;}.cls-47{fill:#184169;}.cls-48{fill:#98d8e4;}.cls-49{fill:#62afc1;}.cls-50{fill:#f4c043;}.cls-52{fill:#79b5bc;}.cls-53{fill:#95d7e4;}.cls-54{opacity:0.77;}.cls-55,.cls-57{fill:#80c41c;}.cls-55{opacity:0.4;}.cls-56{fill:#73ac1e;}.cls-58{fill:#cad4e7;opacity:0.3;}.cls-59{opacity:0.1;}.cls-60{fill:#9b9fa3;}.cls-61{fill:#b8bec7;}.cls-62{opacity:0.2;}.cls-63{fill:#2cb0cf;}.cls-64{fill:#303f98;}.cls-65{fill:url(#Degradado_sin_nombre_9);}</style><linearGradient id="linear-gradient" x1="355.26" y1="113.61" x2="376.09" y2="95.46" gradientTransform="translate(-227.86)" gradientUnits="userSpaceOnUse"><stop offset="0" stop-color="#2cb0cf"/><stop offset="0.28" stop-color="#76c8db"/><stop offset="0.7" stop-color="#eaeded"/></linearGradient><linearGradient id="linear-gradient-2" x1="357.74" y1="161.41" x2="353.05" y2="63.45" gradientTransform="translate(-227.86)" gradientUnits="userSpaceOnUse"><stop offset="0" stop-color="#cc646f"/><stop offset="0.11" stop-color="#cf717b"/><stop offset="0.3" stop-color="#d7949b"/><stop offset="0.56" stop-color="#e3cccf"/><stop offset="0.7" stop-color="#eaeded"/></linearGradient><linearGradient id="linear-gradient-3" x1="-56.64" y1="-50.17" x2="8.99" y2="-158.36" gradientTransform="matrix(0.86, -0.52, 0.52, 0.86, 192.75, 192.22)" gradientUnits="userSpaceOnUse"><stop offset="0" stop-color="#cc646f"/><stop offset="0.38" stop-color="#dcadb2"/><stop offset="0.7" stop-color="#eaeded"/></linearGradient><linearGradient id="linear-gradient-4" x1="-39.47" y1="-93.06" x2="-29.7" y2="-109.17" xlink:href="#linear-gradient-3"/><linearGradient id="linear-gradient-5" x1="129.5" y1="89.62" x2="125.39" y2="96.72" gradientUnits="userSpaceOnUse"><stop offset="0" stop-color="#cd8b8c"/><stop offset="0.04" stop-color="#d09596"/><stop offset="0.21" stop-color="#d9b4b5"/><stop offset="0.39" stop-color="#e1cdce"/><stop offset="0.58" stop-color="#e6dfdf"/><stop offset="0.77" stop-color="#e9eaea"/><stop offset="1" stop-color="#eaeded"/></linearGradient><linearGradient id="Degradado_sin_nombre_9" x1="12.49" y1="34.67" x2="81.26" y2="34.67" gradientTransform="matrix(1.08, -0.13, 0.06, 0.92, -13.2, 22.19)" gradientUnits="userSpaceOnUse"><stop offset="0" stop-color="#3c6cab"/><stop offset="1" stop-color="#6cb6d3"/></linearGradient></defs><title>Asset 1</title><g id="Layer_2" data-name="Layer 2"><g id="Layer_1-2" data-name="Layer 1"><path class="cls-1" d="M42.46,154.64,94,173.76l3.57-2,23.57,9.48a17.26,17.26,0,0,0,14.35-.67l6.15-3.17a8.76,8.76,0,0,0-.84-15.94l-13.42-5.22,31.68-16.62-52.23-17.7Z"/><polygon class="cls-2" points="91.17 12.95 72.85 22.23 52.68 13.98 70.81 4.79 91.17 12.95"/><polygon class="cls-3" points="91.17 111.59 72.85 120.87 72.85 22.23 91.17 12.95 91.17 111.59"/><polygon class="cls-4" points="72.85 120.87 52.68 112.63 52.68 13.98 72.85 22.23 72.85 120.87"/><polygon class="cls-5" points="64.47 54.1 46.14 63.38 25.97 55.13 44.1 45.94 64.47 54.1"/><polygon class="cls-6" points="64.47 124.33 46.14 133.6 46.14 63.38 64.47 54.1 64.47 124.33"/><polygon class="cls-7" points="46.14 133.6 25.97 125.36 25.97 55.13 46.14 63.38 46.14 133.6"/><path class="cls-8" d="M112.89,149.39a9,9,0,0,1-.11,3.38,2.46,2.46,0,0,1-3.38.65,34.38,34.38,0,0,1-3.27-3s-3.49-1.85-3.81-2.84.87-1.85,1.85-1.63,3.82,2,5.12,2S112.46,148.19,112.89,149.39Z"/><path class="cls-8" d="M104.66,156.81a.75.75,0,0,1,.27.59,6.74,6.74,0,0,1-.41,2.83,2.93,2.93,0,0,1-3.79.71,80.75,80.75,0,0,1-6.65-4.73,2.6,2.6,0,0,1-.87-1.39.79.79,0,0,1,.44-.92,3.85,3.85,0,0,1,2.61-.3c1.44.49,3.26,2.05,5.22,2A4.79,4.79,0,0,1,104.66,156.81Z"/><polygon class="cls-9" points="145 138.79 145 105.01 147.85 104.51 147.85 137.4 145 138.79"/><polygon class="cls-10" points="145 138.79 141.98 137.52 141.98 106.85 145 106.86 145 138.79"/><path class="cls-11" d="M126.24,119.72l9.63,2.8,5,3.57s2.95,3.26,1.87,10.33c-.46,3-8.54,7.84-16.62,3.65s-7.49-13.62-9.78-13.2c-3.8.7-3.42,11.49-3.42,17.08l-.1,4.26a2.36,2.36,0,0,1-2.51,2.3,4,4,0,0,1-3.91-2.52c-1.24-3.58-2.45-24.89-.93-26.56S110.86,113.05,126.24,119.72Z"/><path class="cls-12" d="M145.65,140.3v2.79a6.57,6.57,0,0,1-4.17,4.76c-3.62,1.37-4.34,2.61-4.34,2.61a19.06,19.06,0,0,1-14.09,2.68c-6.52-1.49-13.57-7.67-15.7-9.65a2.09,2.09,0,0,1-.66-1.56c0-.62.09-1.61.24-3.18C107.41,134,145.65,140.3,145.65,140.3Z"/><path class="cls-13" d="M145.71,137.5v2.8a6.55,6.55,0,0,1-4.17,4.75c-3.62,1.37-4.34,2.62-4.34,2.62a19.06,19.06,0,0,1-14.09,2.68c-6.52-1.5-13.57-7.67-15.7-9.65a2.11,2.11,0,0,1-.66-1.57c0-.62.08-1.61.24-3.17C107.47,131.24,145.71,137.5,145.71,137.5Z"/><path class="cls-14" d="M142.43,133.46s6.13,3.33,1.43,7.79-12.37,7.07-15.46,7.07a20.89,20.89,0,0,1-14-4.52c-6.19-4.57-8.39-6.71-7-8.32s15.22-8.56,17.25-7.61S137.68,130.31,142.43,133.46Z"/><path class="cls-11" d="M140.83,126.09l-5-3.57-.82-.24v19.2c4.24-.73,7.37-3.26,7.65-5.06C143.78,129.35,140.83,126.09,140.83,126.09Z"/><path class="cls-15" d="M118.16,127.26l9.63,2.79,7.14,1.71s5.36-.39,2.8,7.76c-.9,2.85-6.21,7.61-14.29,3.42s-12.92-9-15.22-8.54c-3.8.7-3.41,11.49-3.41,17.08l-.11,4.26a2.36,2.36,0,0,1-2.51,2.3,4,4,0,0,1-3.9-2.52C97,152,95.83,130.64,97.35,129S102.79,120.58,118.16,127.26Z"/><polygon class="cls-16" points="45.65 119.72 87.57 135.1 156.21 100 114.28 85.33 45.65 119.72"/><polygon class="cls-9" points="58.64 154.72 58.64 125.16 61.49 126.21 61.49 153.32 58.64 154.72"/><polygon class="cls-10" points="58.64 154.72 55.62 153.45 55.62 124.46 58.64 125.16 58.64 154.72"/><polygon class="cls-9" points="92.79 168.65 92.79 134.88 95.64 132.95 95.64 167.26 92.79 168.65"/><polygon class="cls-10" points="92.79 168.65 89.77 167.38 89.77 136.72 92.79 135.09 92.79 168.65"/><polygon class="cls-17" points="45.6 119.72 45.6 122.87 87.57 138.43 87.57 135.1 45.6 119.72"/><polygon class="cls-18" points="87.59 135.09 156.21 100 156.21 103.21 87.59 138.43 87.59 135.09"/><path class="cls-19" d="M132.14,87.21s-.65,3.81,0,5.56c.11.87-3.71,3.81-7.09,3-2-.44-1.85-1.42-1.85-1.42a10.4,10.4,0,0,0,1.42-5.34C124.4,86.44,129.85,86.66,132.14,87.21Z"/><path class="cls-20" d="M119.52,78.41a9,9,0,1,0,9-9A9,9,0,0,0,119.52,78.41Z"/><path class="cls-20" d="M119.52,79s-.11,9,1.85,10.83,5-1.71,9.79-2.83-3.9-10.61-3.9-10.61Z"/><polygon class="cls-21" points="138.45 135.12 138.45 150.94 141.78 149.1 141.78 133.1 138.45 135.12"/><polygon class="cls-12" points="138.45 150.94 137.41 150.12 137.41 135.72 138.45 135.12 138.45 150.94"/><polygon class="cls-21" points="126.73 168.61 126.73 153.53 129.6 153.36 129.6 166.89 126.73 168.61"/><path class="cls-22" d="M118.31,167.14l-1.12-.61A.79.79,0,0,1,117,166c0-.24,0-1.08.39-1.22s1.31.48,1.31.48Z"/><ellipse class="cls-23" cx="118.97" cy="166.15" rx="1.21" ry="0.78" transform="translate(-82.77 198.7) rotate(-63.56)"/><polygon class="cls-24" points="124.16 153.33 126.73 153.53 126.73 168.61 124.18 167.14 124.16 153.33"/><polygon class="cls-25" points="119.61 161.58 124.21 164.23 124.21 167.14 117.01 163.01 119.61 161.58"/><polygon class="cls-26" points="117.01 163.01 117.01 165.46 122.02 168.34 124.21 167.14 117.01 163.01"/><polygon class="cls-27" points="124.21 167.14 126.73 168.61 119.63 172.65 117.07 171.13 124.21 167.14"/><path class="cls-22" d="M118.69,176.17l1.3-.76s.21-.62,0-.94-2.15-.41-2.15-.41Z"/><polygon class="cls-28" points="126.73 168.61 126.73 171.04 119.61 175.13 119.61 172.65 126.73 168.61"/><ellipse class="cls-23" cx="118.08" cy="175.12" rx="0.78" ry="1.21" transform="translate(-71.74 82.5) rotate(-30)"/><path class="cls-22" d="M135,167.25l1.3-.76s.21-.62,0-.94-2.15-.41-2.15-.41Z"/><ellipse class="cls-23" cx="134.41" cy="166.2" rx="0.78" ry="1.21" transform="matrix(0.87, -0.5, 0.5, 0.87, -65.09, 89.47)"/><path class="cls-22" d="M134.75,176l-1.12-.61a.51.51,0,0,1-.14-.55c.1-.34,1.69-.74,1.69-.74Z"/><polygon class="cls-26" points="117.07 171.13 119.61 172.65 119.61 175.13 117.07 173.67 117.07 171.13"/><polygon class="cls-26" points="126.73 168.61 126.73 171.04 133.71 175.01 133.71 172.58 126.73 168.61"/><ellipse class="cls-23" cx="135.42" cy="175.04" rx="1.21" ry="0.78" transform="translate(-81.61 218.36) rotate(-63.56)"/><polygon class="cls-29" points="129.44 167.01 126.73 168.61 133.71 172.58 136.41 171.13 129.44 167.01"/><polygon class="cls-28" points="133.71 172.58 136.41 171.13 136.41 173.6 133.71 175.01 133.71 172.58"/><polygon class="cls-29" points="129.6 163.98 129.6 166.89 136.26 163.01 133.68 161.61 129.6 163.98"/><polygon class="cls-28" points="136.26 163.01 136.26 165.54 131.51 168.27 129.44 167.01 136.26 163.01"/><path class="cls-30" d="M136.22,94s5.5,3.17,6.34,17.66c-.7,2.68-4.93,4.09-8.16,2S134.52,96.41,136.22,94Z"/><path class="cls-31" d="M81.54,116.5l-.05,1.11s-.08.25.37.58S91,124.08,91,124.08a2.31,2.31,0,0,0,2,.11c1.13-.41,28.38-14.86,28.38-14.86s.42-.2.43-1.06c0-.71-29.4,13.54-29.4,13.54Z"/><path class="cls-32" d="M82,117.28l9.23,6a3.31,3.31,0,0,0,2,0c1.13-.35,28.63-14.93,28.63-14.93l-10-6.31a1.39,1.39,0,0,0-1.38-.2c-.9.27-28.1,14.11-28.1,14.11S81.13,116.53,82,117.28Z"/><polygon class="cls-33" points="83.12 116.74 84.74 115.92 86.31 116.87 84.7 117.69 83.12 116.74"/><polygon class="cls-33" points="86.14 115.24 87.76 114.42 89.33 115.37 87.73 116.19 86.14 115.24"/><polygon class="cls-33" points="88.08 114.28 89.71 113.47 91.28 114.42 89.65 115.22 88.08 114.28"/><polygon class="cls-33" points="90.03 113.33 91.65 112.51 93.22 113.46 91.61 114.27 90.03 113.33"/><polygon class="cls-33" points="91.97 112.37 93.59 111.55 95.16 112.5 93.57 113.31 91.97 112.37"/><polygon class="cls-33" points="93.91 111.42 95.53 110.6 97.1 111.55 95.51 112.37 93.91 111.42"/><polygon class="cls-33" points="95.85 110.46 97.47 109.64 99.04 110.59 97.42 111.39 95.85 110.46"/><polygon class="cls-33" points="97.79 109.5 99.41 108.69 100.98 109.64 99.35 110.43 97.79 109.5"/><polygon class="cls-33" points="99.73 108.55 101.36 107.73 102.92 108.68 101.29 109.47 99.73 108.55"/><polygon class="cls-33" points="101.67 107.59 103.3 106.77 104.87 107.72 103.26 108.53 101.67 107.59"/><polygon class="cls-33" points="103.61 106.64 105.24 105.82 106.81 106.77 105.18 107.57 103.61 106.64"/><polygon class="cls-33" points="105.56 105.68 107.18 104.86 108.75 105.81 107.12 106.61 105.56 105.68"/><polygon class="cls-33" points="107.5 104.72 109.12 103.91 110.69 104.86 109.07 105.64 107.5 104.72"/><polygon class="cls-33" points="109.44 103.77 111.06 102.95 112.63 103.9 111.04 104.71 109.44 103.77"/><polygon class="cls-33" points="89.36 115.73 90.98 114.91 92.55 115.86 90.92 116.66 89.36 115.73"/><polygon class="cls-33" points="91.3 114.77 92.92 113.95 94.49 114.9 92.89 115.71 91.3 114.77"/><polygon class="cls-33" points="93.24 113.81 94.86 113 96.43 113.95 94.84 114.75 93.24 113.81"/><polygon class="cls-33" points="95.18 112.86 96.8 112.04 98.37 112.99 96.78 113.82 95.18 112.86"/><polygon class="cls-33" points="97.12 111.9 98.74 111.08 100.31 112.03 98.69 112.83 97.12 111.9"/><polygon class="cls-33" points="99.06 110.95 100.69 110.13 102.26 111.08 100.62 111.87 99.06 110.95"/><polygon class="cls-33" points="101 109.99 102.63 109.17 104.2 110.12 102.56 110.91 101 109.99"/><polygon class="cls-33" points="107.29 106.88 108.91 106.06 110.48 107.01 108.86 107.81 107.29 106.88"/><polygon class="cls-33" points="109.23 105.92 110.85 105.1 112.42 106.05 110.8 106.84 109.23 105.92"/><polygon class="cls-33" points="110.92 106.96 112.55 106.14 114.11 107.09 112.49 107.88 110.92 106.96"/><polygon class="cls-33" points="111.17 104.96 112.79 104.14 114.36 105.1 112.77 105.9 111.17 104.96"/><polygon class="cls-33" points="109.05 107.92 110.67 107.1 112.24 108.05 110.61 108.85 109.05 107.92"/><polygon class="cls-33" points="112.93 106 114.55 105.19 116.12 106.14 114.53 106.94 112.93 106"/><polygon class="cls-33" points="90.04 117.36 91.66 116.55 93.23 117.5 91.61 118.3 90.04 117.36"/><polygon class="cls-33" points="91.98 116.41 93.6 115.59 95.17 116.54 93.57 117.35 91.98 116.41"/><polygon class="cls-33" points="93.92 115.45 95.55 114.63 97.12 115.58 95.52 116.39 93.92 115.45"/><polygon class="cls-33" points="95.86 114.5 97.49 113.68 99.06 114.63 97.46 115.46 95.86 114.5"/><polygon class="cls-33" points="97.81 113.54 99.43 112.72 101 113.67 99.37 114.47 97.81 113.54"/><polygon class="cls-33" points="99.75 112.58 101.37 111.77 102.94 112.72 101.3 113.51 99.75 112.58"/><polygon class="cls-33" points="101.69 111.63 103.31 110.81 104.88 111.76 103.25 112.55 101.69 111.63"/><polygon class="cls-33" points="103.63 110.67 105.25 109.86 106.82 110.81 105.22 111.62 103.63 110.67"/><polygon class="cls-33" points="105.57 109.72 107.19 108.9 108.77 109.85 107.14 110.66 105.57 109.72"/><polygon class="cls-33" points="92.68 118.1 94.31 117.28 95.88 118.23 94.25 119.03 92.68 118.1"/><polygon class="cls-33" points="94.63 117.14 96.25 116.32 97.82 117.27 96.22 118.08 94.63 117.14"/><polygon class="cls-33" points="96.57 116.19 98.19 115.37 99.76 116.32 98.17 117.13 96.57 116.19"/><polygon class="cls-33" points="98.51 115.23 100.13 114.41 101.7 115.36 100.11 116.19 98.51 115.23"/><polygon class="cls-33" points="100.39 114.22 102.01 113.41 103.58 114.36 101.95 115.16 100.39 114.22"/><polygon class="cls-33" points="102.33 113.27 103.95 112.45 105.52 113.4 103.88 114.2 102.33 113.27"/><polygon class="cls-33" points="104.27 112.31 105.89 111.5 107.46 112.44 105.83 113.24 104.27 112.31"/><polygon class="cls-33" points="106.23 111.36 107.86 110.54 109.43 111.49 107.82 112.3 106.23 111.36"/><polygon class="cls-33" points="112.53 108.02 114.15 107.21 115.72 108.16 114.13 108.97 112.53 108.02"/><polygon class="cls-33" points="114.24 109.11 115.86 108.29 117.43 109.24 115.84 110.05 114.24 109.11"/><polygon class="cls-33" points="116.04 108.19 117.67 107.37 119.24 108.32 117.64 109.13 116.04 108.19"/><polygon class="cls-33" points="112.48 110.05 114.1 109.23 115.67 110.19 114.08 110.99 112.48 110.05"/><polygon class="cls-33" points="86.76 119.05 89.66 117.57 91.07 118.5 88.21 119.98 86.76 119.05"/><polygon class="cls-33" points="90.23 121.37 93.12 119.9 94.54 120.83 91.67 122.3 90.23 121.37"/><polygon class="cls-33" points="93.31 119.8 96.21 118.32 97.62 119.25 94.76 120.73 93.31 119.8"/><polygon class="cls-33" points="96.4 118.22 99.3 116.75 100.71 117.67 97.84 119.15 96.4 118.22"/><polygon class="cls-33" points="85.08 117.92 86.47 118.88 90.33 116.88 88.89 115.95 85.08 117.92"/><polygon class="cls-33" points="88.54 120.27 89.94 121.23 93.79 119.23 92.35 118.29 88.54 120.27"/><polygon class="cls-33" points="103.07 109.01 104.56 109.95 108.47 107.95 106.98 107.02 103.07 109.01"/><polygon class="cls-33" points="107.3 108.73 108.81 107.94 112.16 110.02 109.75 111.28 108.21 110.34 109.16 109.9 107.3 108.73"/><polygon class="cls-33" points="99.58 116.66 100.94 117.53 113.85 111.08 112.39 110.18 99.58 116.66"/><path class="cls-34" d="M112.63,97.05v1.34a4,4,0,0,0,3,2.27,4.88,4.88,0,0,0,3.77-.22s.71-.47.71-1,0-.86,0-.86Z"/><ellipse class="cls-35" cx="116.36" cy="97.87" rx="2.02" ry="3.78" transform="translate(-8.63 184.43) rotate(-74.77)"/><line class="cls-36" x1="114.06" y1="98.9" x2="118.22" y2="96.54"/><line class="cls-36" x1="113.57" y1="96.09" x2="116.21" y2="97.65"/><path class="cls-37" d="M114.58,96.27l-.57.42s1.52,1,1.6,1a4.14,4.14,0,0,0,.51-.4Z"/><path class="cls-38" d="M117.05,129.27c.51,2.58,7.88,3.88,12.19,3.19s8.94-2.8,8.79-7.8c0,0,.65-20,.65-23.88A11.64,11.64,0,0,0,136.22,94s-2.42-2.76-10-1.21c0,0-6.17,1.35-9,5.92,0,0-2,5-1.31,15.48S117.05,129.27,117.05,129.27Z"/><path class="cls-13" d="M147.25,101.29l-2.5-1.37s-3.45-1.31-7.73,1.61-8.32,8.38-8.8,14-.89,11.3-.89,11.3-2.08,8.38,4.1,9.93S147.25,101.29,147.25,101.29Z"/><path class="cls-14" d="M149.9,107.53s.44-9.72-9.1-5.71-10.44,15.08-10.44,15.08-.8,11.95-1,12.4-1.51,7.67,3.66,7.58,14-7.76,14-7.76,4.73-4.64,3.75-12.94S149.9,107.53,149.9,107.53Z"/><path class="cls-20" d="M115.87,115.38s-13.68,1.74-15.62,1.8-4.84-2.26-5.77-2.57-4.25-.27-3.77.31,2.88.83,2.88.83-3,.3-3.34.87a2.91,2.91,0,0,0,0,1.9c.09.68,3.88.6,4.06.76.88.79,2.25,2.09,3.31,2.2a7.68,7.68,0,0,0,2.88-.76s12.34.56,13.85-.23S117.48,117.63,115.87,115.38Z"/><path class="cls-39" d="M119.24,98.08s-2,.54-2.22,4.47-.83,9.23-1.78,10.63-3.5,1.3-4.22,1.74-.6,5,1.14,6.22,7-.76,8.15-1.49,6.18-10.17,5.66-13.47S123.41,95.72,119.24,98.08Z"/><path class="cls-40" d="M112.32,114.62a2.85,2.85,0,0,0-3-.13c-1.76.9-1.71,5.32-.5,7.05s4.45,1.09,4.76.24S111.91,120.46,112.32,114.62Z"/><path class="cls-41" d="M121.45,94.32,123.79,93s6-.57,8.17-2l1.12,1.59a6.87,6.87,0,0,1-5.35,3.29c-3.84.37-5.63-1.13-5.63-1.13Z"/><path class="cls-42" d="M122.43,70.11a7.18,7.18,0,0,0-5,5.82c.42,2.11,4.89.94,6,3.75a15,15,0,0,0,1.83,3.66l.7-.28s0-2.25,1-2.25,1.26,2.67.7,3.8a4.2,4.2,0,0,1-1.83,1.69s-2.2,8.89,0,13.94c.7,1.57,12.42,1.24,13.51-2.57.29-1-.74-8.92-.47-11.57.31-2.95.14-8.67-.7-11.34a5.17,5.17,0,0,0-2.82-3.38,7.08,7.08,0,0,0-3.09-2.25A13,13,0,0,0,122.43,70.11Z"/><path class="cls-43" d="M76.74,80.72v21.46L111,86V64.56s.06-2-1.42-1.52-31,14.77-31,14.77A3.63,3.63,0,0,0,76.74,80.72Z"/><path class="cls-44" d="M78.11,80.21v20.45l31.63-14.77V66s.35-1.51-.84-1S79.42,78.86,79.42,78.86,78.17,79.32,78.11,80.21Z"/><path class="cls-45" d="M82,105.73l4.87,3.32L103,101.5a.58.58,0,0,1,.74.12c.35.37-4.31-4-4.31-4Z"/><path class="cls-46" d="M110.33,62.94l-1.84-1.14a1.26,1.26,0,0,0-1.43-.09c-.83.45-31.09,14.7-31.09,14.7a3.3,3.3,0,0,0-1.43,2.53v22.9s0,.4.62.82,1.9,1.36,1.9,1.36a1.91,1.91,0,0,1-.18-1V80.23a3.08,3.08,0,0,1,2-2.61C80.39,76.9,110.33,62.94,110.33,62.94Z"/><path class="cls-32" d="M76.75,102.18s-.11,2.51,1.19,2c1.69-.64,31.36-14.56,31.36-14.56A3.51,3.51,0,0,0,111,86Z"/><polygon class="cls-47" points="86.79 100.26 101.1 93.46 101.5 100.82 86.52 107.86 86.79 100.26"/><polygon class="cls-46" points="86.52 107.86 84.2 106.32 84.56 101.32 86.79 100.26 86.52 107.86"/><path class="cls-31" d="M82,105.73a2,2,0,0,0-.62,2.09l5.12,3.51,16.67-7.74s1.19-1.51.27-2.18L86.9,109.05Z"/><polygon class="cls-48" points="38.49 84.92 20.17 94.2 0 85.96 18.13 76.77 38.49 84.92"/><polygon class="cls-44" points="38.49 137.41 20.17 146.69 20.17 94.2 38.49 84.92 38.49 137.41"/><polygon class="cls-49" points="20.17 146.69 0 138.44 0 85.96 20.17 94.2 20.17 146.69"/><path class="cls-14" d="M85.71,64.06V85.42A1.55,1.55,0,0,1,85,86.79l-.06,0-7,3.57L63.49,97.76a.68.68,0,0,1-.76-.09l-2.82-2a.91.91,0,0,1-.41-.75V74.23a2,2,0,0,1,1.11-1.86L81.8,61.52a.88.88,0,0,1,.89.09l2.69,1.92a.47.47,0,0,1,.09.06A.61.61,0,0,1,85.71,64.06Z"/><path class="cls-50" d="M85.71,64.06V85.42A1.55,1.55,0,0,1,85,86.79l-.06,0-7,3.57L63.49,97.76a.68.68,0,0,1-.76-.09.78.78,0,0,1-.32-.62V76.24a2,2,0,0,1,1-1.76l21.46-11a.51.51,0,0,1,.48,0,.47.47,0,0,1,.09.06A.61.61,0,0,1,85.71,64.06Z"/><path class="cls-32" d="M75.12,76.24l1.43,2.29a.35.35,0,0,0,.38.16l3.1-.87a.35.35,0,0,1,.39.52L78,81.8a.33.33,0,0,0,0,.24l.64,3.44a.29.29,0,0,1-.32.35l-3.31-.33a.27.27,0,0,0-.23.08l-3,2.88a.35.35,0,0,1-.56-.33l.54-3.33a.39.39,0,0,0-.19-.37l-2.35-1.28a.33.33,0,0,1,0-.57l3.73-2.13a.33.33,0,0,0,.12-.14l1.65-4.07A.33.33,0,0,1,75.12,76.24Z"/><g class="cls-51"><path class="cls-52" d="M54,107.07v14.4a1,1,0,0,1-.51.92l0,0-4.71,2.41-9.72,5a.48.48,0,0,1-.51-.07l-1.9-1.37a.64.64,0,0,1-.27-.51V113.92a1.37,1.37,0,0,1,.74-1.25l14.29-7.31a.59.59,0,0,1,.6,0l1.81,1.3.06,0A.39.39,0,0,1,54,107.07Z"/><path class="cls-53" d="M54,107.07v14.4a1,1,0,0,1-.51.92l0,0-4.71,2.41-9.72,5a.48.48,0,0,1-.51-.07.52.52,0,0,1-.21-.41v-14a1.32,1.32,0,0,1,.69-1.18l14.47-7.39a.33.33,0,0,1,.32,0l.06,0A.39.39,0,0,1,54,107.07Z"/><ellipse class="cls-32" cx="46.26" cy="115.66" rx="2.64" ry="1.61" transform="translate(-73.34 80.82) rotate(-51.96)"/><path class="cls-32" d="M50.93,120.57l-9.34,4.63c0-2.57,2.09-5.68,4.67-7a3.73,3.73,0,0,1,3.3-.27A2.72,2.72,0,0,1,50.93,120.57Z"/></g><g class="cls-54"><path class="cls-55" d="M67.46,91.43v14.4a1,1,0,0,1-.51.92s0,0,0,0l-4.71,2.41-9.72,5a.44.44,0,0,1-.5-.06.5.5,0,0,1-.22-.41v-14a1.33,1.33,0,0,1,.7-1.18l14.46-7.39a.33.33,0,0,1,.32,0l.07,0A.41.41,0,0,1,67.46,91.43Z"/><path class="cls-56" d="M72.91,94.93v14.4a1,1,0,0,1-.51.92l0,0-4.7,2.41-9.73,5a.44.44,0,0,1-.5-.06l-1.91-1.37a.64.64,0,0,1-.27-.51V101.78a1.37,1.37,0,0,1,.74-1.25l14.29-7.31a.59.59,0,0,1,.6,0l1.81,1.3.07,0A.41.41,0,0,1,72.91,94.93Z"/><path class="cls-57" d="M72.91,94.93v14.4a1,1,0,0,1-.51.92l0,0-4.7,2.41-9.73,5a.44.44,0,0,1-.5-.06.5.5,0,0,1-.22-.41v-14a1.33,1.33,0,0,1,.7-1.18l14.46-7.39a.33.33,0,0,1,.32,0l.07,0A.41.41,0,0,1,72.91,94.93Z"/><polygon class="cls-32" points="70.11 100.37 70.11 101.37 65.44 106.35 60.76 106.22 60.76 105.22 70.11 100.37"/><polygon class="cls-32" points="65.44 106.94 70.11 101.95 70.11 107.06 60.76 111.92 60.76 106.8 65.44 106.94"/></g><path class="cls-58" d="M65.56,65V75.05a.72.72,0,0,1-.36.64l0,0-3.29,1.68-6.8,3.48a.34.34,0,0,1-.36-.05.38.38,0,0,1-.15-.29V70.72a.93.93,0,0,1,.49-.83l10.12-5.17a.24.24,0,0,1,.22,0l0,0A.32.32,0,0,1,65.56,65Z"/><path class="cls-59" d="M46.1,103.41v15.07a1.09,1.09,0,0,1-.53,1l0,0L40.6,122l-10.17,5.19a.47.47,0,0,1-.53-.06.57.57,0,0,1-.23-.44V112a1.39,1.39,0,0,1,.73-1.24L45.54,103a.32.32,0,0,1,.33,0,.1.1,0,0,1,.07,0A.42.42,0,0,1,46.1,103.41Z"/><g class="cls-51"><path class="cls-60" d="M51.93,80.64V95a1,1,0,0,1-.51.92l0,0-4.71,2.41-9.72,5a.48.48,0,0,1-.51-.06l-1.9-1.38a.63.63,0,0,1-.27-.51V87.5A1.38,1.38,0,0,1,35,86.24L49.3,78.93a.6.6,0,0,1,.6.06l1.81,1.29.06,0A.4.4,0,0,1,51.93,80.64Z"/><path class="cls-61" d="M51.93,80.64V95a1,1,0,0,1-.51.92l0,0-4.71,2.41-9.72,5a.48.48,0,0,1-.51-.06.54.54,0,0,1-.21-.42v-14a1.3,1.3,0,0,1,.69-1.18l14.47-7.39a.33.33,0,0,1,.32,0l.06,0A.4.4,0,0,1,51.93,80.64Z"/><path class="cls-32" d="M43.63,97.89l-4.21-2.12c-.39-.2-.39-.84,0-1.44s1-.91,1.44-.71l2.39,1.21,4.68-9.91a1.63,1.63,0,0,1,1.4-1c.48.06.62.61.33,1.23Z"/></g><path class="cls-62" d="M92.73,48.06V65.23a1.24,1.24,0,0,1-.61,1.1l-.05,0-5.61,2.87L74.87,75.15a.54.54,0,0,1-.61-.07.65.65,0,0,1-.26-.5V57.85a1.57,1.57,0,0,1,.83-1.41l17.25-8.81a.39.39,0,0,1,.38,0l.08,0A.5.5,0,0,1,92.73,48.06Z"/><path class="cls-63" d="M124.91,48.87v14.4a1.06,1.06,0,0,1-.51.92l0,0-4.71,2.41-9.72,5a.48.48,0,0,1-.51-.06l-1.9-1.38a.64.64,0,0,1-.28-.51V55.72a1.36,1.36,0,0,1,.75-1.25l14.28-7.31a.59.59,0,0,1,.61.06l1.81,1.29.06,0A.4.4,0,0,1,124.91,48.87Z"/><path class="cls-63" d="M124.91,48.87v14.4a1.06,1.06,0,0,1-.51.92l0,0-4.71,2.41-9.72,5a.48.48,0,0,1-.51-.06.56.56,0,0,1-.21-.42v-14a1.3,1.3,0,0,1,.69-1.18l14.47-7.4a.36.36,0,0,1,.32,0l.06,0A.4.4,0,0,1,124.91,48.87Z"/><path class="cls-32" d="M114.88,62.64a1.14,1.14,0,0,1-1.19,1.25,1.47,1.47,0,0,1-1.19-1.5,1.14,1.14,0,0,1,1.19-1.24A1.46,1.46,0,0,1,114.88,62.64Z"/><path class="cls-32" d="M118.67,60.68a1.13,1.13,0,0,1-1.18,1.24,1.46,1.46,0,0,1-1.19-1.49,1.14,1.14,0,0,1,1.19-1.25A1.47,1.47,0,0,1,118.67,60.68Z"/><path class="cls-32" d="M122.47,58.71A1.14,1.14,0,0,1,121.28,60a1.48,1.48,0,0,1-1.19-1.5,1.14,1.14,0,0,1,1.19-1.24A1.46,1.46,0,0,1,122.47,58.71Z"/><polygon class="cls-64" points="74.14 1.14 70.25 0 52.73 12.67 58.68 14.51 74.14 1.14"/><polygon class="cls-64" points="45.32 39.77 59.61 14.81 65.45 16.5 50.95 41.58 45.32 39.77"/><polygon class="cls-64" points="39.1 37.77 34.19 36.29 2.09 90.11 7.44 91.88 39.1 37.77"/><polygon class="cls-65" points="4.67 91.02 36.33 36.91 48.18 40.71 62.68 15.63 55.8 13.64 74.14 1.14 73.4 19.61 70.02 18.4 52.14 49.12 39.86 45.6 10.97 93.63 4.67 91.02"/></g></g></svg>