<svg xmlns="http://www.w3.org/2000/svg" xmlns:xlink="http://www.w3.org/1999/xlink" viewBox="0 0 195.7 180.1"><defs><style>.cls-1,.cls-21{fill:gray;}.cls-1{opacity:0.76;isolation:isolate;}.cls-2{fill:url(#linear-gradient);}.cls-3{fill:#26120b;}.cls-4{fill:url(#linear-gradient-2);}.cls-5{fill:#e89c7d;}.cls-6{fill:#f5af8d;}.cls-7{fill:url(#linear-gradient-3);}.cls-8{fill:url(#linear-gradient-4);}.cls-9{fill:#a0642f;}.cls-10{fill:#fff;}.cls-11{fill:#1a0e40;}.cls-12{fill:url(#linear-gradient-5);}.cls-13{fill:url(#linear-gradient-6);}.cls-14{fill:url(#linear-gradient-7);}.cls-15{fill:#f2f2f2;}.cls-16{fill:#ccc;}.cls-17{fill:#f65f72;}.cls-18{fill:#e5e5e5;}.cls-19{fill:#999;}.cls-20{fill:#333;}.cls-22{fill:#ffe610;}.cls-23{fill:#4d3835;}.cls-24{fill:#0b0146;}.cls-25{fill:#4a392e;}.cls-26{fill:#e0a584;}.cls-27{fill:#123466;}.cls-28{fill:#1a3d7a;}.cls-29{fill:#f69d6f;}.cls-30{fill:url(#linear-gradient-8);}.cls-31{fill:url(#linear-gradient-9);}.cls-32{fill:url(#linear-gradient-10);}.cls-33{fill:#7c411e;}.cls-34{fill:#f8f988;}</style><linearGradient id="linear-gradient" x1="82.1" y1="-41.77" x2="106.08" y2="-41.77" gradientTransform="matrix(1, 0, 0, -1, 0, 32.28)" gradientUnits="userSpaceOnUse"><stop offset="0" stop-color="#26120b"/><stop offset="1" stop-color="#32170f"/></linearGradient><linearGradient id="linear-gradient-2" x1="53.72" y1="-24.36" x2="127.67" y2="-24.36" xlink:href="#linear-gradient"/><linearGradient id="linear-gradient-3" x1="60.45" y1="-63.02" x2="60.45" y2="-95.7" gradientTransform="matrix(1, 0, 0, -1, 0, 32.28)" gradientUnits="userSpaceOnUse"><stop offset="0" stop-color="#d0d0d0"/><stop offset="1" stop-color="#757575"/></linearGradient><linearGradient id="linear-gradient-4" x1="55.4" y1="-14.57" x2="90.86" y2="-14.57" xlink:href="#linear-gradient"/><linearGradient id="linear-gradient-5" x1="59.4" y1="-69.64" x2="59.4" y2="-36.87" gradientTransform="matrix(1, 0, 0, -1, 0, 32.28)" gradientUnits="userSpaceOnUse"><stop offset="0" stop-color="#d0d0d0"/><stop offset="1" stop-color="#eaeded"/></linearGradient><linearGradient id="linear-gradient-6" x1="54.6" y1="-32.81" x2="47.59" y2="-44.95" xlink:href="#linear-gradient-5"/><linearGradient id="linear-gradient-7" x1="75.98" y1="-43.47" x2="61.7" y2="-43.47" xlink:href="#linear-gradient-5"/><linearGradient id="linear-gradient-8" x1="161.45" y1="-45.82" x2="125.14" y2="-45.82" xlink:href="#linear-gradient-5"/><linearGradient id="linear-gradient-9" x1="153.19" y1="-25.52" x2="138.68" y2="-25.52" xlink:href="#linear-gradient-5"/><linearGradient id="linear-gradient-10" x1="116.58" y1="-40.06" x2="131.15" y2="-40.06" xlink:href="#linear-gradient-5"/></defs><title>Asset 1</title><g id="Layer_2" data-name="Layer 2"><g id="Layer_1-2" data-name="Layer 1"><ellipse class="cls-1" cx="65.1" cy="166.6" rx="29.2" ry="13.5"/><path class="cls-2" d="M106.1,71.6c.1.1-.9,1.2-3,2.4a19.19,19.19,0,0,1-8.9,2.5,18.56,18.56,0,0,1-9-2.3c-2.1-1.2-3.1-2.3-3-2.4s1.2.8,3.3,1.8a19.49,19.49,0,0,0,17.4-.1C104.9,72.5,106,71.5,106.1,71.6Z"/><path class="cls-3" d="M83.5,69.9a25.63,25.63,0,0,1-3-.7,23.24,23.24,0,0,0-3.3-.5c-1.3-.1-2.6-.2-4.1-.4s-2.9-.2-4.1-.4-2.4-.4-3.4-.6c-1.9-.5-3-1.1-2.9-1.2s1.2.3,3.1.6a27.12,27.12,0,0,0,3.3.4l4.1.3c1.5.1,2.9.2,4.2.4a20.87,20.87,0,0,1,3.3.7A11.28,11.28,0,0,1,83.5,69.9Z"/><path class="cls-4" d="M61.2,45.8c3.5-.7,7.2-.1,10.7.5s7.2,1.1,10.7.2c6.3-1.7,11-8.1,17.5-8,2.7,0,5.2,1.2,7.8,1.8,3.2.8,6.6.7,9.9,1.2s6.7,1.9,8.5,4.6c2.2,3.3,1.6,7.9-.7,11.1s-6,5.1-9.8,6.3c-2.6.8-5.5,1.2-7.7,2.7s-3.8,4-6,5.8c-5.4,4.4-13.8,3.2-19.4-1a20.79,20.79,0,0,0-4.3-3c-6.4-3.1-15.6,1-21.2-4.7C51.7,57.4,52.5,47.7,61.2,45.8Z"/><path class="cls-5" d="M59.4,158.2s5.9,12.6,6.6,10.3.5-7.9.1-8.7-2.8-4.3-2.8-4.3Z"/><path class="cls-6" d="M101.9,56.3c.5.7.2-.1.8,1A6.34,6.34,0,0,0,107,55s4.1.1,4-.6-3.9-.5-3.9-.5,4.1-1.3,3.8-1.9-4.9,1.4-4.9,1.4,4.7-2.9,4-3.4-5.3,2.1-5.3,2.1,4-3.3,3.4-3.7-6.1,3.8-6.1,3.8c.1-2.1-1.4-2-1.4-2l.1,5.1A7.74,7.74,0,0,1,101.9,56.3Z"/><path class="cls-6" d="M41.7,33.3c-.9.2-.2-.1-1.3.2A5.83,5.83,0,0,1,38.8,29s-3.1-2.6-2.6-3.1,3.2,2.2,3.2,2.2-2.2-3.7-1.6-4,2.8,4.3,2.8,4.3-1.6-5.3-.8-5.2,2.5,5.1,2.5,5.1-.8-5.1-.1-5,2,6.9,2,6.9c1.3-1.6,2.4-.6,2.4-.6l-3.4,3.7C43.3,33.2,42.1,33.2,41.7,33.3Z"/><path class="cls-6" d="M62.8,54.5c-1.1-.2-3.8,1.6-5.2,4.6a7.05,7.05,0,0,0-.4,6c.4,1.3,1.3,1.4,1.5,2s-.6,3-.6,3l3.2,1.3c.2-1.5.4-3.1,2-3.8.6-.3,1.2-.4,1.8-.7,1.5-.9,2.3-2.7,2.9-4.3C68.5,61.4,65.6,55,62.8,54.5Z"/><path class="cls-5" d="M59,98.3l-5.4-2.2s-15.9,29.6-15.9,37.8,21.9,24.6,21.9,24.6l3.7-3.2S56.6,143.5,53,139.4,59,98.3,59,98.3Z"/><path class="cls-6" d="M85.7,132s11.8-5.6,9.5-6.1a24.91,24.91,0,0,0-8.7.6c-.8.4-4.1,3.1-4.1,3.1Z"/><path class="cls-6" d="M64.2,98,56,101s-8.2,35.9-5,41.5,11.9,1.9,24.3-4.9l10.4-5.7-3.5-2.3s-12.1,2.4-15.5,4.7c0,0,1.8-5,4.2-12.2C73.3,115.1,74.9,107.8,64.2,98Z"/><path class="cls-6" d="M54.2,73.6c0-2.4.8-4.1,3.2-4.1s5.7.8,5.7,3.2S61.2,79,58.8,79,54.2,76,54.2,73.6Z"/><path class="cls-6" d="M56.1,69.1s-7.4-8-8.9-15.9-4-20.6-4-20.6l-2.8.8s-1.3,17.4,0,20.1,7.9,20.4,9.8,25.1Z"/><path class="cls-6" d="M64.1,75.4s.6-2.5,9.9-5.9,27.1-14.4,27.1-14.4l1.8,2s-9.6,11.1-15.2,13S70.2,79.7,69,80.3C67.1,81.4,67.1,82.5,64.1,75.4Z"/><path class="cls-7" d="M50.3,97.8s-11.2,20.6-13,24.3c0,0,32.9,15.1,46.3-3.1,0,0-7.6-16.1-19.4-22.2h0l-5.1-1.5-8.7,2.4"/><path class="cls-6" d="M67.6,62.4s1.3-1.3,2.1-.4-2.8,2.2-2.8,2.2Z"/><path class="cls-8" d="M90.8,45a5.1,5.1,0,0,1-1.4.5,26.76,26.76,0,0,1-4,.5,45.16,45.16,0,0,1-6-.4c-2.2-.3-4.7-.7-7.2-1a28.86,28.86,0,0,0-7.2,0,15.43,15.43,0,0,0-5.5,1.9A14.5,14.5,0,0,0,56.4,49c-.6.7-.9,1.2-1,1.1a9.21,9.21,0,0,1,.7-1.3,11.84,11.84,0,0,1,3-2.8,16.55,16.55,0,0,1,5.7-2.1,26,26,0,0,1,7.4-.1c2.6.3,5,.7,7.3,1.1a47.13,47.13,0,0,0,5.9.6A38,38,0,0,0,90.8,45Z"/><path class="cls-9" d="M61.1,61.6a1.59,1.59,0,0,1-.9-.1.76.76,0,0,1-.4-.2c-.1-.1-.1-.2-.2-.3a.45.45,0,0,1,0-.5.1.1,0,0,1,.1-.1h.6a1.27,1.27,0,0,0,.6-.1,2.11,2.11,0,0,0,1.5-1.2c.2-.5.3-.8.3-.8a1.59,1.59,0,0,1-.1.9,2.44,2.44,0,0,1-1.7,1.5c-.2,0-.4.1-.7.1h-.3c0,.1,0,.1.1.2s.2.2.3.2A4.56,4.56,0,0,0,61.1,61.6Z"/><path class="cls-10" d="M58.5,61.8l4.3,1.7S59,66.1,58.5,61.8Z"/><path class="cls-9" d="M58.2,66.5a3.92,3.92,0,0,0,3.1.9s-.5.8-2.7.5A1.29,1.29,0,0,0,58.2,66.5Z"/><path class="cls-3" d="M64.2,59.9a.32.32,0,0,1-.3.3.45.45,0,0,1-.3-.3.3.3,0,1,1,.6,0Z"/><circle class="cls-3" cx="61.1" cy="58.9" r="0.3"/><path class="cls-3" d="M65.3,59c-.1,0-.3-.2-.6-.4s-.6-.3-.6-.4.4-.2.8.1S65.5,58.9,65.3,59Z"/><path class="cls-3" d="M60.4,57.3c0-.1.4-.2.9-.2s.9.3.8.4-.4.1-.8.1C60.8,57.4,60.4,57.4,60.4,57.3Z"/><path class="cls-11" d="M61.9,163.3s1.8,6.4,3.7,5.9.5-9.5.5-9.5l-1.9-2.9S66,171.7,61.9,163.3Z"/><path class="cls-11" d="M84.7,127.7a6.17,6.17,0,0,1,2.9-1.7c1.6-.2,7.3-.9,8.1-.2s-4.6,3.3-4.6,3.3,1.9-1.2,1.1-1.7C90.9,126.7,84.7,127.7,84.7,127.7Z"/><polygon class="cls-11" points="82.5 129.4 84.3 133.1 85.2 132.5 82.8 128.9 82.5 129.4"/><polygon class="cls-11" points="62.5 153.9 58.1 157.9 59.4 158.9 63.1 154.9 62.5 153.9"/><path class="cls-12" d="M56.1,69.1S48.6,71.5,48.6,83c0,0,0,15.7,1.8,18.5a16.83,16.83,0,0,0,6.5,0,21.34,21.34,0,0,0,7.4-3.6l5.9-17.8-.7-8.3-8.1-1.6s2.3,10.8-6,6.2c-1.6-.9,2.4-7,2.4-7Z"/><path class="cls-13" d="M49.7,78.5,46,70.8s.5-4.7,7.3-6.4a13.91,13.91,0,0,0,1.4,3.3,12,12,0,0,0,3,1.9Z"/><path class="cls-14" d="M63.7,81.6l11.8-2.4s2.1-4.2-2.8-9.3c0,0-9.2.6-10.4.7s-.4,1-.4,1Z"/><polygon class="cls-15" points="0 15.7 6.8 35.3 30.3 26 24.2 8.7 0 15.7"/><polygon class="cls-16" points="5.6 13.8 11.4 30.9 34.9 21.6 29.8 6.9 5.6 13.8"/><polygon class="cls-15" points="5.5 9.7 12.3 29.4 35.8 20 29.7 2.8 5.5 9.7"/><polygon class="cls-17" points="14.5 16.1 22.1 38 48.2 27.6 41.4 8.4 14.5 16.1"/><path class="cls-10" d="M23.7,13.3c.2.1-1.2,3-3,6.4s-3.2,6.2-3.4,6.1,1-3,2.8-6.5S23.4,13.2,23.7,13.3Z"/><path class="cls-10" d="M45,16.3c-.1.2-3-.8-6.5-2.5s-6.2-3.3-6.1-3.5,3,1.1,6.4,2.7S45.1,16.1,45,16.3Z"/><polygon class="cls-18" points="91.7 51.2 122 53.5 126.8 42.4 99.6 40.7 91.7 51.2"/><polygon class="cls-18" points="91 49.4 121.3 51.7 126.1 40.6 98.9 38.9 91 49.4"/><polygon class="cls-16" points="91 49.4 91.7 51.2 122 53.5 121.3 51.7 91 49.4"/><polygon class="cls-19" points="122 53.5 126.8 42.4 126.1 40.6 121.3 51.7 122 53.5"/><polygon class="cls-18" points="98.9 38.9 101.2 20.1 128.6 21.6 126.1 40.6 98.9 38.9"/><polygon class="cls-19" points="128.6 21.6 129.4 23.5 127.2 39.4 126.1 40.6 128.6 21.6"/><polygon class="cls-20" points="99.8 37.7 101.9 21.5 127.6 22.8 125.3 39.2 99.8 37.7"/><polygon class="cls-20" points="99.5 39.9 102.1 40 101.5 41 98.9 40.8 99.5 39.9"/><polygon class="cls-20" points="102.7 40.1 105.3 40.2 104.7 41.2 102 41 102.7 40.1"/><polygon class="cls-20" points="105.8 40.3 108.4 40.4 107.8 41.4 105.2 41.2 105.8 40.3"/><polygon class="cls-20" points="109 40.5 111.6 40.6 111 41.6 108.3 41.4 109 40.5"/><polygon class="cls-20" points="112.1 40.7 114.8 40.8 114.1 41.8 111.5 41.6 112.1 40.7"/><polygon class="cls-20" points="115.3 40.9 117.9 41 117.3 42 114.6 41.8 115.3 40.9"/><polygon class="cls-20" points="118.4 41.1 121.1 41.3 120.5 42.2 117.8 42 118.4 41.1"/><polygon class="cls-20" points="121.6 41.3 124.2 41.5 123.6 42.4 120.9 42.2 121.6 41.3"/><polygon class="cls-20" points="98.5 41.2 101.1 41.4 100.5 42.4 97.9 42.2 98.5 41.2"/><polygon class="cls-20" points="101.7 41.4 104.3 41.6 103.7 42.6 101 42.4 101.7 41.4"/><polygon class="cls-20" points="104.8 41.6 107.4 41.8 106.8 42.8 104.2 42.6 104.8 41.6"/><polygon class="cls-20" points="108 41.8 110.6 42 110 43 107.3 42.8 108 41.8"/><polygon class="cls-20" points="111.1 42.1 113.7 42.2 113.1 43.2 110.5 43 111.1 42.1"/><polygon class="cls-20" points="114.3 42.3 116.9 42.4 116.3 43.4 113.6 43.2 114.3 42.3"/><polygon class="cls-20" points="117.4 42.5 120 42.6 119.4 43.6 116.8 43.4 117.4 42.5"/><polygon class="cls-20" points="120.6 42.7 123.2 42.8 122.6 43.8 119.9 43.6 120.6 42.7"/><polygon class="cls-20" points="97.7 42.7 100.3 42.9 99.7 43.8 97 43.6 97.7 42.7"/><polygon class="cls-20" points="100.8 42.9 103.4 43.1 102.8 44 100.2 43.8 100.8 42.9"/><polygon class="cls-20" points="104 43.1 106.6 43.3 106 44.2 103.3 44 104 43.1"/><polygon class="cls-20" points="107.1 43.3 109.7 43.5 109.1 44.4 106.5 44.2 107.1 43.3"/><polygon class="cls-20" points="110.3 43.5 112.9 43.7 112.3 44.6 109.6 44.4 110.3 43.5"/><polygon class="cls-20" points="113.4 43.7 116 43.9 115.4 44.8 112.8 44.6 113.4 43.7"/><polygon class="cls-20" points="116.6 43.9 119.2 44.1 118.6 45 115.9 44.8 116.6 43.9"/><polygon class="cls-20" points="119.7 44.1 122.3 44.3 121.7 45.2 119.1 45 119.7 44.1"/><polygon class="cls-20" points="96.9 44.1 99.5 44.2 98.9 45.2 96.3 45 96.9 44.1"/><polygon class="cls-20" points="100.1 44.3 102.7 44.4 102.1 45.4 99.4 45.2 100.1 44.3"/><polygon class="cls-20" points="103.2 44.5 105.8 44.6 105.2 45.6 102.6 45.4 103.2 44.5"/><polygon class="cls-20" points="106.4 44.7 109 44.8 108.4 45.8 105.7 45.6 106.4 44.7"/><polygon class="cls-20" points="109.5 44.9 112.1 45 111.5 46 108.9 45.8 109.5 44.9"/><polygon class="cls-20" points="112.7 45.1 115.3 45.2 114.7 46.2 112 46 112.7 45.1"/><polygon class="cls-20" points="115.8 45.3 118.5 45.4 117.8 46.4 115.2 46.2 115.8 45.3"/><polygon class="cls-20" points="119 45.5 121.6 45.7 121 46.6 118.3 46.4 119 45.5"/><polygon class="cls-20" points="95.9 45.4 98.5 45.6 97.9 46.5 95.3 46.3 95.9 45.4"/><polygon class="cls-20" points="99.1 45.6 101.7 45.8 101.1 46.7 98.4 46.5 99.1 45.6"/><polygon class="cls-20" points="114.8 46.6 117.4 46.8 116.8 47.7 114.2 47.6 114.8 46.6"/><polygon class="cls-20" points="118 46.8 120.6 47 120 47.9 117.3 47.8 118 46.8"/><polygon class="cls-20" points="102.3 45.9 114.3 46.6 113.7 47.5 101.8 46.8 102.3 45.9"/><polygon class="cls-21" points="102.3 47.3 112.6 48 111.2 50 100.8 49.2 102.3 47.3"/><polygon class="cls-22" points="128.8 14.9 132.1 14.9 129.2 20.5 128.8 14.9"/><polygon class="cls-22" points="134 16.5 136.5 18.6 130.6 21 134 16.5"/><polygon class="cls-22" points="136.4 22.2 136.2 25.5 130.8 22.1 136.4 22.2"/><ellipse class="cls-1" cx="133.6" cy="162.6" rx="22.6" ry="10.4"/><path class="cls-23" d="M128,61.9a5.2,5.2,0,0,1-.3.5c-1.3,2.3-6.4,11.4-4.9,14.4,1.7,3.4-3.1,14.7,2.9,16.8s16.8,3.6,17.4-5.4-10.9-28.9-10.9-28.9"/><path class="cls-24" d="M119.2,47.3a1.78,1.78,0,0,0-.6,2.2c.6,1.4,3.2,5.5,6.8,5.4.1,0-4.5-7.6-4.5-7.6Z"/><path class="cls-25" d="M113.7,123.2s-4.5-4-5.9-3.3c-1.7.9-11.7,10.7-11.3,15.3.2,1.9,2.4.3,6.3-3.8a8.55,8.55,0,0,1,8.8-2.3Z"/><path class="cls-25" d="M124.6,130l-5.4-3.2s-14,13.1-11.8,14.8c1.7,1.3,2.6.1,6.5-3.9s8.9-1.7,8.9-1.7Z"/><polygon class="cls-26" points="157.4 86.9 158.5 101.3 136.1 95.4 157.4 86.9"/><path class="cls-27" d="M136.1,95.9s19.6,1.2,22.2.4c0,0,3.8,37.6-3,41.7s-22.1-1.9-22.1-1.9l4.1-8.1,8.9-.6V112.9l-.6.1Z"/><path class="cls-28" d="M111.5,121.6s-4.9,2-3.3,7c0,0,16.8,13.2,25,10.1,4.6-1.7,9.5-14.7,13-25.8l12.1-16.6s-5.7.3-7.6.3c-3.6,0-14.6-.6-14.6-.6s-5.7,29.9-7.7,30.6S111.5,121.6,111.5,121.6Z"/><path class="cls-29" d="M140.6,58.5s11.7-11,13.8-13.9,6.4-12.6,11.7-16.7l-2.6-5.5s1.6-.9,2.6,1.4c0,0,3.8-7.5,4.6-7.4s-1.7,5.8-1.7,5.8,3.6-5.2,4.6-5.1S171,23,171,23s4.1-4.7,4.6-4.1-3.2,4.1-3.2,4.1,4.1-2.3,4.5-1.6-4.1,2.8-4.1,2.8a6.79,6.79,0,0,1-3.2,4.8s-5.5,14.7-10.4,19.5L143.5,65Z"/><path class="cls-29" d="M126.6,64.2s-11.1,11.6-14,13.6S99.9,84.1,95.8,89.4l-5.5-2.7s-.9,1.6,1.4,2.6c0,0-7.6,3.7-7.4,4.6s5.8-1.7,5.8-1.7-5.3,3.6-5.1,4.6,5.9-2.6,5.9-2.6-4.7,4-4.2,4.6,4.2-3.2,4.2-3.2-2.4,4-1.6,4.5,2.8-4,2.8-4A6.88,6.88,0,0,0,96.9,93s14-5.6,18.8-10.4l17.4-12.3Z"/><path class="cls-30" d="M130.8,59.5,125.2,65l1.4,6.2s5.5,13.3,6.4,16.6c1.3,5.1-.8,12.7-.8,12.7s9.4-.8,18-1.1,11.4-3,11.4-3-7.4-24.7-12.5-31.6-7-9.1-7-9.1l-7.5,1.6Z"/><path class="cls-31" d="M147.3,64l5.9-3.7s.9-4-6.2-8.7l-8.3,5.2Z"/><path class="cls-32" d="M126.3,64.6c-3.2.5-9.1,8.6-9.7,8.6,0,0,4.1,6.7,7.4,7C124,80.1,138.4,62.9,126.3,64.6Z"/><path class="cls-29" d="M137.7,59.3s-4.7-3.5-4.5-4.9c0-.4.7-.9.9-1.4.9-2.7-3.5-9.7-6.1-11.2-2.1-1.2-1.2-1.3-5.6,1.4s-1.9,7.2.1,9.6a9.12,9.12,0,0,0,6,3.4l2.7,6.1Z"/><path class="cls-29" d="M129.2,64.1c-.9-2.2.8-4.9,3.7-6.1s6.1-.4,6.9,1.7-2.1,5.4-3.7,6.1S130.1,66.3,129.2,64.1Z"/><path class="cls-29" d="M122.3,52.7s-1.5-.1-1.7.9,2.8,1,3.9.3Z"/><path class="cls-24" d="M123.1,53.7c-.3-1.8-2.2-3.2-2.1-5a1.46,1.46,0,0,0,1.1-2.1c-.2-.4-.4-.7-.6-1.1a1.07,1.07,0,0,1,0-1.1.75.75,0,0,1,.5-.1c1.4-.1,3.8.3,5-.2s2.5-1.3,2.4-2.8c-.1-1.3-1.3-2.3-2.3-3.1-.6-.5-2.3-1.6-3-1.5-1,.2-1.2,1.5-1.3,2.6a1.6,1.6,0,0,0-2.3,0,4.19,4.19,0,0,0-1.1,2.2,4.19,4.19,0,0,1-1.1,2.2c-.6.5-1.4.9-1.3,1.8s1.5,1.4,2.1,2.3c-.2-.2-.3,1.2-.2,1.4a5.79,5.79,0,0,0,1.4,1.7C121.2,51.8,121.7,53,123.1,53.7Z"/><path class="cls-10" d="M131.7,49.6l-4.3,2.2C127.5,51.8,132.6,55.5,131.7,49.6Z"/><path class="cls-33" d="M129.1,49.4s0-.1.2-.2a6.13,6.13,0,0,0,.6-.4c.2-.2.2-.6,0-.6s-.6.2-1,.6c-.1.1-.2.2-.3.2a.76.76,0,0,1-.5.2.79.79,0,0,1-.6-.5,3.09,3.09,0,0,1-.5-1,2.36,2.36,0,0,1-.1-1.1c.1,0,.1.4.3,1a2.36,2.36,0,0,0,.6.9.54.54,0,0,0,.4.3.31.31,0,0,0,.2-.1c.1-.1.2-.2.3-.2.2-.2.4-.3.6-.5a1.06,1.06,0,0,1,.8-.1c.3.1.5.4.4.6a.85.85,0,0,1-.3.5,5.74,5.74,0,0,1-.7.4C129.2,49.3,129.1,49.4,129.1,49.4Z"/><path class="cls-33" d="M128.3,56.1a8.42,8.42,0,0,0,3.4-.7,5.49,5.49,0,0,1-3,1.6Z"/><path class="cls-24" d="M129.2,46.2c0,.1-.3.1-.7.3s-.6.3-.7.3.1-.4.5-.6C128.9,45.9,129.3,46.1,129.2,46.2Z"/><path class="cls-24" d="M124.9,49c-.1-.1,0-.4.4-.8s.7-.5.8-.4-.2.3-.5.6C125.3,48.9,125,49.1,124.9,49Z"/><path class="cls-24" d="M123.2,48.5c-.2-.1-.3-.7.4-1.5s1.5-.6,1.6-.4-.2.5-.8,1.2S123.4,48.6,123.2,48.5Z"/><path class="cls-24" d="M126.9,45.5c-.1-.2,0-.7.9-1.1s1.5,0,1.5.3-.3.4-1.1.7S127,45.7,126.9,45.5Z"/><polygon class="cls-34" points="164.1 20.2 184.3 31.9 195.7 10.5 176.8 0 164.1 20.2"/><path class="cls-23" d="M126.2,61.7s9.3,20.9,2.3,27l1.1,4s11.8-10-.5-31C129.1,61.7,126.3,60.1,126.2,61.7Z"/><path class="cls-23" d="M140.2,55.4s12,9.1,15.5,24.1c0,0,4.6-6.2-12.3-25.8Z"/></g></g></svg>