<?xml version="1.0" encoding="utf-8"?>
<!-- Generator: Adobe Illustrator 23.0.1, SVG Export Plug-In . SVG Version: 6.00 Build 0)  -->
<svg version="1.1" id="Layer_1" xmlns="http://www.w3.org/2000/svg" xmlns:xlink="http://www.w3.org/1999/xlink" x="0px" y="0px"
	 viewBox="0 0 466 347.4" style="enable-background:new 0 0 466 347.4;" xml:space="preserve">
<style type="text/css">
	.st0{opacity:0.4;fill:#E2E0E0;enable-background:new    ;}
	.st1{fill:#E7EBEB;}
	.st2{fill:#556080;}
	.st3{fill:#2CB0CF;}
	.st4{fill:#DF3F3F;}
	.st5{fill:#FFFFFF;}
	.st6{opacity:0.4;}
	.st7{fill:url(#SVGID_1_);}
	.st8{fill:#F69D6F;}
	.st9{opacity:0.76;fill:#808080;enable-background:new    ;}
	.st10{fill:#333333;}
	.st11{fill:#123466;}
	.st12{fill:#1A3D7A;}
	.st13{fill:url(#SVGID_2_);}
	.st14{fill:#F67B40;}
	.st15{fill:url(#SVGID_3_);}
	.st16{fill:url(#SVGID_4_);}
	.st17{fill:#443333;}
	.st18{fill:#CFD9DE;}
	.st19{opacity:0.76;fill:#303F98;enable-background:new    ;}
	.st20{opacity:0.76;}
	.st21{fill:#808080;}
	.st22{fill:#843837;}
	.st23{fill:#1A1A1A;}
	.st24{fill:url(#Path_11364_1_);}
	.st25{fill:url(#Path_11365_1_);}
	.st26{fill:url(#Path_11370_1_);}
	.st27{fill:#1A0E40;}
</style>
<g id="Group_3807" transform="translate(-609.4 0.012)">
	<g id="Group_3727" transform="translate(623.481 52.217)">
		<path id="Path_11322" class="st0" d="M9.7,38.3L82.6,1.2c5.4-2.8,9.7-0.7,9.7,4.7v95.9c0,5.4-4.3,12-9.7,14.7L9.7,153.7
			C4.3,156.5,0,154.4,0,149V53.2C0,47.7,4.3,41.1,9.7,38.3z"/>
		<g id="Group_3726" transform="translate(23.421 28.1)">
			<path id="Path_11323" class="st1" d="M15.9,41.9L9.1,49c-0.4,0.4-0.7,0.8-1.1,1.3c3.9,1.3,9.1,0.8,14.6-2.1
				c5.8-3.1,10.8-7.4,14.6-12.6c-0.4-0.1-0.8-0.2-1.2-0.1l-7.2,0.1c-0.9,0-1.6-0.7-1.6-1.5c0-0.1,0-0.1,0-0.2V31
				c0.3-0.4,0.4-0.8,0.7-1.2c1-1.8,1.7-3.7,2.2-5.7c0.9-0.7,1.5-1.8,1.6-3v-3c0-0.6-0.3-1.1-0.8-1.3v-4.3c0,0,0.9-7.4-8.4-2.6
				c-9.2,4.7-8.4,11.1-8.4,11.1v4.3c-0.5,0.6-0.8,1.3-0.8,2.1v3c0,0.8,0.4,1.3,1.1,1.3c0.4,1.7,1.4,3.2,2.8,4.3v2.8
				C17.3,40,16.8,41.2,15.9,41.9z"/>
			<g id="Group_3725">
				<path id="Path_11324" class="st2" d="M23.2,2.6C10.7,8.8,0.3,24,0,36.7c-0.1,7.2,3,12,8.2,13.7C8.6,50,8.8,49.4,9.2,49l6.8-7.1
					c0.9-0.8,1.4-2,1.4-3.2V36c-1.4-1.1-2.4-2.6-2.8-4.3c-0.7-0.1-1.1-0.7-1.1-1.3v-3c0-0.8,0.3-1.5,0.8-2.1v-4.3
					c0,0-0.9-6.4,8.4-11.1c9.2-4.7,8.4,2.6,8.4,2.6v4.3c0.5,0.2,0.9,0.7,0.8,1.3V21c-0.1,1.2-0.7,2.3-1.6,3
					c-0.6,1.9-1.3,3.8-2.2,5.7c-0.3,0.5-0.5,0.9-0.7,1.2v2.9c-0.1,0.9,0.5,1.6,1.4,1.7c0.1,0,0.1,0,0.2,0l7.2-0.1
					c0.4,0,0.8,0.1,1.2,0.1c4.9-6.6,8-14.3,8.2-21.2C45.7,1.7,35.7-3.6,23.2,2.6z"/>
			</g>
		</g>
		<path id="Path_11325" class="st2" d="M29.2,92.7L63,75.4c1.4-0.8,2.6-0.1,2.6,1.3l0,0c-0.2,1.7-1.1,3.2-2.6,4.1L29.2,98.1
			c-1.4,0.8-2.6,0.1-2.6-1.3l0,0C26.7,95,27.7,93.5,29.2,92.7z"/>
		<path id="Path_11326" class="st3" d="M20.9,111.1l50.7-25.8c2.2-1.2,3.9-0.3,3.9,2l0,0c0,2.2-1.8,4.9-3.9,6.1l-50.7,25.8
			c-2.2,1.2-3.9,0.3-3.9-2l0,0C16.8,114.9,18.7,112.3,20.9,111.1z"/>
		<path id="Path_11327" class="st3" d="M20.9,125.2l50.7-25.8c2.2-1.2,3.9-0.3,3.9,2l0,0c0,2.2-1.8,4.9-3.9,6.1l-50.7,25.8
			c-2.2,1.2-3.9,0.3-3.9-2l0,0C16.8,129,18.7,126.4,20.9,125.2z"/>
	</g>
	<g id="Group_3731" transform="translate(791.268 3.728)">
		<path id="Path_11328" class="st0" d="M0,8.5v137.4c0,6.4,5.3,13.6,11.7,15.7l209.8,70.1c6.4,2.2,11.7-1.3,11.7-7.8V86.4
			c0-6.4-5.3-13.6-11.7-15.7L11.7,0.6C5.3-1.5,0,1.9,0,8.5z"/>
		<g id="Group_3729" transform="translate(147.386 82.882)">
			<path id="Path_11329" class="st1" d="M18.2,39.3l-7.8,1.6C10,41,9.6,41.2,9.2,41.4c4.4,5.3,10.2,9.4,16.7,11.7
				c6.3,2.1,12.1,1.8,16.6-0.4c-0.4-0.5-0.8-0.9-1.3-1.3l-8.3-6.8c-1-0.9-1.6-2.1-1.7-3.4v-3.3c0.3-0.2,0.6-0.5,0.8-0.8
				c1.2-1.2,2.1-2.7,2.6-4.3c1,0.1,1.8-0.7,1.8-1.6c0-0.1,0-0.2,0-0.2v-3.4c-0.1-0.8-0.4-1.6-0.9-2.2v-5c0,0,1.1-7.5-9.5-10.9
				c-10.5-3.6-9.5,4.6-9.5,4.6v5c-0.6,0.3-0.9,0.9-0.9,1.6v3.4c0.1,1,0.5,1.9,1.2,2.6c0.7,2.7,1.7,5.2,3.2,7.5v3
				C19.7,38.3,19.2,39.2,18.2,39.3z"/>
			<g id="Group_3728">
				<path id="Path_11330" class="st2" d="M26.3,1.6C12-3.4,0.3,3.9,0,18.1c-0.1,8,3.4,16.6,9.2,23.3c0.4-0.2,0.8-0.4,1.2-0.5
					l7.8-1.6c1-0.2,1.7-1.2,1.6-2.2v-3.2c-1.4-2.3-2.5-4.8-3.2-7.5c-0.7-0.7-1.1-1.6-1.2-2.6v-3.4c0-0.7,0.3-1.3,0.9-1.6v-5
					c0,0-1.1-8.2,9.5-4.6s9.5,10.9,9.5,10.9v5c0.5,0.6,0.9,1.4,0.9,2.2v3.4c0.1,1-0.7,1.8-1.6,1.8c-0.1,0-0.2,0-0.2,0
					c-0.5,1.6-1.4,3.1-2.6,4.3l-0.8,0.8V41c0.1,1.3,0.7,2.6,1.7,3.4l8.3,6.8c0.5,0.4,0.9,0.8,1.3,1.3c5.5-2.8,9.2-8.6,9.3-16.3
					C52,22.1,40.5,6.6,26.3,1.6z"/>
			</g>
		</g>
		<g id="Group_3730" transform="translate(25.267 38.885)">
			<path id="Path_11331" class="st4" d="M29.2,20.3c0,8-6.6,12.5-14.6,9.7S0,18.6,0,10.6S6.6-1.9,14.6,0.8
				C22.6,3.5,29.2,12.1,29.2,20.3z"/>
			<path id="Path_11332" class="st5" d="M13.3,21.7l-6.2-6.6l2.2-2.2l3.2,3.3l6.4-6.1l3,3.4L13.3,21.7z"/>
		</g>
		<path id="Path_11333" class="st3" d="M32.6,86.8l78,26.2c3.5,1.3,5.9,4.5,6.2,8.3l0,0c0,3.4-2.8,5.3-6.2,4.1l-78-26.2
			c-3.5-1.3-5.9-4.5-6.2-8.3l0,0C26.5,87.5,29.2,85.6,32.6,86.8z"/>
		<path id="Path_11334" class="st3" d="M32.6,109.7l78,26.2c3.5,1.3,5.9,4.5,6.2,8.3l0,0c0,3.4-2.8,5.3-6.2,4.1l-78-26.2
			c-3.5-1.3-5.9-4.5-6.2-8.3l0,0C26.5,110.4,29.2,108.5,32.6,109.7z"/>
		<path id="Path_11335" class="st2" d="M148.6,135.2l49.4,16.6c2.3,0.9,3.8,3,3.9,5.4l0,0c0,2.2-1.7,3.4-3.9,2.8l-49.4-16.6
			c-2.3-0.9-3.8-3-3.9-5.4l0,0C144.6,135.8,146.3,134.6,148.6,135.2z"/>
		<path id="Path_11336" class="st3" d="M32.6,132.5l78,26.2c3.5,1.3,5.9,4.5,6.2,8.3l0,0c0,3.4-2.8,5.3-6.2,4.1l-78-26.2
			c-3.5-1.3-5.9-4.5-6.2-8.3l0,0C26.5,133.3,29.2,131.4,32.6,132.5z"/>
		<path id="Path_11337" class="st4" d="M140.5,150.2l59.5,19.9c4.6,1.6,8.3,6.6,8.3,11.2l0,0c0,4.6-3.7,7.1-8.3,5.5L140.5,167
			c-4.6-1.6-8.3-6.6-8.3-11.2l0,0C132.3,151.2,135.9,148.7,140.5,150.2z"/>
	</g>
	<g id="Group_3732" transform="translate(624.894 187.398)" class="st6">
		<path id="Path_11338" class="st5" d="M115.2,26.8c1.8,1.3,1.8,3.2-0.3,4.1l-67.6,34c-2.3,1-4.9,0.8-7.1-0.4L1.3,38.7
			c-1.8-1.3-1.8-3.2,0.3-4.1l67.6-34c2.3-1,4.9-0.8,7.1,0.4L115.2,26.8z"/>
	</g>
	<g id="Group_3735" transform="translate(835.353 119.773)">
		
			<linearGradient id="SVGID_1_" gradientUnits="userSpaceOnUse" x1="852.7831" y1="26.654" x2="890.244" y2="59.3056" gradientTransform="matrix(-1 0 0 -1 893.1932 106.3355)">
			<stop  offset="0" style="stop-color:#2CB0CF"/>
			<stop  offset="0.2791" style="stop-color:#75C8DB"/>
			<stop  offset="0.7043" style="stop-color:#EAEDED"/>
		</linearGradient>
		<path class="st7" d="M24.6,44.4c0,0-9.9,5.8-11.3,31.8c1.3,4.9,8.8,7.4,14.7,3.6C33.8,75.8,27.7,48.7,24.6,44.4z"/>
		<path id="Path_11340" class="st8" d="M76.1,73.2c0,0,23.2-10.3,26.2-12.1c3.2-1.7,5.4-8.2,6.6-9.5s6.4-4.5,6.2-3.2
			c-0.1,1.3-2.9,3.9-2.9,3.9c1,1.7,1.8,3.5,2.4,5.4c0.4,2.1-2.5,6.4-4.1,7.6s-5.3,1.6-5.3,1.6s-18.8,12.6-22,12.9
			C80.1,80,75.7,78.2,76.1,73.2z"/>
		<ellipse id="Ellipse_76" class="st9" cx="46.7" cy="205.5" rx="46.7" ry="22.1"/>
		<path id="Path_11341" class="st10" d="M29,199.2c0,0-0.7,4.3,0.3,6.2c0.8,1.6,3.9,2.8,6.2,1.2c2.2-1.7,4.2-3.6,6.1-5.7
			c0,0,6.4-3.4,7-5.3c0.7-1.8-1.6-3.4-3.4-3s-7,3.6-9.5,3.6S29.7,197,29,199.2z"/>
		<path id="Path_11342" class="st11" d="M22.4,105.4c0,0,5.7,92.5,6.3,95.1s8,4.2,9.3,0c0.9-2.8,3-88.3,3-88.3L22.4,105.4z"/>
		<path id="Path_11343" class="st10" d="M47.5,204.8c-0.3,0.3-0.5,0.6-0.5,1.1c0,1.3,0,4.1,0.8,5.3c1.7,2.1,4.7,2.7,7,1.3
			c2.6-1.4,10.5-7.4,12.2-8.7c0.8-0.7,1.3-1.5,1.6-2.5c0.2-0.7-0.2-1.4-0.8-1.7c-1.5-0.8-3.1-1-4.7-0.5c-2.6,0.9-5.9,3.8-9.6,3.6
			C51.2,202.4,49.1,203.2,47.5,204.8z"/>
		<path id="Path_11344" class="st12" d="M59.9,106.3c-0.4-3.8-5-5.1-9.2-3.8c-8-0.4-20.7-0.1-21.1,6.2c-0.7,9.3,3.7,15.9,7.9,20.4
			c3.2,3.3,5.1,9.7,6.1,12.8c0.8,24.5,2.4,59.1,3.4,62.5c1.6,5.4,9.7,5.1,10-0.1C58.6,186.9,59.9,106.3,59.9,106.3z"/>
		
			<linearGradient id="SVGID_2_" gradientUnits="userSpaceOnUse" x1="857.3739" y1="-61.8432" x2="848.7478" y2="118.2681" gradientTransform="matrix(-1 0 0 -1 893.1932 106.3355)">
			<stop  offset="0" style="stop-color:#2CB0CF"/>
			<stop  offset="0.2791" style="stop-color:#75C8DB"/>
			<stop  offset="0.7043" style="stop-color:#EAEDED"/>
		</linearGradient>
		<path class="st13" d="M59.5,109.1c-0.9,4.8-14.5,7.2-22.4,5.9c-7.9-1.3-16.4-5.1-16.2-14.3c0,0-1.3-36.8-1.3-43.9
			s4.6-12.5,4.6-12.5s4.4-5.1,18.4-2.2c0,0,11.4,2.4,16.5,10.8c0,0,3.7,9.2,2.4,28.5C60.4,100.5,59.5,109.1,59.5,109.1z"/>
		<path id="Path_11346" class="st14" d="M32.2,32c0,0,1.2,7,0,10.3c-0.3,1.6,6.8,7,13,5.7c3.6-0.8,3.4-2.6,3.4-2.6s-3-5-2.6-9.9
			C46.5,30.6,36.3,31,32.2,32z"/>
		<g>
			
				<linearGradient id="SVGID_3_" gradientUnits="userSpaceOnUse" x1="829.8525" y1="-57.9847" x2="821.2873" y2="120.8548" gradientTransform="matrix(-1 0 0 -1 893.1932 106.3355)">
				<stop  offset="0" style="stop-color:#2CB0CF"/>
				<stop  offset="0.2791" style="stop-color:#75C8DB"/>
				<stop  offset="0.7043" style="stop-color:#EAEDED"/>
			</linearGradient>
			<path class="st15" d="M54.2,49.2c0,0,3.7-1.1,7.7,4.9c4.2,5.8,10,13.7,12.8,15c2.7,1.3,6.8-1.3,8.2-1.3s5.7,7.1,4.2,10.8
				c-1.5,3.7-11.5,5.5-14.1,5.5c-2.6,0-19.4-10-21.5-15.7C49.1,62.5,45.5,49.4,54.2,49.2z"/>
			
				<linearGradient id="SVGID_4_" gradientUnits="userSpaceOnUse" x1="810.0951" y1="6.5765" x2="805.6414" y2="40.4943" gradientTransform="matrix(-1 0 0 -1 893.1932 106.3355)">
				<stop  offset="0" style="stop-color:#2CB0CF"/>
				<stop  offset="0.2791" style="stop-color:#75C8DB"/>
				<stop  offset="0.7043" style="stop-color:#EAEDED"/>
			</linearGradient>
			<path class="st16" d="M80.7,68.4c0,0,1.1-2.7,4.6-3.1c3.7-0.2,7.7,6.8,7.5,10.6c-0.2,3.8-5.8,5.8-7.1,4.9
				C84.3,79.7,86.9,77.1,80.7,68.4z"/>
		</g>
		<g id="Group_3733" transform="translate(22.503 1.301)">
			<path id="Path_11347" class="st8" d="M33.2,16.6c0,9.2-7.4,16.6-16.6,16.6C7.4,33.2,0,25.7,0,16.6C0,7.4,7.4,0,16.6,0
				C25.7,0,33.2,7.4,33.2,16.6z"/>
			<path id="Path_11348" class="st8" d="M33.2,17.6c0,0,0.3,16.6-3.4,19.9c-3.6,3.3-9.1-3.2-18-5.3c-8.8-2.2,7.2-19.5,7.2-19.5
				L33.2,17.6z"/>
		</g>
		<path id="Path_11351" class="st17" d="M49,3.9c0,0,5.9,1.3,7.8,10.4c-0.8,3.8-6.2,0.8-8.3,5.9S45,27,45,27l-1.3-0.5
			c0,0,0-4.1-1.8-4.1s-2.4,4.9-1.3,7c0.8,1.4,2,2.5,3.4,3.2c0,0-2.6,4.3-3.8,4.9c-1.3,0.5-5.9-0.5-7.8-1.3s-5.1-4.3-7.8-8.6
			c-2.6-4.1-4.9-11.3-3.4-16.3C22.8,6.3,26.3,5,26.3,5c1.5-1.9,3.4-3.3,5.7-4.1C37.8-1,44.2,0.2,49,3.9z"/>
		<path id="Path_11352" class="st18" d="M51.8,45.6l-4.3-2.4c0,0-11.1-1.1-15-3.7l-2.1,2.9c2.1,3.5,5.8,5.8,9.9,6.1
			c7.1,0.7,10.4-2.1,10.4-2.1L51.8,45.6z"/>
	</g>
	<path id="Path_11353" class="st19" d="M961.8,27.9l105.3,35.3c4.6,1.6,8.3,6.6,8.3,11.2l0,0c0,4.6-3.7,7.1-8.3,5.5L961.8,44.6
		c-4.6-1.6-8.3-6.6-8.3-11.2l0,0C953.4,28.8,957.2,26.3,961.8,27.9z"/>
	<path id="Path_11354" class="st19" d="M961.8,0.4l49.1,16.1c4.6,1.6,8.3,6.6,8.3,11.2l0,0c0,4.6-3.7,7.1-8.3,5.5l-49.1-16.1
		c-4.6-1.6-8.3-6.6-8.3-11.2l0,0C953.4,1.5,957.2-1,961.8,0.4z"/>
	<path id="Path_11355" class="st19" d="M762.3,18l39,12.9c4.6,1.6,8.3,6.6,8.3,11.2l0,0c0,4.6-3.7,7.1-8.3,5.5l-39-12.9
		c-4.6-1.6-8.3-6.6-8.3-11.2l0,0C754,19,757.7,16.5,762.3,18z"/>
	<path id="Path_11356" class="st19" d="M613.3,139.6l25.4-12.1c2.2-1.2,3.9-0.3,3.9,2l0,0c0,2.2-1.8,4.9-3.9,6.1l-25.4,12.1
		c-2.2,1.2-3.9,0.3-3.9-2l0,0C609.6,143.1,611.1,140.8,613.3,139.6z"/>
	<path id="Path_11357" class="st19" d="M708.2,138.8l25.4-12.1c2.2-1.2,3.9-0.3,3.9,2l0,0c0,2.2-1.8,4.9-3.9,6.1l-25.4,12.1
		c-2.2,1.2-3.9,0.3-3.9-2l0,0C704.5,142.3,706,140.1,708.2,138.8z"/>
	<g id="Group_3742" transform="translate(669.801 118.832)">
		<g id="Group_3736" transform="translate(25.367 178.238)" class="st20">
			
				<ellipse id="Ellipse_77" transform="matrix(1 -1.710419e-03 1.710419e-03 1 -3.540863e-02 8.224735e-02)" class="st21" cx="48.1" cy="20.7" rx="48" ry="20.7"/>
		</g>
		<g id="Group_3741">
			<path id="Path_11358" class="st22" d="M60.8,201.1c0,0-8.7,2.2-12,2.2c-3.4,0,0,3.4,5.7,3.8s10.9,0.8,12-0.8
				c1.2-1.4-0.3-5.8-0.3-5.8L60.8,201.1z"/>
			<path id="Path_11359" class="st22" d="M84.9,193.2c0,0-8.7,2.2-12,2.2c-3.4,0,0,3.4,5.7,3.8s10.9,0.8,12-0.8
				c1.2-1.4-0.3-5.8-0.3-5.8L84.9,193.2z"/>
			<path id="Path_11360" class="st23" d="M86.7,99.8c0,0,3.2,86.1,3.7,95c-1.6,1.2-3.6,1.6-5.5,1.1c0,0-10.1-56.5-11.7-70.9
				c-1.4-14.6-3.9-19.6-3.9-19.6L86.7,99.8z"/>
			<g id="Group_3737" transform="translate(54.131 98.466)">
				<path id="Path_11361" class="st10" d="M0.5,6.3c0,0-3,49.6,6.1,97.8c0,0,3,1.4,5.5-2c0,0,5.5-84.2,7-96.3
					C20.6-6.2,4.6,3.8,0.5,6.3z"/>
				<path id="Path_11362" class="st10" d="M14,44.5c0,0,5-14.1,9.5-21.6s3.6-18.6,3.6-18.6L10,5.8L14,44.5z"/>
			</g>
			<path id="Path_11363" class="st8" d="M50.8,55.7l-14.9-7.2c0,0-4.5-4.5-5.7-5.4s-8.6-2.8-10-2.5c-1.3,0.3-3.8,2.2-3.2,2.8
				c0.7,0.4,7,3.8,7.2,5.1c0.3,1.3-2.2,3.2-1.3,4.1s2.9-0.9,4.3-0.9c1.3,0,5.1,1.8,5.1,1.8L47,61.8L50.8,55.7z"/>
			<g id="Group_3738" transform="translate(40.337 40.404)">
				
					<linearGradient id="Path_11364_1_" gradientUnits="userSpaceOnUse" x1="9.9025" y1="94.4217" x2="8.9045" y2="94.4217" gradientTransform="matrix(47.4888 0 0 -29.1034 -422.8175 2762.542)">
					<stop  offset="1.000000e-03" style="stop-color:#DF3F3F"/>
					<stop  offset="0.302" style="stop-color:#DD3E3E"/>
					<stop  offset="0.532" style="stop-color:#D43B3C"/>
					<stop  offset="0.739" style="stop-color:#C53738"/>
					<stop  offset="0.93" style="stop-color:#B13232"/>
					<stop  offset="1" style="stop-color:#A82F2F"/>
				</linearGradient>
				<path id="Path_11364" class="st24" d="M42.3,0.8c0,0-2.8-3-7.2,2.8s-8.3,14.3-14.6,13.6S3.9,11.3,3.9,11.3s-4.5,3-3.8,7.5
					c0,0,14.6,10.8,24.3,10.3S44.7,18.6,47,11.6C49.3,4.6,42.3,0.8,42.3,0.8z"/>
			</g>
			
				<linearGradient id="Path_11365_1_" gradientUnits="userSpaceOnUse" x1="49.2892" y1="133.4148" x2="49.2892" y2="132.4148" gradientTransform="matrix(39.8604 0 0 -70.1998 -1894.6028 9405.9521)">
				<stop  offset="1.000000e-03" style="stop-color:#DF3F3F"/>
				<stop  offset="0.26" style="stop-color:#DC3E3E"/>
				<stop  offset="0.509" style="stop-color:#D23B3B"/>
				<stop  offset="0.754" style="stop-color:#C03636"/>
				<stop  offset="0.996" style="stop-color:#A82F30"/>
				<stop  offset="1" style="stop-color:#A82F2F"/>
			</linearGradient>
			<path id="Path_11365" class="st25" d="M52.4,104.6c0.9,4.5,13.7,6.7,21.2,5.5s15.5-4.9,15.3-13.6c0,0,1.2-34.7,1.2-41.6
				c-0.1-4.3-1.6-8.5-4.3-11.8c0,0-4.2-4.7-17.4-2.1c0,0-10.8,2.4-15.7,10.3c0,0-3.4,8.7-2.2,27S52.4,104.6,52.4,104.6z"/>
			<path id="Path_11366" class="st14" d="M78.7,31.5c0,0-1.2,6.6,0,9.7c0.1,1.6-6.4,6.6-12.4,5.3C62.9,45.7,63,44,63,44
				s2.9-4.7,2.5-9.3C65.3,30.1,74.8,30.5,78.7,31.5z"/>
			<g id="Group_3739" transform="translate(56.457 2.373)">
				<path id="Path_11367" class="st8" d="M0,15.7c0,8.6,7,15.7,15.7,15.7c8.6,0,15.7-7,15.7-15.7S24.3,0,15.7,0l0,0
					C7,0,0,6.9,0,15.7C0,15.6,0,15.6,0,15.7z"/>
				<path id="Path_11368" class="st8" d="M0,16.7c0,0-0.1,15.7,3.3,18.8s8.7-3,17.1-4.9c8.4-2.1-6.8-18.4-6.8-18.4L0,16.7z"/>
			</g>
			<path id="Path_11369" class="st8" d="M37.1,70.4c0,0-22-9.7-24.9-11.4s-5.1-7.8-6.3-9.1C4.9,48.6-0.1,45.7,0,47s2.8,3.7,2.8,3.7
				c-1,1.6-1.7,3.3-2.2,5.1c-0.4,2,2.4,6.1,3.8,7.2c1.4,1.1,5,1.4,5,1.4s17.9,12,20.8,12.1C33.3,76.9,37.5,75.3,37.1,70.4z"/>
			
				<linearGradient id="Path_11370_1_" gradientUnits="userSpaceOnUse" x1="50.2426" y1="134.8259" x2="49.2446" y2="134.8259" gradientTransform="matrix(47.5305 0 0 -29.1024 -2326.2451 3988.0483)">
				<stop  offset="1.000000e-03" style="stop-color:#DF3F3F"/>
				<stop  offset="0.302" style="stop-color:#DD3E3E"/>
				<stop  offset="0.532" style="stop-color:#D43B3C"/>
				<stop  offset="0.739" style="stop-color:#C53738"/>
				<stop  offset="0.93" style="stop-color:#B13232"/>
				<stop  offset="1" style="stop-color:#A82F2F"/>
			</linearGradient>
			<path id="Path_11370" class="st26" d="M56.6,50.5c0,0-2.8-3-7.2,2.8c-4.5,5.8-8.3,14.3-14.6,13.6s-16.6-5.8-16.6-5.8
				s-4.5,3-3.8,7.5c0,0,14.6,10.8,24.3,10.3S59,68.3,61.3,61.3S56.6,50.5,56.6,50.5z"/>
			<g id="Group_3740" transform="translate(55.405)">
				<path id="Path_11371" class="st27" d="M7.4,4.9c0,0-5.7,1.2-7.4,9.7c0.8,3.7,5.9,0.8,7.9,5.7s3.2,6.3,3.2,6.3l1.2-0.5
					c0,0,0-3.9,1.7-3.9s2.2,4.6,1.2,6.6C14.4,30,13.3,31,12,31.6c0,0,2.5,4.2,3.7,4.6c1.2,0.5,5.7-0.5,7.4-1.2
					c1.7-0.8,4.9-4.2,7.4-8c2.5-3.9,4.6-10.8,3.2-15.4c-0.7-2.6-2.5-4.7-4.9-5.9c-1.4-1.8-3.3-3.1-5.4-3.9
					C17.8,0.2,11.9,1.3,7.4,4.9z"/>
				<path id="Path_11372" class="st27" d="M6.1,15.3c2.3,3.1,3,7.2,1.8,10.9c-1.8,6.4,0.8,6.4,3.4,14.7s-4.9,18,2.2,30.1
					c7.1,12,26.3,10.5,35-1.4S43.7,49,43.3,38s8.3-17.4-1.4-24.9S27.9-2.6,15.9,0.8C3.8,4,0.8,10,6.1,15.3z"/>
			</g>
		</g>
	</g>
</g>
</svg>
