<svg width="200" height="200" viewBox="0 0 200 200"
    xmlns="http://www.w3.org/2000/svg" fill="currentColor">
    <path d="M198.366 29.1101C197.746 28.3459 196.965 27.7286 196.078 27.3025C195.191 26.8763 194.221 26.6519 193.237 26.6454H172.254L173.253 6.99442C173.294 6.0891 173.149 5.18499 172.829 4.33741C172.508 3.48982 172.018 2.71659 171.388 2.06502C170.769 1.41552 170.025 0.897812 169.201 0.542958C168.376 0.188105 167.489 0.00342446 166.592 0H33.3647C32.4674 0.00342446 31.58 0.188105 30.7558 0.542958C29.9316 0.897812 29.1877 1.41552 28.5685 2.06502C27.9387 2.71659 27.4484 3.48982 27.1277 4.33741C26.807 5.18499 26.6626 6.0891 26.7033 6.99442L27.7025 26.9785H6.71929C5.73536 26.985 4.7651 27.2094 3.87823 27.6355C2.99136 28.0617 2.20991 28.679 1.59005 29.4432C0.984975 30.1536 0.535921 30.9832 0.271987 31.8783C0.00805262 32.7734 -0.0648721 33.7139 0.0579377 34.639L11.3822 90.5277C12.2901 95.0539 14.7369 99.1261 18.307 102.053C21.8771 104.979 26.3503 106.579 30.9666 106.582H36.9618C41.1189 115.439 47.1017 123.318 54.5179 129.701C61.9341 136.084 70.616 140.827 79.9941 143.619V159.872H73.3328C71.8111 159.828 70.3201 160.306 69.1081 161.227C67.8961 162.149 67.0361 163.457 66.6714 164.935L60.0101 191.58C59.7606 192.564 59.7389 193.591 59.9467 194.584C60.1545 195.576 60.5863 196.509 61.2091 197.309C61.8569 198.13 62.689 198.787 63.638 199.227C64.587 199.667 65.6262 199.877 66.6714 199.84H133.285C134.297 199.846 135.296 199.621 136.208 199.182C137.12 198.744 137.92 198.103 138.547 197.309C139.17 196.509 139.602 195.576 139.81 194.584C140.018 193.591 139.996 192.564 139.746 191.58L133.085 164.935C132.728 163.491 131.898 162.208 130.727 161.29C129.556 160.373 128.111 159.874 126.624 159.872H119.962V143.619C129.34 140.827 138.022 136.084 145.438 129.701C152.855 123.318 158.837 115.439 162.995 106.582H168.99C173.606 106.579 178.079 104.979 181.649 102.053C185.219 99.1261 187.666 95.0539 188.574 90.5277L199.898 34.639C200.071 33.6615 200.023 32.6578 199.758 31.7012C199.493 30.7446 199.017 29.8593 198.366 29.1101ZM30.9666 93.2589C29.4082 93.2903 27.8881 92.7742 26.671 91.8005C25.4538 90.8268 24.6167 89.4571 24.3052 87.9298L14.8461 39.9681H28.1688L30.1672 80.3359C30.4757 84.6957 31.1667 89.02 32.2323 93.2589H30.9666ZM124.758 186.518H75.198L78.5286 173.195H121.428L124.758 186.518ZM106.64 159.872H93.3168V146.55C95.5151 146.55 97.7133 146.883 99.9782 146.883C102.243 146.883 104.441 146.883 106.64 146.55V159.872ZM99.9782 133.227C85.5595 133.231 71.6875 127.709 61.217 117.796C50.7464 107.883 44.4738 94.3336 43.6898 79.9362L40.3591 13.3227H159.93L156.6 79.9362C155.813 94.3912 149.493 107.989 138.952 117.911C128.41 127.832 114.454 133.317 99.9782 133.227ZM175.518 87.9298C175.206 89.4571 174.369 90.8268 173.152 91.8005C171.935 92.7742 170.415 93.2903 168.857 93.2589H167.591C168.589 89.014 169.213 84.6898 169.456 80.3359L171.588 39.9681H184.91L175.518 87.9298Z"/>
</svg>
