<svg width="39" height="47" viewBox="0 0 39 47" fill="none" xmlns="http://www.w3.org/2000/svg">
<path d="M31.856 25.113C31.8028 19.3523 36.6938 16.5497 36.9174 16.4192C34.1475 12.4817 29.8541 11.9437 28.3454 11.9008C24.7395 11.5308 21.2417 14.0045 19.4049 14.0045C17.5313 14.0045 14.7027 11.9365 11.6541 11.9973C7.73106 12.0563 4.06099 14.2708 2.04814 17.7097C-2.10589 24.7216 0.992215 35.0258 4.97209 40.6935C6.96295 43.4693 9.28928 46.5686 12.3342 46.4596C15.3132 46.3398 16.4259 44.6079 20.0208 44.6079C23.5827 44.6079 24.6277 46.4596 27.7331 46.3899C30.9302 46.3398 32.943 43.6016 34.8642 40.8008C37.1649 37.6192 38.0888 34.486 38.1255 34.3251C38.0503 34.3001 31.9165 32.0176 31.856 25.113Z" fill="white"/>
<path d="M25.9897 8.17233C27.5919 6.21873 28.6882 3.56091 28.3839 0.86377C26.0649 0.963862 23.1648 2.42772 21.4947 4.33842C20.0172 6.02212 18.6973 8.78182 19.0382 11.3771C21.6432 11.5665 24.3178 10.0955 25.9897 8.17233Z" fill="white"/>
</svg>
