<svg version="1.1" id="Layer_1" xmlns="http://www.w3.org/2000/svg" xmlns:xlink="http://www.w3.org/1999/xlink" x="0px" y="0px"
	 viewBox="0 0 512 512" style="enable-background:new 0 0 512 512;" xml:space="preserve">
<g>
	<path class="st0" d="M274.2,135.4c-2.4-2.3-5.1-4.1-8.2-5.4c-3.2-1.4-6.5-2-10-2.1h-2.6c-2.4,0.1-4.7,0.6-6.9,1.5l-4.9,2.8
		l-3.3,2.3l-76.8,73.2c-10.3,9.8-10.7,26-0.9,36.2c9.8,10.3,26,10.6,36.2,0.9l33.5-31.5v144.9c0,14.1,11.5,25.6,25.6,25.6
		c14.1,0,25.6-11.5,25.6-25.6V215.3l33,33.3c10,10,26.2,10.1,36.2,0.2l0.1-0.2c10-9.9,10.1-26.2,0.1-36.2l-0.1-0.1L274.2,135.4z"/>
	<path class="st0" d="M256,0C114.6,0,0,114.6,0,256s114.6,256,256,256s256-114.6,256-256S397.4,0,256,0z M256,460.8
		c-113.1,0-204.8-91.7-204.8-204.8S142.9,51.2,256,51.2S460.8,142.9,460.8,256S369.1,460.8,256,460.8z"/>
</g>
</svg>
