<svg width="16" height="16" viewBox="0 0 16 16" fill="none" xmlns="http://www.w3.org/2000/svg">
<path d="M11.1333 5.33333C10.8618 4.56305 10.1493 4.03523 9.33329 4H6.66663C5.56206 4 4.66663 4.89543 4.66663 6C4.66663 7.10457 5.56206 8 6.66663 8H9.33329C10.4379 8 11.3333 8.89543 11.3333 10C11.3333 11.1046 10.4379 12 9.33329 12H6.66663C5.85067 11.9648 5.13811 11.4369 4.86663 10.6667" stroke="#919CA2" stroke-width="1.25" stroke-linecap="round" stroke-linejoin="round"/>
<path d="M8.74996 2C8.74996 1.58579 8.41417 1.25 7.99996 1.25C7.58575 1.25 7.24996 1.58579 7.24996 2H8.74996ZM7.24996 4C7.24996 4.41421 7.58575 4.75 7.99996 4.75C8.41417 4.75 8.74996 4.41421 8.74996 4H7.24996ZM8.74996 12C8.74996 11.5858 8.41417 11.25 7.99996 11.25C7.58575 11.25 7.24996 11.5858 7.24996 12H8.74996ZM7.24996 14C7.24996 14.4142 7.58575 14.75 7.99996 14.75C8.41417 14.75 8.74996 14.4142 8.74996 14H7.24996ZM7.24996 2V4H8.74996V2H7.24996ZM7.24996 12V14H8.74996V12H7.24996Z" fill="#919CA2"/>
</svg>
