<svg width="22" height="22" viewBox="0 0 22 22" fill="none" xmlns="http://www.w3.org/2000/svg">
<g opacity="0.5">
<path d="M11 2C6.03762 2 2 6.03763 2 11C2 15.9624 6.03762 20 11 20C11.2238 20 11.4384 19.9111 11.5966 19.7529C11.7549 19.5946 11.8437 19.38 11.8437 19.1562C11.8437 18.9325 11.7549 18.7179 11.5966 18.5596C11.4384 18.4014 11.2238 18.3125 11 18.3125C6.968 18.3125 3.6875 15.032 3.6875 11C3.6875 6.968 6.968 3.6875 11 3.6875C15.032 3.6875 18.3125 6.968 18.3125 11C18.3125 11.6986 18.2135 12.3882 18.0177 13.0497C17.885 13.4986 17.4271 13.8125 16.9062 13.8125C16.1311 13.8125 15.5 13.1814 15.5 12.4062V7.34375C15.5 7.11997 15.4111 6.90536 15.2529 6.74713C15.0946 6.58889 14.88 6.5 14.6562 6.5C14.4325 6.5 14.2179 6.58889 14.0596 6.74713C13.9014 6.90536 13.8125 7.11997 13.8125 7.34375V7.51587C13.0201 6.86316 12.0266 6.50429 11 6.5C8.51825 6.5 6.5 8.51825 6.5 11C6.5 13.4818 8.51825 15.5 11 15.5C11.6198 15.4987 12.2325 15.3686 12.7993 15.118C13.3662 14.8674 13.8748 14.5017 14.2929 14.0443C14.5692 14.4887 14.9541 14.8554 15.4113 15.1101C15.8685 15.3648 16.3829 15.499 16.9062 15.5C18.1696 15.5 19.2924 14.69 19.6366 13.529C19.8781 12.7077 20.0005 11.856 20 11C20 6.03763 15.9624 2 11 2ZM11 13.8125C9.44975 13.8125 8.1875 12.5503 8.1875 11C8.1875 9.44975 9.44975 8.1875 11 8.1875C12.5502 8.1875 13.8125 9.44975 13.8125 11C13.8125 12.5503 12.5502 13.8125 11 13.8125Z" fill="black"/>
</g>
</svg>
