<svg xmlns="http://www.w3.org/2000/svg" viewBox="0 0 50 50" fill="currentColor">
  <path d="M13.8 48.75h24a1.36 1.36 0 001.35-1.35V35.52l.06-.07a6.16 6.16 0 001.54-4.05V5.8a4.55 4.55 0 00-4.55-4.55 4.49 4.49 0 00-3 1.17l-.2.15-.17-.15a4.51 4.51 0 00-6.06 0l-.17.15-.17-.15a4.51 4.51 0 00-6.06 0l-.17.15-.2-.15a4.49 4.49 0 00-3-1.17 4.55 4.55 0 00-4.55 4.55v9l-.12.07a6.17 6.17 0 00-3.08 5.33v11.2a6.17 6.17 0 003.08 5.32l.12.07V47.4a1.36 1.36 0 001.35 1.35zM34.35 5.8a1.85 1.85 0 013.7 0v12.8a1.85 1.85 0 01-3.7 0V5.8zM28 5.8a1.85 1.85 0 113.7 0v12.8a1.85 1.85 0 11-3.7 0V5.8zm-6.4 0a1.85 1.85 0 113.7 0v8.25h-3.7V5.8zm-6.4 0a1.85 1.85 0 013.7 0v8.25h-3.75l.05-8.25zM12 31.4V20.2a3.46 3.46 0 013.4-3.45h8.25v1.85a1.85 1.85 0 01-1.85 1.85H17a1.35 1.35 0 000 2.7h3.2a5.06 5.06 0 015.05 5.05v3.2a1.35 1.35 0 002.7 0v-3.2a7.71 7.71 0 00-2.9-6l-.21-.2.16-.2a4.12 4.12 0 00.56-.69l.21-.31.21.31a4.53 4.53 0 006.82.87l.17-.15.17.15a4.52 4.52 0 004.55.9l.33-.11v8.63a3.46 3.46 0 01-3.45 3.45H33a1.35 1.35 0 100 2.7h3.45v8.5h-21.3v-8.5h3.45a1.35 1.35 0 000-2.7h-3.2A3.46 3.46 0 0112 31.4z"/>
</svg>