<svg xmlns="http://www.w3.org/2000/svg" viewBox="0 0 50 50" fill="currentColor">
  <path d="M49.14 30.32l-6.58-20.9a5.79 5.79 0 00-7.21-3.83 1.37 1.37 0 00.8 2.63 3.03 3.03 0 013.77 2.01v.01l4.7 14.96A10.3 10.3 0 0029.34 33H20.7a10.3 10.3 0 00-15.28-7.6l4.77-15.15h0a3.03 3.03 0 013.78-2.02 1.37 1.37 0 00.79-2.63 5.79 5.79 0 00-7.2 3.84L.97 30.33a1.07 1.07 0 00-.04.18 10.3 10.3 0 1019.75 5.23h8.7a10.3 10.3 0 0020.48-1.56 10.13 10.13 0 00-.73-3.86zm-38.65 11.6a7.55 7.55 0 117.55-7.56 7.55 7.55 0 01-7.55 7.55zm29.1-.2a7.55 7.55 0 117.54-7.54 7.55 7.55 0 01-7.55 7.55h0z"/>
</svg>