<svg width="22" height="22" viewBox="0 0 22 22" fill="none" xmlns="http://www.w3.org/2000/svg">
<g opacity="0.5">
<path fill-rule="evenodd" clip-rule="evenodd" d="M11 1.14575C7.58725 1.14575 4.8125 3.94525 4.8125 7.39833C4.8125 8.568 5.32767 10.0191 6.0775 11.4665C7.72842 14.6538 10.4784 17.8639 10.4784 17.8639C10.543 17.9391 10.623 17.9994 10.713 18.0408C10.803 18.0821 10.9009 18.1035 11 18.1035C11.0991 18.1035 11.197 18.0821 11.287 18.0408C11.377 17.9994 11.457 17.9391 11.5216 17.8639C11.5216 17.8639 14.2716 14.6538 15.9225 11.4665C16.6723 10.0191 17.1875 8.568 17.1875 7.39833C17.1875 3.94525 14.4128 1.14575 11 1.14575ZM11 4.81242C10.3432 4.83013 9.71925 5.10349 9.26096 5.57431C8.80268 6.04512 8.54624 6.67622 8.54624 7.33325C8.54624 7.99029 8.80268 8.62138 9.26096 9.0922C9.71925 9.56301 10.3432 9.83637 11 9.85408C11.6568 9.83637 12.2807 9.56301 12.739 9.0922C13.1973 8.62138 13.4538 7.99029 13.4538 7.33325C13.4538 6.67622 13.1973 6.04512 12.739 5.57431C12.2807 5.10349 11.6568 4.83013 11 4.81242Z" fill="black"/>
<path fill-rule="evenodd" clip-rule="evenodd" d="M15.3854 15.9289C16.1307 16.1526 16.7448 16.4294 17.1692 16.7539C17.4442 16.9629 17.6459 17.1673 17.6459 17.4166C17.6459 17.5633 17.5625 17.6962 17.4452 17.8291C17.2508 18.0482 16.9621 18.2453 16.6046 18.4286C15.3414 19.0749 13.2991 19.4791 11.0001 19.4791C8.70108 19.4791 6.65875 19.0749 5.39558 18.4286C5.03808 18.2453 4.74933 18.0482 4.555 17.8291C4.43766 17.6962 4.35425 17.5633 4.35425 17.4166C4.35425 17.1673 4.55591 16.9629 4.83091 16.7539C5.25533 16.4294 5.8695 16.1526 6.61475 15.9289C6.78943 15.8764 6.93609 15.7566 7.02247 15.596C7.10886 15.4353 7.12789 15.2469 7.07537 15.0723C7.02286 14.8976 6.90311 14.7509 6.74246 14.6645C6.58181 14.5782 6.39343 14.5591 6.21875 14.6116C5.08391 14.9536 4.20208 15.422 3.67225 15.9399C3.20658 16.3936 2.97925 16.9015 2.97925 17.4166C2.97925 18.0601 3.34316 18.7018 4.08291 19.2371C5.38091 20.1758 7.98791 20.8541 11.0001 20.8541C14.0122 20.8541 16.6192 20.1758 17.9172 19.2371C18.657 18.7018 19.0209 18.0601 19.0209 17.4166C19.0209 16.9015 18.7936 16.3936 18.3279 15.9399C17.7981 15.422 16.9162 14.9536 15.7814 14.6116C15.6949 14.5856 15.6042 14.5769 15.5143 14.586C15.4244 14.5951 15.3372 14.6218 15.2577 14.6645C15.1782 14.7073 15.1078 14.7653 15.0507 14.8353C14.9936 14.9052 14.9508 14.9858 14.9248 15.0723C14.8988 15.1588 14.8901 15.2495 14.8992 15.3394C14.9082 15.4292 14.9349 15.5164 14.9777 15.596C15.0205 15.6755 15.0785 15.7459 15.1484 15.803C15.2184 15.8601 15.2989 15.9029 15.3854 15.9289Z" fill="black"/>
</g>
</svg>
