<svg width="25" height="23" viewBox="0 0 25 23" fill="none" xmlns="http://www.w3.org/2000/svg">
<path d="M12.3081 17.7734C13.7859 17.7734 15.0277 17.2706 16.0334 16.2649C17.0391 15.2592 17.5419 14.0174 17.5419 12.5396C17.5419 11.0413 17.0391 9.79447 16.0334 8.79902C15.0277 7.80357 13.7859 7.30585 12.3081 7.30585C10.8098 7.30585 9.56295 7.80357 8.56751 8.79902C7.57206 9.79447 7.07434 11.0413 7.07434 12.5396C7.07434 14.0174 7.57206 15.2592 8.56751 16.2649C9.56295 17.2706 10.8098 17.7734 12.3081 17.7734ZM1.84054 22.2684C1.34795 22.2684 0.916928 22.0836 0.547483 21.7142C0.178039 21.3447 -0.00668335 20.9137 -0.00668335 20.4211V4.62738C-0.00668335 4.15531 0.178039 3.72942 0.547483 3.34972C0.916928 2.97001 1.34795 2.78016 1.84054 2.78016H6.36623L8.61369 0.101685H16.0026L18.25 2.78016H22.7757C23.2478 2.78016 23.6737 2.97001 24.0534 3.34972C24.4331 3.72942 24.6229 4.15531 24.6229 4.62738V20.4211C24.6229 20.9137 24.4331 21.3447 24.0534 21.7142C23.6737 22.0836 23.2478 22.2684 22.7757 22.2684H1.84054Z" fill="black"/>
</svg>
