<svg width="44" height="47" viewBox="0 0 44 47" fill="none" xmlns="http://www.w3.org/2000/svg">
<path d="M1.07429 2.06768C0.556416 2.59656 0.256714 3.41997 0.256714 4.48632V42.5224C0.256714 43.5887 0.556416 44.4122 1.07429 44.941L1.2021 45.0571L23.0496 23.7516V23.2485L1.2021 1.94299L1.07429 2.06768Z" fill="white"/>
<path d="M32.9684 30.8569L25.694 23.7515V23.2484L32.9772 16.143L33.1403 16.2355L41.7656 21.0233C44.2271 22.382 44.2271 24.6179 41.7656 25.9853L33.1403 30.7645L32.9684 30.8569Z" fill="white"/>
<path d="M31.8181 32.0876L24.3718 24.8231L2.39648 46.264C3.21406 47.1025 4.5473 47.2035 6.06345 46.3651L31.8181 32.0876Z" fill="white"/>
<path d="M31.8181 14.9125L6.06345 0.634987C4.5473 -0.194874 3.21406 -0.0938325 2.39648 0.744631L24.3718 22.177L31.8181 14.9125Z" fill="white"/>
</svg>
