<svg width="21" height="20" viewBox="0 0 21 20" fill="none" xmlns="http://www.w3.org/2000/svg">
<path d="M7.11872 6.38128C6.77701 6.03957 6.22299 6.03957 5.88128 6.38128C5.53957 6.72299 5.53957 7.27701 5.88128 7.61872L7.11872 6.38128ZM11.5 12H12.375C12.375 11.7679 12.2828 11.5454 12.1187 11.3813L11.5 12ZM11.5 19V19.875C11.9832 19.875 12.375 19.4832 12.375 19H11.5ZM6.5 19H5.625C5.625 19.4832 6.01675 19.875 6.5 19.875V19ZM7.375 15C7.375 14.5168 6.98325 14.125 6.5 14.125C6.01675 14.125 5.625 14.5168 5.625 15H7.375ZM6.5 19.875C6.98325 19.875 7.375 19.4832 7.375 19C7.375 18.5168 6.98325 18.125 6.5 18.125V19.875ZM1.5 19H0.625C0.625 19.4832 1.01675 19.875 1.5 19.875L1.5 19ZM1.5 12L0.881282 11.3813C0.717187 11.5454 0.625 11.7679 0.625 12H1.5ZM7.11872 7.61872C7.46043 7.27701 7.46043 6.72299 7.11872 6.38128C6.77701 6.03957 6.22299 6.03957 5.88128 6.38128L7.11872 7.61872ZM6.625 8C6.625 8.48325 7.01675 8.875 7.5 8.875C7.98325 8.875 8.375 8.48325 8.375 8H6.625ZM19.5 19V19.875C19.9832 19.875 20.375 19.4832 20.375 19H19.5ZM11.5 18.125C11.0168 18.125 10.625 18.5168 10.625 19C10.625 19.4832 11.0168 19.875 11.5 19.875V18.125ZM5.88128 7.61872L10.8813 12.6187L12.1187 11.3813L7.11872 6.38128L5.88128 7.61872ZM10.625 12V19H12.375V12H10.625ZM11.5 18.125H6.5V19.875H11.5V18.125ZM7.375 19V15H5.625V19H7.375ZM6.5 18.125H1.5V19.875H6.5V18.125ZM2.375 19V12H0.625V19H2.375ZM2.11872 12.6187L7.11872 7.61872L5.88128 6.38128L0.881282 11.3813L2.11872 12.6187ZM8.375 8V2H6.625V8H8.375ZM8.375 2C8.375 1.93096 8.43096 1.875 8.5 1.875V0.125C7.46447 0.125 6.625 0.964466 6.625 2H8.375ZM8.5 1.875H18.5V0.125H8.5V1.875ZM18.5 1.875C18.569 1.875 18.625 1.93096 18.625 2H20.375C20.375 0.964466 19.5355 0.125 18.5 0.125V1.875ZM18.625 2V19H20.375V2H18.625ZM19.5 18.125H11.5V19.875H19.5V18.125Z" fill="#707070"/>
</svg>
