<svg xmlns="http://www.w3.org/2000/svg" viewBox="0 0 50 50" fill="currentColor">
  <path stroke="null" d="M49.78 19.2a1.38 1.38 0 00-1.11-.93l-15.5-2.2-6.98-14.03a1.38 1.38 0 00-1.23-.77h0a1.37 1.37 0 00-1.24.78l-6.88 14.07-15.5 2.3a1.38 1.38 0 00-1.12.94 1.36 1.36 0 00.36 1.4l11.25 10.91-2.6 15.44a1.38 1.38 0 001.35 1.62 1.3 1.3 0 00.64-.17l13.84-7.33 13.89 7.25a1.4 1.4 0 00.63.15h0a1.38 1.38 0 001.38-1.37 1.08 1.08 0 00-.04-.32l-2.69-15.35 11.18-10.97a1.35 1.35 0 00.37-1.41zM35.8 30.14a1.36 1.36 0 00-.39 1.22l2.34 13.4-12.06-6.3a1.4 1.4 0 00-1.29 0L12.4 44.82l2.25-13.41a1.38 1.38 0 00-.4-1.22L4.5 20.73l13.46-2a1.37 1.37 0 001.03-.76l5.98-12.2 6.05 12.17a1.4 1.4 0 001.04.76l13.47 1.91-9.72 9.52z"/>
</svg>