<svg width="22" height="22" viewBox="0 0 22 22" fill="none" xmlns="http://www.w3.org/2000/svg">
<g opacity="0.5">
<path d="M16.432 14.136C15.5245 13.3093 14.6036 12.8085 13.7073 13.634L13.1721 14.1329C12.7805 14.495 12.0524 16.1871 9.23742 12.738C6.42302 9.29316 8.09783 8.7568 8.49 8.39777L9.02814 7.89825C9.91977 7.07092 9.58328 6.02943 8.94021 4.95734L8.55214 4.30796C7.90613 3.23837 7.20268 2.53592 6.30871 3.362L5.82567 3.81156C5.43057 4.11814 4.32615 5.11468 4.05825 7.00786C3.73583 9.27942 4.75291 11.8807 7.0831 14.7348C9.41035 17.5902 11.6889 19.0244 13.8474 18.9994C15.6412 18.9788 16.7245 17.9536 17.0633 17.5808L17.5481 17.1306C18.4397 16.3052 17.8858 15.4647 16.9777 14.6361L16.432 14.136Z" fill="#030104"/>
</g>
</svg>
