<svg width="24" height="25" viewBox="0 0 24 25" fill="none" xmlns="http://www.w3.org/2000/svg">
<path d="M17 20.5H22V18.5C22 16.8431 20.6569 15.5 19 15.5C18.0444 15.5 17.1931 15.9468 16.6438 16.6429M17 20.5H7M17 20.5V18.5C17 17.8438 16.8736 17.217 16.6438 16.6429M7 20.5H2V18.5C2 16.8431 3.34315 15.5 5 15.5C5.95561 15.5 6.80686 15.9468 7.35625 16.6429M7 20.5V18.5C7 17.8438 7.12642 17.217 7.35625 16.6429M7.35625 16.6429C8.0935 14.801 9.89482 13.5 12 13.5C14.1052 13.5 15.9065 14.801 16.6438 16.6429M15 7.5C15 9.15685 13.6569 10.5 12 10.5C10.3431 10.5 9 9.15685 9 7.5C9 5.84315 10.3431 4.5 12 4.5C13.6569 4.5 15 5.84315 15 7.5ZM21 10.5C21 11.6046 20.1046 12.5 19 12.5C17.8954 12.5 17 11.6046 17 10.5C17 9.39543 17.8954 8.5 19 8.5C20.1046 8.5 21 9.39543 21 10.5ZM7 10.5C7 11.6046 6.10457 12.5 5 12.5C3.89543 12.5 3 11.6046 3 10.5C3 9.39543 3.89543 8.5 5 8.5C6.10457 8.5 7 9.39543 7 10.5Z" stroke="#0052D4" stroke-width="2" stroke-linecap="round" stroke-linejoin="round"/>
</svg>
